<svg width="190" height="210" viewBox="0 0 190 210" fill="none" xmlns="http://www.w3.org/2000/svg">
<path d="M1.02486 183.652C0.643554 183.404 0.346948 183.052 0.172821 182.64C-0.00130665 182.228 -0.0450782 181.775 0.0470827 181.339L23.474 80.7724C23.7559 79.8 24.3921 78.9598 25.2644 78.4079L164.663 0.358815C165.089 0.140188 165.563 0.022184 166.045 0.01439C166.527 0.00659598 167.004 0.109232 167.438 0.313959C167.813 0.563455 168.104 0.914806 168.275 1.32401C168.445 1.73322 168.487 2.18209 168.396 2.61442L144.962 103.181C144.68 104.155 144.041 104.996 143.165 105.546L3.79962 183.595C3.37439 183.815 2.90149 183.936 2.41935 183.946C1.93721 183.956 1.45944 183.855 1.02486 183.652Z" fill="#04C7B6"/>
<path d="M26.1587 82.2578L2.73182 182.863C2.53362 183.722 3.00929 184.068 3.80208 183.625L143.201 105.576C144.076 105.026 144.715 104.186 144.998 103.212L168.398 2.61314C168.597 1.74806 168.121 1.40844 167.328 1.85059L27.9293 79.8997C27.0662 80.4538 26.4376 81.2909 26.1587 82.2578Z" fill="#DDDDDD"/>
<path d="M170.093 1.79912C169.659 1.59537 169.182 1.49383 168.7 1.50274C168.218 1.51164 167.744 1.63075 167.319 1.85038L27.9199 79.8994C27.5155 80.1533 27.1904 80.5096 26.9796 80.9297C26.7689 81.3499 26.6805 81.8179 26.7241 82.2832L45.0706 206.848C45.1601 207.32 45.3459 207.77 45.617 208.172C45.8881 208.573 46.2392 208.918 46.6495 209.187C47.082 209.392 47.5586 209.494 48.04 209.485C48.5214 209.476 48.9936 209.356 49.4177 209.135L188.79 131.106C189.195 130.851 189.521 130.494 189.732 130.072C189.943 129.651 190.031 129.182 189.986 128.715L171.699 4.13803C171.606 3.66371 171.417 3.21224 171.141 2.81044C170.865 2.40864 170.509 2.06472 170.093 1.79912Z" fill="#F0F0F0"/>
<path d="M48.2554 208.344L48.2548 208.312L48.2502 208.281L29.9322 83.7301C29.8996 83.3613 29.9706 82.9902 30.1387 82.6559C30.3072 82.321 30.5673 82.0348 30.893 81.8294L170.281 3.78637L170.308 3.7711L170.333 3.75254C170.413 3.69416 170.508 3.65725 170.61 3.64753C170.712 3.6378 170.815 3.65586 170.905 3.69882C170.996 3.74173 171.07 3.80719 171.122 3.88604C171.173 3.96473 171.2 4.05428 171.202 4.1448L171.202 4.17803L171.207 4.2109L189.492 128.775C189.525 129.144 189.455 129.515 189.288 129.849C189.12 130.184 188.861 130.47 188.537 130.676L49.1761 208.699L49.1488 208.715L49.1236 208.733C49.0447 208.791 48.9492 208.828 48.8475 208.838C48.7458 208.848 48.6438 208.83 48.5531 208.788C48.4626 208.745 48.3881 208.68 48.3363 208.602C48.2846 208.524 48.2572 208.434 48.2554 208.344Z" fill="#E2E9E8" stroke="#58B7AF"/>
<path d="M2.8551 182.299L38.5306 162.313L39.5678 169.554L23.21 178.717C23.21 178.717 18.8496 180.217 17.1187 180.64C15.3878 181.063 2.8551 182.299 2.8551 182.299Z" fill="#E0E0E0"/>
<path d="M39.587 169.56L44.9383 205.957L23.2291 178.723L39.587 169.56Z" fill="white"/>
<path d="M44.2966 207.168L24.8402 182.657C24.5172 182.292 24.109 182.006 23.6493 181.825C23.1897 181.643 22.692 181.57 22.1976 181.613L4.00308 184.176C2.97846 184.282 1.94395 184.1 1.02352 183.651C0.283583 183.24 0.409107 182.766 1.30099 182.6L22.2108 178.697C22.7011 178.626 23.2021 178.678 23.6651 178.85C24.1282 179.022 24.5376 179.307 24.8534 179.678L47.0053 208.642C47.547 209.353 47.3885 209.59 46.6485 209.174C45.7566 208.634 44.9621 207.957 44.2966 207.168Z" fill="#1EA096"/>
<path d="M168.429 2.11993C168.426 1.75887 168.332 1.40395 168.155 1.08654C167.977 0.769133 167.722 0.499015 167.411 0.300066C166.977 0.0983046 166.499 -0.00213105 166.018 0.00676955C165.536 0.0156701 165.063 0.133662 164.637 0.351331L25.2379 78.4004C24.8128 78.6587 24.4428 78.9937 24.1478 79.3872C23.8203 79.7965 23.58 80.2648 23.4409 80.7649L20.1376 94.9714L22.8198 96.4645L165.092 16.8134L168.396 2.61334C168.427 2.45073 168.44 2.2853 168.435 2.11993H168.429Z" fill="#01A395"/>
<path opacity="0.2" d="M168.401 2.61314C168.599 1.74806 168.123 1.40844 167.331 1.85059L27.9318 79.8996C27.0612 80.4504 26.4253 81.288 26.1414 82.2578L22.8381 96.4642L165.098 16.8132L168.401 2.61314Z" fill="#04C7B6"/>
<path opacity="0.4" d="M168.427 2.11371C168.361 1.63311 167.932 1.47291 167.317 1.85098L27.9183 79.8936C27.4903 80.1508 27.1196 80.4885 26.8283 80.8869L24.146 79.381C24.441 78.9875 24.811 78.6525 25.2361 78.3942L164.635 0.345106C165.061 0.127436 165.534 0.00944455 166.016 0.000543949C166.498 -0.00835665 166.975 0.0920815 167.41 0.293843C167.72 0.492792 167.976 0.76291 168.153 1.08032C168.33 1.39772 168.425 1.75264 168.427 2.11371Z" fill="#04C7B6"/>
<path d="M171.838 5.32991L171.699 4.13803C171.689 4.07972 171.676 4.02196 171.66 3.96501C171.663 3.94803 171.663 3.93072 171.66 3.91375C171.435 3.05145 170.892 2.29906 170.134 1.79912C169.7 1.59537 169.222 1.49383 168.74 1.50274C168.258 1.51164 167.785 1.63075 167.359 1.85038L27.9601 79.8994C27.5381 80.1529 27.2044 80.5235 27.0022 80.9632C26.7958 81.3725 26.7133 81.8302 26.7643 82.2832L29.407 100.129L32.0892 101.635L174.296 21.9906L171.838 5.32991Z" fill="#68DDD3"/>
<path opacity="0.1" d="M32.0589 101.63L29.3767 100.124L26.734 82.2776C26.683 81.8246 26.7655 81.3669 26.9719 80.9575L29.6608 82.457C29.4496 82.8649 29.3647 83.3233 29.4163 83.777L32.0589 101.63Z" fill="black"/>
<path opacity="0.4" d="M171.62 3.91375C171.582 3.75231 171.503 3.6027 171.39 3.47869C171.277 3.35467 171.133 3.26023 170.973 3.20407C170.812 3.14791 170.64 3.13182 170.471 3.15729C170.302 3.18277 170.143 3.24899 170.008 3.34985L30.6089 81.3989C30.1853 81.6505 29.8511 82.0217 29.6509 82.4626L27.0149 80.9632C27.2188 80.5229 27.552 80.1506 27.9728 79.893L167.372 1.85038C167.797 1.63075 168.271 1.51164 168.753 1.50274C169.235 1.49383 169.712 1.59537 170.146 1.79912C170.887 2.30634 171.411 3.0583 171.62 3.91375Z" fill="#9E63FF"/>
<path d="M69.061 187.714L67.3962 176.366C67.3938 176.218 67.3496 176.074 67.2685 175.948C67.1874 175.823 67.0724 175.722 66.9361 175.656C66.7998 175.59 66.6475 175.561 66.4956 175.574C66.3437 175.586 66.1982 175.638 66.0749 175.725L53.9254 182.53C53.598 182.733 53.3351 183.02 53.166 183.36C52.9969 183.699 52.9282 184.077 52.9674 184.452L54.6257 195.827C54.6257 195.975 54.6684 196.121 54.749 196.248C54.8296 196.374 54.945 196.477 55.0822 196.543C55.2193 196.61 55.3729 196.638 55.5257 196.624C55.6784 196.611 55.8243 196.557 55.947 196.467L68.0965 189.662C68.4299 189.458 68.6974 189.167 68.868 188.823C69.0386 188.478 69.1055 188.094 69.061 187.714Z" fill="#68DDD3"/>
<path d="M87.8516 177.205L86.1801 165.863C86.1801 165.714 86.1374 165.568 86.0568 165.442C85.9761 165.315 85.8608 165.213 85.7236 165.147C85.5864 165.08 85.4329 165.052 85.2801 165.065C85.1274 165.079 84.9815 165.133 84.8588 165.222L72.7093 172.021C72.3825 172.225 72.12 172.512 71.951 172.851C71.7819 173.191 71.7128 173.568 71.7513 173.943L73.4228 185.292C73.4228 185.441 73.4655 185.587 73.5461 185.713C73.6268 185.84 73.7421 185.942 73.8793 186.008C74.0165 186.075 74.17 186.103 74.3228 186.09C74.4755 186.076 74.6214 186.022 74.7441 185.933L86.8936 179.127C87.2215 178.925 87.4848 178.638 87.654 178.298C87.8232 177.959 87.8916 177.58 87.8516 177.205Z" fill="white"/>
<path d="M106.641 166.696L104.97 155.354C104.97 155.205 104.927 155.059 104.846 154.932C104.766 154.806 104.65 154.704 104.513 154.637C104.376 154.571 104.222 154.542 104.07 154.556C103.917 154.569 103.771 154.623 103.648 154.713L91.4921 161.524C91.1653 161.728 90.9029 162.015 90.7338 162.355C90.5648 162.694 90.4957 163.072 90.5342 163.447L92.2056 174.795C92.2056 174.944 92.2484 175.09 92.329 175.216C92.4096 175.343 92.525 175.445 92.6622 175.512C92.7993 175.578 92.9529 175.606 93.1056 175.593C93.2584 175.58 93.4043 175.525 93.527 175.436L105.676 168.631C106.008 168.428 106.274 168.139 106.444 167.797C106.615 167.455 106.683 167.073 106.641 166.696Z" fill="white"/>
<path d="M125.454 156.193L123.783 144.844C123.783 144.696 123.74 144.55 123.659 144.423C123.579 144.297 123.463 144.195 123.326 144.128C123.189 144.062 123.035 144.033 122.883 144.047C122.73 144.06 122.584 144.114 122.461 144.204L110.259 151.022C109.931 151.224 109.668 151.512 109.499 151.851C109.329 152.191 109.261 152.569 109.301 152.944L110.973 164.286C110.973 164.435 111.015 164.581 111.096 164.707C111.176 164.834 111.292 164.936 111.429 165.003C111.566 165.069 111.72 165.097 111.873 165.084C112.025 165.071 112.171 165.016 112.294 164.927L124.443 158.128C124.782 157.93 125.056 157.644 125.235 157.301C125.414 156.959 125.49 156.575 125.454 156.193Z" fill="white"/>
<path d="M144.222 145.684L142.55 134.31C142.55 134.161 142.508 134.016 142.427 133.889C142.347 133.763 142.231 133.66 142.094 133.594C141.957 133.527 141.803 133.499 141.65 133.512C141.498 133.526 141.352 133.58 141.229 133.669L129.08 140.475C128.752 140.677 128.488 140.964 128.319 141.304C128.15 141.643 128.082 142.022 128.122 142.397L129.793 153.739C129.793 153.888 129.836 154.034 129.917 154.16C129.997 154.287 130.113 154.389 130.25 154.456C130.387 154.522 130.54 154.55 130.693 154.537C130.846 154.524 130.992 154.469 131.115 154.38L143.29 147.594C143.61 147.388 143.866 147.101 144.03 146.765C144.194 146.428 144.261 146.055 144.222 145.684Z" fill="white"/>
<path d="M163.011 135.175L161.339 123.826C161.339 123.677 161.297 123.531 161.216 123.405C161.135 123.278 161.02 123.176 160.883 123.11C160.746 123.043 160.592 123.015 160.439 123.028C160.287 123.042 160.141 123.096 160.018 123.185L147.868 129.99C147.541 130.193 147.277 130.48 147.108 130.82C146.939 131.159 146.871 131.538 146.911 131.913L148.575 143.281C148.575 143.429 148.618 143.575 148.699 143.702C148.779 143.828 148.895 143.931 149.032 143.997C149.169 144.064 149.323 144.092 149.475 144.078C149.628 144.065 149.774 144.011 149.897 143.921L162.046 137.116C162.378 136.912 162.644 136.622 162.815 136.279C162.985 135.936 163.053 135.553 163.011 135.175Z" fill="white"/>
<path d="M181.801 124.698L180.129 113.349C180.129 113.2 180.086 113.055 180.006 112.928C179.925 112.802 179.81 112.699 179.673 112.633C179.536 112.566 179.382 112.538 179.229 112.551C179.076 112.565 178.931 112.619 178.808 112.708L166.658 119.514C166.331 119.717 166.068 120.004 165.899 120.343C165.73 120.683 165.661 121.061 165.7 121.436L167.365 132.785C167.368 132.932 167.412 133.077 167.493 133.202C167.574 133.327 167.689 133.428 167.825 133.494C167.962 133.56 168.114 133.589 168.266 133.577C168.418 133.564 168.563 133.512 168.687 133.425L180.836 126.62C181.165 126.418 181.429 126.131 181.599 125.791C181.77 125.452 181.839 125.073 181.801 124.698Z" fill="white"/>
<path d="M65.8019 165.51L64.1304 154.174C64.128 154.027 64.0839 153.882 64.0028 153.757C63.9217 153.632 63.8067 153.531 63.6704 153.465C63.5341 153.399 63.3817 153.37 63.2298 153.382C63.078 153.394 62.9324 153.447 62.8091 153.534L50.6596 160.339C50.3323 160.542 50.0694 160.829 49.9003 161.169C49.7312 161.508 49.6624 161.886 49.7017 162.261L51.3665 173.61C51.3689 173.758 51.4131 173.902 51.4942 174.027C51.5753 174.152 51.6903 174.253 51.8266 174.319C51.9629 174.385 52.1153 174.414 52.2671 174.402C52.419 174.39 52.5645 174.337 52.6878 174.251L64.8373 167.445C65.1659 167.24 65.4298 166.95 65.5999 166.609C65.7701 166.268 65.84 165.887 65.8019 165.51Z" fill="#68DDD3"/>
<path d="M84.5922 155.001L82.9207 143.653C82.9183 143.505 82.8742 143.361 82.793 143.236C82.7119 143.11 82.597 143.009 82.4607 142.943C82.3244 142.877 82.172 142.849 82.0201 142.861C81.8682 142.873 81.7227 142.925 81.5994 143.012L69.4499 149.817C69.1225 150.02 68.8597 150.308 68.6906 150.647C68.5214 150.986 68.4527 151.365 68.492 151.74L70.1568 163.088C70.1592 163.236 70.2034 163.38 70.2845 163.505C70.3656 163.631 70.4806 163.732 70.6169 163.798C70.7532 163.864 70.9055 163.892 71.0574 163.88C71.2093 163.868 71.3548 163.816 71.4781 163.729L83.6276 156.924C83.9541 156.719 84.2166 156.432 84.3866 156.093C84.5567 155.754 84.6277 155.377 84.5922 155.001Z" fill="white"/>
<path d="M103.375 144.492L101.704 133.144C101.701 132.996 101.657 132.852 101.576 132.727C101.495 132.601 101.38 132.5 101.243 132.434C101.107 132.368 100.955 132.34 100.803 132.352C100.651 132.364 100.506 132.416 100.382 132.503L88.2327 139.308C87.9054 139.511 87.6425 139.799 87.4734 140.138C87.3043 140.477 87.2355 140.856 87.2748 141.231L88.9396 152.579C88.942 152.727 88.9862 152.871 89.0673 152.996C89.1484 153.121 89.2634 153.223 89.3997 153.289C89.536 153.355 89.6884 153.383 89.8403 153.371C89.9921 153.359 90.1376 153.307 90.261 153.22L102.41 146.415C102.737 146.21 102.999 145.923 103.169 145.584C103.339 145.245 103.411 144.868 103.375 144.492Z" fill="white"/>
<path d="M122.152 133.983L120.48 122.634C120.478 122.487 120.434 122.342 120.353 122.217C120.271 122.092 120.156 121.991 120.02 121.925C119.884 121.859 119.732 121.83 119.58 121.842C119.428 121.854 119.282 121.907 119.159 121.994L107.023 128.812C106.696 129.015 106.433 129.303 106.264 129.642C106.095 129.981 106.026 130.359 106.065 130.734L107.73 142.083C107.732 142.23 107.776 142.375 107.857 142.5C107.938 142.625 108.053 142.726 108.19 142.792C108.326 142.858 108.478 142.887 108.63 142.875C108.782 142.862 108.928 142.81 109.051 142.723L121.2 135.918C121.527 135.712 121.789 135.422 121.957 135.08C122.124 134.739 122.192 134.359 122.152 133.983Z" fill="white"/>
<path d="M140.96 123.474L139.289 112.132C139.289 111.983 139.246 111.837 139.166 111.711C139.085 111.584 138.97 111.482 138.833 111.415C138.695 111.349 138.542 111.321 138.389 111.334C138.236 111.347 138.09 111.402 137.968 111.491L125.812 118.29C125.485 118.493 125.222 118.781 125.053 119.12C124.884 119.459 124.815 119.837 124.854 120.212L126.518 131.561C126.521 131.708 126.565 131.853 126.646 131.978C126.727 132.103 126.842 132.204 126.979 132.27C127.115 132.336 127.267 132.365 127.419 132.353C127.571 132.341 127.716 132.288 127.84 132.201L139.989 125.383C140.315 125.181 140.578 124.897 140.749 124.56C140.921 124.223 140.994 123.848 140.96 123.474Z" fill="white"/>
<path d="M159.75 112.965L158.079 101.629C158.079 101.48 158.036 101.334 157.956 101.208C157.875 101.081 157.76 100.979 157.622 100.913C157.485 100.846 157.332 100.818 157.179 100.831C157.026 100.845 156.88 100.899 156.758 100.988L144.615 107.8C144.287 108.003 144.024 108.29 143.854 108.629C143.685 108.969 143.617 109.347 143.657 109.722L145.322 121.064C145.324 121.212 145.368 121.357 145.449 121.482C145.53 121.607 145.645 121.708 145.782 121.774C145.918 121.84 146.07 121.869 146.222 121.856C146.374 121.844 146.52 121.792 146.643 121.705L158.792 114.9C159.12 114.694 159.383 114.405 159.552 114.063C159.721 113.722 159.79 113.342 159.75 112.965Z" fill="white"/>
<path d="M178.534 102.462L176.862 91.1139C176.862 90.9652 176.82 90.8194 176.739 90.6928C176.658 90.5663 176.543 90.464 176.406 90.3975C176.269 90.331 176.115 90.3028 175.962 90.3162C175.81 90.3295 175.664 90.3839 175.541 90.4731L163.385 97.2784C163.059 97.4823 162.797 97.7699 162.629 98.1093C162.461 98.4486 162.394 98.8264 162.434 99.2008L164.098 110.543C164.101 110.691 164.145 110.835 164.226 110.96C164.307 111.085 164.422 111.186 164.558 111.252C164.695 111.319 164.847 111.347 164.999 111.335C165.151 111.323 165.296 111.271 165.42 111.184L177.569 104.385C177.895 104.18 178.157 103.893 178.327 103.554C178.497 103.215 178.569 102.838 178.534 102.462Z" fill="white"/>
<path d="M62.5293 143.281L60.8645 131.932C60.8621 131.785 60.8179 131.64 60.7368 131.515C60.6557 131.39 60.5407 131.289 60.4044 131.223C60.2681 131.157 60.1157 131.128 59.9639 131.14C59.812 131.152 59.6665 131.205 59.5432 131.291L47.3805 138.154C47.0547 138.359 46.7931 138.647 46.6242 138.986C46.4553 139.325 46.3855 139.702 46.4225 140.077L48.094 151.419C48.094 151.568 48.1367 151.714 48.2173 151.84C48.2979 151.967 48.4133 152.069 48.5505 152.135C48.6876 152.202 48.8412 152.23 48.9939 152.217C49.1467 152.203 49.2926 152.149 49.4153 152.06L61.5714 145.203C61.8982 145 62.1606 144.712 62.3297 144.373C62.4987 144.034 62.5678 143.656 62.5293 143.281Z" fill="#68DDD3"/>
<path d="M81.3171 132.798L79.6523 121.449C79.6499 121.301 79.6058 121.157 79.5246 121.032C79.4435 120.907 79.3285 120.806 79.1922 120.739C79.0559 120.673 78.9036 120.645 78.7517 120.657C78.5998 120.669 78.4543 120.721 78.331 120.808L66.1815 127.613C65.8557 127.818 65.5941 128.106 65.4252 128.445C65.2563 128.784 65.1865 129.161 65.2235 129.536L66.895 140.884C66.8974 141.032 66.9415 141.176 67.0227 141.302C67.1038 141.427 67.2188 141.528 67.355 141.594C67.4913 141.66 67.6437 141.689 67.7956 141.676C67.9475 141.664 68.093 141.612 68.2163 141.525L80.3658 134.72C80.6919 134.516 80.9535 134.228 81.1214 133.889C81.2893 133.55 81.3571 133.172 81.3171 132.798Z" fill="white"/>
<path d="M100.107 122.289L98.4422 110.94C98.4398 110.792 98.3957 110.648 98.3146 110.523C98.2334 110.398 98.1185 110.297 97.9822 110.23C97.8459 110.164 97.6935 110.136 97.5416 110.148C97.3897 110.16 97.2442 110.212 97.1209 110.299L84.9714 117.104C84.6462 117.31 84.385 117.597 84.2161 117.936C84.0473 118.275 83.9772 118.652 84.0135 119.027L85.6849 130.375C85.6873 130.523 85.7315 130.667 85.8126 130.793C85.8937 130.918 86.0087 131.019 86.145 131.085C86.2813 131.151 86.4337 131.18 86.5855 131.167C86.7374 131.155 86.8829 131.103 87.0062 131.016L99.1557 124.211C99.4819 124.007 99.7434 123.719 99.9113 123.38C100.079 123.041 100.147 122.663 100.107 122.289Z" fill="white"/>
<path d="M118.902 111.78L117.237 100.431C117.235 100.284 117.191 100.139 117.109 100.014C117.028 99.889 116.913 99.7879 116.777 99.7218C116.641 99.6557 116.488 99.6271 116.337 99.6393C116.185 99.6514 116.039 99.7037 115.916 99.7905L103.766 106.596C103.441 106.801 103.18 107.089 103.011 107.427C102.842 107.766 102.772 108.143 102.808 108.518L104.48 119.867C104.482 120.014 104.526 120.159 104.608 120.284C104.689 120.409 104.804 120.51 104.94 120.576C105.076 120.642 105.229 120.671 105.38 120.659C105.532 120.647 105.678 120.594 105.801 120.507L117.951 113.702C118.277 113.498 118.538 113.211 118.706 112.871C118.874 112.532 118.942 112.154 118.902 111.78Z" fill="white"/>
<path d="M137.686 101.27L136.021 89.9215C136.019 89.7737 135.975 89.6294 135.894 89.5043C135.813 89.3792 135.698 89.278 135.561 89.2119C135.425 89.1458 135.273 89.1173 135.121 89.1294C134.969 89.1416 134.823 89.1939 134.7 89.2807L122.551 96.086C122.225 96.2912 121.964 96.5788 121.795 96.9176C121.627 97.2565 121.556 97.6337 121.593 98.0084L123.264 109.357C123.267 109.505 123.311 109.649 123.392 109.774C123.473 109.899 123.588 110 123.724 110.066C123.86 110.133 124.013 110.161 124.165 110.149C124.317 110.137 124.462 110.084 124.585 109.998L136.735 103.192C137.061 102.988 137.323 102.701 137.491 102.362C137.658 102.022 137.726 101.644 137.686 101.27Z" fill="white"/>
<path d="M156.506 90.735L154.841 79.3865C154.839 79.2387 154.795 79.0944 154.713 78.9692C154.632 78.8441 154.517 78.743 154.381 78.6769C154.245 78.6108 154.092 78.5823 153.94 78.5944C153.789 78.6065 153.643 78.6588 153.52 78.7457L141.311 85.6086C140.986 85.8138 140.724 86.1014 140.555 86.4403C140.387 86.7791 140.317 87.1563 140.353 87.531L142.024 98.8795C142.027 99.0273 142.071 99.1716 142.152 99.2967C142.233 99.4218 142.348 99.523 142.484 99.5891C142.621 99.6552 142.773 99.6837 142.925 99.6716C143.077 99.6594 143.222 99.6071 143.346 99.5203L155.522 92.6574C155.854 92.4581 156.123 92.1723 156.297 91.8326C156.471 91.4928 156.543 91.1126 156.506 90.735Z" fill="white"/>
<path d="M175.266 80.2525L173.601 68.9104C173.599 68.7626 173.554 68.6183 173.473 68.4932C173.392 68.3681 173.277 68.2669 173.141 68.2008C173.005 68.1347 172.852 68.1062 172.7 68.1183C172.549 68.1304 172.403 68.1828 172.28 68.2696L160.13 75.0684C159.804 75.2732 159.543 75.5607 159.374 75.8996C159.205 76.2386 159.135 76.6161 159.172 76.9908L160.844 88.3393C160.846 88.4871 160.89 88.6314 160.971 88.7566C161.053 88.8817 161.167 88.9828 161.304 89.0489C161.44 89.115 161.592 89.1435 161.744 89.1314C161.896 89.1193 162.042 89.067 162.165 88.9801L174.341 82.1621C174.661 81.9564 174.916 81.6696 175.079 81.3329C175.242 80.9961 175.307 80.6224 175.266 80.2525Z" fill="white"/>
<path d="M59.2698 121.097L57.5983 109.754C57.5983 109.606 57.5556 109.46 57.475 109.333C57.3944 109.207 57.279 109.105 57.1418 109.038C57.0046 108.972 56.8511 108.943 56.6983 108.957C56.5456 108.97 56.3997 109.024 56.277 109.114L44.1275 115.913C43.8007 116.116 43.5382 116.404 43.3692 116.743C43.2001 117.082 43.1311 117.46 43.1696 117.835L44.8542 129.183C44.8542 129.332 44.8969 129.478 44.9776 129.605C45.0582 129.731 45.1736 129.833 45.3107 129.9C45.4479 129.966 45.6015 129.995 45.7542 129.981C45.907 129.968 46.0529 129.913 46.1756 129.824L58.325 123.019C58.6505 122.815 58.9112 122.527 59.078 122.187C59.2448 121.848 59.3112 121.47 59.2698 121.097Z" fill="#68DDD3"/>
<path d="M78.0532 110.6L76.3818 99.2579C76.3818 99.1092 76.3391 98.9633 76.2585 98.8368C76.1778 98.7103 76.0625 98.608 75.9253 98.5415C75.7881 98.4749 75.6345 98.4468 75.4818 98.4601C75.3291 98.4735 75.1832 98.5279 75.0605 98.6171L62.911 105.422C62.5831 105.625 62.3198 105.912 62.1506 106.252C61.9814 106.591 61.913 106.97 61.953 107.345L63.6245 118.687C63.6245 118.836 63.6672 118.981 63.7478 119.108C63.8285 119.235 63.9438 119.337 64.081 119.403C64.2182 119.47 64.3717 119.498 64.5245 119.485C64.6772 119.471 64.8231 119.417 64.9458 119.328L77.0953 112.522C77.4232 112.32 77.6865 112.033 77.8557 111.693C78.0249 111.354 78.0933 110.975 78.0532 110.6Z" fill="white"/>
<path d="M96.8498 100.085L95.1783 88.7364C95.1783 88.5876 95.1356 88.4418 95.055 88.3153C94.9743 88.1887 94.859 88.0864 94.7218 88.0199C94.5846 87.9534 94.4311 87.9252 94.2783 87.9386C94.1256 87.952 93.9797 88.0063 93.857 88.0956L81.7075 94.9008C81.3796 95.1034 81.1163 95.3906 80.9471 95.7301C80.7779 96.0696 80.7095 96.4481 80.7495 96.8232L82.421 108.165C82.421 108.314 82.4637 108.46 82.5443 108.586C82.625 108.713 82.7403 108.815 82.8775 108.882C83.0147 108.948 83.1682 108.976 83.321 108.963C83.4737 108.95 83.6196 108.895 83.7423 108.806L95.8918 102.007C96.2186 101.804 96.4811 101.516 96.6501 101.177C96.8192 100.838 96.8883 100.46 96.8498 100.085Z" fill="white"/>
<path d="M115.632 89.576L113.961 78.2275C113.961 78.0788 113.918 77.9329 113.838 77.8064C113.757 77.6799 113.642 77.5776 113.504 77.5111C113.367 77.4446 113.214 77.4164 113.061 77.4298C112.908 77.4431 112.762 77.4975 112.64 77.5867L100.49 84.392C100.162 84.5946 99.899 84.8817 99.7298 85.2212C99.5606 85.5608 99.4922 85.9393 99.5323 86.3144L101.197 97.6629C101.199 97.8107 101.244 97.955 101.325 98.0801C101.406 98.2052 101.521 98.3063 101.657 98.3724C101.793 98.4385 101.946 98.4671 102.098 98.455C102.25 98.4428 102.395 98.3905 102.518 98.3037L114.668 91.4984C114.996 91.2956 115.26 91.0086 115.43 90.6693C115.6 90.33 115.67 89.9516 115.632 89.576Z" fill="white"/>
<path d="M134.423 79.0666L132.751 67.7181C132.751 67.5693 132.709 67.4235 132.628 67.2969C132.547 67.1704 132.432 67.0681 132.295 67.0016C132.158 66.9351 132.004 66.9069 131.851 66.9203C131.699 66.9336 131.553 66.988 131.43 67.0773L119.281 73.8825C118.953 74.0851 118.689 74.3723 118.52 74.7118C118.351 75.0513 118.283 75.4298 118.323 75.8049L119.988 87.1534C119.99 87.3012 120.034 87.4455 120.115 87.5706C120.196 87.6957 120.311 87.7969 120.448 87.863C120.584 87.9291 120.736 87.9576 120.888 87.9455C121.04 87.9334 121.186 87.881 121.309 87.7942L133.458 80.9889C133.787 80.7866 134.051 80.4998 134.221 80.1603C134.392 79.8209 134.461 79.4422 134.423 79.0666Z" fill="white"/>
<path d="M153.199 68.5579L151.528 57.2094C151.528 57.0606 151.485 56.9148 151.404 56.7883C151.324 56.6617 151.208 56.5595 151.071 56.493C150.934 56.4264 150.781 56.3983 150.628 56.4116C150.475 56.425 150.329 56.4793 150.206 56.5686L138.057 63.3739C137.73 63.577 137.467 63.8642 137.298 64.2036C137.129 64.543 137.06 64.9212 137.099 65.2962L138.77 76.6384C138.773 76.7861 138.817 76.9304 138.898 77.0556C138.979 77.1807 139.094 77.2818 139.231 77.3479C139.367 77.414 139.519 77.4425 139.671 77.4304C139.823 77.4183 139.968 77.366 140.092 77.2791L152.241 70.4739C152.568 70.2713 152.83 69.985 152.999 69.6469C153.168 69.3088 153.237 68.9319 153.199 68.5579Z" fill="white"/>
<path d="M172.002 58.0555L170.33 46.7069C170.33 46.5582 170.288 46.4124 170.207 46.2858C170.126 46.1593 170.011 46.057 169.874 45.9905C169.737 45.924 169.583 45.8958 169.43 45.9092C169.278 45.9225 169.132 45.9769 169.009 46.0661L156.859 52.8714C156.532 53.0745 156.269 53.3618 156.1 53.7012C155.931 54.0405 155.862 54.4188 155.901 54.7938L157.566 66.1423C157.569 66.2901 157.613 66.4344 157.694 66.5595C157.775 66.6846 157.89 66.7858 158.026 66.8518C158.163 66.9179 158.315 66.9465 158.467 66.9344C158.619 66.9223 158.764 66.8699 158.888 66.7831L171.037 59.9778C171.366 59.7755 171.63 59.4886 171.8 59.1492C171.971 58.8098 172.04 58.4311 172.002 58.0555Z" fill="white"/>
<path d="M56.3763 101.04L55.9534 98.1433C55.9534 97.9945 55.9107 97.8487 55.8301 97.7222C55.7495 97.5956 55.6341 97.4934 55.4969 97.4269C55.3598 97.3603 55.2062 97.3322 55.0535 97.3455C54.9007 97.3589 54.7548 97.4132 54.6321 97.5025L42.476 104.321C42.1487 104.524 41.8858 104.811 41.7167 105.15C41.5476 105.49 41.4788 105.868 41.5181 106.243L41.9343 109.139C41.9367 109.287 41.9808 109.431 42.0619 109.557C42.1431 109.682 42.258 109.783 42.3943 109.849C42.5306 109.915 42.683 109.944 42.8349 109.931C42.9868 109.919 43.1323 109.867 43.2556 109.78L55.4183 102.949C55.742 102.746 56.0022 102.46 56.171 102.124C56.3398 101.787 56.4108 101.412 56.3763 101.04Z" fill="white"/>
<path d="M75.1727 90.531L74.7498 87.6346C74.7498 87.4859 74.7071 87.34 74.6265 87.2135C74.5459 87.087 74.4305 86.9847 74.2933 86.9182C74.1562 86.8517 74.0026 86.8235 73.8498 86.8369C73.6971 86.8502 73.5512 86.9046 73.4285 86.9938L61.2724 93.8119C60.9451 94.015 60.6822 94.3023 60.5131 94.6416C60.344 94.981 60.2752 95.3593 60.3145 95.7343L60.7307 98.6307C60.7331 98.7785 60.7772 98.9228 60.8583 99.0479C60.9395 99.173 61.0544 99.2741 61.1907 99.3402C61.327 99.4063 61.4794 99.4349 61.6313 99.4228C61.7831 99.4106 61.9287 99.3583 62.052 99.2715L74.2081 92.4662C74.5372 92.2613 74.8015 91.9721 74.9717 91.6305C75.142 91.289 75.2115 90.9085 75.1727 90.531Z" fill="white"/>
<path d="M93.9615 80.0213L93.5387 77.1249C93.5363 76.9771 93.4921 76.8328 93.411 76.7077C93.3299 76.5825 93.2149 76.4814 93.0786 76.4153C92.9423 76.3492 92.7899 76.3207 92.6381 76.3328C92.4862 76.3449 92.3407 76.3972 92.2173 76.4841L80.0612 83.3021C79.7339 83.5053 79.471 83.7925 79.3019 84.1319C79.1328 84.4713 79.064 84.8495 79.1033 85.2245L79.5195 88.1209C79.5195 88.2697 79.5622 88.4155 79.6428 88.542C79.7235 88.6686 79.8388 88.7708 79.976 88.8374C80.1132 88.9039 80.2667 88.9321 80.4195 88.9187C80.5722 88.9053 80.7181 88.851 80.8408 88.7617L92.9969 81.9565C93.326 81.7515 93.5903 81.4623 93.7605 81.1208C93.9308 80.7793 94.0003 80.3987 93.9615 80.0213Z" fill="white"/>
<path d="M112.752 69.5186L112.329 66.6158C112.327 66.468 112.283 66.3237 112.201 66.1986C112.12 66.0734 112.005 65.9723 111.869 65.9062C111.733 65.8401 111.58 65.8116 111.428 65.8237C111.277 65.8358 111.131 65.8882 111.008 65.975L98.8516 72.7931C98.5243 72.9962 98.2614 73.2834 98.0923 73.6228C97.9232 73.9622 97.8544 74.3404 97.8937 74.7154L98.3099 77.6119C98.3099 77.7606 98.3526 77.9064 98.4332 78.033C98.5139 78.1595 98.6292 78.2618 98.7664 78.3283C98.9036 78.3948 99.0571 78.423 99.2099 78.4096C99.3626 78.3963 99.5085 78.3419 99.6312 78.2526L111.787 71.4538C112.115 71.2478 112.379 70.9584 112.549 70.6172C112.719 70.2759 112.789 69.8959 112.752 69.5186Z" fill="white"/>
<path d="M131.534 59.0099L131.112 56.1071C131.109 55.9593 131.065 55.815 130.984 55.6899C130.903 55.5648 130.788 55.4637 130.651 55.3976C130.515 55.3315 130.363 55.3029 130.211 55.315C130.059 55.3272 129.914 55.3795 129.79 55.4663L117.634 62.2844C117.307 62.4881 117.045 62.7754 116.876 63.1146C116.707 63.4539 116.638 63.8318 116.676 64.2068L117.092 67.1032C117.092 67.2519 117.135 67.3977 117.216 67.5243C117.296 67.6508 117.412 67.7531 117.549 67.8196C117.686 67.8861 117.84 67.9143 117.992 67.9009C118.145 67.8876 118.291 67.8332 118.414 67.744L130.57 60.9451C130.898 60.7391 131.161 60.4497 131.331 60.1085C131.501 59.7672 131.572 59.3872 131.534 59.0099Z" fill="white"/>
<path d="M150.325 48.5005L149.902 45.6041C149.902 45.4553 149.859 45.3095 149.778 45.183C149.698 45.0564 149.582 44.9542 149.445 44.8877C149.308 44.8211 149.155 44.793 149.002 44.8063C148.849 44.8197 148.703 44.874 148.58 44.9633L136.424 51.775C136.098 51.9786 135.835 52.266 135.666 52.6052C135.497 52.9445 135.428 53.3224 135.466 53.6974L135.883 56.6002C135.885 56.748 135.929 56.8923 136.01 57.0174C136.091 57.1425 136.206 57.2436 136.343 57.3097C136.479 57.3758 136.631 57.4044 136.783 57.3922C136.935 57.3801 137.081 57.3278 137.204 57.241L149.36 50.4357C149.689 50.2302 149.952 49.9409 150.123 49.5996C150.293 49.2582 150.363 48.8779 150.325 48.5005Z" fill="white"/>
<path d="M169.113 37.9914L168.697 35.095C168.697 34.9462 168.654 34.8004 168.574 34.6739C168.493 34.5474 168.378 34.4451 168.24 34.3786C168.103 34.312 167.95 34.2839 167.797 34.2972C167.644 34.3106 167.498 34.365 167.376 34.4542L155.226 41.2595C154.898 41.4621 154.635 41.7492 154.466 42.0887C154.297 42.4283 154.228 42.8068 154.268 43.1819L154.684 46.0783C154.687 46.226 154.731 46.3704 154.812 46.4955C154.893 46.6206 155.008 46.7217 155.144 46.7878C155.281 46.8539 155.433 46.8824 155.585 46.8703C155.737 46.8582 155.882 46.8059 156.006 46.7191L168.162 39.9138C168.487 39.7093 168.749 39.4216 168.916 39.0825C169.084 38.7433 169.152 38.3657 169.113 37.9914Z" fill="white"/>
<path opacity="0.2" d="M42.205 83.9302C42.1453 83.0835 42.3255 82.2371 42.7261 81.4825C43.1266 80.728 43.7324 80.0942 44.4777 79.6496C45.9576 78.823 47.3384 79.3933 47.5696 80.9312C47.6309 81.7788 47.4507 82.6265 47.0487 83.3815C46.6467 84.1364 46.0384 84.7696 45.2903 85.2118C43.8171 86.0384 42.4363 85.4681 42.205 83.9302Z" fill="black"/>
<path opacity="0.2" d="M61.014 73.4341C60.9528 72.5873 61.1323 71.7403 61.5331 70.9855C61.9338 70.2308 62.5404 69.5971 63.2867 69.1536C64.7666 68.3206 66.1473 68.8909 66.3786 70.4352C66.4394 71.2819 66.2589 72.1285 65.8569 72.8823C65.4549 73.6362 64.8469 74.2682 64.0993 74.7093C62.6194 75.5103 61.2387 74.94 61.014 73.4341Z" fill="black"/>
<path opacity="0.2" d="M79.7908 62.8929C79.7295 62.046 79.9091 61.1991 80.3098 60.4443C80.7105 59.6895 81.3171 59.0559 82.0634 58.6124C83.5433 57.7793 84.9307 58.3496 85.1553 59.894C85.216 60.7399 85.0363 61.5858 84.6355 62.3394C84.2348 63.0931 83.6285 63.7256 82.8826 64.1681C81.4028 64.9947 80.0154 64.4244 79.7908 62.8929Z" fill="black"/>
<path opacity="0.2" d="M117.353 41.855C117.292 41.0081 117.472 40.1611 117.872 39.4064C118.273 38.6516 118.88 38.0179 119.626 37.5744C121.106 36.7478 122.487 37.3181 122.711 38.856C122.775 39.7033 122.597 40.5513 122.196 41.3066C121.795 42.0619 121.187 42.6952 120.439 43.1366C118.959 43.9568 117.578 43.3929 117.353 41.855Z" fill="black"/>
<path opacity="0.2" d="M136.155 31.3333C136.092 30.4862 136.271 29.6388 136.672 28.8837C137.073 28.1287 137.68 27.4952 138.427 27.0528C139.907 26.2198 141.288 26.7901 141.519 28.3344C141.581 29.182 141.4 30.0297 140.998 30.7846C140.597 31.5396 139.988 32.1728 139.24 32.6149C137.76 33.4351 136.379 32.8648 136.155 31.3333Z" fill="black"/>
<path opacity="0.2" d="M154.927 20.8176C154.865 19.9708 155.045 19.1238 155.446 18.369C155.846 17.6143 156.453 16.9806 157.199 16.5371C158.679 15.7041 160.066 16.2744 160.291 17.8187C160.352 18.6646 160.172 19.5105 159.771 20.2642C159.371 21.0178 158.764 21.6504 158.018 22.0928C156.506 22.9195 155.184 22.3491 154.927 20.8176Z" fill="black"/>
<path d="M40.2738 66.6157C38.2919 65.4943 36.3495 65.3341 34.8697 66.1607C33.3898 66.9874 32.5706 68.6791 32.5706 70.9283C32.5835 71.9803 32.7435 73.0258 33.0462 74.0362L34.2222 73.3954C34.0111 72.5931 33.9002 71.7691 33.8919 70.9411C33.8919 69.1725 34.4733 67.8717 35.5303 67.2821C35.964 67.0472 36.4541 66.9279 36.9507 66.9361C37.8877 66.9795 38.7976 67.2553 39.5934 67.7371C43.108 69.7108 45.9687 74.5167 45.9687 78.4512C45.9707 78.7317 45.9552 79.012 45.9225 79.2907C45.9063 79.8487 45.7542 80.395 45.4786 80.885C45.203 81.3751 44.8118 81.7949 44.3369 82.1102C43.7312 82.4275 43.0324 82.5359 42.3549 82.4178C42.2215 82.832 42.1656 83.266 42.1897 83.6994C42.4367 83.7374 42.6863 83.7567 42.9363 83.757C43.6639 83.7658 44.3805 83.5843 45.0107 83.2316C45.6006 82.8728 46.1005 82.391 46.4742 81.8213C46.8479 81.2515 47.086 80.6081 47.1711 79.9379C47.2601 79.4514 47.3043 78.9582 47.3032 78.4641C47.3098 74.0746 44.1519 68.788 40.2738 66.6157Z" fill="#DDDDDD"/>
<path d="M59.0687 56.0945C57.0868 54.9731 55.1444 54.8129 53.6646 55.6396C52.1847 56.4662 51.3655 58.1579 51.3655 60.4071C51.3784 61.4592 51.5384 62.5047 51.8412 63.515L53.0171 62.8742C52.806 62.0719 52.6951 61.2479 52.6868 60.4199C52.6868 58.6513 53.2682 57.3505 54.3252 56.761C54.7589 56.5261 55.249 56.4067 55.7456 56.4149C56.6827 56.4583 57.5925 56.7341 58.3883 57.2159C61.903 59.1896 64.7636 63.9956 64.7636 67.9301C64.7656 68.2105 64.7501 68.4908 64.7174 68.7695C64.7012 69.3275 64.5491 69.8738 64.2735 70.3639C63.9979 70.8539 63.6067 71.2737 63.1318 71.589C62.5261 71.9063 61.8273 72.0147 61.1498 71.8966C61.0164 72.3108 60.9605 72.7449 60.9847 73.1782C61.2316 73.2162 61.4812 73.2355 61.7312 73.2359C62.4588 73.2447 63.1754 73.0631 63.8057 72.7104C64.3955 72.3516 64.8954 71.8698 65.2691 71.3001C65.6429 70.7303 65.8809 70.0869 65.966 69.4167C66.055 68.9302 66.0993 68.437 66.0981 67.9429C66.1048 63.5726 62.9468 58.2668 59.0687 56.0945Z" fill="#DDDDDD"/>
<path d="M77.841 45.579C75.859 44.4576 73.9167 44.2974 72.4368 45.1241C70.9569 45.9507 70.1377 47.6424 70.1377 49.8916C70.1506 50.9437 70.3106 51.9891 70.6134 52.9995L71.7893 52.3587C71.5782 51.5564 71.4673 50.7324 71.459 49.9044C71.459 48.1358 72.0404 46.835 73.0974 46.2455C73.5311 46.0106 74.0212 45.8912 74.5178 45.8994C75.4549 45.9428 76.3647 46.2186 77.1605 46.7004C80.6752 48.6741 83.5358 53.4801 83.5358 57.4146C83.5378 57.695 83.5223 57.9753 83.4896 58.254C83.4734 58.812 83.3213 59.3583 83.0457 59.8484C82.7702 60.3384 82.3789 60.7582 81.904 61.0735C81.2983 61.3908 80.5995 61.4992 79.922 61.3811C79.7886 61.7953 79.7327 62.2294 79.7569 62.6627C80.0038 62.7007 80.2534 62.72 80.5034 62.7204C81.231 62.7291 81.9476 62.5476 82.5779 62.1949C83.1677 61.8361 83.6677 61.3543 84.0414 60.7846C84.4151 60.2148 84.6531 59.5714 84.7382 58.9012C84.8272 58.4147 84.8715 57.9215 84.8704 57.4274C84.877 53.0571 81.719 47.7513 77.841 45.579Z" fill="#DDDDDD"/>
<path d="M115.408 24.5738C113.426 23.4525 111.484 23.2923 110.004 24.1189C108.524 24.9455 107.705 26.6372 107.705 28.8864C107.718 29.9385 107.878 30.984 108.18 31.9943L109.356 31.3535C109.145 30.5512 109.034 29.7272 109.026 28.8992C109.026 27.1306 109.607 25.8298 110.664 25.2403C111.098 25.0054 111.588 24.886 112.085 24.8942C113.022 24.9376 113.932 25.2134 114.727 25.6952C118.242 27.6689 121.103 32.4749 121.103 36.4094C121.105 36.6898 121.089 36.9701 121.057 37.2488C121.04 37.8068 120.888 38.3531 120.613 38.8432C120.337 39.3332 119.946 39.753 119.471 40.0683C118.865 40.3856 118.167 40.4941 117.489 40.3759C117.356 40.7901 117.3 41.2242 117.324 41.6575C117.571 41.6955 117.82 41.7148 118.07 41.7152C118.798 41.724 119.515 41.5424 120.145 41.1897C120.735 40.8309 121.235 40.3491 121.608 39.7794C121.982 39.2096 122.22 38.5662 122.305 37.896C122.394 37.4095 122.438 36.9163 122.437 36.4222C122.444 32.0519 119.286 26.7461 115.408 24.5738Z" fill="#DDDDDD"/>
<path d="M134.216 14.045C132.234 12.9236 130.292 12.7634 128.812 13.5901C127.332 14.4167 126.513 16.1084 126.513 18.3576C126.526 19.4097 126.686 20.4552 126.989 21.4655L128.165 20.8247C127.954 20.0224 127.843 19.1984 127.834 18.3704C127.834 16.6018 128.416 15.301 129.473 14.7115C129.907 14.4766 130.397 14.3572 130.893 14.3654C131.83 14.4088 132.74 14.6846 133.536 15.1664C137.051 17.1401 139.911 21.9461 139.911 25.8806C139.913 26.161 139.898 26.4413 139.865 26.72C139.849 27.278 139.697 27.8243 139.421 28.3144C139.146 28.8044 138.754 29.2242 138.279 29.5395C137.674 29.8568 136.975 29.9652 136.298 29.8471C136.164 30.2613 136.108 30.6954 136.132 31.1287C136.379 31.1667 136.629 31.186 136.879 31.1864C137.607 31.1952 138.323 31.0136 138.953 30.6609C139.543 30.3021 140.043 29.8203 140.417 29.2506C140.791 28.6808 141.029 28.0374 141.114 27.3672C141.203 26.8807 141.247 26.3875 141.246 25.8934C141.252 21.5295 138.095 16.2173 134.216 14.045Z" fill="#DDDDDD"/>
<path d="M152.982 3.52941C151 2.40802 149.057 2.24782 147.577 3.07445C146.098 3.90108 145.272 5.59278 145.272 7.84198C145.285 8.89403 145.445 9.93952 145.747 10.9498L146.923 10.309C146.712 9.50676 146.601 8.68276 146.593 7.85479C146.593 6.08619 147.174 4.78538 148.231 4.19584C148.665 3.96094 149.155 3.84155 149.652 3.84981C150.589 3.89317 151.499 4.16896 152.295 4.65081C155.809 6.62446 158.67 11.4304 158.67 15.3649C158.672 15.6454 158.656 15.9257 158.624 16.2044C158.607 16.7624 158.455 17.3087 158.18 17.7987C157.904 18.2888 157.513 18.7086 157.038 19.0239C156.432 19.3412 155.734 19.4496 155.056 19.3315C154.923 19.7457 154.867 20.1797 154.891 20.6131C155.138 20.6511 155.387 20.6704 155.637 20.6707C156.365 20.6795 157.082 20.498 157.712 20.1453C158.302 19.7865 158.802 19.3047 159.175 18.735C159.549 18.1652 159.787 17.5218 159.872 16.8516C159.961 16.3651 160.005 15.8719 160.004 15.3778C160.018 11.0075 156.86 5.70172 152.982 3.52941Z" fill="#DDDDDD"/>
</svg>
