<svg width="28" height="28" viewBox="0 0 28 28" fill="none" xmlns="http://www.w3.org/2000/svg">
<path d="M5.49947 26.1032C4.83159 26.1032 4.25984 25.8662 3.78422 25.3921C3.30861 24.9181 3.0708 24.3482 3.0708 23.6825V6.73802C3.0708 6.07234 3.30861 5.50248 3.78422 5.02844C4.25984 4.5544 4.83159 4.31737 5.49947 4.31737H6.71381V3.10705C6.71381 2.76413 6.83019 2.47667 7.06293 2.2447C7.29568 2.01272 7.58409 1.89673 7.92815 1.89673C8.27221 1.89673 8.56062 2.01272 8.79336 2.2447C9.02611 2.47667 9.14248 2.76413 9.14248 3.10705V4.31737H18.8572V3.10705C18.8572 2.76413 18.9736 2.47667 19.2063 2.2447C19.439 2.01272 19.7275 1.89673 20.0715 1.89673C20.4156 1.89673 20.704 2.01272 20.9367 2.2447C21.1695 2.47667 21.2859 2.76413 21.2859 3.10705V4.31737H22.5002C23.1681 4.31737 23.7398 4.5544 24.2154 5.02844C24.6911 5.50248 24.9289 6.07234 24.9289 6.73802V23.6825C24.9289 24.3482 24.6911 24.9181 24.2154 25.3921C23.7398 25.8662 23.1681 26.1032 22.5002 26.1032H5.49947ZM5.49947 23.6825H22.5002V11.5793H5.49947V23.6825ZM13.9998 16.4206C13.6558 16.4206 13.3674 16.3046 13.1346 16.0726C12.9019 15.8407 12.7855 15.5532 12.7855 15.2103C12.7855 14.8674 12.9019 14.5799 13.1346 14.3479C13.3674 14.1159 13.6558 14 13.9998 14C14.3439 14 14.6323 14.1159 14.865 14.3479C15.0978 14.5799 15.2142 14.8674 15.2142 15.2103C15.2142 15.5532 15.0978 15.8407 14.865 16.0726C14.6323 16.3046 14.3439 16.4206 13.9998 16.4206ZM9.14248 16.4206C8.79842 16.4206 8.51002 16.3046 8.27727 16.0726C8.04452 15.8407 7.92815 15.5532 7.92815 15.2103C7.92815 14.8674 8.04452 14.5799 8.27727 14.3479C8.51002 14.1159 8.79842 14 9.14248 14C9.48655 14 9.77495 14.1159 10.0077 14.3479C10.2404 14.5799 10.3568 14.8674 10.3568 15.2103C10.3568 15.5532 10.2404 15.8407 10.0077 16.0726C9.77495 16.3046 9.48655 16.4206 9.14248 16.4206ZM18.8572 16.4206C18.5131 16.4206 18.2247 16.3046 17.992 16.0726C17.7592 15.8407 17.6428 15.5532 17.6428 15.2103C17.6428 14.8674 17.7592 14.5799 17.992 14.3479C18.2247 14.1159 18.5131 14 18.8572 14C19.2012 14 19.4896 14.1159 19.7224 14.3479C19.9551 14.5799 20.0715 14.8674 20.0715 15.2103C20.0715 15.5532 19.9551 15.8407 19.7224 16.0726C19.4896 16.3046 19.2012 16.4206 18.8572 16.4206ZM13.9998 21.2619C13.6558 21.2619 13.3674 21.1459 13.1346 20.9139C12.9019 20.6819 12.7855 20.3945 12.7855 20.0516C12.7855 19.7086 12.9019 19.4212 13.1346 19.1892C13.3674 18.9572 13.6558 18.8412 13.9998 18.8412C14.3439 18.8412 14.6323 18.9572 14.865 19.1892C15.0978 19.4212 15.2142 19.7086 15.2142 20.0516C15.2142 20.3945 15.0978 20.6819 14.865 20.9139C14.6323 21.1459 14.3439 21.2619 13.9998 21.2619ZM9.14248 21.2619C8.79842 21.2619 8.51002 21.1459 8.27727 20.9139C8.04452 20.6819 7.92815 20.3945 7.92815 20.0516C7.92815 19.7086 8.04452 19.4212 8.27727 19.1892C8.51002 18.9572 8.79842 18.8412 9.14248 18.8412C9.48655 18.8412 9.77495 18.9572 10.0077 19.1892C10.2404 19.4212 10.3568 19.7086 10.3568 20.0516C10.3568 20.3945 10.2404 20.6819 10.0077 20.9139C9.77495 21.1459 9.48655 21.2619 9.14248 21.2619ZM18.8572 21.2619C18.5131 21.2619 18.2247 21.1459 17.992 20.9139C17.7592 20.6819 17.6428 20.3945 17.6428 20.0516C17.6428 19.7086 17.7592 19.4212 17.992 19.1892C18.2247 18.9572 18.5131 18.8412 18.8572 18.8412C19.2012 18.8412 19.4896 18.9572 19.7224 19.1892C19.9551 19.4212 20.0715 19.7086 20.0715 20.0516C20.0715 20.3945 19.9551 20.6819 19.7224 20.9139C19.4896 21.1459 19.2012 21.2619 18.8572 21.2619Z" fill="#6851FF"/>
</svg>
