<svg width="310" height="310" viewBox="0 0 310 310" fill="none" xmlns="http://www.w3.org/2000/svg">
<path d="M60.8889 289C53.4944 289 47.1644 286.376 41.8986 281.128C36.6329 275.879 34 269.57 34 262.2V74.6C34 67.23 36.6329 60.9208 41.8986 55.6725C47.1644 50.4242 53.4944 47.8 60.8889 47.8H74.3333V34.4C74.3333 30.6033 75.6218 27.4208 78.1986 24.8525C80.7755 22.2842 83.9685 21 87.7778 21C91.587 21 94.7801 22.2842 97.3569 24.8525C99.9338 27.4208 101.222 30.6033 101.222 34.4V47.8H208.778V34.4C208.778 30.6033 210.066 27.4208 212.643 24.8525C215.22 22.2842 218.413 21 222.222 21C226.031 21 229.225 22.2842 231.801 24.8525C234.378 27.4208 235.667 30.6033 235.667 34.4V47.8H249.111C256.506 47.8 262.836 50.4242 268.101 55.6725C273.367 60.9208 276 67.23 276 74.6V262.2C276 269.57 273.367 275.879 268.101 281.128C262.836 286.376 256.506 289 249.111 289H60.8889ZM60.8889 262.2H249.111V128.2H60.8889V262.2ZM155 181.8C151.191 181.8 147.998 180.516 145.421 177.948C142.844 175.379 141.556 172.197 141.556 168.4C141.556 164.603 142.844 161.421 145.421 158.853C147.998 156.284 151.191 155 155 155C158.809 155 162.002 156.284 164.579 158.853C167.156 161.421 168.444 164.603 168.444 168.4C168.444 172.197 167.156 175.379 164.579 177.948C162.002 180.516 158.809 181.8 155 181.8ZM101.222 181.8C97.413 181.8 94.2199 180.516 91.6431 177.948C89.0662 175.379 87.7778 172.197 87.7778 168.4C87.7778 164.603 89.0662 161.421 91.6431 158.853C94.2199 156.284 97.413 155 101.222 155C105.031 155 108.225 156.284 110.801 158.853C113.378 161.421 114.667 164.603 114.667 168.4C114.667 172.197 113.378 175.379 110.801 177.948C108.225 180.516 105.031 181.8 101.222 181.8ZM208.778 181.8C204.969 181.8 201.775 180.516 199.199 177.948C196.622 175.379 195.333 172.197 195.333 168.4C195.333 164.603 196.622 161.421 199.199 158.853C201.775 156.284 204.969 155 208.778 155C212.587 155 215.78 156.284 218.357 158.853C220.934 161.421 222.222 164.603 222.222 168.4C222.222 172.197 220.934 175.379 218.357 177.948C215.78 180.516 212.587 181.8 208.778 181.8ZM155 235.4C151.191 235.4 147.998 234.116 145.421 231.548C142.844 228.979 141.556 225.797 141.556 222C141.556 218.203 142.844 215.021 145.421 212.452C147.998 209.884 151.191 208.6 155 208.6C158.809 208.6 162.002 209.884 164.579 212.452C167.156 215.021 168.444 218.203 168.444 222C168.444 225.797 167.156 228.979 164.579 231.548C162.002 234.116 158.809 235.4 155 235.4ZM101.222 235.4C97.413 235.4 94.2199 234.116 91.6431 231.548C89.0662 228.979 87.7778 225.797 87.7778 222C87.7778 218.203 89.0662 215.021 91.6431 212.452C94.2199 209.884 97.413 208.6 101.222 208.6C105.031 208.6 108.225 209.884 110.801 212.452C113.378 215.021 114.667 218.203 114.667 222C114.667 225.797 113.378 228.979 110.801 231.548C108.225 234.116 105.031 235.4 101.222 235.4ZM208.778 235.4C204.969 235.4 201.775 234.116 199.199 231.548C196.622 228.979 195.333 225.797 195.333 222C195.333 218.203 196.622 215.021 199.199 212.452C201.775 209.884 204.969 208.6 208.778 208.6C212.587 208.6 215.78 209.884 218.357 212.452C220.934 215.021 222.222 218.203 222.222 222C222.222 225.797 220.934 228.979 218.357 231.548C215.78 234.116 212.587 235.4 208.778 235.4Z" fill="#397CFF"/>
</svg>
