<svg width="273" height="273" viewBox="0 0 273 273" fill="none" xmlns="http://www.w3.org/2000/svg">
<path d="M67.7411 257.645L64.7262 256.295C64.2239 256.043 63.8057 255.702 63.5057 255.3C63.2057 254.898 63.0325 254.447 63 253.984V80.6989C63.0325 80.2355 63.2057 79.7845 63.5057 79.3828C63.8057 78.9811 64.2239 78.64 64.7262 78.3873L203.45 16.3188C203.984 16.1092 204.574 16 205.172 16C205.77 16 206.36 16.1092 206.894 16.3188L209.917 17.6688C210.417 17.9229 210.833 18.2645 211.131 18.666C211.43 19.0675 211.602 19.5178 211.635 19.9804V193.265C211.602 193.728 211.43 194.178 211.131 194.58C210.833 194.981 210.417 195.323 209.917 195.577L71.1855 257.645C70.6517 257.855 70.0617 257.964 69.4633 257.964C68.8649 257.964 68.2749 257.855 67.7411 257.645Z" fill="#04C7B6"/>
<path opacity="0.4" d="M211.62 19.7647C211.5 19.0743 210.776 18.8215 209.917 19.2099L71.1858 81.2783C70.6773 81.5231 70.2582 81.8648 69.9687 82.2708L63.5015 79.3797C63.7955 78.9742 64.2168 78.6329 64.7265 78.3873L203.45 16.3188C203.984 16.1092 204.574 16 205.172 16C205.771 16 206.361 16.1092 206.895 16.3188L209.917 17.6688C210.378 17.9036 210.768 18.2122 211.062 18.5737C211.355 18.9353 211.546 19.3414 211.62 19.7647Z" fill="white"/>
<path opacity="0.15" d="M70.8911 257.755C70.8597 257.77 70.8245 257.781 70.7877 257.786L70.6127 257.835H70.5411L70.2229 257.896H70.1831C69.4965 257.997 68.7874 257.953 68.1308 257.767C67.9993 257.729 67.8717 257.684 67.749 257.631L64.7341 256.3C64.2346 256.045 63.819 255.704 63.5206 255.302C63.2222 254.901 63.0493 254.451 63.0159 253.988V80.6972C63.0364 80.2317 63.2088 79.7778 63.517 79.378L69.9843 82.2691C69.6824 82.6677 69.5181 83.1199 69.507 83.5821V256.879C69.4894 257.13 69.582 257.378 69.7695 257.582C69.8791 257.684 70.0243 257.76 70.1878 257.801C70.3514 257.841 70.5264 257.844 70.6922 257.81L70.8911 257.755Z" fill="black"/>
<path d="M168.304 48.2241L168.05 48.107L165.186 46.831C164.146 46.3836 163.016 46.0732 161.845 45.9125C161.352 45.8262 160.906 45.7276 160.516 45.6289C160.084 45.5171 159.661 45.3833 159.252 45.2283L159.466 45.0248L156.205 43.5701C155.939 43.4513 155.652 43.3621 155.354 43.305C154.137 43.0769 152.315 43.6255 150.493 43.4653C149.833 43.4126 149.196 43.2491 148.626 42.9861C148.056 42.7232 147.567 42.3671 147.192 41.9427C146.086 40.7899 145.418 38.7681 144.44 37.0975L145.315 36.1174L145.044 36.0003L142.077 34.6688C141.576 34.4404 141.004 34.3211 140.423 34.3236C139.316 34.3701 138.243 34.64 137.312 35.1065C130.209 38.2872 129.97 45.8385 127.409 50.8008C124.847 55.7631 121.228 57.3226 119.255 59.4308C117.282 61.539 117.147 63.1294 112.78 67.8143C108.413 72.4992 108.238 73.6211 108.238 74.5026V81.4559L111.467 82.8984L169.609 56.8788L168.304 48.2241ZM115.007 75.0204C114.251 75.3533 113.631 74.9033 113.631 73.9971C113.622 73.5645 113.742 73.1362 113.981 72.7451C114.219 72.354 114.57 72.0105 115.007 71.741C115.763 71.4019 116.375 71.8642 116.375 72.7704C116.383 73.2027 116.263 73.6305 116.023 74.0208C115.783 74.411 115.43 74.7531 114.991 75.0204H115.007ZM140.534 55.5103C138.625 56.3672 136.954 55.8802 136.055 54.4501C133.804 54.7891 132.126 53.1001 132.126 50.2029C132.126 46.7878 134.449 42.9844 137.312 41.7023C137.679 41.4947 138.102 41.3561 138.55 41.2975C138.997 41.239 139.456 41.2621 139.89 41.365C140.324 41.4679 140.721 41.6478 141.05 41.8904C141.378 42.133 141.629 42.4316 141.783 42.7625C144.042 42.4173 145.713 44.1002 145.713 47.0097C145.713 50.4248 143.398 54.2281 140.534 55.5103ZM159.84 54.9494C159.085 55.2884 158.472 54.8323 158.472 53.9323C158.461 53.5009 158.579 53.0736 158.817 52.6833C159.054 52.2931 159.404 51.9505 159.84 51.6823C160.636 51.3433 161.216 51.7994 161.216 52.7056C161.227 53.1366 161.108 53.5636 160.869 53.9529C160.63 54.3423 160.278 54.6834 159.84 54.9494Z" fill="#455A64"/>
<path opacity="0.5" d="M114.697 76.259L108.477 73.4666C108.333 73.8151 108.263 74.1794 108.27 74.5453V81.4987L111.5 82.9411L114.729 81.4925L114.697 76.259Z" fill="#37474F"/>
<path opacity="0.5" d="M121.154 67.5886L124.384 61.8064L119.253 59.4702C117.742 61.0852 117.304 62.3859 115.276 64.9564L121.154 67.5886Z" fill="#37474F"/>
<path opacity="0.5" d="M134.082 56.0196L134.504 54.3367C133.072 53.8683 132.117 52.3765 132.117 50.2005C132.117 47.2971 133.796 44.1225 136.095 42.4458L131.584 40.4301C129.675 43.8019 128.967 47.7779 127.408 50.7984C127.1 51.3975 126.752 51.9839 126.366 52.5553L134.082 56.0196Z" fill="#37474F"/>
<path d="M168.307 48.2235L168.052 48.1064C167.102 47.7613 166.1 47.5087 165.069 47.3543C163.376 47.1152 161.801 46.5178 160.519 45.6283C160.196 45.3963 159.845 45.1898 159.469 45.0119C159.197 44.889 158.902 44.7996 158.594 44.7468C156.637 44.3831 153.073 46.0352 150.512 43.4646L150.432 43.3845C148.643 41.5352 147.99 37.3496 145.31 36.1229L145.039 36.0058C143.933 35.6051 142.494 35.6791 140.529 36.5544C133.425 39.7352 133.186 47.2865 130.625 52.2488C128.064 57.211 124.444 58.7706 122.471 60.8788C120.499 62.987 120.371 64.5774 115.996 69.2623C111.621 73.9472 111.462 75.0691 111.462 75.9506V82.9655L169.603 56.946V49.9741C169.646 49.6144 169.544 49.2534 169.312 48.9401C169.08 48.6268 168.729 48.3766 168.307 48.2235ZM118.192 76.4622C117.396 76.8012 116.823 76.3451 116.823 75.4389C116.813 75.0068 116.932 74.5786 117.169 74.1875C117.406 73.7963 117.756 73.4526 118.192 73.1828C118.987 72.8437 119.56 73.3061 119.56 74.2122C119.575 74.6422 119.461 75.0689 119.228 75.4592C118.994 75.8494 118.648 76.1927 118.216 76.4622H118.192ZM140.513 55.5035C138.604 56.3604 136.933 55.8734 136.034 54.4433C135.529 53.5615 135.287 52.6028 135.326 51.6385C135.326 48.2235 137.649 44.4201 140.513 43.1379C140.9 42.9595 141.322 42.8304 141.762 42.7557C144.021 42.4105 145.691 44.0934 145.691 47.003C145.715 50.4241 143.4 54.2275 140.537 55.5097L140.513 55.5035ZM163.049 56.385C162.253 56.7241 161.673 56.2679 161.673 55.3679C161.661 54.9359 161.779 54.5077 162.018 54.1172C162.257 53.7267 162.61 53.3846 163.049 53.1179C163.844 52.7789 164.417 53.2351 164.417 54.1412C164.431 54.5711 164.317 54.9977 164.084 55.3879C163.851 55.7781 163.505 56.1214 163.073 56.3912L163.049 56.385Z" fill="#37474F"/>
<path d="M145.712 47.0102C145.712 50.4252 143.397 54.2286 140.534 55.5107C138.625 56.3676 136.954 55.8806 136.055 54.4505C136.499 54.3787 136.924 54.2495 137.312 54.0683C140.176 52.7861 142.491 48.9827 142.491 45.5677C142.53 44.6034 142.288 43.6447 141.783 42.7629C144.042 42.4177 145.712 44.1314 145.712 47.0102Z" fill="#263238"/>
<path d="M118.213 76.4569C117.417 76.796 116.837 76.3398 116.837 75.4398C116.827 75.0071 116.946 74.5785 117.185 74.1872C117.424 73.796 117.775 73.4526 118.213 73.1837C118.969 72.8446 119.581 73.307 119.581 74.2131C119.591 74.6435 119.473 75.0698 119.236 75.459C118.998 75.8481 118.648 76.1896 118.213 76.4569Z" fill="#263238"/>
<path d="M163.06 56.3938C162.265 56.7329 161.692 56.2767 161.692 55.3767C161.681 54.9445 161.799 54.5162 162.037 54.125C162.274 53.7337 162.624 53.3901 163.06 53.1206C163.856 52.7815 164.436 53.2439 164.436 54.15C164.447 54.581 164.328 55.008 164.089 55.3973C163.85 55.7867 163.498 56.1278 163.06 56.3938Z" fill="#263238"/>
<path d="M80.1882 97.4856L200.91 43.4739C201.231 43.3492 201.585 43.2842 201.944 43.2842C202.303 43.2842 202.657 43.3492 202.978 43.4739L204.148 43.9979C204.448 44.1501 204.698 44.3549 204.878 44.5959C205.058 44.8368 205.162 45.107 205.182 45.3849V188.101C205.162 188.379 205.058 188.649 204.878 188.89C204.698 189.131 204.448 189.336 204.148 189.488L83.4258 243.5C83.1048 243.624 82.7507 243.689 82.3917 243.689C82.0326 243.689 81.6785 243.624 81.3575 243.5L80.1882 242.976C79.8876 242.823 79.6374 242.619 79.4578 242.378C79.2781 242.137 79.1741 241.867 79.1541 241.589V98.8726C79.1753 98.595 79.2799 98.3251 79.4594 98.0843C79.6389 97.8435 79.8885 97.6385 80.1882 97.4856Z" fill="#F5F5F5"/>
<path d="M205.134 45.1427C205.007 44.816 204.609 44.7112 204.14 44.9208L83.418 98.9325C83.1081 99.0843 82.8556 99.297 82.6862 99.549L79.4565 98.1065C79.6237 97.8533 79.8767 97.6402 80.1884 97.4901L200.91 43.4784C201.229 43.3508 201.582 43.2842 201.94 43.2842C202.299 43.2842 202.652 43.3508 202.971 43.4784L204.14 43.9962C204.396 44.1261 204.616 44.2945 204.787 44.4914C204.958 44.6884 205.076 44.9098 205.134 45.1427Z" fill="#FAFAFA"/>
<path d="M83.1712 243.584C83.0478 243.621 82.9199 243.648 82.7894 243.664H82.5905C82.3817 243.683 82.1709 243.683 81.9621 243.664C81.8316 243.648 81.7037 243.621 81.5803 243.584L81.3496 243.498L80.1882 242.98C79.8872 242.828 79.6366 242.623 79.4569 242.382C79.2773 242.141 79.1735 241.871 79.1541 241.593V98.8767C79.163 98.5976 79.2673 98.3254 79.4563 98.0877L82.686 99.5302C82.5025 99.7697 82.3986 100.041 82.3837 100.319V243.035C82.3837 243.473 82.7178 243.689 83.1712 243.584Z" fill="#E0E0E0"/>
<path d="M177.974 63.6923L174.792 62.2498C174.286 62.0596 173.728 61.9671 173.166 61.9799C172.603 61.9928 172.053 62.1108 171.562 62.3238C167.808 63.6059 166.185 64.1731 164.244 64.7895L162.844 65.2272C162.088 65.4614 160.569 65.2641 161.038 63.2114L166.026 52.7999H165.954L162.772 51.3821C162.611 51.3083 162.433 51.2601 162.247 51.2403C162.131 51.2334 162.014 51.2334 161.897 51.2403C159.853 51.2034 159.272 40.9953 159.256 40.6809L159.113 40.6192L155.979 39.2014C155.436 38.9631 154.821 38.8417 154.197 38.8501C153.162 38.871 152.147 39.0823 151.238 39.4665C146.33 41.4637 141.374 47.3815 140.165 52.6951C139.369 56.0485 135.05 61.208 132.536 63.1066C130.023 65.0052 129.848 66.5956 129.848 66.5956L127.891 75.1887L127.262 77.938C126.801 79.9907 124.08 81.9756 124.08 81.9756L113.962 87.8995C107.598 91.9803 105.832 96.098 104.615 101.196V101.233C104.615 101.412 104.615 101.535 104.726 101.584C104.743 101.592 104.762 101.596 104.782 101.596C104.802 101.596 104.821 101.592 104.838 101.584L106.134 101.011L175.802 69.8751C176.134 69.699 176.363 69.4288 176.439 69.123C176.837 67.2737 178.03 63.7786 178.03 63.7786L177.974 63.6923ZM157.833 47.9178C157.085 51.1849 154.046 54.828 151.023 56.0547C148.939 56.8992 147.42 56.3752 146.911 54.8896C146.536 55.0039 146.13 55.0429 145.731 55.003C145.332 54.9631 144.952 54.8456 144.628 54.6615C143.657 54.0451 152.535 42.2651 153.259 42.524C153.608 42.6638 153.912 42.8636 154.146 43.1083C154.38 43.353 154.539 43.636 154.611 43.9356C157.085 43.35 158.501 44.9836 157.833 47.9178Z" fill="#455A64"/>
<path opacity="0.5" d="M114.694 93.6109L109.619 91.3363C106.667 94.3383 105.49 97.5006 104.615 101.168V101.205C104.615 101.384 104.615 101.507 104.726 101.557C104.743 101.564 104.762 101.568 104.782 101.568C104.802 101.568 104.821 101.564 104.838 101.557L108.815 99.091L114.694 93.6109Z" fill="#37474F"/>
<path opacity="0.5" d="M126.939 78.8418L134.099 82.0411L137.328 67.5858L130.877 64.7009C130.364 65.2729 130.019 65.9252 129.867 66.6118L127.91 75.2049L127.281 77.9541C127.202 78.2573 127.087 78.5544 126.939 78.8418Z" fill="#37474F"/>
<path opacity="0.5" d="M143.558 45.8081C141.922 47.9404 140.776 50.2763 140.169 52.7121C139.66 54.4475 138.807 56.1111 137.64 57.6436L143.781 60.3929L146.827 54.9313C146.464 55.0319 146.074 55.0626 145.691 55.0207C145.309 54.9788 144.945 54.8656 144.632 54.6909C144.131 54.3827 146.223 51.1156 148.498 48.0457L143.558 45.8081Z" fill="#37474F"/>
<path d="M178.03 63.71H177.982C177.481 63.528 176.932 63.4404 176.379 63.4543C175.826 63.4682 175.285 63.5833 174.8 63.7902C170.195 65.3621 168.802 65.8799 166.05 66.7182C165.318 66.9463 163.847 66.7614 164.228 64.8319C164.225 64.7888 164.225 64.7456 164.228 64.7025L164.857 61.9532L166.599 54.4636C166.599 54.4636 166.997 53.2862 165.986 52.8424H165.915C165.666 52.7526 165.394 52.7063 165.119 52.7067C164.532 52.6526 163.968 52.4965 163.47 52.2499C162.971 52.0034 162.551 51.6728 162.24 51.2828C161.695 50.6566 161.319 49.9518 161.133 49.2105C160.947 48.4692 160.955 47.7065 161.158 46.9678C161.89 43.7562 161.086 41.5062 159.249 40.6678L159.106 40.6C157.92 40.1131 156.329 40.1932 154.468 40.9514C149.56 42.9486 144.604 48.8664 143.395 54.18C142.599 57.5334 138.28 62.6929 135.766 64.5915C133.253 66.4901 133.078 68.0805 133.078 68.0805L131.121 76.6736L130.492 79.4229C130.031 81.4756 127.31 83.4605 127.31 83.4605L117.232 89.3228C113.191 91.8148 110.275 95.2356 108.903 99.0932C108.903 99.0932 105.109 101.374 104.87 101.559L106.166 100.986L176.033 69.862C176.033 69.862 176.829 69.523 177.012 69.4367C177.195 69.3504 180.003 67.2915 180.003 67.2915C179.868 65.5162 179.199 64.2525 178.03 63.71ZM157.841 47.9171C157.093 51.1842 154.054 54.8273 151.032 56.054C148.947 56.8985 147.428 56.3745 146.919 54.8889C146.693 54.0535 146.693 53.1908 146.919 52.3554C147.667 49.0883 150.713 45.4452 153.736 44.2247C154.016 44.1081 154.309 44.0112 154.611 43.9349C157.093 43.3493 158.509 44.9829 157.841 47.9171Z" fill="#37474F"/>
<path d="M157.837 47.914C157.089 51.1811 154.05 54.8242 151.027 56.0509C148.943 56.8954 147.424 56.3714 146.915 54.8858C147.219 54.8108 147.514 54.716 147.798 54.6022C150.821 53.3694 153.867 49.7324 154.607 46.4654C154.837 45.6302 154.837 44.767 154.607 43.9318C157.089 43.3462 158.505 44.9798 157.837 47.914Z" fill="#263238"/>
<path d="M154.92 44.0703C155.204 44.0564 155.488 44.0996 155.745 44.1957C156.001 44.2918 156.221 44.4376 156.384 44.6189C157.632 45.9997 156.431 49.5134 155.914 50.6353C155.19 52.201 150.505 55.8688 149.216 55.8688C148.79 55.8145 148.383 55.6936 148.019 55.5134C147.655 55.3333 147.343 55.0976 147.1 54.8209C146.888 54.0072 146.888 53.1688 147.1 52.3551C147.84 49.1312 150.855 45.5312 153.814 44.3415C154.068 44.2304 154.334 44.1376 154.61 44.0641H154.888M154.888 43.91H154.57C154.268 43.9863 153.975 44.0832 153.695 44.1998C150.672 45.4326 147.625 49.0634 146.878 52.3305C146.651 53.1659 146.651 54.0286 146.878 54.864C147.137 55.1657 147.475 55.4222 147.869 55.6174C148.264 55.8127 148.706 55.9424 149.169 55.9983C150.569 55.9983 155.278 52.2997 156.033 50.6661C156.789 49.0326 158.42 43.8854 154.856 43.8854L154.888 43.91Z" fill="#263238"/>
<path d="M104.836 101.564L175.999 69.8611L176.986 69.4358C177.161 69.3556 179.977 67.2844 179.977 67.2844L108.861 99.0923C108.861 99.0923 104.549 101.675 104.836 101.564Z" fill="#263238"/>
<path d="M92.219 115.984L111.47 107.243V124.596L92.219 133.331V115.984Z" fill="#FAFAFA"/>
<path d="M93.0138 116.336V132.283L110.673 124.269V108.322L93.0138 116.336ZM92.2184 133.947C92.0793 133.946 91.9427 133.919 91.8206 133.867C91.6992 133.813 91.5985 133.734 91.5287 133.64C91.4588 133.546 91.4223 133.439 91.4229 133.331V115.984C91.4215 115.876 91.4568 115.77 91.5252 115.676C91.5936 115.581 91.6928 115.503 91.8127 115.448L111.063 106.713C111.184 106.659 111.321 106.63 111.461 106.63C111.601 106.63 111.738 106.659 111.859 106.713C111.979 106.767 112.079 106.844 112.149 106.937C112.218 107.03 112.256 107.136 112.256 107.243V124.596C112.256 124.703 112.218 124.809 112.149 124.902C112.079 124.995 111.979 125.072 111.859 125.126L92.6082 133.861C92.49 133.915 92.3557 133.945 92.2184 133.947Z" fill="#455A64"/>
<path d="M120.928 103.231V104.463C120.928 105.148 121.548 105.425 122.304 105.08L190.636 74.5172C191.037 74.3143 191.371 74.0413 191.612 73.7201C191.852 73.399 191.992 73.0385 192.02 72.6679V71.4042C192.02 70.7261 191.399 70.4487 190.636 70.7878L122.304 101.363C121.9 101.567 121.565 101.843 121.325 102.168C121.086 102.493 120.95 102.857 120.928 103.231Z" fill="#B7B7B7"/>
<path d="M120.928 111.21V112.443C120.928 113.121 121.548 113.398 122.304 113.059L190.636 82.4902C191.038 82.288 191.373 82.0152 191.613 81.6939C191.854 81.3725 191.993 81.0118 192.02 80.6409V79.408C192.02 78.7238 191.399 78.4464 190.636 78.7916L122.304 109.36C121.903 109.563 121.57 109.836 121.331 110.158C121.092 110.479 120.954 110.839 120.928 111.21Z" fill="#B7B7B7"/>
<path d="M121.16 118.624V119.857C121.16 120.535 121.781 120.813 122.536 120.474L190.868 89.9048C191.271 89.703 191.606 89.4303 191.846 89.1089C192.087 88.7875 192.226 88.4265 192.252 88.0555V86.8227C192.252 86.1446 191.632 85.8672 190.868 86.2062L122.536 116.775C122.137 116.979 121.805 117.252 121.566 117.573C121.327 117.894 121.188 118.254 121.16 118.624Z" fill="#B7B7B7"/>
<path d="M102.159 124.847L97.6807 121.512L99.6137 118.344L102.159 120.248L112.763 102.853L114.696 104.289L102.159 124.847Z" fill="#04C7B6"/>
<path d="M92.219 147.785L111.47 139.05V156.396L92.219 165.131V147.785Z" fill="#FAFAFA"/>
<path d="M93.0138 148.135V164.058L110.673 156.044V140.122L93.0138 148.135ZM92.2183 165.747C92.079 165.748 91.9418 165.72 91.8206 165.667C91.6992 165.612 91.5985 165.534 91.5286 165.44C91.4588 165.346 91.4223 165.239 91.4229 165.13V147.784C91.4229 147.677 91.4588 147.572 91.5272 147.479C91.5955 147.386 91.6939 147.308 91.8126 147.254L111.063 138.519C111.184 138.464 111.322 138.434 111.462 138.433C111.602 138.432 111.741 138.46 111.863 138.514C111.985 138.568 112.086 138.645 112.157 138.739C112.227 138.834 112.264 138.94 112.264 139.049V156.396C112.265 156.504 112.228 156.611 112.159 156.705C112.089 156.799 111.988 156.878 111.867 156.932L92.6161 165.667C92.4948 165.72 92.3577 165.748 92.2183 165.747Z" fill="#455A64"/>
<path d="M121.16 135.321V136.554C121.16 137.232 121.781 137.51 122.536 137.171L190.868 106.602C191.271 106.4 191.606 106.127 191.846 105.806C192.087 105.484 192.226 105.123 192.252 104.752V103.52C192.252 102.835 191.632 102.564 190.868 102.903L122.536 133.472C122.137 133.676 121.805 133.949 121.566 134.27C121.327 134.591 121.188 134.951 121.16 135.321Z" fill="#B7B7B7"/>
<path d="M121.16 142.903V144.136C121.16 144.82 121.781 145.091 122.536 144.752L190.868 114.184C191.271 113.982 191.606 113.709 191.846 113.388C192.087 113.066 192.226 112.705 192.252 112.334V111.101C192.252 110.423 191.632 110.146 190.868 110.485L122.536 141.06C122.137 141.262 121.804 141.534 121.565 141.855C121.326 142.175 121.187 142.534 121.16 142.903Z" fill="#B7B7B7"/>
<path d="M121.16 150.435V151.668C121.16 152.346 121.781 152.623 122.536 152.284L190.868 121.715C191.27 121.513 191.605 121.24 191.846 120.919C192.086 120.598 192.225 120.237 192.252 119.866V118.633C192.252 117.949 191.632 117.671 190.868 118.017L122.536 148.586C122.136 148.789 121.804 149.062 121.565 149.383C121.326 149.705 121.187 150.065 121.16 150.435Z" fill="#B7B7B7"/>
<path d="M102.159 156.656L97.6807 153.315L99.6137 150.152L102.159 152.051L112.763 134.655L114.696 136.098L102.159 156.656Z" fill="#04C7B6"/>
<path d="M92.219 179.593L111.47 170.852V188.205L92.219 196.94V179.593Z" fill="#FAFAFA"/>
<path d="M93.0138 179.944V195.866L110.673 187.853V171.93L93.0138 179.944ZM92.2184 197.556C92.079 197.556 91.9419 197.529 91.8206 197.475C91.6992 197.421 91.5985 197.343 91.5287 197.249C91.4588 197.154 91.4223 197.048 91.4229 196.939V179.593C91.4215 179.485 91.4568 179.378 91.5252 179.284C91.5936 179.19 91.6928 179.111 91.8127 179.056L111.063 170.322C111.185 170.266 111.323 170.236 111.464 170.235C111.605 170.235 111.744 170.263 111.866 170.318C111.988 170.372 112.09 170.451 112.16 170.546C112.23 170.641 112.266 170.749 112.264 170.858V188.204C112.264 188.312 112.226 188.417 112.157 188.51C112.087 188.603 111.987 188.681 111.867 188.734L92.6161 197.469C92.4956 197.525 92.3584 197.554 92.2184 197.556Z" fill="#455A64"/>
<path d="M121.16 167.129V168.362C121.16 169.04 121.781 169.318 122.536 168.979L190.868 138.447C191.27 138.245 191.605 137.972 191.846 137.65C192.086 137.329 192.225 136.968 192.252 136.597V135.365C192.252 134.68 191.632 134.403 190.868 134.748L122.536 165.317C122.143 165.517 121.814 165.784 121.575 166.099C121.336 166.413 121.194 166.766 121.16 167.129Z" fill="#B7B7B7"/>
<path d="M121.16 174.703V175.936C121.16 176.614 121.781 176.891 122.536 176.552L190.868 145.984C191.271 145.782 191.606 145.509 191.846 145.188C192.087 144.866 192.226 144.505 192.252 144.134V142.901C192.252 142.217 191.632 141.946 190.868 142.285L122.536 172.854C122.136 173.057 121.804 173.331 121.565 173.652C121.326 173.973 121.187 174.333 121.16 174.703Z" fill="#B7B7B7"/>
<path d="M121.16 182.245V183.477C121.16 184.162 121.781 184.433 122.536 184.094L190.868 153.525C191.271 153.324 191.607 153.051 191.847 152.729C192.088 152.408 192.227 152.047 192.252 151.676V150.412C192.252 149.734 191.632 149.457 190.868 149.796L122.536 180.371C122.131 180.576 121.795 180.853 121.556 181.179C121.317 181.505 121.181 181.87 121.16 182.245Z" fill="#B7B7B7"/>
<path d="M92.219 211.394L111.47 202.659V220.011L92.219 228.746V211.394Z" fill="#FAFAFA"/>
<path d="M93.0138 211.751V227.667L110.673 219.653V203.737L93.0138 211.751ZM92.2183 229.362C92.0074 229.362 91.805 229.297 91.6558 229.182C91.5067 229.066 91.4229 228.909 91.4229 228.746V211.393C91.4229 211.286 91.4588 211.181 91.5272 211.088C91.5955 210.995 91.6939 210.918 91.8126 210.863L111.063 202.128C111.184 202.074 111.321 202.046 111.461 202.046C111.601 202.046 111.738 202.074 111.859 202.128C111.98 202.183 112.081 202.261 112.151 202.355C112.221 202.449 112.257 202.556 112.256 202.665V220.017C112.256 220.125 112.218 220.23 112.149 220.323C112.079 220.416 111.979 220.494 111.859 220.547L92.6081 229.282C92.4892 229.334 92.355 229.362 92.2183 229.362Z" fill="#455A64"/>
<path d="M121.16 198.937V200.17C121.16 200.854 121.781 201.125 122.536 200.786L190.868 170.217C191.271 170.016 191.606 169.743 191.846 169.421C192.087 169.1 192.226 168.739 192.252 168.368V167.135C192.252 166.457 191.632 166.18 190.868 166.519L122.536 197.094C122.137 197.296 121.804 197.568 121.565 197.888C121.326 198.208 121.187 198.568 121.16 198.937Z" fill="#B7B7B7"/>
<path d="M121.16 206.513V207.746C121.16 208.43 121.781 208.707 122.536 208.362L190.868 177.799C191.269 177.597 191.604 177.324 191.844 177.002C192.084 176.681 192.224 176.321 192.252 175.95V174.686C192.252 174.008 191.632 173.731 190.868 174.07L122.536 204.645C122.132 204.85 121.797 205.126 121.558 205.45C121.319 205.775 121.182 206.139 121.16 206.513Z" fill="#B7B7B7"/>
<path d="M121.16 214.045V215.278C121.16 215.956 121.781 216.233 122.536 215.894L190.868 185.325C191.271 185.124 191.606 184.851 191.846 184.529C192.087 184.208 192.226 183.847 192.252 183.476V182.243C192.252 181.559 191.632 181.288 190.868 181.627L122.536 212.196C122.137 212.399 121.805 212.673 121.566 212.994C121.327 213.315 121.188 213.675 121.16 214.045Z" fill="#B7B7B7"/>
</svg>
