<svg width="274" height="274" viewBox="0 0 274 274" fill="none" xmlns="http://www.w3.org/2000/svg">
<path d="M209.341 34.799L208.459 34.3428L180.945 20.5137C174.572 16.8313 167.082 14.9113 159.447 15.0031C148.221 15.3474 137.295 18.2643 127.761 23.462C86.45 44.3109 53 97.1701 53 141.746V151.855C53 196.325 121.184 244.657 121.184 244.657L148.978 258.415C148.056 257.468 132.253 241.603 134.138 238.268C152.428 205.416 202.322 112.579 202.322 76.2862V66.1776C202.409 58.8427 201.343 51.5321 199.154 44.4513L202.362 46.0659L209.341 34.799ZM157.642 151.855C139.312 161.121 124.112 155.54 120.903 139.57C103.536 145.115 90.3807 136.376 90.3807 117.879C101.491 116.334 129.406 74.6014 127.761 61.2286C146.051 51.9625 161.251 57.5432 164.46 73.5133C181.867 67.9677 195.023 76.7074 195.023 95.2046C195.023 116.053 178.297 141.43 157.642 151.855Z" fill="#00B4A5"/>
<path d="M209.343 34.7991L208.461 34.3428C195.105 27.7793 177.257 28.6567 157.644 38.5547C128.084 53.5069 102.495 84.9205 90.3826 117.879C85.5962 130.448 83.0659 143.591 82.8823 156.839V166.877C82.8823 201.134 127.202 240.866 147.617 257.327C148.074 257.696 148.571 258.025 149.101 258.31C150.285 258.958 151.61 259.382 152.992 259.555C154.374 259.728 155.782 259.647 157.126 259.317C158.47 258.986 159.721 258.414 160.798 257.636C161.874 256.858 162.754 255.892 163.379 254.8C180.987 223.211 232.285 128.233 232.285 91.4139V81.2703C232.405 58.4559 223.581 42.2752 209.343 34.7991ZM120.905 139.57C120.457 137.393 120.242 135.183 120.263 132.971C120.263 112.122 136.988 86.7457 157.644 76.3213C159.823 75.2203 162.104 74.281 164.462 73.5133C181.869 67.9677 195.024 76.7074 195.024 95.2046C195.024 116.053 178.299 141.43 157.644 151.855C139.314 161.121 124.113 155.54 120.905 139.57Z" fill="#68DDD3"/>
</svg>
