<svg width="310" height="310" viewBox="0 0 310 310" fill="none" xmlns="http://www.w3.org/2000/svg">
<path d="M155 292C151.762 292 146.906 286.797 144.131 284.492C141.125 281.994 139.159 280.457 136.616 278.154C121.584 264.334 108.288 250.86 96.725 237.731C85.1625 224.603 75.5078 211.877 67.7609 199.555C60.0141 187.232 54.1172 175.37 50.0703 163.969C46.0234 152.568 44 141.685 44 131.321C44 96.7716 55.1578 69.2476 77.4734 48.7486C99.7891 28.2495 125.631 18 155 18C184.369 18 210.211 28.2495 232.527 48.7486C254.842 69.2476 266 96.7716 266 131.321C266 141.685 263.977 152.568 259.93 163.969C255.883 175.37 249.986 187.232 242.239 199.555C234.492 211.877 224.838 224.603 213.275 237.731C201.713 250.86 188.416 264.334 173.384 278.154C170.841 280.457 167.719 283.063 164.713 285.648C161.359 288.532 158.238 292 155 292ZM155 156.196C162.631 156.196 169.164 153.489 174.598 148.077C180.033 142.664 182.75 136.157 182.75 128.557C182.75 120.956 180.033 114.449 174.598 109.036C169.164 103.624 162.631 100.917 155 100.917C147.369 100.917 140.836 103.624 135.402 109.036C129.967 114.449 127.25 120.956 127.25 128.557C127.25 136.157 129.967 142.664 135.402 148.077C140.836 153.489 147.369 156.196 155 156.196Z" fill="#397CFF"/>
</svg>
