<svg width="310" height="310" viewBox="0 0 310 310" fill="none" xmlns="http://www.w3.org/2000/svg">
<path d="M95.75 186.89C99.0792 186.89 101.87 185.757 104.122 183.491C106.374 181.224 107.5 178.416 107.5 175.066C107.5 171.716 106.374 168.908 104.122 166.641C101.87 164.375 99.0792 163.242 95.75 163.242C92.4208 163.242 89.6302 164.375 87.3781 166.641C85.126 168.908 84 171.716 84 175.066C84 178.416 85.126 181.224 87.3781 183.491C89.6302 185.757 92.4208 186.89 95.75 186.89ZM95.75 151.418C99.0792 151.418 101.87 150.285 104.122 148.018C106.374 145.752 107.5 142.944 107.5 139.593C107.5 136.243 106.374 133.435 104.122 131.169C101.87 128.902 99.0792 127.769 95.75 127.769C92.4208 127.769 89.6302 128.902 87.3781 131.169C85.126 133.435 84 136.243 84 139.593C84 142.944 85.126 145.752 87.3781 148.018C89.6302 150.285 92.4208 151.418 95.75 151.418ZM95.75 115.945C99.0792 115.945 101.87 114.812 104.122 112.546C106.374 110.279 107.5 107.471 107.5 104.121C107.5 100.771 106.374 97.9625 104.122 95.6962C101.87 93.4299 99.0792 92.2967 95.75 92.2967C92.4208 92.2967 89.6302 93.4299 87.3781 95.6962C85.126 97.9625 84 100.771 84 104.121C84 107.471 85.126 110.279 87.3781 112.546C89.6302 114.812 92.4208 115.945 95.75 115.945ZM142.75 185.89H178C181.329 185.89 184.12 185.757 186.372 183.491C188.624 181.224 189.75 178.416 189.75 175.066C189.75 171.716 188.624 169.908 186.372 167.641C184.12 165.375 181.329 165.242 178 165.242H142.75C139.421 165.242 136.63 165.375 134.378 167.641C132.126 169.908 131 171.716 131 175.066C131 178.416 132.126 181.224 134.378 183.491C136.63 185.757 139.421 185.89 142.75 185.89ZM142.75 149.418H213.25C216.579 149.418 219.37 149.285 221.622 147.018C223.874 144.752 225 142.944 225 139.593C225 136.243 223.874 134.435 221.622 132.169C219.37 129.902 216.579 129.769 213.25 129.769H142.75C139.421 129.769 136.63 129.902 134.378 132.169C132.126 134.435 131 136.243 131 139.593C131 142.944 132.126 144.752 134.378 147.018C136.63 149.285 139.421 149.418 142.75 149.418ZM142.75 112.945H213.25C216.579 112.945 219.37 112.812 221.622 110.546C223.874 108.279 225 106.471 225 103.121C225 99.7707 223.874 97.9625 221.622 95.6962C219.37 93.4299 216.579 92.2967 213.25 92.2967H142.75C139.421 92.2967 136.63 93.4299 134.378 95.6962C132.126 97.9625 131 99.7707 131 103.121C131 106.471 132.126 108.279 134.378 110.546C136.63 112.812 139.421 112.945 142.75 112.945ZM84 234.187L56.975 261.383C53.2542 265.127 48.9948 265.964 44.1969 263.895C39.399 261.826 37 258.131 37 252.81V68.6484C37 62.1451 39.301 56.5778 43.9031 51.9467C48.5052 47.3156 54.0375 45 60.5 45H248.5C254.963 45 260.495 47.3156 265.097 51.9467C269.699 56.5778 272 62.1451 272 68.6484V210.539C272 217.042 269.699 222.609 265.097 227.24C260.495 231.871 254.963 234.187 248.5 234.187H84Z" fill="#397CFF"/>
</svg>
