<svg width="310" height="310" viewBox="0 0 310 310" fill="none" xmlns="http://www.w3.org/2000/svg">
<path d="M57.875 253C53.9438 253 50.6484 251.658 47.9891 248.975C45.3297 246.292 44 242.967 44 239C44 235.033 45.3297 231.708 47.9891 229.025C50.6484 226.342 53.9438 225 57.875 225H71.75V127C71.75 107.633 77.5312 90.425 89.0938 75.375C100.656 60.325 115.688 50.4667 134.188 45.8V36C134.188 30.1667 136.211 25.2083 140.258 21.125C144.305 17.0417 149.219 15 155 15C160.781 15 165.695 17.0417 169.742 21.125C173.789 25.2083 175.812 30.1667 175.812 36V45.8C194.312 50.4667 209.344 60.325 220.906 75.375C232.469 90.425 238.25 107.633 238.25 127V225H252.125C256.056 225 259.352 226.342 262.011 229.025C264.67 231.708 266 235.033 266 239C266 242.967 264.67 246.292 262.011 248.975C259.352 251.658 256.056 253 252.125 253H57.875ZM155 295C147.369 295 140.836 292.258 135.402 286.775C129.967 281.292 127.25 274.7 127.25 267H182.75C182.75 274.7 180.033 281.292 174.598 286.775C169.164 292.258 162.631 295 155 295Z" fill="#397CFF"/>
</svg>
