<svg width="28" height="28" viewBox="0 0 28 28" fill="none" xmlns="http://www.w3.org/2000/svg">
<path d="M5.22735 22.8516C4.87227 22.8516 4.57463 22.7304 4.33442 22.4881C4.09422 22.2457 3.97412 21.9454 3.97412 21.5871C3.97412 21.2288 4.09422 20.9285 4.33442 20.6861C4.57463 20.4438 4.87227 20.3226 5.22735 20.3226H6.48057V11.471C6.48057 9.72174 7.00275 8.16744 8.0471 6.80808C9.09146 5.44873 10.4491 4.5583 12.1201 4.13679V3.25163C12.1201 2.72475 12.3029 2.2769 12.6684 1.90808C13.0339 1.53927 13.4778 1.35486 13.9999 1.35486C14.5221 1.35486 14.966 1.53927 15.3315 1.90808C15.697 2.2769 15.8798 2.72475 15.8798 3.25163V4.13679C17.5507 4.5583 18.9084 5.44873 19.9528 6.80808C20.9971 8.16744 21.5193 9.72174 21.5193 11.471V20.3226H22.7725C23.1276 20.3226 23.4252 20.4438 23.6654 20.6861C23.9056 20.9285 24.0257 21.2288 24.0257 21.5871C24.0257 21.9454 23.9056 22.2457 23.6654 22.4881C23.4252 22.7304 23.1276 22.8516 22.7725 22.8516H5.22735ZM13.9999 26.6452C13.3107 26.6452 12.7206 26.3975 12.2297 25.9023C11.7389 25.407 11.4935 24.8116 11.4935 24.1161H16.5064C16.5064 24.8116 16.261 25.407 15.7701 25.9023C15.2793 26.3975 14.6892 26.6452 13.9999 26.6452Z" fill="#6851FF"/>
</svg>
