<svg width="92" height="24" viewBox="0 0 92 24" fill="none" xmlns="http://www.w3.org/2000/svg">
<path d="M52 17.24L57.312 5H57.44L62.752 17.24H60.064L56.672 8.632L58.352 7.48L54.288 17.24H52ZM55.632 12.984H59.168L59.984 14.936H54.912L55.632 12.984Z" fill="#6F2ADF"/>
<path d="M12.784 5L16.224 13.48L14.88 13.208L18 5H20.752L15.376 17.32L10 5H12.784Z" fill="#3167D2"/>
<path d="M67.7289 17.192C67.3129 17.192 66.9022 17.1174 66.4969 16.968C66.1022 16.808 65.7715 16.584 65.5049 16.296L65.5689 15.64V20.36H63.3449V9.84804H65.2649L65.5849 11.208L65.4089 10.728C65.7715 10.4187 66.1769 10.1627 66.6249 9.96004C67.0729 9.75737 67.5902 9.65604 68.1769 9.65604C68.8275 9.65604 69.4089 9.8107 69.9209 10.12C70.4329 10.4187 70.8329 10.856 71.1209 11.432C71.4195 11.9974 71.5689 12.68 71.5689 13.48C71.5689 14.2694 71.4035 14.9414 71.0729 15.496C70.7422 16.0507 70.2889 16.472 69.7129 16.76C69.1369 17.048 68.4755 17.192 67.7289 17.192ZM67.2809 15.432C67.6435 15.432 67.9742 15.352 68.2729 15.192C68.5822 15.032 68.8275 14.808 69.0089 14.52C69.2009 14.2214 69.2969 13.8854 69.2969 13.512C69.2969 13.1174 69.2115 12.776 69.0409 12.488C68.8809 12.1894 68.6569 11.96 68.3689 11.8C68.0915 11.6294 67.7822 11.544 67.4409 11.544C67.1422 11.544 66.8755 11.5867 66.6409 11.672C66.4169 11.7467 66.2142 11.864 66.0329 12.024C65.8622 12.1734 65.7129 12.3654 65.5849 12.6V14.312C65.6702 14.536 65.7929 14.7334 65.9529 14.904C66.1129 15.0747 66.3049 15.208 66.5289 15.304C66.7635 15.3894 67.0142 15.432 67.2809 15.432Z" fill="#6F2ADF"/>
<path d="M77.7133 17.192C77.2973 17.192 76.8866 17.1174 76.4813 16.968C76.0866 16.808 75.7559 16.584 75.4893 16.296L75.5532 15.64V20.36H73.3293V9.84804H75.2492L75.5692 11.208L75.3933 10.728C75.7559 10.4187 76.1612 10.1627 76.6092 9.96004C77.0572 9.75737 77.5746 9.65604 78.1613 9.65604C78.8119 9.65604 79.3933 9.8107 79.9053 10.12C80.4173 10.4187 80.8173 10.856 81.1053 11.432C81.4039 11.9974 81.5532 12.68 81.5532 13.48C81.5532 14.2694 81.3879 14.9414 81.0573 15.496C80.7266 16.0507 80.2733 16.472 79.6973 16.76C79.1213 17.048 78.4599 17.192 77.7133 17.192ZM77.2653 15.432C77.6279 15.432 77.9586 15.352 78.2573 15.192C78.5666 15.032 78.8119 14.808 78.9933 14.52C79.1853 14.2214 79.2813 13.8854 79.2813 13.512C79.2813 13.1174 79.1959 12.776 79.0252 12.488C78.8652 12.1894 78.6413 11.96 78.3533 11.8C78.0759 11.6294 77.7666 11.544 77.4253 11.544C77.1266 11.544 76.8599 11.5867 76.6252 11.672C76.4012 11.7467 76.1986 11.864 76.0173 12.024C75.8466 12.1734 75.6972 12.3654 75.5692 12.6V14.312C75.6546 14.536 75.7773 14.7334 75.9373 14.904C76.0973 15.0747 76.2892 15.208 76.5132 15.304C76.7479 15.3894 76.9986 15.432 77.2653 15.432Z" fill="#6F2ADF"/>
<path d="M21.9328 10.6366H24.1728V17.6286H21.9328V10.6366ZM21.8848 8.15664C21.8848 7.82597 22.0128 7.55397 22.2688 7.34064C22.5354 7.12731 22.8181 7.02064 23.1168 7.02064C23.4154 7.02064 23.6874 7.12731 23.9328 7.34064C24.1888 7.55397 24.3168 7.82597 24.3168 8.15664C24.3168 8.48731 24.1888 8.75931 23.9328 8.97264C23.6874 9.17531 23.4154 9.27664 23.1168 9.27664C22.8181 9.27664 22.5354 9.17531 22.2688 8.97264C22.0128 8.75931 21.8848 8.48731 21.8848 8.15664Z" fill="#3167D2"/>
<path d="M27.1356 7.56464H29.3756V10.6046H31.0716V12.3486H29.3756V17.6286H27.1356V12.3486H26.0476V10.6046H27.1356V7.56464Z" fill="#3167D2"/>
<path d="M35.7205 17.8206C35.0698 17.8206 34.4778 17.6926 33.9445 17.4366C33.4218 17.17 33.0058 16.7646 32.6965 16.2206C32.3872 15.6766 32.2325 14.9833 32.2325 14.1406C32.2325 13.3513 32.3925 12.6686 32.7125 12.0926C33.0325 11.5166 33.4538 11.074 33.9765 10.7646C34.4992 10.4446 35.0538 10.2846 35.6405 10.2846C36.3338 10.2846 36.8565 10.402 37.2085 10.6366C37.5712 10.8606 37.8698 11.1113 38.1045 11.3886L38.0085 11.6606L38.2165 10.6366H40.2965V17.6286H38.0565V16.1086L38.2325 16.5886C38.2112 16.5886 38.1472 16.6526 38.0405 16.7806C37.9338 16.898 37.7738 17.042 37.5605 17.2126C37.3578 17.3726 37.1018 17.5113 36.7925 17.6286C36.4938 17.7566 36.1365 17.8206 35.7205 17.8206ZM36.3605 15.9966C36.6272 15.9966 36.8672 15.9593 37.0805 15.8846C37.2938 15.7993 37.4805 15.682 37.6405 15.5326C37.8005 15.3726 37.9392 15.1753 38.0565 14.9406V13.2286C37.9712 12.994 37.8432 12.7966 37.6725 12.6366C37.5019 12.466 37.2992 12.338 37.0645 12.2526C36.8298 12.1566 36.5685 12.1086 36.2805 12.1086C35.9605 12.1086 35.6618 12.194 35.3845 12.3646C35.1178 12.5246 34.9045 12.7486 34.7445 13.0366C34.5845 13.3246 34.5045 13.6553 34.5045 14.0286C34.5045 14.402 34.5898 14.738 34.7605 15.0366C34.9312 15.3353 35.1552 15.57 35.4325 15.7406C35.7205 15.9113 36.0299 15.9966 36.3605 15.9966Z" fill="#3167D2"/>
<path d="M42.6046 5.00464H44.8446V17.6286H42.6046V5.00464Z" fill="#3167D2"/>
<path d="M47.1515 10.6366H49.3915V17.6286H47.1515V10.6366ZM47.1035 8.15664C47.1035 7.82597 47.2315 7.55397 47.4875 7.34064C47.7542 7.12731 48.0369 7.02064 48.3355 7.02064C48.6342 7.02064 48.9062 7.12731 49.1515 7.34064C49.4075 7.55397 49.5355 7.82597 49.5355 8.15664C49.5355 8.48731 49.4075 8.75931 49.1515 8.97264C48.9062 9.17531 48.6342 9.27664 48.3355 9.27664C48.0369 9.27664 47.7542 9.17531 47.4875 8.97264C47.2315 8.75931 47.1035 8.48731 47.1035 8.15664Z" fill="#3167D2"/>
</svg>
