<svg width="274" height="182" viewBox="0 0 274 182" fill="none" xmlns="http://www.w3.org/2000/svg">
<path d="M34.3814 118.687C31.5719 118.738 27.4802 118.847 24.7073 118.847H24.5466V118.687L24.5283 114.614V114.428H24.711C27.6081 114.428 31.6304 114.454 34.4873 114.512C34.4873 115.746 34.4069 117.424 34.385 118.683L34.3814 118.687ZM34.3814 118.687C34.3448 117.493 34.3083 115.775 34.2827 114.614L34.3814 114.712C31.5829 114.763 27.546 114.785 24.7073 114.792L24.89 114.614L24.8681 118.687L24.7073 118.523C27.4437 118.523 31.6085 118.629 34.3814 118.687Z" fill="#EBEBEB"/>
<path d="M28.9854 123.822C26.176 123.873 22.0843 123.982 19.3114 123.982H19.147V123.822V119.749V119.563H19.3296C22.2231 119.563 26.2491 119.589 29.1023 119.647C29.1023 120.881 29.0256 122.559 29.0037 123.819L28.9854 123.822ZM28.9854 123.822C28.9489 122.628 28.9087 120.91 28.8868 119.749L28.9854 119.847C26.1869 119.898 22.15 119.92 19.3114 119.927L19.494 119.749L19.4721 123.822L19.3114 123.658C22.0441 123.658 26.2125 123.764 28.9854 123.822Z" fill="#EBEBEB"/>
<path d="M165.456 66.1904C162.65 66.2414 158.555 66.3506 155.782 66.3506H155.632V66.1904L155.61 62.1173V61.9316H155.793C158.69 61.9316 162.716 61.9571 165.569 62.0154C165.569 63.2493 165.489 64.9274 165.467 66.1868L165.456 66.1904ZM165.456 66.1904C165.423 64.9965 165.383 63.2784 165.357 62.1173L165.456 62.2156C162.661 62.2665 158.621 62.2884 155.782 62.2993L155.965 62.1173L155.946 66.1904L155.782 66.0266C158.518 66.0266 162.687 66.1322 165.456 66.1904Z" fill="#EBEBEB"/>
<path d="M160.059 71.3442C157.25 71.3952 153.158 71.5044 150.385 71.5044H150.225V71.3442L150.203 67.2711V67.0854H150.385C153.282 67.0854 157.305 67.1109 160.162 67.1692C160.162 68.4031 160.081 70.0812 160.059 71.3406V71.3442ZM160.059 71.3442C160.023 70.1503 159.986 68.4322 159.961 67.2711L160.059 67.3694C157.265 67.4203 153.224 67.4422 150.385 67.4531L150.568 67.2711L150.55 71.3442L150.385 71.1804C153.122 71.1804 157.286 71.286 160.059 71.3442Z" fill="#EBEBEB"/>
<path d="M154.686 66.1904C151.876 66.2414 147.784 66.3506 145.012 66.3506H144.851V66.1904L144.833 62.1173V61.9316H145.015C147.909 61.9316 151.935 61.9571 154.788 62.0154C154.788 63.2493 154.711 64.9274 154.689 66.1868L154.686 66.1904ZM154.686 66.1904C154.649 64.9965 154.612 63.2784 154.587 62.1173L154.686 62.2156C151.887 62.2665 147.85 62.2884 145.012 62.2993L145.194 62.1173L145.172 66.1904L145.012 66.0266C147.748 66.0266 151.913 66.1322 154.686 66.1904Z" fill="#EBEBEB"/>
<path d="M254.688 123.823C251.879 123.874 247.787 123.983 245.014 123.983H244.853V123.823L244.832 119.757V119.572H245.014C247.911 119.572 251.934 119.597 254.791 119.656C254.791 120.889 254.71 122.567 254.688 123.827V123.823ZM254.688 123.823C254.652 122.629 254.615 120.911 254.59 119.75L254.688 119.848C251.893 119.899 247.853 119.921 245.014 119.929L245.197 119.75V123.823L245.032 123.66C247.769 123.66 251.934 123.765 254.707 123.823H254.688Z" fill="#EBEBEB"/>
<path d="M249.292 24.2034C246.483 24.2543 242.391 24.3635 239.618 24.3635H239.458V24.1997L239.439 20.1266V19.9409H239.622C242.519 19.9409 246.542 19.9664 249.398 20.0246C249.398 21.2586 249.318 22.9366 249.296 24.1961L249.292 24.2034ZM249.292 24.2034C249.256 23.0094 249.219 21.2914 249.194 20.1302L249.292 20.2285C246.494 20.2794 242.457 20.3049 239.618 20.3122L239.801 20.1302V24.2034L239.637 24.0396C242.373 24.0396 246.538 24.1451 249.311 24.2034H249.292Z" fill="#EBEBEB"/>
<path d="M254.688 29.3384C251.879 29.3893 247.787 29.4985 245.014 29.4985H244.853V29.3384L244.832 25.2652V25.0796H245.014C247.911 25.0796 251.934 25.1051 254.791 25.1633C254.791 26.3973 254.71 28.0753 254.688 29.3347V29.3384ZM254.688 29.3384C254.652 28.1445 254.615 26.4264 254.59 25.2652L254.688 25.3635C251.893 25.4145 247.853 25.44 245.014 25.4472L245.197 25.2652V29.3384L245.032 29.1746C247.769 29.1746 251.934 29.2801 254.707 29.3384H254.688Z" fill="#EBEBEB"/>
<path d="M34.3816 24.2031C31.5722 24.2541 27.4804 24.3633 24.7076 24.3633H24.5468V24.1995L24.5249 20.13V19.9443H24.7076C27.6047 19.9443 31.627 19.9698 34.4839 20.0281C34.4839 21.262 34.4035 22.9401 34.3816 24.1995V24.2031ZM34.3816 24.2031C34.3451 23.0092 34.3085 21.2911 34.283 20.13L34.3816 20.2283C31.5831 20.2792 27.5462 20.3047 24.7076 20.312L24.8902 20.13L24.8683 24.2031L24.7076 24.0248C27.4439 24.0248 31.6087 24.1303 34.3816 24.1886V24.2031Z" fill="#EBEBEB"/>
<path d="M23.4612 154.133H91.742L93.1595 126.218H22.04L23.4612 154.133Z" fill="#EBEBEB"/>
<path d="M88.5053 138.994H59.9582L59.4248 129.304H89.141L88.5053 138.994ZM60.2797 138.652H88.1765L88.7757 129.646H59.7865L60.2797 138.652Z" fill="#DBDBDB"/>
<path d="M87.9795 150.143H61.0763L60.6416 141.407H88.5275L87.9795 150.143ZM61.4051 149.801H87.6543L88.1585 141.738H61.0106L61.4051 149.801Z" fill="#DBDBDB"/>
<path d="M76.9787 135.201H72.1819L71.8823 132.864H77.282L76.9787 135.201ZM72.4851 134.858H76.6755L76.891 133.206H72.2732L72.4851 134.858Z" fill="#DBDBDB"/>
<path d="M76.9787 146.941H72.1819L71.8823 144.604H77.282L76.9787 146.941ZM72.4851 146.596H76.6755L76.891 144.947H72.2732L72.4851 146.596Z" fill="#DBDBDB"/>
<path d="M54.9277 138.994H26.3806L25.8472 129.304H55.5524L54.9277 138.994ZM26.7094 138.652H54.6062L55.1834 129.646H26.2088L26.7094 138.652Z" fill="#DBDBDB"/>
<path d="M54.4014 150.143H27.4982L27.0635 141.407H54.9494L54.4014 150.143ZM27.827 149.801H54.0689L54.5767 141.738H27.4252L27.827 149.801Z" fill="#DBDBDB"/>
<path d="M43.4052 135.201H38.6084L38.3052 132.864H43.7048L43.4052 135.201ZM38.908 134.858H43.1093L43.3212 133.206H38.6961L38.908 134.858Z" fill="#DBDBDB"/>
<path d="M43.4052 146.941H38.6084L38.3052 144.604H43.7048L43.4052 146.941ZM38.908 146.596H43.1093L43.3212 144.947H38.6961L38.908 146.596Z" fill="#DBDBDB"/>
<path d="M29.5844 154.133L29.157 157.172L28.2911 163.284H26.6069V154.133H29.5844Z" fill="#EBEBEB"/>
<path d="M29.5844 154.133L29.157 157.172H26.6069V154.133H29.5844Z" fill="#DBDBDB"/>
<path d="M85.6152 154.133L86.0463 157.172L86.9085 163.284H88.5927V154.133H85.6152Z" fill="#EBEBEB"/>
<path d="M85.6152 154.133L86.0463 157.172H88.5927V154.133H85.6152Z" fill="#DBDBDB"/>
<path d="M254.878 31.0972H234.2V56.0858H254.878V31.0972Z" fill="#EBEBEB"/>
<path d="M252.511 33.3799H236.561V53.8076H252.511V33.3799Z" fill="white"/>
<path d="M237.182 33.3799H236.561V53.8076H237.182V33.3799Z" fill="#DBDBDB"/>
<path d="M255.496 31.0972H254.875V56.0858H255.496V31.0972Z" fill="#DBDBDB"/>
<path d="M245.669 36.1934H241.906V47.3572H245.669V36.1934Z" fill="#DBDBDB"/>
<path d="M250.479 49.45H240.082V43.626H250.479V49.45ZM240.447 49.086H250.114V43.99H240.447V49.086Z" fill="#EBEBEB"/>
<path d="M244.539 64.9829H223.861V89.9715H244.539V64.9829Z" fill="#EBEBEB"/>
<path d="M242.172 67.2607H226.221V87.6884H242.172V67.2607Z" fill="white"/>
<path d="M226.842 67.2607H226.221V87.6884H226.842V67.2607Z" fill="#DBDBDB"/>
<path d="M245.157 64.9829H244.536V89.9715H245.157V64.9829Z" fill="#DBDBDB"/>
<path d="M235.877 72.542H232.655V80.6592H235.877V72.542Z" fill="#EBEBEB"/>
<path d="M239.451 83.2517H230.431V77.293H239.451V83.2517ZM230.796 82.8877H239.085V77.657H230.796V82.8877Z" fill="#DBDBDB"/>
<path d="M57.3867 38.2707C60.0974 29.8435 55.4382 20.8225 46.9801 18.1217C38.5221 15.4209 29.468 20.063 26.7573 28.4902C24.0466 36.9174 28.7057 45.9385 37.1638 48.6393C45.6219 51.3401 54.676 46.6979 57.3867 38.2707Z" fill="#EBEBEB"/>
<path d="M49.054 47.699C56.795 44.2635 60.275 35.226 56.8269 27.5132C53.3788 19.8004 44.3082 16.3331 36.5671 19.7686C28.8261 23.2042 25.3461 32.2417 28.7942 39.9545C32.2423 47.6672 41.3129 51.1346 49.054 47.699Z" fill="#DBDBDB"/>
<path d="M45.43 48.1036C53.2901 46.7588 58.5679 39.3199 57.2182 31.4884C55.8684 23.6569 48.4023 18.3984 40.5422 19.7432C32.682 21.088 27.4042 28.5269 28.754 36.3584C30.1037 44.1899 37.5698 49.4484 45.43 48.1036Z" fill="white"/>
<path opacity="0.5" d="M56.8564 30.697C50.3133 34.6464 39.5542 41.1329 33.5372 44.6856C31.8387 43.2559 30.4946 41.4546 29.6099 39.4221L49.4986 21.0547C51.3571 22.0294 52.9788 23.3977 54.25 25.0635C55.5211 26.7293 56.4107 28.6521 56.8564 30.697Z" fill="#EBEBEB"/>
<path opacity="0.5" d="M57.1748 34.2358C57.1225 35.8298 56.8014 37.4036 56.2249 38.8914L38.2944 47.3398C37.513 47.0806 36.7552 46.7554 36.0293 46.368C41.4472 43.2521 51.3441 37.5774 57.1748 34.2358Z" fill="#EBEBEB"/>
<path d="M42.9481 20.4497H42.6704V22.6191H42.9481V20.4497Z" fill="#C7C7C7"/>
<path d="M36.2629 22.1581L36.0225 22.2964L37.1112 24.1752L37.3516 24.0369L36.2629 22.1581Z" fill="#C7C7C7"/>
<path d="M31.3283 26.9728L31.1895 27.2124L33.0751 28.2971L33.214 28.0575L31.3283 26.9728Z" fill="#C7C7C7"/>
<path d="M31.652 33.5972H29.4746V33.8738H31.652V33.5972Z" fill="#C7C7C7"/>
<path d="M33.0756 39.1721L31.1899 40.2568L31.3288 40.4964L33.2144 39.4117L33.0756 39.1721Z" fill="#C7C7C7"/>
<path d="M37.1089 43.2899L36.0215 45.1694L36.262 45.3076L37.3494 43.428L37.1089 43.2899Z" fill="#C7C7C7"/>
<path d="M42.9481 44.8491H42.6704V47.0186H42.9481V44.8491Z" fill="#C7C7C7"/>
<path d="M48.5031 43.2904L48.2627 43.4287L49.3514 45.3075L49.5918 45.1692L48.5031 43.2904Z" fill="#C7C7C7"/>
<path d="M52.5338 39.1681L52.395 39.4077L54.2807 40.4924L54.4195 40.2529L52.5338 39.1681Z" fill="#C7C7C7"/>
<path d="M56.1364 33.5972H53.959V33.8738H56.1364V33.5972Z" fill="#C7C7C7"/>
<path d="M54.2861 26.9763L52.4004 28.061L52.5392 28.3006L54.4249 27.2159L54.2861 26.9763Z" fill="#C7C7C7"/>
<path d="M49.3528 22.1607L48.2651 24.04L48.5057 24.1782L49.5934 22.2989L49.3528 22.1607Z" fill="#C7C7C7"/>
<path d="M43.0179 21.4375L43.4892 34.7016L42.1265 34.6871L42.6452 21.4302L43.0179 21.4375Z" fill="#C7C7C7"/>
<path d="M51.3114 29.1096L42.3534 34.8062L41.7031 33.6123L51.136 28.7856L51.3114 29.1096Z" fill="#A6A6A6"/>
<path d="M43.2741 33.7364C43.2741 33.8287 43.2466 33.919 43.195 33.9957C43.1435 34.0724 43.0703 34.1321 42.9846 34.1672C42.8989 34.2024 42.8047 34.2114 42.7139 34.1931C42.6231 34.1748 42.5398 34.1301 42.4745 34.0646C42.4093 33.9991 42.365 33.9157 42.3474 33.8251C42.3298 33.7345 42.3396 33.6407 42.3755 33.5556C42.4115 33.4705 42.472 33.398 42.5494 33.3473C42.6267 33.2965 42.7175 33.2698 42.8101 33.2705C42.8714 33.2705 42.932 33.2826 42.9885 33.3061C43.0451 33.3295 43.0964 33.3639 43.1395 33.4072C43.1827 33.4505 43.2168 33.5019 43.2399 33.5584C43.263 33.6149 43.2746 33.6754 43.2741 33.7364Z" fill="#C7C7C7"/>
<path d="M222.63 34.8286H51.373V163.281H222.63V34.8286Z" fill="#EBEBEB"/>
<path d="M42.3384 163.281H51.373L51.373 34.8288H42.3384L42.3384 163.281Z" fill="#DBDBDB"/>
<path d="M222.63 34.8286H51.373V48.6861H222.63V34.8286Z" fill="#3167D2" fill-opacity="0.26"/>
<path d="M86.5979 62.4775H69.6318V79.3817H86.5979V62.4775Z" fill="#B0BEC5"/>
<path opacity="0.8" d="M86.5979 62.4775H69.6318V79.3817H86.5979V62.4775Z" fill="#4D3AC9" fill-opacity="0.3"/>
<path d="M106.217 62.4775H89.2505V79.3817H106.217V62.4775Z" fill="white"/>
<path d="M125.857 62.4775H108.891V79.3817H125.857V62.4775Z" fill="white"/>
<path d="M145.483 62.4775H128.517V79.3817H145.483V62.4775Z" fill="white"/>
<path d="M165.112 62.4775H148.146V79.3817H165.112V62.4775Z" fill="white"/>
<path d="M184.738 62.4775H167.771V79.3817H184.738V62.4775Z" fill="white"/>
<path d="M204.367 62.4775H187.401V79.3817H204.367V62.4775Z" fill="white"/>
<path d="M86.5979 81.5957H69.6318V98.4999H86.5979V81.5957Z" fill="#B0BEC5"/>
<path opacity="0.8" d="M86.5979 81.5957H69.6318V98.4999H86.5979V81.5957Z" fill="#989EC6"/>
<path d="M106.228 81.5957H89.2617V98.4999H106.228V81.5957Z" fill="white"/>
<path d="M125.854 81.5957H108.888V98.4999H125.854V81.5957Z" fill="white"/>
<path d="M145.483 81.5957H128.517V98.4999H145.483V81.5957Z" fill="white"/>
<path d="M165.112 81.5957H148.146V98.4999H165.112V81.5957Z" fill="white"/>
<path d="M184.742 81.5957H167.776V98.4999H184.742V81.5957Z" fill="white"/>
<path d="M204.367 81.5957H187.401V98.4999H204.367V81.5957Z" fill="white"/>
<path d="M86.5979 100.713H69.6318V117.618H86.5979V100.713Z" fill="#B0BEC5"/>
<path opacity="0.8" d="M86.5979 100.713H69.6318V117.618H86.5979V100.713Z" fill="#989EC6"/>
<path d="M106.228 100.713H89.2617V117.618H106.228V100.713Z" fill="white"/>
<path d="M125.857 100.713H108.891V117.618H125.857V100.713Z" fill="white"/>
<path d="M145.483 100.713H128.517V117.618H145.483V100.713Z" fill="white"/>
<path d="M165.112 100.713H148.146V117.618H165.112V100.713Z" fill="white"/>
<path d="M184.738 100.713H167.771V117.618H184.738V100.713Z" fill="white"/>
<path d="M204.367 100.713H187.401V117.618H204.367V100.713Z" fill="white"/>
<path d="M86.5979 119.83H69.6318V136.734H86.5979V119.83Z" fill="#B0BEC5"/>
<path opacity="0.8" d="M86.5979 119.83H69.6318V136.734H86.5979V119.83Z" fill="#9DA4C6"/>
<path d="M106.228 119.83H89.2617V136.734H106.228V119.83Z" fill="white"/>
<path d="M125.854 119.83H108.888V136.734H125.854V119.83Z" fill="white"/>
<path d="M145.483 119.83H128.517V136.734H145.483V119.83Z" fill="white"/>
<path d="M165.112 119.83H148.146V136.734H165.112V119.83Z" fill="white"/>
<path d="M184.742 119.83H167.776V136.734H184.742V119.83Z" fill="white"/>
<path d="M204.367 119.83H187.401V136.734H204.367V119.83Z" fill="white"/>
<path d="M86.5979 138.947H69.6318V155.851H86.5979V138.947Z" fill="#B0BEC5"/>
<path opacity="0.8" d="M86.5979 138.947H69.6318V155.851H86.5979V138.947Z" fill="#A1A9C6"/>
<path d="M106.228 138.951H89.2617V155.855H106.228V138.951Z" fill="white"/>
<path d="M125.854 138.947H108.888V155.851H125.854V138.947Z" fill="white"/>
<path d="M145.483 138.947H128.517V155.851H145.483V138.947Z" fill="white"/>
<path d="M165.112 138.947H148.146V155.851H165.112V138.947Z" fill="white"/>
<path d="M184.738 138.947H167.771V155.851H184.738V138.947Z" fill="white"/>
<path d="M204.367 138.947H187.401V155.851H204.367V138.947Z" fill="white"/>
<path d="M76.1019 58.2673C76.022 58.1815 75.9232 58.1155 75.8133 58.0744C75.6849 58.0212 75.5468 57.9952 75.4078 57.9979C75.2348 57.9837 75.0621 58.0287 74.9182 58.1253C74.8679 58.1667 74.8279 58.2192 74.8013 58.2785C74.7747 58.3379 74.7622 58.4025 74.7648 58.4675C74.7608 58.533 74.7747 58.5984 74.805 58.6568C74.8362 58.7092 74.8802 58.753 74.9328 58.7842C75.0015 58.824 75.0753 58.8546 75.152 58.8752L75.4662 58.9552C75.5901 58.9783 75.7121 59.0099 75.8316 59.0499C75.9304 59.0807 76.0239 59.1261 76.1092 59.1846C76.1831 59.233 76.2435 59.2994 76.2846 59.3775C76.3267 59.466 76.3468 59.5634 76.343 59.6614C76.3453 59.767 76.3228 59.8717 76.2773 59.9672C76.2312 60.0512 76.1662 60.1235 76.0873 60.1783C76.0005 60.2394 75.9024 60.2827 75.7987 60.3057C75.679 60.3341 75.5563 60.3475 75.4333 60.3457C75.0601 60.3539 74.6971 60.2242 74.4141 59.9817L74.5383 59.7779C74.587 59.8282 74.6409 59.8733 74.699 59.9126C74.8381 60.0052 74.9948 60.0684 75.1593 60.0982C75.2519 60.1174 75.3461 60.1272 75.4406 60.1273C75.605 60.1363 75.7684 60.0984 75.9119 60.0181C75.9679 59.9835 76.0133 59.9344 76.0436 59.8761C76.0738 59.8178 76.0876 59.7524 76.0836 59.6869C76.0845 59.6184 76.0681 59.5509 76.0361 59.4903C76.0014 59.4315 75.9508 59.3835 75.89 59.352C75.8145 59.3076 75.7334 59.2733 75.6489 59.2501C75.5539 59.221 75.4443 59.1918 75.3164 59.1627C75.1886 59.1336 75.068 59.1008 74.9511 59.0681C74.8617 59.0387 74.7769 58.9971 74.699 58.9443C74.6334 58.8964 74.5797 58.8341 74.5419 58.7623C74.506 58.681 74.4885 58.5927 74.4908 58.5039C74.4891 58.396 74.5116 58.289 74.5565 58.1908C74.5988 58.1003 74.6644 58.0224 74.7465 57.9652C74.8312 57.9005 74.9281 57.8535 75.0315 57.8268C75.3004 57.7511 75.5862 57.76 75.8498 57.8523C75.984 57.9021 76.1079 57.9762 76.2152 58.0707L76.1019 58.2673Z" fill="#37474F"/>
<path d="M77.8163 60.1204C77.9546 60.1239 78.0916 60.0926 78.2145 60.0294C78.3168 59.9708 78.4033 59.8883 78.4666 59.7892C78.5329 59.6873 78.5789 59.5736 78.6018 59.4543C78.6248 59.3281 78.637 59.2003 78.6383 59.0721V57.7944H78.8867V59.0721C78.8876 59.235 78.8692 59.3975 78.8319 59.5562C78.7977 59.7031 78.7343 59.8417 78.6456 59.9639C78.56 60.0812 78.4472 60.1761 78.3168 60.2405C78.1585 60.31 77.9874 60.3459 77.8145 60.3459C77.6415 60.3459 77.4704 60.31 77.3121 60.2405C77.1807 60.1744 77.0677 60.0768 76.9833 59.9566C76.8967 59.8341 76.8359 59.6954 76.8043 59.5489C76.7677 59.3951 76.7493 59.2375 76.7495 59.0794V57.8017H76.9943V59.0794C76.9948 59.2102 77.0083 59.3406 77.0345 59.4688C77.059 59.5876 77.1048 59.7011 77.1696 59.8037C77.2331 59.9009 77.3197 59.9809 77.4217 60.0367C77.5435 60.099 77.6796 60.1279 77.8163 60.1204V60.1204Z" fill="#37474F"/>
<path d="M79.7413 58.2604V60.3242H79.4893V57.7944H79.6829L81.3634 59.902V57.7981H81.6155V60.3242H81.3963L79.7413 58.2604Z" fill="#37474F"/>
<path d="M96.02 60.3234V58.2377L95.092 59.843H94.9459L94.018 58.2377V60.3125H93.7695V57.7827H94.0253L95.019 59.5154L96.0163 57.7827H96.2684V60.3125L96.02 60.3234Z" fill="#37474F"/>
<path d="M97.9307 60.3421C97.7624 60.3444 97.5959 60.307 97.4449 60.2329C97.3043 60.1635 97.1799 60.0655 97.0795 59.9453C96.973 59.8246 96.89 59.6851 96.8347 59.534C96.7769 59.3829 96.7471 59.2226 96.7471 59.0608C96.7477 58.8953 96.7787 58.7312 96.8384 58.5767C96.8977 58.426 96.983 58.2868 97.0905 58.1654C97.1937 58.0492 97.3176 57.9529 97.4558 57.8815C97.6031 57.8118 97.7641 57.7757 97.9271 57.7759C98.0957 57.7749 98.2622 57.8135 98.413 57.8887C98.5523 57.9632 98.6763 58.0632 98.7783 58.1836C98.8816 58.306 98.9632 58.4451 99.0194 58.5949C99.0773 58.7447 99.107 58.9039 99.1071 59.0645C99.1072 59.3938 98.9849 59.7115 98.7637 59.9563C98.6605 60.0725 98.5367 60.1688 98.3984 60.2402C98.2519 60.3081 98.0923 60.3429 97.9307 60.3421ZM96.9882 59.0608C96.9872 59.1962 97.0107 59.3306 97.0576 59.4576C97.1001 59.5816 97.1658 59.6965 97.2512 59.7961C97.3318 59.8951 97.4327 59.9758 97.5472 60.0327C97.6661 60.0922 97.7977 60.1222 97.9307 60.1201C98.0657 60.1211 98.1988 60.0886 98.318 60.0254C98.4324 59.9652 98.534 59.8836 98.6176 59.7852C98.7815 59.5777 98.8703 59.3212 98.8697 59.0572C98.8707 58.9218 98.8471 58.7874 98.8002 58.6604C98.7549 58.5377 98.6894 58.4233 98.6066 58.3219C98.5238 58.2246 98.4218 58.1453 98.307 58.0889C98.1878 58.0302 98.0565 57.9997 97.9234 57.9997C97.7904 57.9997 97.6591 58.0302 97.5398 58.0889C97.426 58.1483 97.3253 58.23 97.2439 58.3292C97.1608 58.4298 97.0965 58.5445 97.0539 58.6677C97.0097 58.7941 96.9875 58.927 96.9882 59.0608V59.0608Z" fill="#37474F"/>
<path d="M99.8449 58.2604V60.3242H99.5928V57.7944H99.7864L101.467 59.902V57.7981H101.719V60.3242H101.5L99.8449 58.2604Z" fill="#37474F"/>
<path d="M115.964 58.0165H115.058V60.3242H114.806V58.0165H113.903V57.7944H115.964V58.0165Z" fill="#37474F"/>
<path d="M117.37 60.1204C117.51 60.1239 117.648 60.0926 117.772 60.0294C117.874 59.9708 117.961 59.8883 118.024 59.7892C118.088 59.6863 118.133 59.5729 118.156 59.4543C118.182 59.3285 118.195 59.2005 118.196 59.0721V57.7944H118.444V59.0721C118.446 59.2353 118.426 59.398 118.386 59.5562C118.353 59.7029 118.291 59.8415 118.203 59.9639C118.117 60.082 118.003 60.1771 117.871 60.2405C117.716 60.3135 117.545 60.3485 117.374 60.3424C117.199 60.3484 117.026 60.3109 116.87 60.2332C116.737 60.1671 116.623 60.0696 116.537 59.9493C116.452 59.826 116.392 59.6876 116.358 59.5416C116.323 59.3877 116.306 59.23 116.307 59.0721V57.7944H116.541V59.0721C116.542 59.2029 116.555 59.3334 116.581 59.4616C116.604 59.5808 116.65 59.6946 116.716 59.7964C116.78 59.8936 116.866 59.9737 116.968 60.0294C117.091 60.0975 117.23 60.1291 117.37 60.1204V60.1204Z" fill="#37474F"/>
<path d="M120.75 60.1058V60.3242H119.043V57.7944H120.717V58.0165H119.292V58.9301H120.534V59.1376H119.292V60.1058H120.75Z" fill="#37474F"/>
<path d="M134.033 57.8115H134.271L134.636 58.7106L135.001 57.8115H135.239L134.797 58.9035L135.283 60.0464L136.203 57.8042H136.474L135.4 60.334H135.173L134.64 59.0855L134.103 60.334H133.883L132.813 57.8042H133.08L134.004 60.0464L134.486 58.9035L134.033 57.8115Z" fill="#37474F"/>
<path d="M138.526 60.1058V60.3242H136.82V57.7944H138.494V58.0165H137.072V58.9301H138.315V59.1376H137.072V60.1058H138.526Z" fill="#37474F"/>
<path d="M139.001 60.3227V57.7929H139.86C140.043 57.7883 140.225 57.8231 140.393 57.8948C140.533 57.9582 140.657 58.0499 140.759 58.1642C140.86 58.2814 140.937 58.4175 140.985 58.5646C141.037 58.7232 141.063 58.8891 141.062 59.056C141.066 59.2331 141.037 59.4095 140.978 59.5765C140.925 59.7254 140.842 59.8618 140.733 59.9769C140.625 60.0886 140.494 60.1755 140.35 60.2317C140.189 60.2949 140.018 60.3259 139.845 60.3227H139.001ZM140.828 59.056C140.83 58.9138 140.808 58.7723 140.762 58.6374C140.722 58.5163 140.659 58.4039 140.576 58.3061C140.492 58.2135 140.388 58.1402 140.273 58.0914C140.142 58.0382 140.001 58.0122 139.86 58.0149H139.25V60.1043H139.86C140.004 60.1062 140.147 60.079 140.28 60.0242C140.396 59.9736 140.498 59.8977 140.58 59.8022C140.663 59.7053 140.727 59.5927 140.766 59.4709C140.808 59.3366 140.829 59.1966 140.828 59.056V59.056Z" fill="#37474F"/>
<path d="M154.989 58.0165H154.083V60.3242H153.831V58.0165H152.928V57.7944H154.989V58.0165Z" fill="#37474F"/>
<path d="M157.37 57.7944V60.3242H157.122V59.1412H155.631V60.3242H155.379V57.7944H155.631V58.9228H157.137V57.7944H157.37Z" fill="#37474F"/>
<path d="M159.037 60.1204C159.175 60.1244 159.312 60.0931 159.435 60.0294C159.538 59.9712 159.626 59.8888 159.69 59.7892C159.754 59.6863 159.799 59.5729 159.822 59.4543C159.847 59.3284 159.859 59.2004 159.859 59.0721V57.7944H160.111V59.0721C160.112 59.2353 160.092 59.398 160.052 59.5562C160.019 59.7029 159.957 59.8415 159.869 59.9639C159.782 60.0812 159.668 60.1761 159.537 60.2405C159.382 60.3135 159.212 60.3485 159.04 60.3424C158.866 60.3484 158.692 60.3109 158.536 60.2332C158.404 60.1671 158.289 60.0696 158.204 59.9493C158.118 59.826 158.058 59.6876 158.025 59.5416C157.988 59.3878 157.969 59.2302 157.97 59.0721V57.7944H158.218V59.0721C158.217 59.203 158.23 59.3336 158.258 59.4616C158.282 59.5802 158.326 59.6936 158.39 59.7964C158.46 59.9017 158.557 59.987 158.67 60.0438C158.783 60.1006 158.91 60.127 159.037 60.1204V60.1204Z" fill="#37474F"/>
<path d="M173.898 60.3242V57.7944H175.564V58.0165H174.151V58.9665H175.36V59.1704H174.165V60.3424L173.898 60.3242Z" fill="#37474F"/>
<path d="M176.017 60.3242V57.7944H177.091C177.195 57.7945 177.297 57.8182 177.391 57.8636C177.48 57.9096 177.561 57.9712 177.628 58.0456C177.764 58.1954 177.839 58.3898 177.84 58.5916C177.84 58.6816 177.826 58.7711 177.8 58.8573C177.773 58.9376 177.735 59.0136 177.687 59.083C177.638 59.1507 177.578 59.2087 177.508 59.2541C177.438 59.3024 177.358 59.3347 177.274 59.3487L177.899 60.3242H177.614L177.018 59.3924H176.266V60.3242H176.017ZM176.266 59.1704H177.095C177.166 59.1719 177.236 59.1557 177.299 59.123C177.359 59.0906 177.412 59.046 177.453 58.992C177.497 58.9361 177.531 58.8734 177.555 58.8064C177.579 58.7371 177.591 58.6646 177.592 58.5916C177.592 58.5155 177.577 58.4401 177.548 58.3696C177.499 58.2362 177.401 58.1267 177.274 58.0638C177.213 58.0323 177.145 58.0161 177.077 58.0165H176.266V59.1704Z" fill="#37474F"/>
<path d="M178.351 60.3242V57.7944H178.603V60.3242H178.351Z" fill="#37474F"/>
<path d="M194.5 58.2675C194.42 58.1817 194.321 58.1157 194.211 58.0745C194.083 58.0217 193.945 57.9957 193.806 57.9981C193.632 57.9845 193.458 58.0294 193.313 58.1255C193.262 58.1669 193.222 58.2193 193.196 58.2787C193.169 58.338 193.156 58.4027 193.159 58.4677C193.157 58.5304 193.172 58.5925 193.201 58.648C193.231 58.7035 193.274 58.7505 193.327 58.7843C193.397 58.8235 193.472 58.8541 193.55 58.8753L193.864 58.9554C193.988 58.9789 194.11 59.0105 194.229 59.0501C194.327 59.0808 194.42 59.1262 194.503 59.1847C194.578 59.2341 194.639 59.3002 194.683 59.3777C194.725 59.4662 194.745 59.5636 194.741 59.6616C194.743 59.7672 194.721 59.8719 194.675 59.9673C194.629 60.0514 194.564 60.1237 194.485 60.1785C194.397 60.2396 194.298 60.2829 194.193 60.3059C194.073 60.3347 193.951 60.3482 193.828 60.3459C193.453 60.3536 193.089 60.224 192.805 59.9819L192.933 59.7781C192.981 59.8284 193.035 59.8735 193.093 59.9127C193.232 60.0054 193.389 60.0686 193.554 60.0984C193.645 60.1174 193.738 60.1272 193.831 60.1275C193.997 60.137 194.162 60.0991 194.306 60.0183C194.362 59.9836 194.408 59.9346 194.438 59.8762C194.468 59.8179 194.482 59.7526 194.478 59.6871C194.48 59.618 194.462 59.5499 194.427 59.4905C194.393 59.4322 194.344 59.3843 194.284 59.3522C194.208 59.3084 194.127 59.2742 194.043 59.2503C193.948 59.2211 193.839 59.192 193.711 59.1629C193.583 59.1338 193.462 59.101 193.345 59.0683C193.256 59.0389 193.171 58.9972 193.093 58.9445C193.028 58.8966 192.974 58.8343 192.936 58.7625C192.9 58.6812 192.883 58.5929 192.885 58.5041C192.883 58.3961 192.906 58.2892 192.951 58.191C192.993 58.1014 193.057 58.0238 193.137 57.9653C193.224 57.9014 193.322 57.8544 193.426 57.827C193.544 57.7923 193.667 57.7751 193.791 57.7761C193.944 57.7734 194.097 57.7994 194.24 57.8525C194.375 57.9019 194.499 57.9759 194.606 58.0709L194.5 58.2675Z" fill="#37474F"/>
<path d="M195.928 57.7944H196.14L197.196 60.3242H196.914L196.585 59.5344H195.453L195.128 60.3242H194.857L195.928 57.7944ZM196.549 59.3305L196.037 58.082L195.515 59.3305H196.549Z" fill="#37474F"/>
<path d="M199.106 58.0165H198.2V60.3242H197.951V58.0165H197.045V57.7944H199.106V58.0165Z" fill="#37474F"/>
<path d="M103.187 65.8237H92.2822V66.6682H103.187V65.8237Z" fill="#C7C7C7"/>
<path d="M98.4527 67.6768H92.2822V68.5212H98.4527V67.6768Z" fill="#C7C7C7"/>
<path d="M122.649 142.252H111.744V143.097H122.649V142.252Z" fill="#C7C7C7"/>
<path d="M117.915 144.103H111.744V144.947H117.915V144.103Z" fill="#C7C7C7"/>
<path d="M161.821 122.796H150.916V123.641H161.821V122.796Z" fill="#C7C7C7"/>
<path d="M156.626 126.502H150.916V127.347H156.626V126.502Z" fill="#C7C7C7"/>
<path d="M158.777 124.649H150.916V125.494H158.777V124.649Z" fill="#C7C7C7"/>
<path d="M117.176 107.579H111.466V108.423H117.176V107.579Z" fill="#C7C7C7"/>
<path d="M119.328 105.729H111.466V106.573H119.328V105.729Z" fill="#C7C7C7"/>
<path d="M125.229 104.851L125.185 104.76C125.276 104.954 125.225 104.848 125.229 104.851Z" fill="#3E494E"/>
<path d="M125.937 106.825L125.926 106.789L125.999 107.091L125.937 106.825Z" fill="#3E494E"/>
<path d="M126.139 108.769C126.156 108.417 126.141 108.063 126.095 107.714V107.655C126.089 107.604 126.079 107.553 126.066 107.502C126.129 107.922 126.153 108.346 126.139 108.769V108.769Z" fill="#3E494E"/>
<path d="M125.992 109.8C126.01 109.738 125.963 110.023 126.036 109.563V109.607C126.018 109.647 126.01 109.705 125.992 109.8Z" fill="#3E494E"/>
<path d="M126.04 109.606C126.077 109.4 126.014 109.738 126.04 109.606V109.606Z" fill="#3E494E"/>
<path d="M125.813 110.522C125.841 110.438 125.865 110.351 125.882 110.264C125.866 110.331 125.844 110.397 125.816 110.46C125.736 110.722 125.758 110.671 125.813 110.522Z" fill="#3E494E"/>
<path d="M125.751 110.772L125.791 110.64C125.773 110.682 125.76 110.726 125.751 110.772V110.772Z" fill="#3E494E"/>
<path d="M125.875 110.355L125.791 110.639C125.811 110.598 125.823 110.553 125.828 110.508C125.828 110.533 125.839 110.475 125.875 110.355Z" fill="#3E494E"/>
<path d="M125.919 110.191C125.956 110.046 126.007 109.857 125.949 110.122C125.982 110.003 126.004 109.881 126.014 109.758C126.011 109.795 125.982 109.926 125.919 110.191Z" fill="#3E494E"/>
<path d="M126.152 108.87V108.666V108.492C126.16 108.579 126.145 108.885 126.152 108.87Z" fill="#3E494E"/>
<path d="M125.089 112.027C125.089 112.045 125.148 111.958 125.166 111.943L125.261 111.771C125.206 111.856 125.104 112.02 125.089 112.027Z" fill="#3E494E"/>
<path d="M125.166 111.943C125.118 112.032 125.064 112.117 125.005 112.199C125.166 111.983 125.173 111.932 125.166 111.943Z" fill="#3E494E"/>
<path d="M125.755 110.825L125.893 110.352C125.835 110.537 125.791 110.716 125.722 110.912L125.755 110.825Z" fill="#3E494E"/>
<path d="M124.381 112.907L124.487 112.776L124.293 113.006L124.381 112.907Z" fill="#3E494E"/>
<path d="M123.848 113.42C123.932 113.329 123.705 113.515 123.796 113.42L123.387 113.762C123.504 113.66 123.654 113.566 123.848 113.42Z" fill="#3E494E"/>
<path d="M123.168 113.93C123.241 113.88 123.31 113.827 123.377 113.77C123.311 113.824 123.238 113.872 123.168 113.93Z" fill="#3E494E"/>
<path d="M124.699 112.597C124.639 112.648 124.584 112.704 124.535 112.765L124.622 112.689L124.699 112.597Z" fill="#3E494E"/>
<path d="M124.626 112.685C124.574 112.751 124.518 112.813 124.458 112.871C124.517 112.812 124.574 112.75 124.626 112.685V112.685Z" fill="#3E494E"/>
<path d="M124.716 112.575L124.699 112.596L124.716 112.575Z" fill="#3E494E"/>
<path d="M125.426 111.536C125.36 111.699 125.17 112.012 125.364 111.718C125.419 111.601 125.309 111.78 125.426 111.536Z" fill="#3E494E"/>
<path d="M124.826 112.473C124.892 112.393 124.95 112.306 125.016 112.218C125.016 112.218 124.969 112.266 125.016 112.193C124.943 112.288 124.892 112.382 124.826 112.473Z" fill="#3E494E"/>
<path d="M124.731 112.599L124.827 112.474L124.75 112.566L124.731 112.599Z" fill="#3E494E"/>
<path d="M123.617 113.628C123.511 113.712 123.398 113.81 123.252 113.905C123.409 113.81 123.552 113.69 123.698 113.584C123.716 113.566 123.771 113.508 123.617 113.628Z" fill="#3E494E"/>
<path d="M124.136 113.202L124.114 113.223L124.136 113.202Z" fill="#3E494E"/>
<path d="M121.798 114.703L121.824 114.695L121.827 114.688L121.798 114.703Z" fill="#3E494E"/>
<path d="M123.727 113.566C123.806 113.507 123.88 113.441 123.947 113.369C123.869 113.444 123.787 113.514 123.702 113.581C123.702 113.581 123.695 113.595 123.727 113.566Z" fill="#3E494E"/>
<path d="M122.781 114.181C122.852 114.148 122.92 114.11 122.986 114.068L122.781 114.181Z" fill="#3E494E"/>
<path d="M124.074 113.246C124.053 113.256 124.06 113.256 124.074 113.246V113.246Z" fill="#3E494E"/>
<path d="M124.074 113.246L123.946 113.374L124.114 113.221L124.074 113.246Z" fill="#3E494E"/>
<path d="M121.381 115.021C121.585 114.906 121.797 114.809 122.017 114.73C122.291 114.584 122.079 114.613 121.824 114.693C121.824 114.693 121.824 114.693 121.535 114.839C121.644 114.821 122.185 114.588 121.951 114.712C121.789 114.797 121.618 114.863 121.44 114.908C121.528 114.886 121.407 114.945 121.276 115.01C121.144 115.076 121.002 115.127 121.053 115.134C121.17 115.09 121.283 115.046 121.396 114.992C121.403 114.996 121.29 115.054 121.381 115.021Z" fill="#3E494E"/>
<path d="M122.365 114.44L122.478 114.375C122.345 114.444 122.207 114.503 122.065 114.549C121.982 114.588 121.902 114.634 121.828 114.688C122.018 114.597 122.215 114.513 122.401 114.418L122.365 114.44Z" fill="#3E494E"/>
<path d="M122.979 114.086C122.909 114.166 122.639 114.319 122.818 114.246C122.958 114.16 123.093 114.064 123.22 113.959C122.708 114.297 123.358 113.857 122.982 114.086L123.256 113.904L122.986 114.068C122.986 114.068 122.986 114.068 122.968 114.09C122.818 114.185 122.942 114.09 122.986 114.068C122.821 114.188 122.62 114.276 122.463 114.381C122.588 114.312 122.752 114.243 122.979 114.086Z" fill="#3E494E"/>
<path d="M125.225 112.014C125.192 112.065 125.189 112.08 125.225 112.014V112.014Z" fill="#3E494E"/>
<path d="M125.079 112.223C125.1 112.183 125.126 112.143 125.199 112.031C125.272 111.918 125.199 112.031 125.199 112.031C125.239 111.954 125.345 111.761 125.199 111.994L125.177 112.031C125.08 112.175 124.974 112.314 124.859 112.446C124.937 112.376 125.01 112.302 125.079 112.223Z" fill="#3E494E"/>
<path d="M124.114 113.281C123.986 113.394 123.87 113.518 123.749 113.623C123.821 113.575 123.891 113.523 123.957 113.467C124.147 113.278 124.092 113.314 124.114 113.281Z" fill="#3E494E"/>
<path d="M121.74 114.714L121.791 114.666L121.532 114.805L121.74 114.714Z" fill="#3E494E"/>
<path d="M121.122 114.953L121.137 114.927L120.976 114.993L121.122 114.953Z" fill="#3E494E"/>
<path d="M124.721 104.831L124.823 104.952L124.721 104.831Z" fill="#3E494E"/>
<path d="M123.998 103.941H123.965C124.009 103.967 124.027 103.978 123.998 103.941Z" fill="#3E494E"/>
<path d="M108.438 109.627C108.474 109.412 108.525 109.179 108.485 109.205L108.448 109.266C108.453 109.387 108.449 109.507 108.438 109.627V109.627Z" fill="#3E494E"/>
<path d="M115.423 102.225H115.358L115.219 102.294L115.423 102.225Z" fill="#3E494E"/>
<path d="M115.54 102.023L115.836 101.99L115.54 102.023Z" fill="#3E494E"/>
<path d="M125.612 110.708L125.58 110.898C125.675 110.624 125.623 110.738 125.612 110.708Z" fill="#3E494E"/>
<path d="M114.415 115.696C114.229 115.67 114.086 115.623 113.958 115.601C114.103 115.661 114.258 115.693 114.415 115.696Z" fill="#3E494E"/>
<path d="M124.118 104.728C124.18 104.79 124.213 104.816 124.217 104.808C124.151 104.742 124.111 104.706 124.118 104.728Z" fill="#3E494E"/>
<path d="M113.433 115.488L113.528 115.525C113.659 115.547 113.798 115.565 113.959 115.602C113.786 115.553 113.61 115.515 113.433 115.488Z" fill="#3E494E"/>
<path d="M108.898 109.006V108.958C108.895 108.974 108.895 108.99 108.898 109.006V109.006Z" fill="#3E494E"/>
<path d="M112.296 103.945L112.073 104.076L112.296 103.945Z" fill="#3E494E"/>
<path d="M118.528 115.565C118.667 115.539 118.55 115.565 118.528 115.565V115.565Z" fill="#3E494E"/>
<path d="M119.223 115.554C119.193 115.554 119.171 115.554 119.171 115.576C119.187 115.566 119.205 115.558 119.223 115.554Z" fill="#3E494E"/>
<path d="M118.733 115.542L118.554 115.564L118.733 115.542Z" fill="#3E494E"/>
<path d="M118.707 115.536L118.832 115.518C118.832 115.518 118.832 115.51 118.707 115.536Z" fill="#3E494E"/>
<path d="M118.335 115.593L118.561 115.564H118.529L118.335 115.593Z" fill="#3E494E"/>
<path d="M116.965 115.303H116.935C116.792 115.328 116.855 115.321 116.965 115.303Z" fill="#3E494E"/>
<path d="M109.282 105.559C109.217 105.72 109.131 105.871 109.026 106.01L109.216 105.926C109.234 105.821 109.234 105.69 109.282 105.559Z" fill="#3E494E"/>
<path d="M125.825 107.268L125.77 106.904C125.949 107.323 125.963 107.657 125.956 107.297C125.838 107.073 125.749 106.834 125.693 106.587C125.583 106.223 125.419 105.914 125.357 105.914C125.335 105.834 125.302 105.761 125.273 105.685L125.346 105.816C125.185 105.364 125.116 105.539 124.813 105.015C124.696 104.836 124.626 104.705 124.721 104.815C124.626 104.687 124.522 104.565 124.411 104.451C124.323 104.341 124.363 104.352 124.447 104.451L124.213 104.174L123.958 103.919C123.874 103.854 123.68 103.719 123.592 103.657C123.468 103.522 123.669 103.708 123.647 103.657C123.538 103.581 123.435 103.493 123.322 103.424C123.216 103.297 123.497 103.471 123.687 103.664C123.486 103.326 123.432 103.453 122.807 102.936C122.92 102.995 123.029 103.062 123.132 103.137C123.045 103.025 122.938 102.93 122.818 102.856C122.686 102.762 122.537 102.66 122.35 102.54C122.442 102.598 123.033 103.086 122.646 102.878C122.507 102.775 122.353 102.693 122.189 102.634C122.211 102.594 122.007 102.489 121.74 102.383L121.78 102.336C121.633 102.277 121.478 102.242 121.32 102.23C121.152 102.187 120.998 102.1 120.874 101.979C120.341 101.826 121.24 102.15 120.589 101.979C120.39 101.91 120.185 101.861 119.976 101.833C119.746 101.797 119.514 101.776 119.281 101.772C118.967 101.713 119.34 101.739 119.23 101.71L118.945 101.728C118.876 101.728 118.898 101.71 118.909 101.702C118.671 101.702 118.887 101.761 118.514 101.761C118.416 101.815 117.747 101.644 117.29 101.761C117.177 101.761 117.342 101.721 117.309 101.699C116.955 101.738 116.606 101.813 116.267 101.921C116.118 101.921 115.972 101.921 115.825 101.95C116.151 101.932 115.752 102.063 115.413 102.183H115.694L115.142 102.328C115.073 102.328 115.124 102.303 115.208 102.259L115.109 102.296C114.908 102.325 115 102.259 115.135 102.194H115.347C115.478 102.128 115.599 102.063 115.562 102.034C115.526 102.004 115.46 102.066 115.383 102.088C115.416 102.07 115.438 102.055 115.42 102.052C115.362 102.067 115.306 102.086 115.252 102.11L115.109 102.07L115.084 102.103L114.353 102.256C113.853 102.474 113.436 102.711 112.669 103.078C112.844 102.951 112.669 102.987 112.669 102.929C112.824 102.893 112.973 102.834 113.111 102.754C113.297 102.652 113.495 102.57 113.699 102.51C113.476 102.576 113.513 102.536 113.568 102.51C113.318 102.612 113.074 102.728 112.837 102.856C112.837 102.809 112.662 102.878 112.472 102.962C112.658 102.984 111.96 103.271 111.708 103.482C111.679 103.482 111.708 103.384 112.073 103.206C111.65 103.351 111.646 103.592 111.251 103.766C111.328 103.708 111.379 103.69 111.401 103.653C111.222 103.792 110.78 104.119 110.864 104.017L110.941 103.959C110.781 104.069 110.629 104.191 110.488 104.323C110.322 104.465 110.166 104.617 110.02 104.778C109.818 104.966 109.655 105.193 109.542 105.444C109.529 105.389 109.529 105.332 109.542 105.277C109.373 105.629 109.233 105.994 109.122 106.369C109.122 106.252 108.778 106.507 109.019 106.03C108.888 106.211 108.782 106.41 108.705 106.62C108.76 106.529 108.91 106.431 108.848 106.558C108.691 106.759 108.558 106.978 108.453 107.21C108.53 107.068 108.544 107.264 108.475 107.494C108.475 107.454 108.373 107.494 108.387 107.392C108.365 107.603 108.329 107.807 108.318 108.014C108.318 107.858 108.241 107.967 108.186 108.098C108.215 108.036 108.077 108.622 108.084 108.789L108.135 108.531C108.051 109.226 108.201 109.226 108.226 109.9C108.197 109.82 108.084 109.703 108.102 110.056C108.131 110.133 108.205 110.304 108.31 110.518C108.416 110.733 108.526 110.995 108.625 111.272C108.625 111.308 108.625 111.348 108.625 111.388L108.815 111.796C108.513 111.372 108.279 110.902 108.124 110.406C108.124 110.561 108.141 110.716 108.175 110.868C108.175 111.013 108.095 110.668 108.077 110.551C108.123 110.857 108.192 111.158 108.281 111.454C108.318 111.396 108.581 112.091 108.621 112.036C108.47 111.74 108.34 111.434 108.234 111.119C108.256 111.094 108.332 111.221 108.427 111.428C108.522 111.636 108.658 111.916 108.793 112.2C108.848 112.353 108.65 112.135 108.639 112.153C108.628 112.171 108.742 112.32 108.815 112.451C108.888 112.582 108.972 112.702 108.979 112.732C108.924 112.659 108.862 112.59 108.811 112.513C108.983 112.833 109.176 112.983 109.396 113.35C109.476 113.474 109.629 113.736 109.673 113.733C109.553 113.511 109.673 113.369 109.816 113.441L110.068 113.769C110.199 113.925 110.353 114.082 110.404 114.151C110.554 114.348 110.039 113.995 110.185 114.151C110.247 114.18 110.306 114.215 110.36 114.257C110.47 114.366 110.272 114.257 110.546 114.457C110.627 114.457 111.098 114.868 110.703 114.515C110.977 114.701 110.981 114.73 111.314 114.926C111.27 114.883 111.361 114.901 111.496 114.952C111.631 115.003 111.825 115.058 111.971 115.123C111.949 115.123 112.008 115.174 112.037 115.199C112.336 115.338 112.581 115.422 112.815 115.52C113.049 115.618 113.286 115.673 113.593 115.738C113.648 115.76 113.959 115.829 113.809 115.826C113.931 115.831 114.053 115.845 114.174 115.866C114.539 115.968 113.75 115.8 114.021 115.898C114.05 115.898 114.525 115.927 114.799 115.935C114.5 115.883 114.199 115.846 113.896 115.826C113.896 115.796 114.024 115.786 114.225 115.796C114.426 115.807 114.707 115.796 115.029 115.818C115.54 115.818 115.248 115.862 115.339 115.855C115.631 115.874 115.924 115.86 116.213 115.815C116.461 115.778 116.711 115.761 116.962 115.764C117.283 115.764 116.98 115.833 117.053 115.851C116.636 115.902 116.406 115.851 116.121 115.877H116.487C116.297 115.898 116.107 115.907 115.917 115.906C116.714 115.907 117.511 115.86 118.302 115.764C118.434 115.738 118.668 115.684 118.551 115.691L118.317 115.731C118.098 115.731 118.752 115.629 118.456 115.662C118.763 115.585 119.11 115.52 119.552 115.429L119.639 115.447C119.501 115.461 119.364 115.488 119.23 115.527C119.523 115.482 119.812 115.416 120.096 115.331C119.994 115.349 119.892 115.371 119.786 115.381L120.834 115.043C120.655 115.065 120.754 115.083 120.469 115.119C120.717 115.119 119.497 115.374 119.888 115.327C119.596 115.327 119.398 115.422 119.022 115.443C119.022 115.443 119.157 115.443 118.832 115.491L118.763 115.513C118.763 115.513 118.744 115.513 118.763 115.513C118.82 115.508 118.877 115.508 118.934 115.513C118.653 115.583 118.367 115.638 118.079 115.676C117.886 115.676 118.16 115.654 118.054 115.654L117.791 115.705C117.762 115.684 117.268 115.705 117.725 115.651C117.586 115.669 117.447 115.673 117.312 115.684C117.064 115.684 116.731 115.705 116.523 115.716C116.315 115.727 116.03 115.764 116.198 115.738C115.983 115.755 115.767 115.761 115.551 115.756V115.756H115.065C114.901 115.756 114.737 115.731 114.565 115.716C114.216 115.685 113.871 115.62 113.535 115.52C113.277 115.463 113.023 115.39 112.775 115.301L112.716 115.25C112.589 115.203 112.399 115.13 112.231 115.054C112.114 114.985 111.992 114.926 111.865 114.879C111.745 114.788 111.474 114.61 111.175 114.431L110.751 114.122C110.636 114.033 110.526 113.937 110.422 113.834L110.382 113.853C110.254 113.744 110.132 113.629 110.017 113.507C109.885 113.379 109.763 113.241 109.651 113.096V113.139C109.349 112.754 109.103 112.327 108.921 111.873C108.972 111.951 109.014 112.035 109.045 112.124C108.826 111.501 108.482 110.831 108.468 110.216C108.446 110.096 108.437 109.974 108.438 109.852V109.889V109.827C108.438 109.761 108.438 109.692 108.438 109.619C108.431 109.677 108.431 109.736 108.438 109.794C108.42 109.681 108.438 109.503 108.416 109.332L108.46 109.259V109.223C108.46 109.055 108.46 109.084 108.405 109.172C108.405 109.084 108.405 109.008 108.405 108.942C108.486 108.815 108.424 108.487 108.544 108.32C108.511 108.192 108.727 107.475 108.694 107.363C108.694 107.363 108.731 107.315 108.694 107.403C108.777 107.234 108.845 107.059 108.899 106.878L108.986 106.827L109.114 106.42C109.264 106.209 109.352 106.136 109.249 106.369C109.398 106.061 109.567 105.763 109.754 105.477V105.521C109.855 105.35 109.978 105.194 110.119 105.055C110.207 104.989 110.331 104.855 110.51 104.709C110.711 104.528 110.922 104.358 111.142 104.199C111.627 103.831 112.158 103.525 112.72 103.289C112.483 103.289 113.202 103.137 113.21 103.046C113.279 103.046 113.421 103.002 113.268 103.089C113.471 102.997 113.681 102.921 113.896 102.864C114.07 102.812 114.24 102.748 114.404 102.671C114.47 102.671 114.298 102.736 114.357 102.736C114.428 102.705 114.503 102.683 114.58 102.671C114.638 102.671 114.51 102.711 114.426 102.747C114.971 102.598 115.007 102.503 115.029 102.419C115.245 102.409 115.457 102.357 115.654 102.267C115.756 102.267 115.924 102.267 115.581 102.343C115.774 102.288 116.779 102.179 116.794 102.121C116.904 102.123 117.014 102.113 117.122 102.092C117.564 102.052 117.605 102.066 118.043 102.052H117.919C118.094 101.968 118.284 102.026 118.649 102.052C119.051 102.092 119.135 102.114 119.223 102.114C119.413 102.122 119.601 102.155 119.782 102.212L119.745 102.157C119.789 102.117 119.965 102.157 120.18 102.227C120.407 102.313 120.639 102.387 120.874 102.449C120.826 102.421 120.776 102.396 120.725 102.376C121.025 102.491 121.307 102.646 121.565 102.838C121.612 102.867 121.481 102.816 121.411 102.791C121.981 103.107 121.517 102.762 121.959 102.962C122.025 103.031 121.821 102.962 122.105 103.137C122.53 103.319 122.924 103.565 123.275 103.865C123.216 103.781 123.158 103.697 123.34 103.832C123.622 104.043 123.947 104.56 124.199 104.738C124.224 104.778 124.228 104.793 124.224 104.8C124.312 104.902 124.447 105.069 124.568 105.23C124.656 105.362 124.751 105.489 124.853 105.612C124.938 105.909 125.061 106.194 125.218 106.46C125.372 106.824 125.477 107.148 125.408 107.162C125.446 107.293 125.477 107.425 125.499 107.559C125.528 107.691 125.548 107.825 125.562 107.96V107.938C125.583 108.196 125.602 108.367 125.613 108.506C125.624 108.644 125.642 108.724 125.657 108.822C125.671 108.92 125.635 108.855 125.627 108.844C125.62 108.997 125.603 109.149 125.576 109.299C125.558 109.423 125.551 109.525 125.532 109.616C125.503 109.809 125.488 109.98 125.423 110.3L125.361 110.351C125.288 110.575 125.19 110.79 125.068 110.992C124.975 111.151 124.874 111.305 124.765 111.454C124.665 111.618 124.556 111.777 124.44 111.931C124.44 111.931 124.44 111.905 124.48 111.858C123.994 112.564 122.935 113.121 122.752 113.398L122.526 113.565L122.284 113.711C122.938 113.383 122.219 113.816 122.496 113.711C122.244 113.853 121.813 114.013 122.131 113.845L122.186 113.824C122.226 113.762 122.021 113.86 121.821 113.966C121.679 114.047 121.525 114.102 121.364 114.129C120.049 114.647 118.658 114.948 117.247 115.021L117.404 115.061L116.936 115.098C116.812 115.098 116.768 115.068 117.104 115.043C116.913 115.047 116.722 115.067 116.534 115.105C115.877 115.105 116.79 115.043 116.589 115.043H116.315H116.377C116.165 115.083 115.949 115.096 115.734 115.083C115.478 115.058 115.603 115.043 115.504 115.036C115.453 115.029 115.401 115.029 115.35 115.036C115.157 115.017 114.956 115.036 114.762 114.985C114.839 115.007 114.916 115.032 114.992 115.047C114.729 115.047 114.444 114.97 114.707 115.047C114.514 114.981 113.977 114.916 113.451 114.777C113.21 114.727 112.975 114.658 112.746 114.57L112.34 114.428C111.972 114.295 111.623 114.114 111.303 113.889C111.39 113.958 111.427 114.027 111.109 113.805C111.149 113.805 111.135 113.784 111.087 113.743C111.013 113.686 110.943 113.623 110.879 113.554C110.71 113.405 110.557 113.239 110.422 113.059C110.565 113.299 109.75 112.204 109.976 112.575C109.816 112.295 109.976 112.546 109.878 112.328C109.413 111.58 109.141 110.73 109.085 109.852C109.085 109.852 109.085 109.998 109.052 109.798V109.547L109.078 109.299C109.062 109.128 109.062 108.957 109.078 108.786C109.078 108.833 109.059 108.906 109.078 108.786C109.188 107.846 109.502 106.942 109.998 106.136L110.404 105.546L110.897 105.022C111.059 104.846 111.239 104.688 111.434 104.549C111.616 104.395 111.808 104.253 112.008 104.123C111.781 104.25 111.931 104.163 112.099 104.061C111.989 104.127 112.099 104.061 112.077 104.061L112.764 103.657C112.884 103.573 113.546 103.311 113.619 103.271L113.389 103.373C113.695 103.238 112.95 103.551 112.994 103.526C112.776 103.623 112.565 103.735 112.362 103.861C112.094 103.994 111.841 104.156 111.609 104.345C111.5 104.425 111.701 104.269 111.639 104.312C111.518 104.414 111.368 104.531 111.091 104.742L111.12 104.716C110.481 105.269 109.954 105.939 109.567 106.689L109.6 106.649L109.406 107.013C109.301 107.264 109.717 106.413 109.622 106.649C109.388 106.893 109.016 108.218 108.983 108.433C108.917 108.797 109.023 108.331 108.957 108.691C108.945 108.723 108.937 108.756 108.932 108.789V108.88C108.931 109.003 108.916 109.125 108.888 109.244V109.011C108.888 109.168 108.862 109.375 108.858 109.587C108.855 109.798 108.895 109.951 108.899 110.005L108.877 109.641C108.902 109.892 108.921 110.158 108.957 110.427C108.994 110.697 109.074 110.97 109.147 111.236C109.22 111.501 109.341 111.76 109.454 112.004C109.567 112.247 109.71 112.469 109.845 112.673C109.83 112.652 109.819 112.629 109.812 112.604C110.073 113.004 110.382 113.371 110.733 113.696L110.707 113.678C110.773 113.725 110.839 113.798 110.926 113.856L111.197 114.038C111.018 113.933 111.503 114.286 111.27 114.144C111.423 114.259 111.593 114.35 111.774 114.413C111.84 114.435 111.872 114.439 112.121 114.533L112.223 114.61C112.42 114.654 112.614 114.71 112.804 114.777C112.483 114.686 113.038 114.897 112.676 114.795C112.986 114.929 113.311 115.024 113.644 115.076C113.9 115.134 114.097 115.156 114.287 115.221C114.488 115.221 114.306 115.181 114.101 115.149C113.992 115.142 113.885 115.119 113.783 115.079C113.695 115.047 113.783 115.054 113.915 115.079C114.046 115.105 114.243 115.116 114.375 115.141C114.744 115.25 115.124 115.319 115.508 115.345H115.365C115.624 115.381 115.869 115.345 116.187 115.381C116.362 115.338 116.596 115.381 116.647 115.327H116.015C116.381 115.305 116.706 115.269 117.294 115.243C117.247 115.243 117.075 115.283 116.954 115.301C117.126 115.301 117.283 115.265 117.462 115.269C117.085 115.339 116.702 115.374 116.319 115.374C116.505 115.4 117.049 115.327 116.852 115.374C117.122 115.272 117.531 115.345 117.988 115.229L117.963 115.269C118.036 115.25 118.185 115.214 118.328 115.196L118.09 115.276C118.456 115.174 118.821 115.221 119.186 115.108C118.456 115.261 119.011 115.108 118.693 115.134C118.932 115.068 119.177 115.028 119.424 115.014C119.706 115.009 119.986 114.955 120.25 114.854C120.114 114.901 119.731 114.985 119.939 114.905C120.147 114.825 120.392 114.792 120.516 114.777C121.181 114.566 120.399 114.777 120.677 114.661C120.922 114.643 120.991 114.53 121.269 114.406L121.287 114.442C122.018 114.166 121.459 114.311 122.109 114.02L121.864 114.206L122.189 114.024L122.142 114.1C122.489 113.882 122.613 113.849 122.953 113.634C122.858 113.66 122.953 113.543 123.249 113.354C123.461 113.234 123.172 113.474 123.563 113.165C123.475 113.295 123.347 113.393 123.198 113.445C123.198 113.467 123.117 113.525 123.106 113.547C123.234 113.479 123.356 113.401 123.472 113.314L123.768 113.059C123.717 113.101 123.665 113.14 123.611 113.176C123.786 113.005 123.976 112.841 124.133 112.666C124.221 112.593 124.173 112.666 124.111 112.739C124.217 112.637 124.268 112.542 124.414 112.375C124.414 112.437 124.436 112.451 124.235 112.692L124.685 112.149C124.736 112.149 124.937 111.891 124.893 111.971C125.026 111.781 125.147 111.584 125.258 111.381C125.375 111.155 125.485 110.904 125.587 110.653C125.6 110.59 125.617 110.528 125.638 110.467C125.826 110.004 125.928 109.511 125.938 109.011L126.015 108.688C126.015 108.236 125.945 109.124 125.905 108.378C125.861 107.854 125.949 108.178 125.952 107.992C125.901 107.73 125.766 107.293 125.686 106.813C125.762 107.013 125.784 107.122 125.825 107.268ZM122.668 102.9C122.79 102.953 122.904 103.021 123.008 103.104C122.88 103.071 122.763 103.006 122.668 102.914V102.9ZM114.631 102.307C114.735 102.267 114.845 102.241 114.956 102.23C114.851 102.268 114.744 102.299 114.634 102.321L114.631 102.307ZM116.991 115.749C116.75 115.749 116.834 115.749 116.991 115.749V115.749ZM117.469 115.727C117.517 115.727 117.513 115.727 117.495 115.727C117.408 115.742 117.32 115.751 117.232 115.753C117.312 115.754 117.392 115.743 117.469 115.72V115.727ZM115.449 115.072H115.544C115.332 115.076 115.391 115.072 115.445 115.065L115.449 115.072Z" fill="#3E494E"/>
<path d="M115.525 102.045C115.54 102.04 115.557 102.04 115.573 102.045C115.613 102.045 115.613 102.038 115.525 102.045Z" fill="#3E494E"/>
<path d="M110.33 114.32C110.281 114.276 110.237 114.227 110.199 114.174C110.199 114.174 110.213 114.214 110.33 114.32Z" fill="#3E494E"/>
<path d="M119.953 115.277C119.858 115.307 119.759 115.328 119.661 115.35C119.803 115.318 119.858 115.318 119.931 115.303C119.92 115.296 119.862 115.303 119.953 115.277Z" fill="#3E494E"/>
<path d="M122.493 114.498L122.613 114.425C122.43 114.516 122.321 114.593 122.493 114.498Z" fill="#3E494E"/>
<path d="M120.252 115.292C120.395 115.276 120.536 115.24 120.669 115.186H120.632C120.684 115.149 120.468 115.223 120.252 115.292Z" fill="#3E494E"/>
<path d="M120.717 115.167L120.903 115.105C120.925 115.083 120.826 115.127 120.717 115.167Z" fill="#3E494E"/>
<path d="M118.072 115.641C118.175 115.641 118.131 115.605 118.189 115.608C118.248 115.612 117.521 115.721 118.072 115.641Z" fill="#3E494E"/>
<path d="M120.439 115.317L120.359 115.31L120.246 115.364L120.439 115.317Z" fill="#3E494E"/>
<path d="M118.772 115.665L119.116 115.618C119.116 115.618 119.152 115.618 119.203 115.592C118.995 115.625 118.761 115.658 118.772 115.665Z" fill="#3E494E"/>
<path d="M119.204 115.594C119.314 115.572 119.416 115.547 119.474 115.528L119.204 115.594Z" fill="#3E494E"/>
<path d="M119.986 115.451L119.887 115.469L119.65 115.521L119.986 115.451Z" fill="#3E494E"/>
<path d="M115.08 115.896C114.952 115.896 114.828 115.896 114.714 115.871C114.674 115.871 114.776 115.9 114.915 115.907C115.054 115.914 115.138 115.907 115.08 115.896Z" fill="#3E494E"/>
<path d="M116.22 115.994C116.164 115.993 116.109 115.986 116.055 115.972V116.016L116.22 115.994Z" fill="#3E494E"/>
<path d="M115.116 116.002C115.08 116.024 114.565 116.002 115.047 116.031C115.08 116.02 115.467 116.02 115.116 116.002Z" fill="#3E494E"/>
<path d="M109.986 113.82L110.052 113.89L110.1 113.824L109.986 113.82Z" fill="#3E494E"/>
<path d="M107.984 109.286C107.966 109.748 108.028 109.395 108.021 109.81C108.021 109.865 108.021 109.777 108.021 109.693C108.021 109.61 108.021 109.526 108.039 109.581C108.032 109.308 108.043 109.158 107.984 109.286Z" fill="#3E494E"/>
<path d="M113.224 103.462L113.487 103.345L113.315 103.418L113.224 103.462Z" fill="#3E494E"/>
<path d="M113.728 103.24L113.79 103.214L113.947 103.145L113.728 103.24Z" fill="#3E494E"/>
<path d="M121.999 102.41H121.974C122.044 102.458 122.117 102.501 122.193 102.541C122.131 102.493 122.066 102.449 121.999 102.41Z" fill="#3E494E"/>
<path d="M124.98 105.088L124.944 105.029L124.966 105.168L124.98 105.088Z" fill="#3E494E"/>
<path d="M126.076 108.283C126.076 108.141 126.039 107.981 126.028 107.839C126.076 108.141 126.014 108.323 126.076 108.283Z" fill="#3E494E"/>
<path d="M51.3692 34.8286H42.3345V48.6861H51.3692V34.8286Z" fill="#B0BEC5"/>
<path opacity="0.1" d="M51.3692 34.8286H42.3345V48.6861H51.3692V34.8286Z" fill="#412177"/>
<path d="M43.1202 48.687H42.9375V163.282H43.1202V48.687Z" fill="#C7C7C7"/>
<path d="M44.2125 48.687H44.0298V163.282H44.2125V48.687Z" fill="#C7C7C7"/>
<path d="M45.3047 48.687H45.1221V163.282H45.3047V48.687Z" fill="#C7C7C7"/>
<path d="M46.397 48.687H46.2144V163.282H46.397V48.687Z" fill="#C7C7C7"/>
<path d="M47.4932 48.687H47.3105V163.282H47.4932V48.687Z" fill="#C7C7C7"/>
<path d="M48.5855 48.687H48.4028V163.282H48.5855V48.687Z" fill="#C7C7C7"/>
<path d="M49.6778 48.687H49.4951V163.282H49.6778V48.687Z" fill="#C7C7C7"/>
<path d="M50.7735 48.687H50.5908V163.282H50.7735V48.687Z" fill="#C7C7C7"/>
<path opacity="0.1" d="M67.8025 40.7446C67.8025 41.2133 67.6631 41.6715 67.4017 42.0611C67.1404 42.4508 66.7689 42.7546 66.3344 42.9339C65.8998 43.1133 65.4216 43.1602 64.9602 43.0688C64.4989 42.9773 64.0751 42.7516 63.7425 42.4202C63.4099 42.0888 63.1834 41.6666 63.0916 41.2069C62.9998 40.7473 63.0469 40.2708 63.2269 39.8378C63.407 39.4048 63.7118 39.0347 64.1029 38.7744C64.494 38.514 64.9538 38.375 65.4242 38.375C65.7367 38.3745 66.0462 38.4355 66.3349 38.5544C66.6237 38.6733 66.8861 38.8478 67.107 39.068C67.328 39.2881 67.5031 39.5495 67.6225 39.8373C67.7418 40.125 67.803 40.4333 67.8025 40.7446V40.7446Z" fill="black"/>
<path d="M66.8554 40.7442C66.8554 41.0279 66.771 41.3052 66.6128 41.541C66.4546 41.7768 66.2298 41.9607 65.9668 42.0692C65.7038 42.1778 65.4144 42.2062 65.1352 42.1508C64.8559 42.0955 64.5995 41.9589 64.3982 41.7583C64.1969 41.5578 64.0598 41.3022 64.0042 41.024C63.9487 40.7458 63.9772 40.4575 64.0861 40.1954C64.1951 39.9333 64.3796 39.7094 64.6163 39.5518C64.853 39.3942 65.1313 39.3101 65.416 39.3101C65.6051 39.3096 65.7925 39.3464 65.9674 39.4183C66.1422 39.4902 66.3011 39.5958 66.4349 39.729C66.5686 39.8623 66.6746 40.0206 66.7468 40.1948C66.819 40.369 66.8559 40.5558 66.8554 40.7442V40.7442Z" fill="#263238"/>
<path opacity="0.1" d="M77.8344 43.1143C79.1479 43.1143 80.2127 42.0534 80.2127 40.7446C80.2127 39.4359 79.1479 38.375 77.8344 38.375C76.5209 38.375 75.4561 39.4359 75.4561 40.7446C75.4561 42.0534 76.5209 43.1143 77.8344 43.1143Z" fill="black"/>
<path d="M79.2773 40.7442C79.2773 41.0279 79.1928 41.3052 79.0347 41.541C78.8765 41.7768 78.6517 41.9607 78.3887 42.0692C78.1257 42.1778 77.8363 42.2062 77.557 42.1508C77.2778 42.0955 77.0213 41.9589 76.82 41.7583C76.6187 41.5578 76.4816 41.3022 76.4261 41.024C76.3706 40.7458 76.3991 40.4575 76.508 40.1954C76.617 39.9333 76.8014 39.7094 77.0382 39.5518C77.2749 39.3942 77.5532 39.3101 77.8378 39.3101C78.027 39.3096 78.2144 39.3464 78.3893 39.4183C78.5641 39.4902 78.723 39.5958 78.8567 39.729C78.9905 39.8623 79.0965 40.0206 79.1687 40.1948C79.2408 40.369 79.2777 40.5558 79.2773 40.7442V40.7442Z" fill="#263238"/>
<path opacity="0.1" d="M92.6224 40.7446C92.6224 41.2133 92.4829 41.6715 92.2215 42.0611C91.9602 42.4508 91.5888 42.7545 91.1542 42.9339C90.7196 43.1133 90.2414 43.1602 89.7801 43.0687C89.3187 42.9773 88.8949 42.7516 88.5623 42.4202C88.2297 42.0888 88.0032 41.6666 87.9114 41.2069C87.8197 40.7473 87.8668 40.2708 88.0468 39.8378C88.2268 39.4048 88.5316 39.0347 88.9227 38.7744C89.3138 38.514 89.7737 38.375 90.244 38.375C90.8748 38.375 91.4797 38.6247 91.9258 39.0691C92.3718 39.5134 92.6224 40.1162 92.6224 40.7446V40.7446Z" fill="black"/>
<path d="M91.6982 40.7444C91.6981 41.0271 91.6142 41.3035 91.457 41.5388C91.2998 41.7742 91.0763 41.958 90.8145 42.0672C90.5528 42.1763 90.2645 42.206 89.9859 42.1524C89.7073 42.0988 89.4508 41.9643 89.2487 41.766C89.0465 41.5676 88.9077 41.3141 88.8497 41.0373C88.7917 40.7606 88.8171 40.4729 88.9227 40.2105C89.0283 39.9481 89.2094 39.7227 89.4432 39.5625C89.677 39.4023 89.9531 39.3145 90.2368 39.3102C90.4277 39.3073 90.6172 39.3423 90.7944 39.4131C90.9716 39.4838 91.1329 39.589 91.2689 39.7225C91.4048 39.8559 91.5128 40.015 91.5865 40.1905C91.6602 40.3659 91.6982 40.5542 91.6982 40.7444V40.7444Z" fill="#263238"/>
<path opacity="0.1" d="M105.066 40.7446C105.066 41.2133 104.927 41.6715 104.665 42.0611C104.404 42.4508 104.033 42.7546 103.598 42.9339C103.163 43.1133 102.685 43.1602 102.224 43.0688C101.763 42.9773 101.339 42.7516 101.006 42.4202C100.674 42.0888 100.447 41.6666 100.355 41.2069C100.264 40.7473 100.311 40.2708 100.491 39.8378C100.671 39.4048 100.975 39.0347 101.367 38.7744C101.758 38.514 102.217 38.375 102.688 38.375C103 38.3745 103.31 38.4355 103.599 38.5544C103.887 38.6733 104.15 38.8478 104.371 39.068C104.592 39.2881 104.767 39.5495 104.886 39.8373C105.006 40.125 105.067 40.4333 105.066 40.7446V40.7446Z" fill="black"/>
<path d="M104.12 40.7442C104.12 41.0279 104.035 41.3052 103.877 41.541C103.719 41.7768 103.494 41.9607 103.231 42.0692C102.968 42.1778 102.679 42.2062 102.399 42.1508C102.12 42.0955 101.864 41.9589 101.662 41.7583C101.461 41.5578 101.324 41.3022 101.268 41.024C101.213 40.7458 101.241 40.4575 101.35 40.1954C101.459 39.9333 101.644 39.7094 101.88 39.5518C102.117 39.3942 102.395 39.3101 102.68 39.3101C102.869 39.3096 103.057 39.3464 103.232 39.4183C103.406 39.4902 103.565 39.5958 103.699 39.729C103.833 39.8623 103.939 40.0206 104.011 40.1948C104.083 40.369 104.12 40.5558 104.12 40.7442V40.7442Z" fill="#263238"/>
<path opacity="0.1" d="M115.142 43.1143C116.456 43.1143 117.52 42.0534 117.52 40.7446C117.52 39.4359 116.456 38.375 115.142 38.375C113.828 38.375 112.764 39.4359 112.764 40.7446C112.764 42.0534 113.828 43.1143 115.142 43.1143Z" fill="black"/>
<path d="M116.581 40.7442C116.581 41.0279 116.497 41.3051 116.338 41.541C116.18 41.7768 115.955 41.9607 115.692 42.0692C115.429 42.1778 115.14 42.2062 114.861 42.1508C114.582 42.0955 114.325 41.9589 114.124 41.7583C113.922 41.5578 113.785 41.3022 113.73 41.024C113.674 40.7458 113.703 40.4574 113.812 40.1954C113.921 39.9333 114.105 39.7093 114.342 39.5518C114.579 39.3942 114.857 39.3101 115.142 39.3101C115.523 39.3101 115.889 39.4612 116.159 39.7301C116.429 39.9991 116.581 40.3639 116.581 40.7442V40.7442Z" fill="#263238"/>
<path opacity="0.1" d="M127.522 43.1143C128.836 43.1143 129.901 42.0534 129.901 40.7446C129.901 39.4359 128.836 38.375 127.522 38.375C126.209 38.375 125.144 39.4359 125.144 40.7446C125.144 42.0534 126.209 43.1143 127.522 43.1143Z" fill="black"/>
<path d="M128.962 40.7442C128.962 41.0279 128.878 41.3052 128.72 41.541C128.562 41.7768 128.337 41.9607 128.074 42.0692C127.811 42.1778 127.521 42.2062 127.242 42.1508C126.963 42.0955 126.706 41.9589 126.505 41.7583C126.304 41.5578 126.167 41.3022 126.111 41.024C126.056 40.7458 126.084 40.4575 126.193 40.1954C126.302 39.9333 126.487 39.7094 126.723 39.5518C126.96 39.3942 127.238 39.3101 127.523 39.3101C127.712 39.3096 127.899 39.3464 128.074 39.4183C128.249 39.4902 128.408 39.5958 128.542 39.729C128.676 39.8623 128.782 40.0206 128.854 40.1948C128.926 40.369 128.963 40.5558 128.962 40.7442V40.7442Z" fill="#263238"/>
<path opacity="0.1" d="M139.944 43.1143C141.258 43.1143 142.323 42.0534 142.323 40.7446C142.323 39.4359 141.258 38.375 139.944 38.375C138.631 38.375 137.566 39.4359 137.566 40.7446C137.566 42.0534 138.631 43.1143 139.944 43.1143Z" fill="black"/>
<path d="M141.383 40.7442C141.383 41.0279 141.299 41.3051 141.141 41.541C140.982 41.7768 140.758 41.9607 140.495 42.0692C140.232 42.1778 139.942 42.2062 139.663 42.1508C139.384 42.0955 139.127 41.9589 138.926 41.7583C138.725 41.5578 138.588 41.3022 138.532 41.024C138.477 40.7458 138.505 40.4574 138.614 40.1954C138.723 39.9333 138.907 39.7093 139.144 39.5518C139.381 39.3942 139.659 39.3101 139.944 39.3101C140.326 39.3101 140.692 39.4612 140.962 39.7301C141.232 39.9991 141.383 40.3639 141.383 40.7442V40.7442Z" fill="#263238"/>
<path opacity="0.1" d="M152.406 43.1143C153.72 43.1143 154.784 42.0534 154.784 40.7446C154.784 39.4359 153.72 38.375 152.406 38.375C151.093 38.375 150.028 39.4359 150.028 40.7446C150.028 42.0534 151.093 43.1143 152.406 43.1143Z" fill="black"/>
<path d="M153.845 40.7442C153.845 41.0279 153.761 41.3051 153.603 41.541C153.444 41.7768 153.22 41.9607 152.957 42.0692C152.694 42.1778 152.404 42.2062 152.125 42.1508C151.846 42.0955 151.589 41.9589 151.388 41.7583C151.187 41.5578 151.05 41.3022 150.994 41.024C150.938 40.7458 150.967 40.4574 151.076 40.1954C151.185 39.9333 151.369 39.7093 151.606 39.5518C151.843 39.3942 152.121 39.3101 152.406 39.3101C152.787 39.3101 153.154 39.4612 153.424 39.7301C153.693 39.9991 153.845 40.3639 153.845 40.7442V40.7442Z" fill="#263238"/>
<path opacity="0.1" d="M167.172 40.7446C167.172 41.2133 167.033 41.6715 166.771 42.0611C166.51 42.4508 166.139 42.7545 165.704 42.9339C165.269 43.1133 164.791 43.1602 164.33 43.0687C163.869 42.9773 163.445 42.7516 163.112 42.4202C162.78 42.0888 162.553 41.6666 162.461 41.2069C162.369 40.7473 162.417 40.2708 162.597 39.8378C162.777 39.4048 163.081 39.0347 163.473 38.7744C163.864 38.514 164.323 38.375 164.794 38.375C165.425 38.375 166.03 38.6247 166.476 39.0691C166.922 39.5134 167.172 40.1162 167.172 40.7446V40.7446Z" fill="black"/>
<path d="M166.226 40.7442C166.226 41.0279 166.142 41.3051 165.984 41.541C165.826 41.7768 165.601 41.9607 165.338 42.0692C165.075 42.1778 164.785 42.2062 164.506 42.1508C164.227 42.0955 163.971 41.9589 163.769 41.7583C163.568 41.5578 163.431 41.3022 163.375 41.024C163.32 40.7458 163.348 40.4574 163.457 40.1954C163.566 39.9333 163.751 39.7093 163.987 39.5518C164.224 39.3942 164.502 39.3101 164.787 39.3101C165.169 39.3101 165.535 39.4612 165.805 39.7301C166.075 39.9991 166.226 40.3639 166.226 40.7442V40.7442Z" fill="#263238"/>
<path opacity="0.1" d="M179.612 40.7446C179.612 41.2133 179.473 41.6715 179.211 42.0611C178.95 42.4508 178.579 42.7546 178.144 42.9339C177.709 43.1133 177.231 43.1602 176.77 43.0688C176.308 42.9773 175.885 42.7516 175.552 42.4202C175.219 42.0888 174.993 41.6666 174.901 41.2069C174.809 40.7473 174.856 40.2708 175.037 39.8378C175.217 39.4048 175.521 39.0347 175.912 38.7744C176.304 38.514 176.763 38.375 177.234 38.375C177.546 38.3745 177.856 38.4355 178.145 38.5544C178.433 38.6733 178.696 38.8478 178.917 39.068C179.138 39.2881 179.313 39.5495 179.432 39.8373C179.551 40.125 179.613 40.4333 179.612 40.7446V40.7446Z" fill="black"/>
<path d="M178.673 40.7442C178.673 41.0279 178.589 41.3052 178.431 41.541C178.273 41.7768 178.048 41.9607 177.785 42.0692C177.522 42.1778 177.232 42.2062 176.953 42.1508C176.674 42.0955 176.417 41.9589 176.216 41.7583C176.015 41.5578 175.878 41.3022 175.822 41.024C175.767 40.7458 175.795 40.4575 175.904 40.1954C176.013 39.9333 176.197 39.7094 176.434 39.5518C176.671 39.3942 176.949 39.3101 177.234 39.3101C177.423 39.3096 177.61 39.3464 177.785 39.4183C177.96 39.4902 178.119 39.5958 178.253 39.729C178.386 39.8623 178.493 40.0206 178.565 40.1948C178.637 40.369 178.674 40.5558 178.673 40.7442V40.7442Z" fill="#263238"/>
<path opacity="0.1" d="M192.001 40.7446C192.001 41.2133 191.861 41.6715 191.6 42.0611C191.339 42.4508 190.967 42.7546 190.533 42.9339C190.098 43.1133 189.62 43.1602 189.158 43.0688C188.697 42.9773 188.273 42.7516 187.941 42.4202C187.608 42.0888 187.382 41.6666 187.29 41.2069C187.198 40.7473 187.245 40.2708 187.425 39.8378C187.605 39.4048 187.91 39.0347 188.301 38.7744C188.692 38.514 189.152 38.375 189.622 38.375C189.935 38.3745 190.244 38.4355 190.533 38.5544C190.822 38.6733 191.084 38.8478 191.305 39.068C191.526 39.2881 191.701 39.5495 191.821 39.8373C191.94 40.125 192.001 40.4333 192.001 40.7446V40.7446Z" fill="black"/>
<path d="M191.069 40.7444C191.069 41.0272 190.985 41.3036 190.828 41.5389C190.671 41.7743 190.447 41.9581 190.186 42.0672C189.924 42.1764 189.636 42.206 189.357 42.1524C189.078 42.0988 188.822 41.9644 188.62 41.766C188.418 41.5676 188.279 41.3141 188.221 41.0374C188.163 40.7606 188.188 40.473 188.294 40.2106C188.399 39.9482 188.58 39.7227 188.814 39.5625C189.048 39.4023 189.324 39.3146 189.608 39.3103C189.799 39.3069 189.989 39.3415 190.166 39.4121C190.343 39.4827 190.505 39.5879 190.641 39.7214C190.777 39.855 190.885 40.0143 190.959 40.1899C191.032 40.3656 191.07 40.5541 191.069 40.7444Z" fill="#263238"/>
<path opacity="0.1" d="M204.441 40.7446C204.441 41.2133 204.301 41.6715 204.04 42.0611C203.779 42.4508 203.407 42.7546 202.973 42.9339C202.538 43.1133 202.06 43.1602 201.598 43.0688C201.137 42.9773 200.713 42.7516 200.381 42.4202C200.048 42.0888 199.822 41.6666 199.73 41.2069C199.638 40.7473 199.685 40.2708 199.865 39.8378C200.045 39.4048 200.35 39.0347 200.741 38.7744C201.132 38.514 201.592 38.375 202.062 38.375C202.375 38.3745 202.684 38.4355 202.973 38.5544C203.262 38.6733 203.524 38.8478 203.745 39.068C203.966 39.2881 204.141 39.5495 204.261 39.8373C204.38 40.125 204.441 40.4333 204.441 40.7446V40.7446Z" fill="black"/>
<path d="M203.49 40.7442C203.49 41.0279 203.406 41.3052 203.248 41.541C203.089 41.7768 202.865 41.9607 202.602 42.0692C202.339 42.1778 202.049 42.2062 201.77 42.1508C201.491 42.0955 201.234 41.9589 201.033 41.7583C200.832 41.5578 200.695 41.3022 200.639 41.024C200.583 40.7458 200.612 40.4575 200.721 40.1954C200.83 39.9333 201.014 39.7094 201.251 39.5518C201.488 39.3942 201.766 39.3101 202.051 39.3101C202.24 39.3096 202.427 39.3464 202.602 39.4183C202.777 39.4902 202.936 39.5958 203.07 39.729C203.203 39.8623 203.309 40.0206 203.382 40.1948C203.454 40.369 203.491 40.5558 203.49 40.7442V40.7442Z" fill="#263238"/>
<path opacity="0.1" d="M214.475 43.1143C215.789 43.1143 216.854 42.0534 216.854 40.7446C216.854 39.4359 215.789 38.375 214.475 38.375C213.162 38.375 212.097 39.4359 212.097 40.7446C212.097 42.0534 213.162 43.1143 214.475 43.1143Z" fill="black"/>
<path d="M215.912 40.7442C215.912 41.0279 215.828 41.3052 215.669 41.541C215.511 41.7768 215.286 41.9607 215.023 42.0692C214.76 42.1778 214.471 42.2062 214.192 42.1508C213.913 42.0955 213.656 41.9589 213.455 41.7583C213.253 41.5578 213.116 41.3022 213.061 41.024C213.005 40.7458 213.034 40.4575 213.143 40.1954C213.252 39.9333 213.436 39.7094 213.673 39.5518C213.91 39.3942 214.188 39.3101 214.473 39.3101C214.662 39.3096 214.849 39.3464 215.024 39.4183C215.199 39.4902 215.358 39.5958 215.492 39.729C215.625 39.8623 215.731 40.0206 215.803 40.1948C215.876 40.369 215.913 40.5558 215.912 40.7442Z" fill="#263238"/>
<path d="M66.5926 35.7354C66.5926 36.9184 66.461 40.7696 66.461 40.7696C66.461 42.1091 64.3823 42.1054 64.3823 40.7696V34.8946C64.3823 31.9316 63.0854 30.8651 61.7994 30.8651C60.1919 30.8651 59.2421 32.7943 59.2421 34.8254H57.1523C57.1523 30.2136 59.3663 28.4336 61.6423 28.4336C65.102 28.4336 66.5926 30.7341 66.5926 35.7354Z" fill="#37474F"/>
<path d="M79.0142 35.7354C79.0142 36.9184 78.8827 40.7696 78.8827 40.7696C78.8827 42.1091 76.8076 42.1054 76.8076 40.7696C76.8076 39.4337 76.8076 37.0677 76.8076 34.8946C76.8076 31.9316 75.5143 30.8651 74.2247 30.8651C72.6172 30.8651 71.6673 32.7943 71.6673 34.8254H69.5776C69.5776 30.2136 71.7916 28.4336 74.0676 28.4336C77.5236 28.4336 79.0142 30.7341 79.0142 35.7354Z" fill="#37474F"/>
<path d="M91.439 35.7354C91.439 36.9184 91.3075 40.7696 91.3075 40.7696C91.3075 42.1091 89.2287 42.1054 89.2287 40.7696V34.8946C89.2287 31.9316 87.9318 30.8651 86.6422 30.8651C85.0347 30.8651 84.0848 32.7943 84.0848 34.8254H81.9951C81.9951 30.2136 84.209 28.4336 86.4851 28.4336C89.9448 28.4336 91.439 30.7341 91.439 35.7354Z" fill="#37474F"/>
<path d="M103.861 35.7354C103.861 36.9184 103.729 40.7696 103.729 40.7696C103.729 42.1091 101.65 42.1054 101.65 40.7696V34.8946C101.65 31.9316 100.353 30.8651 99.0675 30.8651C97.46 30.8651 96.5101 32.7943 96.5101 34.8254H94.4204C94.4204 30.2136 96.6343 28.4336 98.9103 28.4336C102.37 28.4336 103.861 30.7341 103.861 35.7354Z" fill="#37474F"/>
<path d="M116.282 35.7354C116.282 36.9184 116.15 40.7696 116.15 40.7696C116.15 42.1091 114.071 42.1054 114.071 40.7696V34.8946C114.071 31.9316 112.778 30.8651 111.488 30.8651C109.881 30.8651 108.931 32.7943 108.931 34.8254H106.841C106.841 30.2136 109.055 28.4336 111.331 28.4336C114.791 28.4336 116.282 30.7341 116.282 35.7354Z" fill="#37474F"/>
<path d="M128.707 35.7354C128.707 36.9184 128.571 40.7696 128.571 40.7696C128.571 42.1091 126.496 42.1054 126.496 40.7696V34.8946C126.496 31.9316 125.199 30.8651 123.91 30.8651C122.302 30.8651 121.352 32.7943 121.352 34.8254H119.263C119.263 30.2136 121.473 28.4336 123.753 28.4336C127.212 28.4336 128.707 30.7341 128.707 35.7354Z" fill="#37474F"/>
<path d="M141.128 35.7354C141.128 36.9184 140.997 40.7696 140.997 40.7696C140.997 42.1091 138.918 42.1054 138.918 40.7696V34.8946C138.918 31.9316 137.621 30.8651 136.332 30.8651C134.724 30.8651 133.774 32.7943 133.774 34.8254H131.685C131.685 30.2136 133.898 28.4336 136.175 28.4336C139.638 28.4336 141.128 30.7341 141.128 35.7354Z" fill="#37474F"/>
<path d="M153.549 35.7354C153.549 36.9184 153.418 40.7696 153.418 40.7696C153.418 42.1091 151.339 42.1054 151.339 40.7696V34.8946C151.339 31.9316 150.046 30.8651 148.756 30.8651C147.148 30.8651 146.199 32.7943 146.199 34.8254H144.109C144.109 30.2136 146.323 28.4336 148.599 28.4336C152.059 28.4336 153.549 30.7341 153.549 35.7354Z" fill="#37474F"/>
<path d="M165.975 35.7354C165.975 36.9184 165.839 40.7696 165.839 40.7696C165.839 42.1091 163.764 42.1054 163.764 40.7696C163.764 39.4337 163.764 37.0677 163.764 34.8946C163.764 31.9316 162.471 30.8651 161.181 30.8651C159.574 30.8651 158.624 32.7943 158.624 34.8254H156.531C156.531 30.2136 158.745 28.4336 161.024 28.4336C164.48 28.4336 165.975 30.7341 165.975 35.7354Z" fill="#37474F"/>
<path d="M178.396 35.7354C178.396 36.9184 178.264 40.7696 178.264 40.7696C178.264 42.1091 176.185 42.1054 176.185 40.7696V34.8946C176.185 31.9316 174.888 30.8651 173.599 30.8651C171.991 30.8651 171.041 32.7943 171.041 34.8254H168.952C168.952 30.2136 171.166 28.4336 173.442 28.4336C176.905 28.4336 178.396 30.7341 178.396 35.7354Z" fill="#37474F"/>
<path d="M190.817 35.7354C190.817 36.9184 190.686 40.7696 190.686 40.7696C190.686 42.1091 188.607 42.1054 188.607 40.7696V34.8946C188.607 31.9316 187.314 30.8651 186.024 30.8651C184.417 30.8651 183.467 32.7943 183.467 34.8254H181.377C181.377 30.2136 183.591 28.4336 185.867 28.4336C189.327 28.4336 190.817 30.7341 190.817 35.7354Z" fill="#37474F"/>
<path d="M203.242 35.7354C203.242 36.9184 203.107 40.7696 203.107 40.7696C203.107 42.1091 201.031 42.1054 201.031 40.7696C201.031 39.4337 201.031 37.0677 201.031 34.8946C201.031 31.9316 199.738 30.8651 198.449 30.8651C196.841 30.8651 195.891 32.7943 195.891 34.8254H193.798C193.798 30.2136 196.012 28.4336 198.288 28.4336C201.748 28.4336 203.242 30.7341 203.242 35.7354Z" fill="#37474F"/>
<path d="M215.663 35.7354C215.663 36.9184 215.532 40.7696 215.532 40.7696C215.532 42.1091 213.453 42.1054 213.453 40.7696V34.8946C213.453 31.9316 212.156 30.8651 210.866 30.8651C209.259 30.8651 208.309 32.7943 208.309 34.8254H206.219C206.219 30.2136 208.433 28.4336 210.709 28.4336C214.173 28.4336 215.663 30.7341 215.663 35.7354Z" fill="#37474F"/>
<path d="M22.0415 163.285C95.6927 163.063 178.309 163.059 251.96 163.285C178.309 163.511 95.6927 163.507 22.0415 163.285V163.285Z" fill="#263238"/>
<path d="M145.984 97.3696H131.736C131.32 96.4821 131.081 95.5229 131.031 94.5449V83.1699H145.279V94.6905C145.279 95.8408 145.984 97.3696 145.984 97.3696Z" fill="#37474F"/>
<path d="M133.478 86.5262C135.151 86.3879 136.828 86.3552 138.505 86.3479C140.182 86.3406 141.855 86.3879 143.532 86.5262C141.855 86.6646 140.182 86.6937 138.505 86.701C136.828 86.7082 135.151 86.6609 133.478 86.5262Z" fill="white"/>
<path d="M133.478 88.3977C134.983 88.2593 136.492 88.2302 138.001 88.2229C139.51 88.2157 141.015 88.2593 142.52 88.3977C141.015 88.536 139.506 88.5687 138.001 88.5724C136.496 88.576 134.983 88.536 133.478 88.3977Z" fill="white"/>
<path d="M133.478 90.2727C134.797 90.138 136.116 90.1052 137.431 90.0979C138.746 90.0907 140.069 90.1343 141.388 90.2727C140.069 90.411 138.75 90.4437 137.431 90.451C136.112 90.4583 134.808 90.4073 133.478 90.2727Z" fill="white"/>
<path d="M133.478 92.1429C135.151 92.0046 136.828 91.9719 138.505 91.9646C140.182 91.9573 141.855 92.0046 143.532 92.1429C141.855 92.2813 140.182 92.3104 138.505 92.3177C136.828 92.3249 135.151 92.2776 133.478 92.1429Z" fill="white"/>
<path d="M125.923 135.408H111.675C111.259 134.519 111.02 133.559 110.97 132.58V121.212H125.218V132.733C125.218 133.872 125.923 135.408 125.923 135.408Z" fill="#455A64"/>
<path d="M113.418 124.557C115.091 124.418 116.768 124.385 118.445 124.378C120.122 124.371 121.795 124.418 123.472 124.557C121.795 124.691 120.122 124.724 118.445 124.731C116.768 124.739 115.08 124.691 113.418 124.557Z" fill="white"/>
<path d="M113.418 126.428C114.923 126.29 116.432 126.26 117.937 126.253C119.442 126.246 120.955 126.29 122.46 126.428C120.955 126.566 119.446 126.599 117.937 126.603C116.428 126.606 114.923 126.566 113.418 126.428Z" fill="white"/>
<path d="M113.418 128.3C114.733 128.165 116.052 128.132 117.371 128.125C118.69 128.118 120.009 128.161 121.327 128.3C120.009 128.438 118.69 128.471 117.371 128.478C116.052 128.485 114.733 128.438 113.418 128.3Z" fill="white"/>
<path d="M113.418 130.173C115.091 130.035 116.768 130.002 118.445 129.995C120.122 129.988 121.795 130.035 123.472 130.173C121.795 130.308 120.122 130.341 118.445 130.348C116.768 130.355 115.08 130.312 113.418 130.173Z" fill="white"/>
<path d="M105.409 97.1152H91.1614C90.7436 96.227 90.5029 95.2665 90.4526 94.2869V82.9155H104.701V94.4361C104.701 95.5864 105.409 97.1152 105.409 97.1152Z" fill="#A6A6A6"/>
<path d="M92.9004 86.2684C94.5773 86.1301 96.2542 86.0974 97.931 86.0901C99.6079 86.0828 101.281 86.1301 102.958 86.2684C101.281 86.4031 99.6043 86.4359 97.931 86.4432C96.2578 86.4504 94.5773 86.4068 92.9004 86.2684Z" fill="white"/>
<path d="M92.9004 88.1418C94.4092 88.0035 95.9181 87.9744 97.4232 87.9671C98.9284 87.9598 100.437 88.0035 101.946 88.1418C100.437 88.2801 98.9321 88.3092 97.4232 88.3165C95.9144 88.3238 94.4092 88.2801 92.9004 88.1418Z" fill="white"/>
<path d="M92.9004 90.0134C94.2192 89.8787 95.5381 89.8459 96.857 89.8387C98.1758 89.8314 99.4947 89.8751 100.814 90.0134C99.4947 90.1517 98.1758 90.1845 96.857 90.1917C95.5381 90.199 94.2192 90.1517 92.9004 90.0134Z" fill="white"/>
<path d="M92.9004 91.8886C94.5773 91.7502 96.2542 91.7175 97.931 91.7102C99.6079 91.7029 101.281 91.7502 102.958 91.8886C101.281 92.0232 99.6043 92.056 97.931 92.0633C96.2578 92.0706 94.5773 92.0232 92.9004 91.8886Z" fill="white"/>
<path d="M161.821 154.435H150.495C150.346 153.501 150.264 152.557 150.25 151.61V140.235H164.498V151.756C164.495 152.906 161.821 154.435 161.821 154.435Z" fill="#B0BEC5"/>
<path opacity="0.2" d="M164.495 151.752C164.495 152.873 161.982 154.336 161.825 154.427C162.241 154.147 162.172 151.923 162.172 151.923C162.172 151.923 164.455 151.628 164.495 151.752Z" fill="black"/>
<path d="M152.344 143.59C154.017 143.452 155.694 143.419 157.371 143.412C159.048 143.405 160.721 143.452 162.398 143.59C160.721 143.729 159.048 143.758 157.371 143.765C155.694 143.772 154.017 143.725 152.344 143.59Z" fill="white"/>
<path d="M152.344 145.462C153.659 145.323 154.978 145.294 156.297 145.287C157.616 145.28 158.934 145.323 160.253 145.462C158.938 145.587 157.618 145.645 156.297 145.636C154.978 145.629 153.659 145.6 152.344 145.462Z" fill="white"/>
<path d="M152.344 147.333C153.659 147.198 154.978 147.166 156.297 147.158C157.616 147.151 158.934 147.198 160.253 147.333C158.934 147.471 157.616 147.504 156.297 147.512C154.978 147.519 153.659 147.471 152.344 147.333Z" fill="white"/>
<path d="M200.333 115.974H189.008C188.858 115.038 188.777 114.093 188.763 113.145V101.774H203.011V113.295C203.011 114.445 200.333 115.974 200.333 115.974Z" fill="#B0BEC5"/>
<path opacity="0.2" d="M203.008 113.292C203.008 114.413 200.495 115.876 200.341 115.967C200.758 115.687 200.685 113.463 200.685 113.463C200.685 113.463 202.968 113.164 203.008 113.292Z" fill="black"/>
<path d="M190.857 105.13C192.531 104.992 194.208 104.959 195.884 104.952C197.561 104.945 199.238 104.992 200.911 105.13C199.238 105.265 197.561 105.298 195.884 105.305C194.208 105.312 192.531 105.265 190.857 105.13Z" fill="white"/>
<path d="M190.857 107.015C192.176 106.877 193.495 106.848 194.81 106.841C196.131 106.832 197.452 106.89 198.767 107.015C197.448 107.154 196.129 107.183 194.81 107.19C193.491 107.197 192.165 107.139 190.857 107.015Z" fill="white"/>
<path d="M190.857 108.872C192.176 108.737 193.495 108.704 194.81 108.697C196.126 108.69 197.448 108.733 198.767 108.872C197.448 109.01 196.129 109.043 194.81 109.05C193.491 109.057 192.165 109.01 190.857 108.872Z" fill="white"/>
<path d="M237.182 140.787C237.182 140.787 243.334 139.4 246.706 136.303C250.078 133.205 251.959 127.665 251.959 127.665C249.621 128.115 247.317 128.723 245.062 129.485C244.215 130.35 243.51 131.343 242.972 132.426C242.92 131.726 242.92 131.023 242.972 130.322C242.185 130.663 241.447 131.109 240.78 131.647C237.971 134.071 237.182 140.787 237.182 140.787Z" fill="#B0BEC5"/>
<path d="M248.12 130.358C248.956 129.78 249.811 129.223 250.644 128.64C250.649 128.637 250.654 128.633 250.658 128.627C250.661 128.622 250.664 128.617 250.665 128.61C250.666 128.604 250.667 128.598 250.665 128.592C250.664 128.586 250.662 128.58 250.659 128.575C250.655 128.569 250.651 128.565 250.646 128.561C250.641 128.558 250.635 128.555 250.629 128.554C250.623 128.553 250.616 128.552 250.61 128.553C250.604 128.555 250.598 128.557 250.593 128.56C249.011 129.503 247.447 130.511 245.935 131.567C245.409 131.931 244.89 132.317 244.379 132.706L244.485 132.528C244.671 132.218 244.85 131.916 245.058 131.614C245.445 131 245.883 130.42 246.366 129.878C246.366 129.86 246.366 129.831 246.337 129.849C245.858 130.398 245.38 130.941 244.941 131.527C244.733 131.807 244.539 132.091 244.357 132.386C244.262 132.539 244.167 132.692 244.079 132.848L243.988 133.008C243.191 133.631 242.417 134.279 241.679 134.967C241.222 135.389 240.784 135.829 240.356 136.281C240.594 135.553 240.802 134.788 241.087 134.057C241.087 134.035 241.054 134.024 241.047 134.057C240.776 134.821 240.484 135.593 240.276 136.379C239.805 136.885 239.355 137.409 238.932 137.959L238.953 137.857C239.024 137.57 239.097 137.283 239.173 136.994C239.322 136.441 239.487 135.902 239.673 135.345C240.027 134.216 240.588 133.162 241.328 132.237C241.328 132.215 241.328 132.186 241.295 132.207C240.141 133.636 239.331 135.31 238.928 137.1C238.862 137.362 238.8 137.624 238.742 137.886C238.709 138.024 238.672 138.166 238.65 138.312C238.464 138.559 238.285 138.814 238.106 139.072C237.058 140.673 236.186 142.382 235.505 144.168C234.734 146.171 234.076 148.215 233.532 150.291C233.531 150.299 233.533 150.306 233.537 150.313C233.542 150.319 233.548 150.324 233.555 150.326C233.563 150.328 233.571 150.328 233.578 150.325C233.585 150.321 233.591 150.316 233.594 150.309C234.8 146.72 236.027 143.084 238.088 139.877C238.522 139.2 238.994 138.548 239.491 137.922C240.51 137.855 241.516 137.655 242.483 137.325C243.54 136.969 244.548 136.48 245.482 135.869C246.014 135.512 246.527 135.125 247.016 134.712C247.018 134.71 247.02 134.708 247.021 134.706C247.022 134.703 247.023 134.701 247.023 134.698C247.023 134.696 247.023 134.693 247.022 134.691C247.021 134.689 247.02 134.686 247.018 134.684C247.017 134.683 247.014 134.681 247.012 134.68C247.01 134.679 247.007 134.678 247.005 134.678C247.002 134.678 247 134.678 246.997 134.679C246.995 134.68 246.993 134.681 246.991 134.683C246.131 135.372 245.182 135.944 244.17 136.383C243.177 136.837 242.137 137.184 241.069 137.416C240.616 137.518 240.155 137.591 239.691 137.653C240.265 136.955 240.875 136.286 241.518 135.651C241.726 135.443 241.942 135.247 242.154 135.047C242.871 134.547 243.632 134.112 244.426 133.747C245.434 133.263 246.428 132.75 247.426 132.244C247.988 131.956 248.547 131.665 249.113 131.388C249.139 131.388 249.113 131.341 249.091 131.356C248.08 131.84 247.053 132.295 246.034 132.761C245.073 133.201 244.101 133.642 243.18 134.155L243.063 134.224C243.896 133.496 244.756 132.804 245.643 132.149C246.45 131.538 247.276 130.937 248.12 130.358Z" fill="#263238"/>
<path d="M247.769 133.519C247.268 133.738 246.757 133.934 246.263 134.164C245.763 134.406 245.275 134.673 244.802 134.965C244.78 134.965 244.802 135.005 244.824 134.994C245.314 134.761 245.81 134.542 246.285 134.298C246.76 134.055 247.275 133.785 247.783 133.57C247.805 133.549 247.794 133.509 247.769 133.519Z" fill="#263238"/>
<path d="M217.198 110.095C218.331 111.56 218.97 113.343 219.025 115.191C219.043 115.741 218.955 116.505 218.893 117.404C220.43 118.292 221.792 119.45 222.912 120.822C221.682 120.113 220.272 119.778 218.853 119.858C218.885 120.47 218.964 121.078 219.091 121.678C219.985 121.679 220.871 121.853 221.699 122.191C220.891 122.183 220.09 122.341 219.346 122.657C220.442 126.133 223.701 129.704 232.703 131.218C233.657 126.956 233.093 122.495 231.106 118.602C228.421 113.324 217.198 110.095 217.198 110.095Z" fill="#B0BEC5"/>
<path d="M235.826 145.906C235.67 144.421 235.477 142.941 235.245 141.465C234.785 138.511 234.175 135.582 233.419 132.689C233.066 131.33 232.632 129.993 232.118 128.685C232.144 128.443 232.155 128.2 232.151 127.957C232.151 127.67 232.151 127.382 232.151 127.094C232.151 126.519 232.114 125.948 232.067 125.376C231.975 124.242 231.79 123.117 231.515 122.013C231.351 121.372 231.15 120.746 230.971 120.113C230.969 120.109 230.966 120.106 230.963 120.103C230.959 120.101 230.955 120.1 230.951 120.1C230.946 120.1 230.942 120.101 230.939 120.103C230.935 120.106 230.932 120.109 230.931 120.113C231.229 121.215 231.451 122.337 231.596 123.469C231.756 124.585 231.856 125.709 231.895 126.836C231.895 127.142 231.913 127.451 231.913 127.761C231.913 127.892 231.913 128.023 231.913 128.157C231.473 127.084 230.966 126.039 230.397 125.027C229.484 123.424 228.455 121.89 227.317 120.437C227.315 120.267 227.291 120.098 227.244 119.935L227.113 119.334C227.022 118.926 226.916 118.519 226.806 118.115C226.583 117.299 226.287 116.517 226.032 115.712C226.03 115.708 226.027 115.705 226.023 115.703C226.02 115.7 226.016 115.699 226.011 115.699C226.007 115.699 226.003 115.7 225.999 115.703C225.996 115.705 225.993 115.708 225.991 115.712C226.229 116.509 226.386 117.332 226.569 118.14C226.66 118.54 226.748 118.941 226.835 119.341C226.879 119.541 226.923 119.742 226.963 119.942V119.986C226.598 119.527 226.232 119.077 225.867 118.635C224.146 116.626 222.261 114.773 220.365 112.935C220.131 112.709 219.894 112.487 219.656 112.265C219.656 112.265 219.609 112.265 219.627 112.294C221.454 114.18 223.226 116.083 224.917 118.078C225.319 118.564 225.714 119.049 226.101 119.534L225.487 119.127C224.965 118.788 224.435 118.453 223.887 118.151C223.339 117.849 222.791 117.547 222.228 117.27C221.666 116.993 221.034 116.753 220.478 116.429C220.457 116.429 220.435 116.455 220.478 116.466C221.046 116.73 221.594 117.033 222.119 117.372C222.667 117.696 223.215 118.024 223.752 118.362C224.289 118.701 224.811 119.025 225.337 119.367C225.776 119.651 226.207 119.96 226.66 120.222C227.703 121.557 228.666 122.952 229.542 124.401C230.088 125.314 230.586 126.254 231.033 127.218L230.711 127.08L229.886 126.716C229.36 126.479 228.826 126.254 228.297 126.021C227.285 125.584 226.262 125.183 225.272 124.703C224.713 124.441 224.172 124.142 223.653 123.808C223.631 123.808 223.613 123.829 223.653 123.844C225.48 125.114 227.566 126.006 229.608 126.905L230.496 127.298C230.737 127.404 230.982 127.524 231.227 127.619C231.822 128.973 232.32 130.369 232.717 131.794C233.525 134.649 234.178 137.546 234.675 140.471C235.194 143.383 235.541 146.346 235.811 149.309C235.844 149.673 235.877 150.037 235.921 150.401C235.921 150.432 235.933 150.462 235.955 150.484C235.977 150.506 236.007 150.518 236.038 150.518C236.069 150.518 236.099 150.506 236.121 150.484C236.143 150.462 236.155 150.432 236.155 150.401C236.14 148.905 235.983 147.42 235.826 145.906Z" fill="#263238"/>
<path d="M230.35 121.142C230.185 120.232 229.944 119.34 229.696 118.448C229.697 118.445 229.698 118.441 229.698 118.437C229.697 118.434 229.696 118.43 229.694 118.427C229.692 118.424 229.689 118.422 229.686 118.42C229.683 118.418 229.679 118.417 229.676 118.417C229.672 118.417 229.669 118.418 229.665 118.42C229.662 118.422 229.659 118.424 229.657 118.427C229.655 118.43 229.654 118.434 229.654 118.437C229.654 118.441 229.654 118.445 229.656 118.448C229.882 119.325 230.047 120.217 230.211 121.105C230.375 121.993 230.529 122.925 230.657 123.835H230.682C230.624 122.932 230.513 122.032 230.35 121.142V121.142Z" fill="#263238"/>
<path d="M226.474 123.614C225.847 123.207 225.193 122.842 224.516 122.522C224.187 122.351 223.855 122.191 223.522 122.031C223.19 121.871 222.825 121.729 222.485 121.558C222.463 121.558 222.441 121.583 222.485 121.594C222.814 121.758 223.124 121.958 223.449 122.133L224.447 122.679C225.093 123.055 225.759 123.397 226.441 123.705C226.452 123.705 226.463 123.702 226.471 123.696C226.48 123.69 226.487 123.682 226.491 123.672C226.494 123.661 226.495 123.651 226.492 123.64C226.489 123.63 226.483 123.621 226.474 123.614Z" fill="#263238"/>
<path opacity="0.1" d="M237.295 130.174C237.295 130.174 242.987 128.82 245.599 125.016C248.094 121.376 248.887 115.188 248.964 114.642C248.861 115.144 247.689 120.557 243.812 123.076C240.846 125.009 237.978 126.596 237.295 130.174Z" fill="#263238"/>
<path d="M242.548 120.374C241.535 121.301 240.807 122.495 240.448 123.818C240.448 123.818 240.448 123.818 240.466 123.818C240.883 122.526 241.606 121.354 242.574 120.4C242.581 120.385 242.581 120.356 242.548 120.374Z" fill="#263238"/>
<path d="M237.295 130.366C237.295 130.366 242.987 129.012 245.599 125.204C248.094 121.564 248.887 115.376 248.964 114.834C248.965 114.822 248.965 114.809 248.964 114.797C248.964 114.797 246.235 118.663 243.374 119.649C240.514 120.636 236.469 124.047 237.295 130.366Z" fill="#B0BEC5"/>
<path d="M247.963 116.738C247.453 117.779 246.865 118.78 246.205 119.734C245.54 120.638 244.752 121.447 243.864 122.136C243.089 122.747 242.271 123.301 241.489 123.901V123.872C241.635 123.657 241.792 123.446 241.953 123.239C242.282 122.824 242.636 122.431 242.994 122.045C243.703 121.281 244.423 120.531 245.058 119.701C245.41 119.247 245.716 118.759 245.972 118.245C245.972 118.219 245.942 118.208 245.931 118.245C245.007 120.163 243.166 121.39 241.847 123.006C241.661 123.239 241.482 123.475 241.321 123.734C241.191 123.914 241.082 124.108 240.996 124.313C240.274 124.887 239.622 125.543 239.052 126.267C239.103 125.898 239.18 125.534 239.282 125.175C239.414 124.67 239.617 124.186 239.885 123.738C239.885 123.716 239.863 123.69 239.849 123.716C239.573 124.164 239.351 124.643 239.187 125.143C239.066 125.54 238.996 125.951 238.979 126.366V126.366C238.698 126.745 238.441 127.143 238.212 127.556C238.234 127.436 238.256 127.316 238.281 127.192C238.395 126.624 238.519 126.064 238.665 125.503C238.933 124.368 239.397 123.288 240.035 122.311C240.035 122.289 240.017 122.263 240.002 122.285C239.348 123.25 238.836 124.303 238.482 125.412C238.303 125.969 238.157 126.537 238.029 127.105C237.967 127.385 237.912 127.665 237.858 127.945C237.828 128.091 237.799 128.24 237.774 128.389C237.208 129.624 236.769 130.912 236.462 132.233C235.903 134.595 235.498 136.99 235.249 139.404C234.955 141.931 234.823 144.475 234.855 147.019C234.855 147.336 234.88 147.656 234.898 147.973C234.898 148.056 235.026 148.067 235.03 147.973C235.085 146.717 235.118 145.457 235.191 144.198C235.264 142.939 235.377 141.686 235.512 140.431C235.771 137.967 236.167 135.519 236.7 133.1C237.16 131.025 237.759 128.939 238.892 127.123C239.457 126.219 240.149 125.399 240.945 124.688C241.741 123.96 242.614 123.348 243.458 122.689C244.31 122.044 245.084 121.303 245.763 120.48C246.464 119.569 247.076 118.594 247.59 117.568C247.725 117.313 247.86 117.055 247.999 116.8C248.01 116.738 247.974 116.712 247.963 116.738Z" fill="#263238"/>
<path d="M216.405 127.858C216.405 127.858 216.314 135.917 221.155 138.243C225.995 140.569 228.586 138.633 231.874 139.412C231.746 139.219 229.4 135.859 225.663 134.935C221.823 133.977 217.571 131.214 216.405 127.858Z" fill="#B0BEC5"/>
<path opacity="0.2" d="M216.405 127.858C216.405 127.858 216.314 135.917 221.155 138.243C225.995 140.569 228.586 138.633 231.874 139.412C230.144 138.588 228.294 138.043 226.394 137.796C223.314 137.424 217.487 135.444 216.405 127.858Z" fill="black"/>
<path d="M232.187 139.362C231.61 138.841 230.962 138.405 230.262 138.066C230.16 138.015 230.054 137.975 229.948 137.931C229.897 137.866 229.842 137.804 229.783 137.746C229.641 137.596 229.487 137.451 229.33 137.316C229.027 137.054 228.701 136.82 228.355 136.617C227.555 136.148 226.678 135.817 225.856 135.383C225.834 135.383 225.812 135.405 225.838 135.42C226.243 135.627 226.634 135.86 227.029 136.09C227.423 136.319 227.803 136.523 228.176 136.763C228.513 136.981 228.833 137.225 229.133 137.491C229.217 137.564 229.301 137.644 229.381 137.728C228.847 137.547 228.302 137.402 227.748 137.294C226.861 137.116 225.965 136.989 225.081 136.803C224.648 136.709 224.22 136.594 223.799 136.457C223.397 136.133 222.999 135.813 222.619 135.467C222.158 135.047 221.739 134.584 221.366 134.084C221.366 134.062 221.315 134.084 221.333 134.106C221.918 134.898 222.582 135.629 223.313 136.29C223.105 136.21 222.9 136.126 222.696 136.035C221.035 135.291 219.61 134.109 218.575 132.617C218.575 132.595 218.524 132.617 218.538 132.639C219.418 133.919 220.554 135.004 221.874 135.827C222.535 136.239 223.243 136.573 223.982 136.821C224.839 137.086 225.713 137.292 226.598 137.44C227.464 137.581 228.318 137.784 229.155 138.048C229.927 138.306 230.652 138.685 231.303 139.173C232.535 140.126 233.526 141.353 234.2 142.754C235.067 144.613 235.607 146.607 235.797 148.648C235.797 148.731 235.943 148.731 235.935 148.648C235.716 145.237 234.807 141.717 232.187 139.362Z" fill="#263238"/>
<path d="M226.573 136.734C226.32 136.358 225.979 136.051 225.579 135.838C225.121 135.6 224.719 135.267 224.399 134.863C224.381 134.841 224.344 134.863 224.362 134.884C224.653 135.254 225.006 135.57 225.407 135.816C225.847 136.047 226.234 136.367 226.543 136.755C226.546 136.759 226.551 136.762 226.555 136.762C226.56 136.763 226.565 136.762 226.569 136.759C226.573 136.756 226.575 136.752 226.576 136.747C226.577 136.742 226.576 136.737 226.573 136.734V136.734Z" fill="#263238"/>
<path d="M229.141 145.309L229.36 149.742L230.036 163.283H240.181L240.853 149.742L241.076 145.309H229.141Z" fill="#A1A9C6"/>
<path d="M229.141 145.309L229.36 149.742H240.853L241.076 145.309H229.141Z" fill="#263238"/>
<path d="M228.432 147.689H241.789V143.463H228.432V147.689Z" fill="#455A64"/>
<path d="M75.5186 79.7344V88.7725H76.7899V90.9638L78.9892 88.7725H91.0635V79.7344H75.5186Z" fill="white"/>
<path d="M75.5183 79.7346C75.5512 81.9914 75.6024 86.5196 75.6279 88.7728L75.5183 88.6636C75.5512 88.6636 76.9285 88.6636 76.9066 88.6636V88.7837V90.9677L76.6765 90.873L78.8685 88.6672C78.9233 88.6126 78.9086 88.6199 78.978 88.6199L91.034 88.598L90.855 88.7764L90.8806 79.7383L91.034 79.8948C87.1615 79.873 79.3617 79.7892 75.4891 79.7383L75.5183 79.7346ZM75.5183 79.7346C79.4713 79.6837 87.2638 79.6036 91.2277 79.5781V79.7346L91.2496 88.7728V88.9511H91.0706L79.0146 88.9293L79.1278 88.882L76.6765 91.2916C76.6765 91.1824 76.702 88.9584 76.6984 88.7728L76.8153 88.8929H75.5439H75.4307C75.4562 86.5851 75.5074 82.0533 75.5439 79.7456L75.5183 79.7346Z" fill="#263238"/>
<path d="M86.2192 84.2549C86.2192 84.3988 86.2621 84.5396 86.3424 84.6593C86.4227 84.779 86.5368 84.8723 86.6703 84.9274C86.8038 84.9825 86.9507 84.997 87.0925 84.9689C87.2342 84.9408 87.3644 84.8714 87.4666 84.7696C87.5688 84.6678 87.6383 84.5381 87.6665 84.3969C87.6947 84.2557 87.6803 84.1093 87.625 83.9763C87.5697 83.8432 87.476 83.7295 87.3558 83.6495C87.2357 83.5696 87.0944 83.5269 86.9499 83.5269C86.7561 83.5269 86.5703 83.6036 86.4332 83.7401C86.2962 83.8766 86.2192 84.0618 86.2192 84.2549Z" fill="#263238"/>
<path d="M82.5664 84.2549C82.5664 84.3988 82.6093 84.5396 82.6895 84.6593C82.7698 84.779 82.8839 84.8723 83.0175 84.9274C83.151 84.9825 83.2979 84.997 83.4396 84.9689C83.5814 84.9408 83.7115 84.8714 83.8137 84.7696C83.9159 84.6678 83.9855 84.5381 84.0137 84.3969C84.0419 84.2557 84.0274 84.1093 83.9721 83.9763C83.9168 83.8432 83.8232 83.7295 83.703 83.6495C83.5829 83.5696 83.4416 83.5269 83.2971 83.5269C83.1033 83.5269 82.9174 83.6036 82.7804 83.7401C82.6434 83.8766 82.5664 84.0618 82.5664 84.2549Z" fill="#263238"/>
<path d="M78.8794 84.2549C78.8794 84.3988 78.9222 84.5396 79.0025 84.6593C79.0828 84.779 79.1969 84.8723 79.3304 84.9274C79.464 84.9825 79.6109 84.997 79.7526 84.9689C79.8943 84.9408 80.0245 84.8714 80.1267 84.7696C80.2289 84.6678 80.2985 84.5381 80.3267 84.3969C80.3549 84.2557 80.3404 84.1093 80.2851 83.9763C80.2298 83.8432 80.1362 83.7295 80.016 83.6495C79.8958 83.5696 79.7546 83.5269 79.6101 83.5269C79.4163 83.5269 79.2304 83.6036 79.0934 83.7401C78.9564 83.8766 78.8794 84.0618 78.8794 84.2549Z" fill="#263238"/>
<path d="M216.337 36.1636V45.1981H217.612V47.3893L219.811 45.1981H231.886V36.1636H216.337Z" fill="white"/>
<path d="M216.336 36.1634C216.372 38.4165 216.42 42.9447 216.446 45.1978L216.336 45.0886C216.372 45.0886 217.746 45.0886 217.728 45.0886V45.2088V47.3928L217.498 47.2981L219.69 45.0923C219.741 45.0377 219.73 45.0486 219.799 45.0486L231.874 45.0231L231.695 45.2015L231.716 36.167L231.874 36.3199C227.997 36.298 220.183 36.2143 216.325 36.167L216.336 36.1634ZM216.336 36.1634C220.292 36.1124 228.085 36.0287 232.045 36.0068V36.1634L232.067 45.1978V45.3762H231.888L219.814 45.3544L219.923 45.307C219.85 45.3835 217.45 47.7422 217.476 47.7167C217.476 47.6075 217.501 45.3835 217.494 45.1978L217.615 45.318H216.34H216.23C216.256 43.0102 216.307 38.4784 216.34 36.1743L216.336 36.1634Z" fill="#263238"/>
<path d="M227.052 40.6801C227.052 40.8241 227.095 40.9649 227.175 41.0846C227.255 41.2043 227.369 41.2976 227.503 41.3527C227.636 41.4078 227.783 41.4223 227.925 41.3942C228.067 41.3661 228.197 41.2967 228.299 41.1949C228.401 41.0931 228.471 40.9634 228.499 40.8222C228.527 40.681 228.513 40.5346 228.457 40.4016C228.402 40.2685 228.309 40.1548 228.188 40.0748C228.068 39.9948 227.927 39.9521 227.782 39.9521C227.589 39.9521 227.403 40.0288 227.266 40.1654C227.129 40.3019 227.052 40.4871 227.052 40.6801Z" fill="#263238"/>
<path d="M223.373 40.6801C223.373 40.8241 223.415 40.9649 223.496 41.0846C223.576 41.2043 223.69 41.2976 223.824 41.3527C223.957 41.4078 224.104 41.4223 224.246 41.3942C224.388 41.3661 224.518 41.2967 224.62 41.1949C224.722 41.0931 224.792 40.9634 224.82 40.8222C224.848 40.681 224.834 40.5346 224.778 40.4016C224.723 40.2685 224.629 40.1548 224.509 40.0748C224.389 39.9948 224.248 39.9521 224.103 39.9521C223.909 39.9521 223.724 40.0288 223.587 40.1654C223.45 40.3019 223.373 40.4871 223.373 40.6801Z" fill="#263238"/>
<path d="M219.697 40.6801C219.697 40.8241 219.74 40.9649 219.82 41.0846C219.901 41.2043 220.015 41.2976 220.148 41.3527C220.282 41.4078 220.429 41.4223 220.57 41.3942C220.712 41.3661 220.842 41.2967 220.945 41.1949C221.047 41.0931 221.116 40.9634 221.145 40.8222C221.173 40.681 221.158 40.5346 221.103 40.4016C221.048 40.2685 220.954 40.1548 220.834 40.0748C220.714 39.9948 220.572 39.9521 220.428 39.9521C220.234 39.9521 220.048 40.0288 219.911 40.1654C219.774 40.3019 219.697 40.4871 219.697 40.6801Z" fill="#263238"/>
</svg>
