<svg width="265" height="379" viewBox="0 0 265 379" fill="none" xmlns="http://www.w3.org/2000/svg">
<path fill-rule="evenodd" clip-rule="evenodd" d="M148.968 9.8878C173.575 53.045 194.586 84.6557 211.432 109.831L212.024 110.716C246.287 162.016 265 190.033 265 246.495C265 281.636 251.04 315.338 226.192 340.187C201.343 365.035 167.641 378.995 132.5 378.995C97.3588 378.995 63.6569 365.035 38.8084 340.187C13.9598 315.338 0 281.636 0 246.495C0 190.033 18.7132 162.016 52.9765 110.716L53.5679 109.831C70.4143 85.6021 91.2357 53.6128 116.032 9.8878C117.683 6.97473 120.077 4.55172 122.97 2.86595C125.863 1.18018 129.152 0.291992 132.5 0.291992C135.848 0.291992 139.137 1.18018 142.03 2.86595C144.923 4.55172 147.317 6.97473 148.968 9.8878ZM190.166 326.713V300.982H74.7662V326.713H190.166ZM145.332 273.351H119.601V228.517H74.7662V202.786H119.601V157.951H145.332V202.786H190.166V228.517H145.332V273.351Z" fill="#04C7B6"/>
</svg>
