<svg width="169" height="206" viewBox="0 0 169 206" fill="none" xmlns="http://www.w3.org/2000/svg">
<path d="M159.611 0H9.38889C6.8988 0 4.5107 0.986523 2.74994 2.74255C0.989183 4.49857 0 6.88025 0 9.36364V196.636C0 199.12 0.989183 201.501 2.74994 203.257C4.5107 205.013 6.8988 206 9.38889 206H159.611C162.101 206 164.489 205.013 166.25 203.257C168.011 201.501 169 199.12 169 196.636V9.36364C169 6.88025 168.011 4.49857 166.25 2.74255C164.489 0.986523 162.101 0 159.611 0ZM150.222 187.273H18.7778V18.7273H150.222V187.273ZM56.3333 70.2273C56.3333 64.6714 57.9853 59.2403 61.0803 54.6208C64.1753 50.0013 68.5743 46.4008 73.7211 44.2747C78.8679 42.1485 84.5312 41.5922 89.995 42.6761C95.4588 43.76 100.478 46.4354 104.417 50.364C108.356 54.2926 111.039 59.2979 112.125 64.747C113.212 70.1961 112.654 75.8443 110.523 80.9772C108.391 86.1101 104.781 90.4973 100.149 93.584C95.5166 96.6707 90.0708 98.3182 84.5 98.3182C77.0297 98.3182 69.8654 95.3586 64.5832 90.0906C59.3009 84.8225 56.3333 77.6774 56.3333 70.2273ZM37.5556 154.5C37.5556 142.083 42.5015 130.175 51.3053 121.395C60.1091 112.614 72.0496 107.682 84.5 107.682C96.9504 107.682 108.891 112.614 117.695 121.395C126.499 130.175 131.444 142.083 131.444 154.5C131.444 156.983 130.455 159.365 128.695 161.121C126.934 162.877 124.546 163.864 122.056 163.864C119.565 163.864 117.177 162.877 115.417 161.121C113.656 159.365 112.667 156.983 112.667 154.5C112.667 147.05 109.699 139.905 104.417 134.637C99.1346 129.369 91.9703 126.409 84.5 126.409C77.0297 126.409 69.8654 129.369 64.5832 134.637C59.3009 139.905 56.3333 147.05 56.3333 154.5C56.3333 156.983 55.3442 159.365 53.5834 161.121C51.8226 162.877 49.4345 163.864 46.9444 163.864C44.4544 163.864 42.0663 162.877 40.3055 161.121C38.5447 159.365 37.5556 156.983 37.5556 154.5Z" fill="#04C7B6"/>
</svg>
