<svg width="227" height="224" viewBox="0 0 227 224" fill="none" xmlns="http://www.w3.org/2000/svg">
<path d="M64.4689 47.7553C77.4228 47.7553 87.9195 37.2582 87.9195 24.3047C87.9195 11.3512 77.4233 0.854492 64.4689 0.854492C51.5153 0.854492 41.0187 11.3512 41.0187 24.3047C41.0187 37.2582 51.5149 47.7553 64.4689 47.7553Z" fill="#04C7B6"/>
<path d="M92.5648 164.92C88.6585 164.355 85.1162 162.337 82.614 159.189C79.6373 155.444 78.5497 150.624 79.6288 145.964L79.7693 145.357C75.2933 145.93 70.9511 144.896 67.3487 142.635C63.0935 139.965 60.1335 135.799 59.0126 130.902C57.8916 126.007 58.745 120.967 61.4146 116.713L96.0317 61.5408C92.5545 56.5593 87.169 53.9683 81.6264 53.9683H47.3128C40.3616 53.9683 34.2799 58.0492 31.305 64.0757L2.1349 123.169C-0.76501 129.045 1.64694 136.16 7.52261 139.06C13.3996 141.961 20.5138 139.548 23.4142 133.673L32.9628 114.329L36.0427 154.887V211.848C36.0427 218.401 41.355 223.713 47.9081 223.713C54.4611 223.713 59.7734 218.401 59.7734 211.848V158.143H69.1681V211.848C69.1681 218.401 74.4804 223.713 81.0334 223.713C86.8418 223.713 91.6715 219.539 92.6954 214.027C92.6124 213.311 92.5653 212.585 92.5653 211.848V164.92H92.5648Z" fill="#04C7B6"/>
<path d="M147.79 178.63C144.847 177.92 142.208 176.251 140.275 173.819C137.958 170.903 136.937 167.249 137.385 163.605C137.346 163.605 137.306 163.605 137.268 163.605C135.688 163.605 134.128 163.371 132.629 162.924V211.849C132.629 218.402 137.942 223.714 144.495 223.714C146.45 223.714 148.292 223.238 149.918 222.401C148.567 220.029 147.791 217.289 147.791 214.37V178.63H147.79Z" fill="#04C7B6"/>
<path d="M123.484 138.667L152.683 92.1309C154.24 89.6512 156.408 87.6832 158.926 86.3652C154.79 81.9233 152.253 75.9736 152.253 69.4402C152.253 67.4381 152.498 65.4926 152.947 63.6261L151.491 61.3075C149.327 57.8581 145.679 55.9068 141.896 55.7577C140.733 55.5984 115.044 55.6087 113.965 55.7582C110.182 55.9068 106.534 57.8581 104.37 61.3075L67.2918 120.401C63.8088 125.952 65.485 133.275 71.0356 136.758C76.5881 140.242 83.9101 138.563 87.3923 133.014L91.1298 127.058L86.3881 147.531C85.7924 150.103 86.4029 152.806 88.0454 154.873C89.6884 156.939 92.1843 158.144 94.8247 158.144H99.5032V211.849C99.5032 218.402 104.815 223.714 111.369 223.714C117.922 223.714 123.234 218.402 123.234 211.849V158.143H125.115C120.43 152.873 119.552 144.934 123.484 138.667Z" fill="#04C7B6"/>
<path d="M225.57 140.53L196.368 93.9934C194.664 91.2776 191.791 89.7401 188.812 89.6233C188.362 89.5614 183.262 89.5322 178.084 89.5322C172.708 89.5322 167.251 89.5636 166.817 89.6238C163.837 89.7405 160.964 91.278 159.26 93.9943L130.061 140.531C127.318 144.902 128.638 150.669 133.009 153.411C137.383 156.156 143.15 154.831 145.89 150.463L148.833 145.772L145.099 161.895C144.631 163.92 145.111 166.049 146.405 167.677C147.698 169.304 149.665 170.253 151.744 170.253H155.428V212.546C155.428 217.707 159.611 221.89 164.772 221.89C169.932 221.89 174.115 217.707 174.115 212.546V170.253H181.514V212.546C181.514 217.707 185.698 221.89 190.858 221.89C196.018 221.89 200.201 217.707 200.201 212.546V170.253H203.884C205.963 170.253 207.929 169.304 209.222 167.677C210.516 166.049 210.997 163.921 210.528 161.895L206.794 145.77L209.74 150.463C212.483 154.837 218.253 156.154 222.62 153.411C226.992 150.668 228.313 144.901 225.57 140.53Z" fill="#04C7B6"/>
<path d="M127.931 50.5716C140.475 50.5716 150.692 40.4039 150.692 27.8104C150.692 15.238 140.505 5.04932 127.931 5.04932C115.358 5.04932 105.171 15.2376 105.171 27.8104C105.171 40.4062 115.39 50.5716 127.931 50.5716Z" fill="#04C7B6"/>
<path d="M168.051 82.6434C170.86 84.4722 174.212 85.5388 177.816 85.5388C181.42 85.5388 184.772 84.4718 187.581 82.642C192.491 79.445 195.739 73.9113 195.739 67.6141C195.739 57.7132 187.716 49.6899 177.816 49.6899C167.914 49.6899 159.891 57.7136 159.891 67.6141C159.891 73.9122 163.14 79.4467 168.051 82.6434Z" fill="#04C7B6"/>
</svg>
