<svg width="260" height="230" viewBox="0 0 260 230" fill="none" xmlns="http://www.w3.org/2000/svg">
<path fill-rule="evenodd" clip-rule="evenodd" d="M0 67.6546C0 -0.805817 79.755 -27.7802 126.278 39.3297L132.925 44.69L139.571 39.3297C186.095 -27.7801 259.204 2.9514 259.204 67.6546C259.204 132.357 132.925 229.742 132.925 229.742C132.925 229.742 0 136.116 0 67.6546ZM135.831 60.3301C135.668 59.2239 134.789 58.361 133.68 58.2172C132.571 58.0735 131.501 58.6838 131.061 59.7117L103.536 123.937H48.8355C47.4548 123.937 46.3355 125.056 46.3355 126.437C46.3355 127.817 47.4548 128.937 48.8355 128.937H105.184C106.184 128.937 107.088 128.341 107.482 127.421L132.179 69.7949L149.668 187.847C149.826 188.913 150.649 189.758 151.71 189.943C152.771 190.129 153.832 189.615 154.342 188.666L186.505 128.937H222.577C223.958 128.937 225.077 127.817 225.077 126.437C225.077 125.056 223.958 123.937 222.577 123.937H185.011C184.092 123.937 183.246 124.442 182.81 125.251L153.511 179.665L135.831 60.3301Z" fill="#04C7B6"/>
</svg>
