<svg width="220" height="227" viewBox="0 0 220 227" fill="none" xmlns="http://www.w3.org/2000/svg">
<path d="M204.528 102.465L116.66 15.5893L116.679 15.6302C106.777 5.70451 93.7248 0.720737 80.7355 0.742748C67.7652 0.720737 54.713 5.70451 44.8093 15.6302C34.8867 25.5309 29.9047 38.5624 29.9232 51.5564C29.9047 64.5439 34.8862 77.5943 44.8093 87.4985L65.5465 108.013C64.9214 107.994 64.2954 107.994 63.6716 107.994C46.6649 107.994 31.2157 112.27 19.6563 119.511C13.8867 123.14 9.06581 127.518 5.63691 132.621C2.18908 137.706 0.170654 143.554 0.170654 149.728V184.382C0.170654 190.552 2.18908 196.403 5.63691 201.488C10.8016 209.132 19.0096 215.201 29.0159 219.462C39.0411 223.716 50.9223 226.115 63.6716 226.137C80.655 226.115 96.1055 221.842 107.663 214.599C113.452 210.988 118.252 206.592 121.702 201.488C125.133 196.404 127.149 190.552 127.149 184.382V168.911L132.676 174.381L132.657 174.337C142.559 184.259 155.611 189.246 168.6 189.224C181.572 189.246 194.623 184.259 204.528 174.359C214.45 164.432 219.413 151.404 219.413 138.41C219.414 125.419 214.451 112.387 204.528 102.465ZM59.375 66.1978C50.9641 57.768 50.9641 43.9093 59.4947 35.3782C63.6091 31.2626 69.0956 28.984 74.9475 28.984L59.375 66.1978ZM10.2562 149.728C10.2751 145.754 11.506 141.963 13.9902 138.249C16.1693 135.004 19.3745 131.895 23.3876 129.134L100.564 174.298C98.8094 175.264 96.9538 176.173 94.9953 177C86.141 180.771 75.3296 182.99 63.6725 182.99C48.0974 183.012 34.0586 179.017 24.1562 172.783C19.1949 169.659 15.2813 166.004 12.6585 162.094C11.6878 160.639 10.8831 159.168 10.2566 157.656L10.2562 149.728ZM117.064 184.382C117.064 188.355 115.813 192.149 113.334 195.858C109.619 201.387 103.025 206.509 94.3715 210.184C85.7378 213.854 75.1271 216.054 63.672 216.054C48.3809 216.054 34.6045 212.118 25.0239 206.068C20.222 203.06 16.4691 199.531 13.9902 195.858C11.5064 192.149 10.2751 188.355 10.2562 184.382V170.082C15.1369 175.485 21.7949 179.986 29.641 183.312C39.4439 187.472 51.123 189.851 63.672 189.851C80.393 189.851 95.5618 185.631 106.816 178.572C110.769 176.112 114.219 173.269 117.064 170.1V184.382ZM117.064 157.656C116.944 157.959 116.821 158.24 116.66 158.543C116.117 159.755 115.45 160.923 114.662 162.093C112.969 164.634 110.689 167.036 107.987 169.274L31.5775 124.573C32.0415 124.371 32.4866 124.128 32.9493 123.948C41.5825 120.278 52.1936 118.078 63.6725 118.078C68.1892 118.078 72.5685 118.422 76.7423 119.069C86.7076 120.58 95.5416 123.806 102.299 128.041C103.126 128.546 103.913 129.093 104.658 129.638C108.309 132.239 111.194 135.124 113.232 138.132C113.272 138.17 113.312 138.21 113.334 138.248C115.813 141.963 117.065 145.754 117.065 149.727L117.064 157.656ZM195.975 165.783C188.391 173.351 178.525 177.119 168.601 177.119C158.657 177.119 148.795 173.367 141.209 165.783L141.188 165.764L127.15 151.886V149.728C127.15 143.554 125.133 137.706 121.702 132.621C117.388 126.268 110.993 121.004 103.206 116.97C104.175 114.449 105.404 111.702 106.918 108.884C111.194 100.852 117.609 92.1376 126.102 85.4435C134.552 78.7654 144.943 74.0056 157.791 73.2766L195.955 111.017H195.975C203.539 118.602 207.31 128.487 207.31 138.409C207.31 148.336 203.539 158.221 195.975 165.783Z" fill="#04C7B6"/>
</svg>
