<svg width="208" height="208" viewBox="0 0 208 208" fill="none" xmlns="http://www.w3.org/2000/svg">
<path d="M71.0205 94.3286C78.8007 94.3286 85.1077 88.0213 85.1077 80.2415C85.1077 72.4613 78.8007 66.1543 71.0205 66.1543C63.2404 66.1543 56.9333 72.4613 56.9333 80.2415C56.9333 88.0213 63.2404 94.3286 71.0205 94.3286Z" fill="#04C7B6"/>
<path d="M150.848 80.2415C150.848 88.0213 144.54 94.3286 136.761 94.3286C128.981 94.3286 122.673 88.0213 122.673 80.2415C122.673 72.4613 128.981 66.1543 136.761 66.1543C144.54 66.1543 150.848 72.4613 150.848 80.2415Z" fill="#04C7B6"/>
<path d="M52.7335 140.294C57.2907 142.573 62.8149 140.798 65.2075 136.337C67.3601 132.957 72.0084 131.894 75.7163 131.894C79.9166 131.894 81.5244 132.966 84.5497 134.983L84.5941 135.013C88.5835 137.673 94.024 141.286 103.891 141.286C113.757 141.286 119.198 137.673 123.187 135.013L123.231 134.983C126.257 132.966 127.865 131.894 132.065 131.894C135.773 131.894 140.421 132.957 142.574 136.337C144.966 140.798 150.491 142.573 155.048 140.294C159.57 138.033 161.501 132.163 159.227 127.653C158.785 126.783 158.299 125.981 157.407 124.791C156.35 123.384 154.787 121.61 152.606 119.865C148.126 116.281 141.39 113.111 132.065 113.111C122.198 113.111 116.758 116.724 112.768 119.384L112.724 119.414C109.698 121.431 108.091 122.503 103.891 122.503C99.6908 122.503 98.083 121.431 95.0571 119.414L95.0129 119.384C91.0234 116.724 85.583 113.111 75.7163 113.111C66.3914 113.111 59.6554 116.281 55.1755 119.865C52.995 121.61 51.4306 123.384 50.3741 124.791C49.475 125.991 48.9863 126.797 48.5436 127.674C46.2635 132.211 48.1921 138.023 52.7335 140.294Z" fill="#04C7B6"/>
<path fill-rule="evenodd" clip-rule="evenodd" d="M103.891 207.026C160.944 207.026 207.196 160.774 207.196 103.72C207.196 46.6657 160.944 0.414062 103.891 0.414062C46.8363 0.414062 0.584717 46.6657 0.584717 103.72C0.584717 160.774 46.8363 207.026 103.891 207.026ZM103.891 188.179C57.2452 188.179 19.4317 150.365 19.4317 103.72C19.4317 57.0746 57.2452 19.2611 103.891 19.2611C150.536 19.2611 188.35 57.0746 188.35 103.72C188.35 150.365 150.536 188.179 103.891 188.179Z" fill="#04C7B6"/>
</svg>
