<svg version="1.2" xmlns="http://www.w3.org/2000/svg" viewBox="0 0 1500 1000" width="1500" height="1000">
	<title>3568982-ai</title>
	<style>
		.s0 { fill: #e0e0e0 } 
		.s1 { fill: #fafafa } 
		.s2 { fill: #ebebeb } 
		.s3 { fill: #6f2adf } 
		.s4 { fill: #263238 } 
		.s5 { fill: #ffbe9d } 
		.s6 { fill: #eb996e } 
		.s7 { fill: #455a64 } 
		.s8 { fill: #68ddd3 } 
		.s9 { fill: #000000 } 
		.s10 { fill: #e8505b } 
	</style>
	<g id="Background Complete">
		<g id="&lt;Group&gt;">
			<g id="&lt;Group&gt;">
				<g id="&lt;Group&gt;">
					<g id="&lt;Group&gt;">
						<g id="&lt;Group&gt;">
							<g id="&lt;Group&gt;">
							</g>
						</g>
					</g>
				</g>
			</g>
			<g id="&lt;Group&gt;">
				<g id="&lt;Group&gt;">
					<g id="&lt;Group&gt;">
						<g id="&lt;Group&gt;">
							<g id="&lt;Group&gt;">
								<g id="&lt;Group&gt;">
									<path id="&lt;Path&gt;" class="s0" d="m1253 862c6.3-27.7 15.7-57.5 26.7-88.4q4.1-11.5 8.1-22.8c2.7-7.4 5.4-14.8 8.5-21.9 6.1-14.2 13-27.4 19.9-39.8 7-12.3 14.1-23.8 20.7-34.4 6.7-10.7 13.2-20.5 19.4-29.1 12.4-17.5 24.1-30.3 32.5-38.8 4.2-4.3 7.5-7.5 9.8-9.6q1.7-1.5 2.6-2.4 0.9-0.8 1-0.8 0 0-0.8 0.9-1 0.9-2.6 2.5c-2.2 2.3-5.5 5.5-9.6 9.8-8.2 8.7-19.7 21.6-32 39-6.1 8.7-12.5 18.6-19.1 29.2-6.6 10.7-13.6 22.2-20.5 34.5-6.9 12.3-13.8 25.5-19.8 39.6-3.1 7.1-5.7 14.4-8.4 21.9q-4 11.3-8.2 22.8c-10.9 30.8-20.3 60.5-26.7 88.1"/>
								</g>
							</g>
						</g>
					</g>
				</g>
			</g>
			<g id="&lt;Group&gt;">
				<g id="&lt;Group&gt;">
					<g id="&lt;Group&gt;">
						<g id="&lt;Group&gt;">
							<g id="&lt;Group&gt;">
								<g id="&lt;Group&gt;">
									<path id="&lt;Path&gt;" class="s0" d="m1296.8 728.8c-0.2 0-0.5-1.3-1.2-3.8-0.6-2.4-1.4-6-2.3-10.4-1.8-8.9-3.8-21.2-6.1-34.7-2.2-13.6-4.5-25.9-6.4-34.6-0.9-4.4-1.8-8-2.3-10.4-0.6-2.5-0.9-3.9-0.8-3.9 0.1 0 0.6 1.3 1.4 3.7 0.8 2.4 1.7 5.9 2.8 10.3 2.3 8.7 4.7 21 7 34.6 2.1 13.4 4.1 25.5 5.6 34.7q1.1 6.3 1.8 10.6c0.4 2.5 0.6 3.8 0.5 3.9z"/>
								</g>
							</g>
						</g>
					</g>
				</g>
			</g>
			<g id="&lt;Group&gt;">
				<g id="&lt;Group&gt;">
					<g id="&lt;Group&gt;">
						<g id="&lt;Group&gt;">
							<g id="&lt;Group&gt;">
								<g id="&lt;Group&gt;">
									<path id="&lt;Path&gt;" class="s0" d="m1410.6 700.3c0 0.1-1.6 0.4-4.5 0.8-3 0.5-7.2 1.1-12.5 2-10.4 1.8-24.8 4.7-40.6 8.7-15.7 4-29.8 8.2-39.9 11.6-5 1.6-9.1 3-11.9 4-2.8 1-4.4 1.5-4.4 1.4-0.1-0.1 1.4-0.8 4.2-2 2.7-1.2 6.7-2.8 11.7-4.6 10.1-3.6 24.2-8 39.9-12 15.8-4 30.3-6.8 40.9-8.3 5.2-0.7 9.5-1.2 12.5-1.4 3-0.3 4.6-0.3 4.6-0.2z"/>
								</g>
							</g>
						</g>
					</g>
				</g>
			</g>
			<g id="&lt;Group&gt;">
				<g id="&lt;Group&gt;">
					<g id="&lt;Group&gt;">
						<g id="&lt;Group&gt;">
							<g id="&lt;Group&gt;">
								<g id="&lt;Group&gt;">
									<path id="&lt;Path&gt;" class="s0" d="m1254.3 859.8q-0.1 0-0.9-1.4-0.9-1.6-2.2-4c-1.9-3.5-4.5-8.7-7.7-15.1-6.4-12.9-14.6-30.9-23.4-51-8.8-20-16.8-38.1-22.9-51.1-3-6.3-5.4-11.5-7.2-15.3q-1.2-2.5-2-4.2-0.6-1.5-0.6-1.5 0.1 0 0.9 1.3 0.9 1.7 2.2 4.1c1.9 3.5 4.6 8.7 7.8 15.1 6.3 12.9 14.5 30.9 23.3 50.9 8.8 20.1 16.9 38.2 22.9 51.1 3 6.3 5.5 11.5 7.3 15.4q1.1 2.5 1.9 4.2 0.7 1.4 0.6 1.5z"/>
								</g>
							</g>
						</g>
					</g>
				</g>
			</g>
			<g id="&lt;Group&gt;">
				<g id="&lt;Group&gt;">
					<g id="&lt;Group&gt;">
						<g id="&lt;Group&gt;">
							<g id="&lt;Group&gt;">
								<g id="&lt;Group&gt;">
									<path id="&lt;Path&gt;" class="s0" d="m1404.4 801.2q0 0.1-1.5 0.7-1.8 0.7-4.4 1.8c-4 1.6-9.4 3.7-16 6.3-13.6 5.3-32.2 12.9-52.8 21.3-20.7 8.4-39.4 15.8-53.1 20.8-6.8 2.5-12.4 4.5-16.2 5.8q-2.7 0.9-4.5 1.5-1.6 0.5-1.6 0.4 0-0.1 1.5-0.7 1.7-0.7 4.3-1.8c4.1-1.6 9.5-3.7 16.1-6.3 13.6-5.3 32.2-12.9 52.8-21.3 20.6-8.4 39.4-15.8 53.1-20.8 6.8-2.5 12.4-4.5 16.2-5.8q2.7-0.9 4.5-1.5 1.5-0.5 1.6-0.4z"/>
								</g>
							</g>
						</g>
					</g>
				</g>
			</g>
		</g>
		<g id="&lt;Group&gt;">
			<g id="&lt;Group&gt;">
				<g id="&lt;Group&gt;">
					<g id="&lt;Group&gt;">
					</g>
				</g>
			</g>
			<g id="&lt;Group&gt;">
				<g id="&lt;Group&gt;">
					<g id="&lt;Group&gt;">
					</g>
				</g>
			</g>
			<g id="&lt;Group&gt;">
				<g id="&lt;Group&gt;">
					<g id="&lt;Group&gt;">
					</g>
				</g>
			</g>
			<g id="&lt;Group&gt;">
				<g id="&lt;Group&gt;">
					<g id="&lt;Group&gt;">
						<g id="&lt;Group&gt;">
							<path id="&lt;Path&gt;" class="s0" d="m1293.7 266.9c-0.3-0.1 1.1-4.3 3.1-9.3 2-5.1 3.9-9 4.1-8.9 0.3 0.1-1.1 4.2-3.1 9.3-2 5-3.8 9-4.1 8.9z"/>
						</g>
					</g>
				</g>
			</g>
			<g id="&lt;Group&gt;">
				<g id="&lt;Group&gt;">
					<g id="&lt;Group&gt;">
						<g id="&lt;Group&gt;">
							<path id="&lt;Path&gt;" class="s0" d="m1298.5 268.8c-0.2-0.1 1.2-4.3 3.2-9.3 2-5 3.8-9 4.1-8.9 0.3 0.1-1.1 4.3-3.1 9.3-2 5-3.9 9-4.2 8.9z"/>
						</g>
					</g>
				</g>
			</g>
			<g id="&lt;Group&gt;">
				<g id="&lt;Group&gt;">
					<g id="&lt;Group&gt;">
						<g id="&lt;Group&gt;">
							<path id="&lt;Path&gt;" class="s0" d="m1303.4 270.7c-0.3-0.1 1.1-4.2 3.1-9.3 2-5 3.9-9 4.2-8.9 0.2 0.1-1.2 4.3-3.2 9.3-2 5.1-3.8 9-4.1 8.9z"/>
						</g>
					</g>
				</g>
			</g>
			<g id="&lt;Group&gt;">
				<g id="&lt;Group&gt;">
					<g id="&lt;Group&gt;">
						<g id="&lt;Group&gt;">
							<path id="&lt;Path&gt;" class="s0" d="m1308.3 272.7c-0.3-0.1 1.1-4.3 3.1-9.3 2-5.1 3.8-9 4.1-8.9 0.3 0.1-1.1 4.2-3.1 9.3-2 5-3.9 9-4.1 8.9z"/>
						</g>
					</g>
				</g>
			</g>
			<g id="&lt;Group&gt;">
				<g id="&lt;Group&gt;">
					<g id="&lt;Group&gt;">
						<g id="&lt;Group&gt;">
							<path id="&lt;Path&gt;" class="s0" d="m1313.1 274.6c-0.3-0.1 1.2-4.3 3.2-9.3 2-5 3.8-9 4.1-8.9 0.2 0.1-1.2 4.3-3.2 9.3-2 5-3.8 9-4.1 8.9z"/>
						</g>
					</g>
				</g>
			</g>
			<g id="&lt;Group&gt;">
				<g id="&lt;Group&gt;">
					<g id="&lt;Group&gt;">
						<g id="&lt;Group&gt;">
							<path id="&lt;Path&gt;" class="s0" d="m1318 276.5c-0.3-0.1 1.1-4.2 3.1-9.3 2-5 3.9-9 4.1-8.9 0.3 0.1-1.1 4.3-3.1 9.3-2 5.1-3.9 9-4.1 8.9z"/>
						</g>
					</g>
				</g>
			</g>
			<g id="&lt;Group&gt;">
				<g id="&lt;Group&gt;">
					<g id="&lt;Group&gt;">
						<g id="&lt;Group&gt;">
							<path id="&lt;Path&gt;" class="s0" d="m1322.8 278.5c-0.2-0.1 1.2-4.3 3.2-9.3 2-5.1 3.8-9 4.1-8.9 0.2 0.1-1.2 4.2-3.2 9.3-2 5-3.8 9-4.1 8.9z"/>
						</g>
					</g>
				</g>
			</g>
			<g id="&lt;Group&gt;">
				<g id="&lt;Group&gt;">
					<g id="&lt;Group&gt;">
						<g id="&lt;Group&gt;">
							<path id="&lt;Path&gt;" class="s0" d="m1327.7 280.4c-0.3-0.1 1.1-4.3 3.1-9.3 2-5 3.9-9 4.1-8.9 0.3 0.1-1.1 4.3-3.1 9.3-2 5-3.9 9-4.1 8.9z"/>
						</g>
					</g>
				</g>
			</g>
			<g id="&lt;Group&gt;">
				<g id="&lt;Group&gt;">
					<g id="&lt;Group&gt;">
						<g id="&lt;Group&gt;">
						</g>
					</g>
				</g>
				<g id="&lt;Group&gt;">
					<g id="&lt;Group&gt;">
						<g id="&lt;Group&gt;">
							<g id="&lt;Group&gt;">
							</g>
						</g>
					</g>
				</g>
				<g id="&lt;Group&gt;">
					<g id="&lt;Group&gt;">
						<g id="&lt;Group&gt;">
							<g id="&lt;Group&gt;">
							</g>
						</g>
					</g>
				</g>
				<g id="&lt;Group&gt;">
					<g id="&lt;Group&gt;">
						<g id="&lt;Group&gt;">
							<g id="&lt;Group&gt;">
							</g>
						</g>
					</g>
				</g>
				<g id="&lt;Group&gt;">
					<g id="&lt;Group&gt;">
						<g id="&lt;Group&gt;">
							<g id="&lt;Group&gt;">
							</g>
						</g>
					</g>
				</g>
			</g>
			<g id="&lt;Group&gt;">
				<g id="&lt;Group&gt;">
					<g id="&lt;Group&gt;">
						<g id="&lt;Group&gt;">
							<path id="&lt;Path&gt;" class="s0" d="m1324.7 285.5c-0.1 0.3-7.9-2.5-17.4-6.3-9.5-3.8-17.1-7.1-17-7.3 0.1-0.3 7.9 2.5 17.4 6.3 9.5 3.8 17.1 7.1 17 7.3z"/>
						</g>
					</g>
				</g>
			</g>
			<g id="&lt;Group&gt;">
				<g id="&lt;Group&gt;">
					<g id="&lt;Group&gt;">
						<g id="&lt;Group&gt;">
						</g>
					</g>
				</g>
			</g>
			<g id="&lt;Group&gt;">
				<g id="&lt;Group&gt;">
					<g id="&lt;Group&gt;">
						<g id="&lt;Group&gt;">
						</g>
					</g>
				</g>
			</g>
		</g>
		<g id="&lt;Group&gt;">
			<g id="&lt;Group&gt;">
				<g id="&lt;Group&gt;">
					<g id="&lt;Group&gt;">
						<path id="&lt;Path&gt;" class="s0" d="m360.7 594.6l-154.9 74.5c-2.4 1.2-5.3 0.2-6.4-2.2l-104-216c-1.1-2.4-0.1-5.3 2.3-6.4l154.8-74.6c2.4-1.1 5.3-0.1 6.5 2.3l103.9 216c1.2 2.4 0.2 5.2-2.2 6.4z"/>
					</g>
				</g>
			</g>
			<g id="&lt;Group&gt;">
				<g id="&lt;Group&gt;">
					<g id="&lt;Group&gt;">
						<path id="&lt;Path&gt;" class="s1" d="m350.7 586.1l-145.3 70-100.6-209.1 145.2-70z"/>
					</g>
				</g>
			</g>
			<g id="&lt;Group&gt;">
				<g id="&lt;Group&gt;">
					<g id="&lt;Group&gt;">
						<path id="&lt;Compound Path&gt;" fill-rule="evenodd" class="s2" d="m212.6 404.1l-63.3 30.4 0.1-4.6c0.1-7.3 4.3-14 10.9-17.4l3.1-1.5-4.5-9.3c-3.3-6.7-0.4-14.9 6.3-18.1 6.8-3.3 14.9-0.4 18.1 6.3l4.5 8.9c6.7-3.3 14.7-2.4 20.7 2.1zm-34.5-11.4c-1.7-3.7-6.1-5.2-9.7-3.4-3.7 1.7-5.2 6.1-3.4 9.7 1.7 3.6 6.1 5.2 9.7 3.4 3.7-1.7 5.2-6.1 3.4-9.7z"/>
					</g>
				</g>
			</g>
			<g id="&lt;Group&gt;">
				<g id="&lt;Group&gt;">
					<g id="&lt;Group&gt;">
						<g id="&lt;Group&gt;">
							<path id="&lt;Path&gt;" class="s0" d="m172.9 450.7c0.1 0.2-8.6 4.7-19.5 9.9-10.9 5.2-19.8 9.3-19.9 9-0.1-0.2 8.6-4.7 19.4-9.9 10.9-5.3 19.8-9.3 20-9z"/>
						</g>
					</g>
				</g>
			</g>
			<g id="&lt;Group&gt;">
				<g id="&lt;Group&gt;">
					<g id="&lt;Group&gt;">
						<g id="&lt;Group&gt;">
							<path id="&lt;Path&gt;" class="s0" d="m155.7 467.1c0.1 0.3-4.1 2.5-9.3 5.1-5.3 2.5-9.6 4.3-9.7 4.1-0.2-0.3 4-2.5 9.2-5.1 5.3-2.5 9.6-4.3 9.8-4.1z"/>
						</g>
					</g>
				</g>
			</g>
			<g id="&lt;Group&gt;">
				<g id="&lt;Group&gt;">
					<g id="&lt;Group&gt;">
						<g id="&lt;Group&gt;">
							<path id="&lt;Path&gt;" class="s0" d="m257.1 441.1c0.1 0.2-24.3 12.3-54.6 26.8-30.3 14.6-54.9 26.2-55 26-0.1-0.3 24.3-12.3 54.6-26.9 30.2-14.6 54.9-26.2 55-25.9z"/>
						</g>
					</g>
				</g>
			</g>
			<g id="&lt;Group&gt;">
				<g id="&lt;Group&gt;">
					<g id="&lt;Group&gt;">
						<g id="&lt;Group&gt;">
							<path id="&lt;Path&gt;" class="s0" d="m262.2 451.5c0.1 0.3-24.4 12.3-54.6 26.9-30.3 14.6-55 26.2-55.1 25.9-0.1-0.2 24.3-12.3 54.6-26.8 30.3-14.6 54.9-26.2 55.1-26z"/>
						</g>
					</g>
				</g>
			</g>
			<g id="&lt;Group&gt;">
				<g id="&lt;Group&gt;">
					<g id="&lt;Group&gt;">
						<g id="&lt;Group&gt;">
							<path id="&lt;Path&gt;" class="s0" d="m267.2 462c0.1 0.3-24.3 12.3-54.6 26.9-30.3 14.5-54.9 26.1-55.1 25.9-0.1-0.3 24.4-12.3 54.6-26.9 30.3-14.6 55-26.2 55.1-25.9z"/>
						</g>
					</g>
				</g>
			</g>
			<g id="&lt;Group&gt;">
				<g id="&lt;Group&gt;">
					<g id="&lt;Group&gt;">
						<g id="&lt;Group&gt;">
							<path id="&lt;Path&gt;" class="s0" d="m272.2 472.5c0.1 0.2-24.3 12.2-54.6 26.8-30.3 14.6-54.9 26.2-55 25.9-0.1-0.2 24.3-12.3 54.6-26.8 30.2-14.6 54.9-26.2 55-25.9z"/>
						</g>
					</g>
				</g>
			</g>
			<g id="&lt;Group&gt;">
				<g id="&lt;Group&gt;">
					<g id="&lt;Group&gt;">
						<g id="&lt;Group&gt;">
							<path id="&lt;Path&gt;" class="s0" d="m277.3 482.9c0.1 0.3-24.4 12.3-54.6 26.9-30.3 14.5-55 26.1-55.1 25.9-0.1-0.3 24.3-12.3 54.6-26.9 30.3-14.5 54.9-26.1 55.1-25.9z"/>
						</g>
					</g>
				</g>
			</g>
			<g id="&lt;Group&gt;">
				<g id="&lt;Group&gt;">
					<g id="&lt;Group&gt;">
						<g id="&lt;Group&gt;">
							<path id="&lt;Path&gt;" class="s0" d="m282.3 493.4c0.1 0.2-24.3 12.2-54.6 26.8-30.3 14.6-54.9 26.2-55.1 25.9-0.1-0.2 24.4-12.2 54.6-26.8 30.3-14.6 55-26.2 55.1-25.9z"/>
						</g>
					</g>
				</g>
			</g>
			<g id="&lt;Group&gt;">
				<g id="&lt;Group&gt;">
					<g id="&lt;Group&gt;">
						<g id="&lt;Group&gt;">
							<path id="&lt;Path&gt;" class="s0" d="m232 529.2c0 0-0.7 0.5-2.1 1.2q-2.3 1.2-5.8 3c-4.9 2.4-11.7 5.8-19.3 9.4-7.6 3.7-14.4 6.9-19.4 9.2q-3.6 1.6-6 2.7c-1.4 0.6-2.2 0.9-2.2 0.9 0-0.1 0.7-0.5 2-1.3q2.4-1.2 5.8-2.9c5-2.5 11.8-5.9 19.4-9.5 7.5-3.6 14.4-6.9 19.4-9.2q3.6-1.6 6-2.7c1.4-0.6 2.2-0.9 2.2-0.8z"/>
						</g>
					</g>
				</g>
			</g>
			<g id="&lt;Group&gt;">
				<g id="&lt;Group&gt;">
					<g id="&lt;Group&gt;">
						<g id="&lt;Group&gt;">
							<path id="&lt;Path&gt;" class="s0" d="m249.3 412.7c0.1 0.3-3.7 2.4-8.6 4.7-4.8 2.3-8.8 4-9 3.8-0.1-0.3 3.7-2.4 8.6-4.7 4.8-2.4 8.9-4.1 9-3.8z"/>
						</g>
					</g>
				</g>
			</g>
			<g id="&lt;Group&gt;">
				<g id="&lt;Group&gt;">
					<g id="&lt;Group&gt;">
						<g id="&lt;Group&gt;">
							<path id="&lt;Path&gt;" class="s0" d="m218 564c0.2 0.2-6.1 3.5-14 7.3-7.8 3.8-14.3 6.6-14.4 6.4-0.2-0.3 6.1-3.6 14-7.4 7.8-3.7 14.3-6.6 14.4-6.3z"/>
						</g>
					</g>
				</g>
			</g>
			<g id="&lt;Group&gt;">
				<g id="&lt;Group&gt;">
					<g id="&lt;Group&gt;">
						<g id="&lt;Group&gt;">
							<path id="&lt;Path&gt;" class="s0" d="m223.6 573c0.1 0.2-6.3 3.6-14.3 7.4-8 3.9-14.6 6.8-14.7 6.5-0.1-0.2 6.3-3.6 14.3-7.4 8-3.9 14.5-6.8 14.7-6.5z"/>
						</g>
					</g>
				</g>
			</g>
			<g id="&lt;Group&gt;">
				<g id="&lt;Group&gt;">
					<g id="&lt;Group&gt;">
						<g id="&lt;Group&gt;">
							<path id="&lt;Path&gt;" class="s0" d="m299.9 522.8c0.2 0.2-2.8 1.9-6.6 3.8-3.8 1.8-7 3.1-7.1 2.8-0.1-0.3 2.8-1.9 6.6-3.8 3.8-1.8 7-3.1 7.1-2.8z"/>
						</g>
					</g>
				</g>
			</g>
			<g id="&lt;Group&gt;">
				<g id="&lt;Group&gt;">
					<g id="&lt;Group&gt;">
						<g id="&lt;Group&gt;">
							<path id="&lt;Path&gt;" class="s0" d="m304.5 531.1c0.2 0.3-2.8 1.9-6.6 3.8-3.8 1.8-7 3.1-7.1 2.8-0.2-0.2 2.8-1.9 6.6-3.8 3.8-1.8 7-3.1 7.1-2.8z"/>
						</g>
					</g>
				</g>
			</g>
			<g id="&lt;Group&gt;">
				<g id="&lt;Group&gt;">
					<g id="&lt;Group&gt;">
						<g id="&lt;Group&gt;">
							<path id="&lt;Path&gt;" class="s0" d="m215.1 589.4c0.1 0.2-2.8 1.9-6.4 3.6-3.7 1.8-6.8 3-6.9 2.8-0.1-0.3 2.7-1.9 6.4-3.7 3.7-1.8 6.8-3 6.9-2.7z"/>
						</g>
					</g>
				</g>
			</g>
			<g id="&lt;Group&gt;">
				<g id="&lt;Group&gt;">
					<g id="&lt;Group&gt;">
						<g id="&lt;Group&gt;">
							<path id="&lt;Path&gt;" class="s0" d="m309.8 540.8c0.1 0.3-2 1.6-4.7 2.9-2.8 1.3-5.1 2.2-5.3 1.9-0.1-0.2 2-1.5 4.8-2.8 2.8-1.4 5.1-2.2 5.2-2z"/>
						</g>
					</g>
				</g>
			</g>
			<g id="&lt;Group&gt;">
				<g id="&lt;Group&gt;">
					<g id="&lt;Group&gt;">
						<g id="&lt;Group&gt;">
							<path id="&lt;Path&gt;" class="s0" d="m211.7 618.7q0 0 0.6-0.4 0.7-0.5 1.7-1.2 2.4-1.5 6.4-4.1c5.7-3.6 13.7-8.6 23.3-14.6l0.4-0.3 0.2 0.5c1.1 2.7 1.3 5.9 0.3 8.8-0.9 3-3.2 5.8-6.4 7-3.1 1.1-7 1-9.9-1.1-3-2.2-4.2-6.2-3.3-9.8 0.3-1.3 1-2.6 1.9-3.6q0.3-0.4 0.7-0.7c0.3-0.3 0.6-0.5 0.9-0.7 0.4-0.1 1-0.2 1.4 0.1 0.5 0.3 0.7 0.6 0.8 0.9 1.3 2.3 1.9 4.9 2.1 7.4 0.1 2.5-0.3 5.1-1.2 7.3-0.8 2.3-2.2 4.4-4.3 5.7-2.1 1.4-4.8 1.1-6.7-0.1-2-1.2-3.3-3-4-5-1.3-4.1-0.5-8 0-11.3l0.1-0.8 0.6 0.6c2.3 2.7 3.5 5.8 3.8 8.6 0.3 2.8-0.1 5.2-0.7 7.1-0.6 1.9-1.4 3.2-2 4-0.3 0.4-0.6 0.7-0.8 0.9q-0.2 0.3-0.2 0.3c-0.2-0.1 1.5-1.6 2.6-5.3 0.5-1.9 0.9-4.2 0.5-6.9-0.4-2.7-1.5-5.7-3.8-8.2l0.7-0.2c-0.6 3.3-1.3 7.1 0 10.9 0.6 1.8 1.9 3.4 3.6 4.5 1.8 1.1 4 1.3 5.8 0.1 1.8-1.1 3.1-3.1 3.9-5.2 0.8-2.2 1.2-4.5 1-6.9-0.1-2.4-0.7-4.8-1.9-7-0.1-0.2-0.3-0.4-0.4-0.5-0.1-0.1-0.2-0.1-0.4 0-0.4 0.2-1 0.7-1.3 1.1-0.8 0.9-1.4 2-1.7 3.2-0.8 3.2 0.3 6.8 2.9 8.6 2.6 1.9 6.1 2.1 8.9 1 2.9-1 5-3.5 5.9-6.3 0.9-2.7 0.7-5.7-0.2-8.1l0.6 0.2c-9.6 5.8-17.6 10.7-23.4 14.2q-4.1 2.5-6.6 4-1 0.6-1.7 1-0.6 0.3-0.7 0.3z"/>
						</g>
					</g>
				</g>
			</g>
			<g id="&lt;Group&gt;">
				<g id="&lt;Group&gt;">
					<g id="&lt;Group&gt;">
						<g id="&lt;Group&gt;">
							<path id="&lt;Path&gt;" class="s0" d="m315.6 568.3c0 0 0 0.6-0.3 1.8-0.2 0.6-0.5 1.4-1 2.2-0.4 0.7-1.3 1.5-2.5 1.9-0.5 0.1-1.2 0.2-1.9-0.1-0.7-0.2-1.2-0.7-1.7-1.3-0.8-1.1-1.4-2.5-2.2-3.8-1.5-2.8-3.2-5.8-5-9.1l0.9-0.2c-0.1 4.6-0.3 9.6-0.5 14.8q-0.1 1.9-0.1 3.7l-0.1 2.1-0.9-1.8c-2.8-5.7-5.3-10.9-7.5-15.5l0.8-0.1c-1.6 5.7-1.9 10.6-1.9 14 0 3.4 0.2 5.3 0.1 5.4q-0.1-0.1-0.3-1.4c-0.1-0.9-0.3-2.3-0.3-4-0.2-3.4 0-8.4 1.5-14.2l0.3-1.2 0.6 1.1c2.2 4.6 4.8 9.8 7.6 15.4l-1 0.2q0.1-1.8 0.2-3.7c0.2-5.2 0.4-10.2 0.6-14.8v-1.8l0.9 1.6c1.7 3.3 3.3 6.3 4.8 9.1 0.7 1.4 1.4 2.7 2.1 3.8 0.7 1 1.9 1.5 2.9 1.2 2.1-0.6 2.9-2.5 3.3-3.6 0.4-1.1 0.5-1.8 0.6-1.7z"/>
						</g>
					</g>
				</g>
			</g>
			<g id="&lt;Group&gt;">
				<g id="&lt;Group&gt;">
					<g id="&lt;Group&gt;">
						<g id="&lt;Group&gt;">
							<path id="&lt;Path&gt;" class="s0" d="m315.4 560.8c0.1 0.2-8.1 6.1-18.5 13.1-10.3 7.1-18.8 12.6-19 12.3-0.1-0.2 8.1-6.1 18.5-13.1 10.3-7.1 18.8-12.6 19-12.3z"/>
						</g>
					</g>
				</g>
			</g>
			<g id="&lt;Group&gt;">
				<g id="&lt;Group&gt;">
					<g id="&lt;Group&gt;">
						<g id="&lt;Group&gt;">
							<path id="&lt;Path&gt;" class="s0" d="m325.5 562.5c0.2 0.2-5.8 5.8-13.5 12.3-7.7 6.6-14 11.8-14.2 11.5-0.2-0.2 5.9-5.7 13.5-12.3 7.7-6.5 14-11.7 14.2-11.5z"/>
						</g>
					</g>
				</g>
			</g>
		</g>
		<g id="&lt;Group&gt;">
			<g id="&lt;Group&gt;">
				<g id="&lt;Group&gt;">
					<g id="&lt;Group&gt;">
						<g id="&lt;Group&gt;">
							<g id="&lt;Group&gt;">
							</g>
						</g>
					</g>
				</g>
				<g id="&lt;Group&gt;">
					<g id="&lt;Group&gt;">
						<g id="&lt;Group&gt;">
							<g id="&lt;Group&gt;">
							</g>
						</g>
					</g>
				</g>
			</g>
		</g>
	</g>
	<g id="Icons">
		<g id="&lt;Group&gt;">
			<g id="&lt;Group&gt;">
				<g id="&lt;Group&gt;">
					<g id="&lt;Group&gt;">
					</g>
				</g>
			</g>
			<g id="&lt;Group&gt;">
				<g id="&lt;Group&gt;">
					<g id="&lt;Group&gt;">
						<g id="&lt;Group&gt;">
							<path id="&lt;Path&gt;" class="s1" d="m1041.6 168.2q0 0-0.6 0-0.7 0-1.7-0.1-2.4-0.2-6.6-0.5c-5.7-0.6-13.9-1.3-24-2.2l0.5-0.3c-2.9 7.5-6.3 16.4-10 26.1l-0.6 1.5-0.4-1.6c-3.1-12.6-6.5-26.8-10.1-41.8q-1.6-6.9-3.2-13.6l1 0.2c-6.5 9-12.7 17.5-18.3 25.2l-0.2 0.3-0.3-0.1c-17.3-1.8-31.8-3.3-42.2-4.4-5-0.5-9.1-1-11.9-1.3q-2-0.3-3.2-0.4-1.1-0.2-1.1-0.2 0.1 0 1.1 0 1.2 0.1 3.2 0.3c2.9 0.2 6.9 0.6 12 1 10.3 1 24.9 2.4 42.2 4l-0.5 0.2c5.6-7.7 11.8-16.3 18.3-25.2l0.7-1.1 0.3 1.3q1.6 6.6 3.2 13.6c3.6 14.9 7 29.1 10 41.8l-1-0.1c3.8-9.7 7.2-18.5 10.2-26l0.1-0.3h0.3c10.1 1.1 18.2 2 24 2.6q4.1 0.5 6.5 0.8 1 0.1 1.7 0.2 0.6 0.1 0.6 0.1z"/>
						</g>
					</g>
				</g>
			</g>
		</g>
		<g id="&lt;Group&gt;">
			<g id="&lt;Group&gt;">
				<g id="&lt;Group&gt;">
					<path id="&lt;Path&gt;" class="s3" d="m613.7 305.3h-13.2v-59.2h13.2z"/>
				</g>
				<g id="&lt;Group&gt;">
					<path id="&lt;Path&gt;" class="s3" d="m636.7 269.1v13.2h-59.2v-13.2z"/>
				</g>
			</g>
			<g id="&lt;Group&gt;">
				<g id="&lt;Group&gt;">
					<path id="&lt;Path&gt;" class="s3" d="m656.2 275.8q0 0-0.1-0.8 0-0.8-0.1-2.3-0.1-0.8-0.2-1.7c0-0.7-0.2-1.3-0.3-2.1-0.2-1.5-0.4-3.2-1-5.1-0.9-3.8-2.7-8.2-5.5-13-2.8-4.7-6.9-9.7-12.5-13.9-5.5-4.1-12.5-7.7-20.6-9.1-8-1.4-17-1.1-25.6 2.2-2.2 0.7-4.3 1.7-6.4 2.8-2 1.2-4.1 2.3-6 3.8-2 1.4-3.7 3.1-5.5 4.7-1.7 1.8-3.4 3.6-4.8 5.7-2.9 4-5.5 8.5-7 13.4-1.6 4.9-2.4 10.1-2.5 15.4 0.1 5.3 0.9 10.5 2.5 15.4 1.5 5 4.1 9.5 7 13.5 1.4 2.1 3.1 3.8 4.8 5.6 1.8 1.7 3.5 3.4 5.5 4.8 1.9 1.5 4 2.6 6 3.8 2.1 1 4.2 2.1 6.4 2.8 8.6 3.3 17.6 3.5 25.6 2.2 8.1-1.5 15.1-5 20.6-9.1 5.6-4.2 9.7-9.2 12.5-13.9 2.8-4.8 4.6-9.3 5.5-13.1 0.6-1.8 0.8-3.6 1-5 0.1-0.8 0.3-1.5 0.3-2.1q0.1-0.9 0.2-1.7 0.1-1.5 0.1-2.4 0.1-0.8 0.1-0.8 0 0 0 0.8 0 0.9 0 2.4-0.1 0.8-0.1 1.7c0 0.7-0.2 1.3-0.3 2.1-0.2 1.5-0.4 3.2-0.9 5.1-0.9 3.9-2.6 8.4-5.4 13.3-2.8 4.8-6.9 9.8-12.5 14.1-5.6 4.3-12.7 7.9-20.9 9.4-8.2 1.5-17.4 1.2-26.2-2.1-2.2-0.7-4.3-1.8-6.5-2.8-2-1.3-4.2-2.4-6.1-3.9-2-1.4-3.8-3.2-5.7-4.8-1.6-1.9-3.4-3.7-4.8-5.8-3-4.1-5.6-8.7-7.2-13.7-1.6-5-2.5-10.4-2.6-15.8 0.1-5.4 1-10.7 2.6-15.7 1.6-5 4.2-9.6 7.2-13.7 1.4-2.1 3.2-3.9 4.8-5.8 1.9-1.7 3.7-3.4 5.7-4.8 1.9-1.5 4.1-2.7 6.1-3.9 2.2-1 4.3-2.1 6.5-2.8 8.8-3.4 18-3.6 26.2-2.1 8.2 1.4 15.3 5.1 20.9 9.3 5.6 4.3 9.7 9.4 12.5 14.2 2.8 4.8 4.5 9.4 5.4 13.2 0.5 1.9 0.7 3.7 0.9 5.2 0.1 0.7 0.3 1.4 0.3 2.1q0 0.9 0.1 1.7 0 1.5 0 2.3 0 0.8 0 0.8z"/>
				</g>
			</g>
		</g>
	</g>
	<g id="Character 1">
		<g id="&lt;Group&gt;">
			<g id="&lt;Group&gt;">
				<g id="&lt;Group&gt;">
					<g id="&lt;Group&gt;">
						<g id="&lt;Group&gt;">
							<g id="&lt;Group&gt;">
								<path id="&lt;Path&gt;" class="s4" d="m503.7 304.7c0.2-8.7-7.8-15.4-15.9-18.6-8.1-3.2-17.2-4.4-24.4-9.3-6.4-4.3-10.7-11-16.1-16.5-13.3-13.5-34.1-19.1-52.3-14.1-18.3 5-33.3 20.3-38 38.7-3.1 12.4-0.9 27.1 8.8 35.3 11.4 9.6 28.2 7.5 42.8 4.5 14.5-3 31-5.9 43.1 2.6 7.3 5.2 11.5 13.6 16 21.3 4.5 7.8 10.1 15.7 18.6 18.6 8.4 2.9 19.9-2.1 20.3-11.1"/>
							</g>
						</g>
					</g>
					<g id="&lt;Group&gt;">
						<g id="&lt;Group&gt;">
							<path id="&lt;Path&gt;" class="s4" d="m503.1 309.5c-1 7.3 4.3 13.8 9.6 19 5.2 5.1 11.2 10.6 12.1 17.9 1.1 8.6-5.1 17-3.3 25.4 1.1 5.3 5.3 9.4 7.8 14.3 3.5 6.8 3.7 15 1.5 22.4-2.1 7.3-5.6 23.7-10.7 29.5-14.1 15.8-36.6 29.4-57.3 34.1-20.7 4.8-42.1 4.8-63.3 3.5-17.3-1-37.3-0.2-51.7-24.1-7.5-12.3-11.2-28.7-15.1-42.6-3.5-12-6.4-24.8-2.9-36.7 2.1-6.9 6.3-13.1 8.3-20 2.6-8.7 1.6-18 2.7-27 2.2-19.4 14.3-37.5 31.4-47 17.1-9.5 38.8-10.2 56.5-1.8"/>
						</g>
					</g>
				</g>
				<g id="&lt;Group&gt;">
					<g id="&lt;Group&gt;">
						<g id="&lt;Group&gt;">
							<path id="&lt;Path&gt;" class="s5" d="m349.1 339.4c1.6-24.8 18.1-55.3 42.9-52.6l77.3 19.7c7.5 0.8 13.2 7.3 13 14.8l-8.7 186.6q0.3 0 0.6 0.1c0 0-17.6 52.6-68.8 36.5-10.1-3.2-14.8-14.2-16.8-25.7l-0.5 0.1c0-1.3 0-2.6 0-3.9-1.7-13.2-0.3-25.6-0.3-25.6-0.2-15.1-0.2-21.3-0.2-21.1 0 0-31.7-5.4-38.2-46.8-3.3-20.6-2.1-54.4-0.3-82.1z"/>
						</g>
					</g>
					<g id="&lt;Group&gt;">
						<g id="&lt;Group&gt;">
							<g id="&lt;Group&gt;">
								<g id="&lt;Group&gt;">
									<g id="&lt;Group&gt;">
										<g id="&lt;Group&gt;">
											<g id="&lt;Group&gt;">
												<g id="&lt;Group&gt;">
													<g id="&lt;Group&gt;">
														<g id="&lt;Group&gt;">
															<g id="&lt;Group&gt;">
																<g id="&lt;Group&gt;">
																	<g id="&lt;Group&gt;">
																		<g id="&lt;Group&gt;">
																			<g id="&lt;Group&gt;">
																				<g id="&lt;Group&gt;">
																					<g id="&lt;Group&gt;">
																						<g id="&lt;Group&gt;">
																							<path id="&lt;Path&gt;" class="s4" d="m361.5 364.4c-0.1 2.8 2.2 5.2 5.1 5.4 2.9 0.2 5.4-2 5.5-4.8 0.1-2.8-2.2-5.2-5.1-5.4-2.9-0.1-5.4 2-5.5 4.8z"/>
																						</g>
																					</g>
																				</g>
																			</g>
																		</g>
																	</g>
																</g>
															</g>
														</g>
														<g id="&lt;Group&gt;">
															<g id="&lt;Group&gt;">
																<g id="&lt;Group&gt;">
																	<g id="&lt;Group&gt;">
																		<g id="&lt;Group&gt;">
																			<g id="&lt;Group&gt;">
																				<g id="&lt;Group&gt;">
																					<g id="&lt;Group&gt;">
																						<g id="&lt;Group&gt;">
																							<g id="&lt;Group&gt;">
																								<path id="&lt;Path&gt;" class="s4" d="m356.3 357c0.7 0.7 4.7-2.2 10.5-2.2 5.7-0.1 9.9 2.9 10.5 2.2 0.3-0.3-0.4-1.6-2.2-2.9-1.8-1.3-4.9-2.6-8.4-2.6-3.6 0-6.6 1.3-8.3 2.6-1.8 1.4-2.4 2.6-2.1 2.9z"/>
																							</g>
																						</g>
																					</g>
																				</g>
																			</g>
																		</g>
																	</g>
																</g>
															</g>
														</g>
													</g>
													<g id="&lt;Group&gt;">
														<g id="&lt;Group&gt;">
															<g id="&lt;Group&gt;">
																<g id="&lt;Group&gt;">
																	<g id="&lt;Group&gt;">
																		<g id="&lt;Group&gt;">
																			<g id="&lt;Group&gt;">
																				<g id="&lt;Group&gt;">
																					<g id="&lt;Group&gt;">
																						<g id="&lt;Group&gt;">
																							<path id="&lt;Path&gt;" class="s4" d="m417.7 364.4c-0.1 2.8 2.2 5.2 5.2 5.4 2.9 0.2 5.3-2 5.4-4.8 0.1-2.8-2.1-5.2-5.1-5.4-2.9-0.1-5.4 2-5.5 4.8z"/>
																						</g>
																					</g>
																				</g>
																			</g>
																		</g>
																	</g>
																</g>
															</g>
														</g>
														<g id="&lt;Group&gt;">
															<g id="&lt;Group&gt;">
																<g id="&lt;Group&gt;">
																	<g id="&lt;Group&gt;">
																		<g id="&lt;Group&gt;">
																			<g id="&lt;Group&gt;">
																				<g id="&lt;Group&gt;">
																					<g id="&lt;Group&gt;">
																						<g id="&lt;Group&gt;">
																							<g id="&lt;Group&gt;">
																								<path id="&lt;Path&gt;" class="s4" d="m412.6 358.2c0.6 0.7 4.7-2.2 10.4-2.2 5.7-0.1 9.9 2.9 10.5 2.2 0.3-0.3-0.3-1.6-2.2-2.9-1.8-1.3-4.8-2.6-8.4-2.6-3.6 0-6.6 1.3-8.3 2.6-1.7 1.4-2.3 2.6-2 2.9z"/>
																							</g>
																						</g>
																					</g>
																				</g>
																			</g>
																		</g>
																	</g>
																</g>
															</g>
														</g>
													</g>
													<g id="&lt;Group&gt;">
														<g id="&lt;Group&gt;">
															<g id="&lt;Group&gt;">
																<g id="&lt;Group&gt;">
																	<g id="&lt;Group&gt;">
																		<g id="&lt;Group&gt;">
																			<g id="&lt;Group&gt;">
																				<g id="&lt;Group&gt;">
																					<g id="&lt;Group&gt;">
																						<g id="&lt;Group&gt;">
																							<path id="&lt;Path&gt;" class="s4" d="m391.7 400.6c0-0.3-3.5-0.9-9.3-1.7-1.4-0.1-2.8-0.4-3.1-1.4-0.3-1.1 0.3-2.7 1-4.4q2.1-5.3 4.4-11.1c6-15.8 10.4-28.8 9.7-29-0.6-0.3-6 12.3-12 28.2q-2.2 5.8-4.2 11.2c-0.6 1.6-1.5 3.5-0.8 5.7 0.4 1.1 1.5 1.9 2.4 2.1 1 0.3 1.8 0.3 2.5 0.4 5.8 0.3 9.4 0.3 9.4 0z"/>
																						</g>
																					</g>
																				</g>
																			</g>
																		</g>
																	</g>
																</g>
															</g>
														</g>
													</g>
													<g id="&lt;Group&gt;">
														<g id="&lt;Group&gt;">
															<g id="&lt;Group&gt;">
																<g id="&lt;Group&gt;">
																	<g id="&lt;Group&gt;">
																		<g id="&lt;Group&gt;">
																			<g id="&lt;Group&gt;">
																				<g id="&lt;Group&gt;">
																					<g id="&lt;Group&gt;">
																						<path id="&lt;Path&gt;" class="s6" d="m387.6 468.3c0 0 27.9 1.8 55.6-14.7 0 0-14.1 28.7-55.5 24.7z"/>
																					</g>
																				</g>
																			</g>
																		</g>
																	</g>
																</g>
															</g>
														</g>
													</g>
													<g id="&lt;Group&gt;">
														<g id="&lt;Group&gt;">
															<g id="&lt;Group&gt;">
																<g id="&lt;Group&gt;">
																	<g id="&lt;Group&gt;">
																		<g id="&lt;Group&gt;">
																			<g id="&lt;Group&gt;">
																				<g id="&lt;Group&gt;">
																					<g id="&lt;Group&gt;">
																						<path id="&lt;Path&gt;" class="s6" d="m394.1 414.4c2.1-2.7 5.7-4.2 9.3-3.8 2.4 0.3 4.9 1.5 6.5 3.5 1.5 2 1.8 4.9 0.4 6.8-1.6 2.2-4.8 2.7-7.5 1.9-2.7-0.8-5.1-2.6-7.3-4.4-0.6-0.5-1.3-1-1.6-1.7-0.4-0.7-0.5-1.6 0-2.1"/>
																					</g>
																				</g>
																			</g>
																		</g>
																	</g>
																</g>
															</g>
														</g>
													</g>
													<g id="&lt;Group&gt;">
														<g id="&lt;Group&gt;">
															<g id="&lt;Group&gt;">
																<g id="&lt;Group&gt;">
																	<g id="&lt;Group&gt;">
																		<g id="&lt;Group&gt;">
																			<g id="&lt;Group&gt;">
																				<g id="&lt;Group&gt;">
																					<g id="&lt;Group&gt;">
																						<g id="&lt;Group&gt;">
																							<path id="&lt;Path&gt;" class="s4" d="m408.5 404.6c-0.9-0.1-0.9 6.2-6.2 10.5-5.3 4.5-12 3.7-12 4.6-0.1 0.4 1.5 1.2 4.2 1.3 2.8 0.1 6.8-0.8 10.1-3.5 3.2-2.6 4.6-6.3 4.8-8.8 0.3-2.6-0.4-4.1-0.9-4.1z"/>
																						</g>
																					</g>
																				</g>
																			</g>
																		</g>
																	</g>
																</g>
															</g>
														</g>
													</g>
												</g>
											</g>
										</g>
										<g id="&lt;Group&gt;">
											<g id="&lt;Group&gt;">
												<g id="&lt;Group&gt;">
													<g id="&lt;Group&gt;">
														<g id="&lt;Group&gt;">
															<g id="&lt;Group&gt;">
																<g id="&lt;Group&gt;">
																	<g id="&lt;Group&gt;">
																		<g id="&lt;Group&gt;">
																			<path id="&lt;Path&gt;" class="s4" d="m410 348.2c0.6 1.6 6.3 0.8 13 1.7 6.7 0.7 12.1 2.6 13 1.2 0.4-0.6-0.5-2.1-2.7-3.6-2.2-1.5-5.6-3-9.6-3.4-4.1-0.5-7.8 0.2-10.2 1.2-2.5 1-3.7 2.2-3.5 2.9z"/>
																		</g>
																	</g>
																</g>
															</g>
														</g>
													</g>
												</g>
											</g>
										</g>
										<g id="&lt;Group&gt;">
											<g id="&lt;Group&gt;">
												<g id="&lt;Group&gt;">
													<g id="&lt;Group&gt;">
														<g id="&lt;Group&gt;">
															<g id="&lt;Group&gt;">
																<g id="&lt;Group&gt;">
																	<g id="&lt;Group&gt;">
																		<g id="&lt;Group&gt;">
																			<path id="&lt;Path&gt;" class="s4" d="m358.5 340.5c1 1.3 4.9-0.1 9.7-0.1 4.7-0.2 8.7 0.9 9.7-0.5 0.4-0.6-0.3-1.9-2-3.2-1.7-1.2-4.6-2.2-7.9-2.1-3.2 0.1-6.1 1.3-7.7 2.6-1.7 1.3-2.3 2.7-1.8 3.3z"/>
																		</g>
																	</g>
																</g>
															</g>
														</g>
													</g>
												</g>
											</g>
										</g>
									</g>
								</g>
							</g>
						</g>
						<g id="&lt;Group&gt;">
							<g id="&lt;Group&gt;">
								<g id="&lt;Group&gt;">
									<path id="&lt;Path&gt;" class="s4" d="m498.3 442.9c-11.4 2.3-23.9-1.2-32.4-9.1-8.5-8-12.9-20.1-11.4-31.6 1.3-10.2 6.8-20.6 3.2-30.2-4.6-12.7-22.5-16.7-27.2-29.4-2.8-7.4-0.3-16-3.4-23.2-3-6.9-10.1-10.8-17.1-13.3-7-2.5-14.5-4.3-20.3-8.8-5.9-4.6-9.5-13.1-5.7-19.5 30.9 3.7 61.4 11.1 90.5 22 6.8 2.5 13.9 5.5 17.9 11.6 4.2 6.3 4 14.5 3.7 22.2q-2.6 55.8-5.2 111.6"/>
								</g>
							</g>
						</g>
					</g>
					<g id="&lt;Group&gt;">
						<g id="&lt;Group&gt;">
							<g id="&lt;Group&gt;">
								<path id="&lt;Path&gt;" class="s7" d="m495.7 457.1q0 0.1 0.6-0.4 0.8-0.6 1.9-1.4c1.6-1.3 3.9-3.1 6.8-5.7 2.9-2.6 6.4-5.8 9.8-10.2 3.3-4.4 6.6-10.1 7.7-17.1 1.3-6.8 0.4-15.4-5.3-21.8-2.8-3.2-6.4-5.5-9.7-8.3-3.3-2.6-6.1-6-7.5-10.2-3.1-8.5-1.7-18.3-2.9-28.3-1.3-9.9-4.8-20.2-11.7-28.5-3.5-4.2-7.6-7.7-12.3-10.1-4.7-2.5-9.8-3.5-14.5-4.9-4.8-1.3-9.1-3.2-12.8-6.2-3.6-3-6.6-6.5-9.2-10.2-5.2-7.4-9.1-15.3-14-21.9-2.5-3.3-5.2-6.2-8.2-8.6-3-2.4-6.3-4.2-9.7-5.3-6.7-2.3-13.7-1.5-18.4 1.8-4.6 3.5-6.3 8.6-6.5 12.4-0.2 4 1.1 7 2.5 8.6 0.6 0.8 1.2 1.3 1.7 1.6q0.6 0.5 0.6 0.4 0.1 0-0.5-0.6c-0.4-0.3-0.9-0.8-1.5-1.7-1.2-1.5-2.4-4.4-2.1-8.2 0.3-3.7 2.1-8.5 6.4-11.7 4.4-3 11.1-3.7 17.4-1.4 3.2 1.1 6.4 2.8 9.2 5.1 2.9 2.4 5.5 5.3 7.9 8.5 4.8 6.5 8.6 14.4 13.8 21.9 2.7 3.8 5.7 7.5 9.6 10.6 3.7 3.2 8.4 5.3 13.3 6.6 4.8 1.5 9.7 2.5 14.1 4.8 4.5 2.3 8.5 5.7 11.8 9.6 6.6 8 10.1 18 11.3 27.7 1.3 9.6-0.1 19.6 3.1 28.5 1.6 4.5 4.7 8.3 8.1 11 3.4 2.8 6.9 5 9.6 8 5.3 5.9 6.3 14 5.2 20.6-1 6.7-4.1 12.3-7.3 16.6-3.3 4.4-6.6 7.7-9.4 10.4-2.9 2.6-5.1 4.6-6.7 5.9-1.5 1.4-2.3 2.1-2.2 2.1z"/>
							</g>
						</g>
					</g>
				</g>
			</g>
			<g id="&lt;Group&gt;">
				<g id="&lt;Group&gt;">
					<g id="&lt;Group&gt;">
						<path id="&lt;Path&gt;" class="s4" d="m503.2 462.3c8.6-8.3 23.1-1.1 30.3 8.3 7.1 9.5 12.2 21.7 23 26.4 10.9 4.8 25 0.7 34.1 8.3 12.6 10.4 5.5 34.6 19.1 43.7 5.4 3.6 12.5 3.4 18.3 6.4 13.6 7 13.4 26.2 11.3 41.3-2.9 21.2-6.2 43.3-17.9 61.2-11.7 18-34.5 30.6-54.8 23.7-19.5-6.7-29.5-27.7-37.5-46.7q-16.4-39.5-32.9-79c-6.3-15.2-12.8-30.7-14.8-47-2.1-16.4 0.7-34.1 11.1-46.9"/>
					</g>
				</g>
				<g id="&lt;Group&gt;">
					<g id="&lt;Group&gt;">
						<g id="&lt;Group&gt;">
							<path id="&lt;Path&gt;" class="s3" d="m508.7 444.1c6.2-0.7 10.9 6.9 9.3 12.9-1.6 6-7.4 10-13.3 12.1-3.3 1.1-6.9 1.8-10.3 1.2-3.4-0.7-6.7-3-7.8-6.3-1.1-3.5-0.2-5.8 2.9-7.8 4.1-2.5 6.4-4.5 9.7-6.3 4.9-2.7 4.6-3.1 9.5-5.8z"/>
						</g>
					</g>
				</g>
			</g>
			<g id="&lt;Group&gt;">
				<g id="&lt;Group&gt;">
					<g id="&lt;Group&gt;">
						<path id="&lt;Path&gt;" class="s8" d="m366.2 510.8l24.1-18.2 90.6-5.8 3.6 12.2-29.4 183.9 23.2 219.4h-126.4z"/>
					</g>
					<g id="&lt;Group&gt;" style="opacity: .3">
						<g id="&lt;Group&gt;">
							<path id="&lt;Path&gt;" class="s9" d="m463.3 824.5c-2.9-3.1-7.7-7.4-11.9-7.5-30.3-0.6-61.2-3.6-91.5-4.3l-2.4 89.7c7.3-12.8 14.1-26.1 16-40.6 0.9-6.4 1.9-14 7.7-16.7 3.3-1.6 7.2-1 10.7-0.2 10.9 2.1 21.8 4.9 32.9 5.6 11.1 0.7 22.8-0.9 32.1-7 3.2-2.1 6.2-4.8 7.7-8.3 1.5-3.5 1.3-7.9-1.3-10.7z"/>
						</g>
					</g>
					<g id="&lt;Group&gt;">
						<g id="&lt;Group&gt;">
							<path id="&lt;Path&gt;" class="s8" d="m385.8 514.5l-2.8-26.3c-0.5-4.6 2.9-8.7 7.6-9.2l83.4-7.5c2.2-0.2 4.2 1.5 4.3 3.8l0.9 31.3-24.1 41-24.9 7.9h-30.3l-17.5-18.7z"/>
						</g>
						<g id="&lt;Group&gt;">
							<g id="&lt;Group&gt;">
								<path id="&lt;Path&gt;" class="s4" d="m466.9 496.6c0 0-1.2-0.2-3.3-0.4-2.2-0.2-5.3-0.4-9.1-0.1-3.9 0.2-8.4 0.8-13.4 1.9-5 1-10.4 2.5-16.1 3.9-5.7 1.4-11.3 2.5-16.4 2.9-5.2 0.4-9.9 0.1-13.7-0.9-3.8-0.9-6.6-2.4-8.4-3.5q-1.4-0.9-2.1-1.5-0.6-0.6-0.6-0.6c0-0.1 1 0.7 2.9 1.7 1.8 1.1 4.7 2.4 8.4 3.2 3.7 0.8 8.3 1.1 13.4 0.7 5-0.5 10.5-1.6 16.2-3 5.8-1.4 11.2-2.8 16.2-3.8 5.1-1.1 9.7-1.6 13.5-1.8 3.9-0.1 7.1 0.2 9.2 0.5q1.6 0.3 2.5 0.5 0.8 0.2 0.8 0.3z"/>
							</g>
						</g>
						<g id="&lt;Group&gt;" style="opacity: .3">
							<g id="&lt;Group&gt;">
								<path id="&lt;Path&gt;" class="s9" d="m387.8 500.7c-2.2 6.1-2.3 13.7 2.3 18.4 3.6 3.9 9.6 4.8 14.8 3.8 5.2-1 9.9-3.8 14.5-6.5 11.5-6.8 23.2-13.9 36.2-16.8 0.8-0.2 1.7-0.4 2.3-1 0.7-0.6 0.8-1.7 0.1-2.3-0.3-0.2-0.7-0.2-1.1-0.3-11.5-1.1-23 2.1-34.3 4.7-11.3 2.5-23.4 4.3-34.3 0.4"/>
							</g>
						</g>
						<g id="&lt;Group&gt;">
							<g id="&lt;Group&gt;">
								<path id="&lt;Path&gt;" class="s4" d="m403.8 478.2c0 0.1-1.7 0.6-2.9 2.7-1.3 2.1-1.2 5.7-1.1 9.6 0.2 7.8 1.5 14 1.2 14.1-0.2 0-0.7-1.5-1.2-4-0.5-2.6-1-6.1-1.1-10.1 0-1.9 0-3.8 0.1-5.5 0.2-1.8 0.7-3.3 1.5-4.5 0.7-1.1 1.6-1.8 2.3-2.1 0.7-0.3 1.1-0.3 1.2-0.2z"/>
							</g>
						</g>
						<g id="&lt;Group&gt;">
							<g id="&lt;Group&gt;">
								<path id="&lt;Path&gt;" class="s4" d="m425.8 501.1c-0.3-0.1 0.4-5.8-0.6-12.8-1-6.9-3.3-12.2-3-12.4 0.2 0 0.9 1.2 1.7 3.4 0.9 2.2 1.8 5.3 2.3 8.9 0.5 3.5 0.5 6.8 0.3 9.1-0.2 2.4-0.6 3.8-0.7 3.8z"/>
							</g>
						</g>
						<g id="&lt;Group&gt;">
							<g id="&lt;Group&gt;">
								<path id="&lt;Path&gt;" class="s4" d="m452.7 473.7c0.1 0 0.8 1.1 1.5 3.1 0.8 2.1 1.3 5.1 1.1 8.4-0.2 3.3-1.2 6.2-2.2 8.1-0.9 1.9-1.8 2.9-1.9 2.9-0.3-0.2 2.7-4.7 3.1-11.1 0.5-6.4-2-11.3-1.6-11.4z"/>
							</g>
						</g>
					</g>
				</g>
				<g id="&lt;Group&gt;">
					<g id="&lt;Group&gt;">
						<path id="&lt;Path&gt;" class="s2" d="m335.7 522.7c0 0-28.4 19-35.9 53.4-5.9 27-22 169.9-22 169.9l-28.2 54.8 18.4 43.8c15.8 1.1 31.4-3.4 44.2-12.6l12.4-9 22.7-33.7z"/>
					</g>
					<g id="&lt;Group&gt;">
						<path id="&lt;Path&gt;" class="s2" d="m383.9 497.4l-48.2 25.3-11.4 37.3-10.1 108.4 19.1 127.1-33.5 106.4 57.7 0.5 1.4-62.4 5.8-202 5.6-128.7z"/>
					</g>
					<g id="&lt;Group&gt;">
						<g id="&lt;Group&gt;">
							<path id="&lt;Path&gt;" class="s4" d="m360.6 665.8q-0.1 0-0.9-1.5-0.9-1.6-2.4-4.4c-1-2-2-4.5-3.3-7.3-0.5-1.4-1-3-1.6-4.7-0.6-1.6-1.2-3.4-1.7-5.3-4.6-15-7.6-36.6-6.9-60.4q0-2.8 0.2-5.5v-0.3l0.3-0.1q4.3-1.9 8.5-3.6l-0.1 0.9q-4.4-3.5-8.5-6.8l-0.2-0.1v-0.2c-0.4-9 1.8-17.1 3.9-24.1 2.1-7.1 4.4-13.2 6.5-18.2 2-5 3.8-8.9 5-11.5q1-2 1.5-3 0.6-1.1 0.6-1.1 0 0.1-0.4 1.1-0.5 1.2-1.4 3.1c-1.1 2.7-2.8 6.6-4.8 11.7-1.9 5-4.2 11.1-6.2 18.1-2 7-4.1 15.1-3.7 23.8l-0.2-0.4q4.1 3.3 8.5 6.8l0.7 0.5-0.8 0.4q-4.2 1.7-8.5 3.5l0.4-0.4q-0.2 2.7-0.3 5.4c-0.6 23.8 2.2 45.3 6.6 60.2 0.4 1.9 1.1 3.6 1.6 5.3 0.6 1.7 1 3.3 1.6 4.7 1.2 2.8 2.1 5.3 3 7.3q1.4 2.8 2.2 4.5 0.8 1.6 0.8 1.6z"/>
						</g>
					</g>
					<g id="&lt;Group&gt;">
						<g id="&lt;Group&gt;">
							<path id="&lt;Path&gt;" class="s4" d="m322.7 741.7q0 0-0.4-1.6-0.5-1.7-1.2-4.5c-0.5-2-1-4.4-1.6-7.2-0.6-2.9-1.3-6.1-1.9-9.7-0.6-3.6-1.3-7.5-1.8-11.8-0.7-4.2-1.1-8.8-1.6-13.5-0.9-9.6-1.5-20.2-1.5-31.3 0.1-11.2 0.7-21.7 1.6-31.3 0.5-4.8 1-9.4 1.7-13.6 0.5-4.2 1.2-8.2 1.8-11.8 0.6-3.5 1.4-6.8 1.9-9.6 0.6-2.8 1.2-5.3 1.7-7.2q0.7-2.9 1.2-4.6 0.4-1.5 0.4-1.5 0.1 0-0.2 1.6-0.4 1.7-1 4.6c-0.4 1.9-1 4.4-1.5 7.2-0.5 2.9-1.2 6.1-1.7 9.7-0.6 3.6-1.3 7.5-1.8 11.7-0.6 4.2-1 8.8-1.5 13.6-0.9 9.5-1.5 20.1-1.5 31.2 0 11.1 0.5 21.6 1.3 31.2 0.5 4.7 0.9 9.3 1.5 13.5 0.5 4.3 1.2 8.2 1.8 11.8 0.5 3.6 1.2 6.8 1.7 9.6 0.5 2.9 1 5.3 1.4 7.3q0.6 2.9 1 4.6 0.3 1.6 0.2 1.6z"/>
						</g>
					</g>
					<g id="&lt;Group&gt;">
						<g id="&lt;Group&gt;">
							<path id="&lt;Path&gt;" class="s4" d="m335.8 839.3c0.1 0-0.7 1.9-2.4 4.8-1.6 2.9-4.1 6.8-7.4 10.7-3.2 4-6.5 7.2-9 9.4-2.5 2.1-4.2 3.3-4.3 3.2-0.1-0.1 1.4-1.5 3.8-3.8 2.4-2.3 5.5-5.6 8.7-9.4 3.2-3.9 5.8-7.7 7.6-10.5 1.8-2.7 2.8-4.5 3-4.4z"/>
						</g>
					</g>
				</g>
				<g id="&lt;Group&gt;">
					<g id="&lt;Group&gt;">
						<path id="&lt;Path&gt;" class="s2" d="m557.3 519.6c20.6 7.9 35.9 25.6 40.8 47.2 15.8 69.5 42.7 162 43.2 191.8 0.5 38-16.1 64-37.8 68.8-17.2 3.8-172.6-4.7-172.6-4.7l-7.3-57.9 125.9-18.6-17.2-96.3 17-133.4z"/>
					</g>
					<g id="&lt;Group&gt;">
						<path id="&lt;Path&gt;" class="s2" d="m549.3 516.5l-34.8-14.3-36.7-21.5-0.2 6.3c4.5 7.7 6 16.8 4.3 25.5l-30.5 159.4 6.9 116.4 14.2 114.1h110.5l-50.7-119.3 17.9-160.8z"/>
					</g>
					<g id="&lt;Group&gt;">
						<g id="&lt;Group&gt;">
							<path id="&lt;Path&gt;" class="s4" d="m581.6 828.4q0 0-0.8 0.1-0.8 0.1-2.2 0.2c-2 0.2-4.9 0.2-8.6 0.3-7.5 0-18.4-0.2-31.9-0.6-27.1-0.9-64.7-2.7-107.3-5.2h-0.4l-0.1-0.4c-0.8-6.9-1.7-14.2-2.7-21.6-1.5-12.5-3.1-24.7-4.5-36.4l-0.1-0.5h0.5c38.5-5.6 72.1-10.5 96.2-14 11.9-1.7 21.5-3.1 28.2-4q4.9-0.7 7.6-1 1.2-0.2 1.9-0.3 0.7-0.1 0.7 0 0 0-0.6 0.1-0.8 0.1-2 0.3-2.7 0.5-7.6 1.2c-6.6 1.1-16.2 2.5-28.1 4.3-24.1 3.6-57.7 8.6-96.1 14.4l0.4-0.6c1.5 11.7 3 23.9 4.6 36.4 0.9 7.4 1.8 14.6 2.7 21.5l-0.5-0.4c42.5 2.5 80.2 4.4 107.2 5.5 13.5 0.5 24.4 0.8 31.9 0.9 3.7 0 6.6 0.1 8.6-0.1q1.4-0.1 2.2-0.1 0.8 0 0.8 0z"/>
						</g>
					</g>
					<g id="&lt;Group&gt;">
						<g id="&lt;Group&gt;">
							<path id="&lt;Path&gt;" class="s4" d="m531.2 640.2q0.1 0 0.3 1 0.3 1.3 0.6 3.1c0.5 2.8 1.2 6.7 2.1 11.4 1.7 9.8 4 23 6.6 37.6 2.4 14.6 4.6 27.9 6.2 37.7 0.8 4.7 1.4 8.5 1.8 11.4q0.3 1.9 0.5 3.1 0.1 1.1 0 1.1 0 0-0.3-1.1-0.2-1.2-0.6-3c-0.5-2.9-1.2-6.7-2.1-11.4-1.7-9.6-4.1-22.9-6.6-37.6-2.5-14.7-4.7-28-6.2-37.7-0.7-4.7-1.3-8.6-1.8-11.4q-0.2-1.9-0.4-3.1-0.1-1.1-0.1-1.1z"/>
						</g>
					</g>
					<g id="&lt;Group&gt;">
						<g id="&lt;Group&gt;">
							<path id="&lt;Path&gt;" class="s4" d="m493.8 491.9q0 0 0.2 0.4 0.1 0.5 0.3 1.2c0.2 1 0.7 2.5 1.1 4.5 0.9 4 1.9 9.8 2.6 17.2 0.8 7.3 1.1 16.2 0.7 26.1-0.3 10-1.4 21-2.9 32.6v0.4l-0.4 0.1c-3.6 0.6-7.5 1.4-11.4 2.1l0.4-0.7c0.7 1.7 1.3 3.6 1.8 5.6 3.7 13.5 2.1 27.1-1.3 38.6-3.4 11.5-8.6 21.1-13.3 28.8-4.8 7.7-9.1 13.6-12 17.7q-2.2 3-3.5 4.7-0.5 0.7-0.9 1.2-0.3 0.4-0.3 0.4-0.1 0 0.2-0.5 0.3-0.5 0.9-1.2 1.2-1.8 3.2-4.8c2.9-4.2 7.1-10.2 11.7-17.9 4.6-7.7 9.8-17.3 13.1-28.7 3.3-11.3 4.9-24.8 1.2-38.1-0.5-1.9-1.1-3.7-1.8-5.4l-0.2-0.6 0.6-0.1c3.9-0.8 7.8-1.5 11.4-2.1l-0.4 0.4c1.5-11.6 2.6-22.6 3-32.5 0.4-9.9 0.2-18.7-0.4-26.1-0.6-7.3-1.6-13.1-2.4-17.1-0.3-2-0.7-3.5-0.9-4.6q-0.1-0.7-0.2-1.1-0.1-0.4-0.1-0.5z"/>
						</g>
					</g>
					<g id="&lt;Group&gt;">
						<path id="&lt;Path&gt;" class="s3" d="m493.8 655.4v-25.4c0 0 0.3-6.3-4.9-5-5.3 1.3-4.3 11.2-4.3 11.2 0 0-1 38.7 1.3 38.3 2.3-0.3 3.2-3.3 3.2-3.3v-14.8z"/>
					</g>
					<g id="&lt;Group&gt;">
						<g id="&lt;Group&gt;">
							<path id="&lt;Path&gt;" class="s4" d="m515.8 657c0 0.3-6.1 0.5-13.6 0.5-7.6 0-13.7-0.2-13.7-0.5 0-0.3 6.1-0.6 13.7-0.6 7.5 0 13.6 0.3 13.6 0.6z"/>
						</g>
					</g>
					<g id="&lt;Group&gt;">
						<g id="&lt;Group&gt;">
							<path id="&lt;Path&gt;" class="s4" d="m566.1 534.6c0 0.1-1 0.5-2.9 1.1-1.8 0.7-4.4 1.7-7.5 3.3-6.2 3.1-14.2 8.8-20.5 17.4-1.5 2.1-2.9 4.3-4 6.5-1 2.3-1.8 4.5-2.4 6.7-1.2 4.5-1.7 8.6-2 12.1-0.3 3.4-0.4 6.3-0.4 8.2 0 2 0 3-0.1 3 0 0-0.2-1-0.3-3-0.1-1.9-0.2-4.8 0.1-8.3 0.2-3.5 0.6-7.7 1.8-12.2 0.5-2.3 1.4-4.6 2.4-6.9 1.1-2.3 2.5-4.6 4.1-6.7 6.4-8.8 14.6-14.5 21-17.5 3.1-1.5 5.8-2.4 7.7-3 1.9-0.5 3-0.7 3-0.7z"/>
						</g>
					</g>
				</g>
			</g>
			<g id="&lt;Group&gt;">
				<g id="&lt;Group&gt;">
					<g id="&lt;Group&gt;">
						<path id="&lt;Path&gt;" class="s4" d="m117.9 746l181.9 67.3 153.3 23.5-182.3-88.9z"/>
					</g>
					<g id="&lt;Group&gt;">
						<g id="&lt;Group&gt;">
							<path id="&lt;Path&gt;" class="s5" d="m195.7 818.6c-1.4-9.7-4.7-19.1-9.7-27.5-0.9-1.7-2-3.4-2.4-5.2-0.5-1.9-0.3-4 1-5.4 2.3-2.6 6.6-1.5 9.5 0.5 5.9 3.9 9.9 10.4 12.2 17.1 2.3 6.8 3.2 13.9 4 21"/>
						</g>
						<g id="&lt;Group&gt;">
							<g id="&lt;Group&gt;">
								<path id="&lt;Path&gt;" class="s5" d="m266.6 801.3h-9c-1.8-1.9-4.6-3.6-8-4.6-2-0.6-4.1 0.6-5.9 2.4 4-6.7 8.4-14 9.2-16 1.6-3.9-2-6.9-7.8-6.9-5.9 0-31.6 36.5-31.6 36.5 0 0 16-29.3 17.5-33.8 3.9-11.2-8.3-12-12.8-6.6-5.5 6.7-27.8 40.4-27.8 40.4 0 0-4.2 6.8-1.3 13.3 2.9 6.6 11.4 4 11.4 4 0 0-0.1 5.6 6 9 6.5 3.6 15.1-0.6 15.1-0.6l33.3 7.5c0 0 5.2-0.5 12-1.2 16.8-1.7 30.4-14.6 32.9-31.4z"/>
							</g>
							<g id="&lt;Group&gt;">
								<g id="&lt;Group&gt;">
									<path id="&lt;Path&gt;" class="s6" d="m244.2 798.6c0.4 0.2-4.1 7.2-9.8 15.5-2.9 4.2-5.5 7.9-7.5 10.6-2 2.7-3.3 4.3-3.4 4.2-0.1-0.1 1-1.8 2.8-4.6 1.8-2.8 4.4-6.6 7.2-10.8 2.9-4.2 5.6-7.9 7.5-10.6q1.3-1.8 2.3-3.2c0.6-0.8 0.8-1.1 0.9-1.1z"/>
								</g>
							</g>
							<g id="&lt;Group&gt;">
								<g id="&lt;Group&gt;">
									<path id="&lt;Path&gt;" class="s6" d="m242.2 835.7c-0.1-0.1 1-2.2 3-5.5 1.9-3.2 4.7-7.7 7.8-12.7 1.5-2.4 3-4.8 4.2-7 1.3-2.1 1.2-4.4 0.8-6.1-1-3.7-3.1-5.2-2.9-5.3 0.1-0.1 0.6 0.2 1.3 1 0.7 0.8 1.7 2.2 2.3 4.1 0.5 1.8 0.7 4.4-0.6 6.8-1.2 2.2-2.7 4.6-4.2 7.1-3.1 5-6 9.4-8.1 12.5-2.2 3.2-3.5 5.2-3.6 5.1z"/>
								</g>
							</g>
							<g id="&lt;Group&gt;">
								<g id="&lt;Group&gt;">
									<path id="&lt;Path&gt;" class="s6" d="m259.7 839c-0.1 0 0.4-2.1 1.8-5.2q1.1-2.5 2.4-5.4c0.8-2 1.8-4.3 2.4-6.7 0.6-2.4 0.2-4.9-1.1-6.5-0.6-0.8-1.5-1.3-2.3-1.7-0.9-0.4-1.8-0.7-2.5-0.7-1.5 0.1-2.8 0.9-3.6 1.2-0.8 0.5-1.3 0.7-1.4 0.6 0-0.1 0.4-0.4 1.2-0.9q0.6-0.4 1.5-0.9c0.6-0.3 1.3-0.7 2.3-0.8 0.9 0 1.9 0.3 2.8 0.7 0.9 0.4 2 0.9 2.8 1.9 1.5 1.9 1.9 4.7 1.3 7.3-0.6 2.6-1.7 4.8-2.6 6.9-0.9 2-1.8 3.8-2.6 5.3-1.5 3-2.3 4.9-2.4 4.9z"/>
								</g>
							</g>
							<g id="&lt;Group&gt;">
								<g id="&lt;Group&gt;">
									<path id="&lt;Path&gt;" class="s6" d="m265.8 807.5c0.1 0 0.6 0.1 1.4 0.4 0.9 0.4 2.2 1.1 3.5 2.1 2.8 2 6 5.8 7.2 11 1.1 5.3-0.2 10.1-1.8 13.1-0.8 1.5-1.6 2.6-2.3 3.3-0.6 0.7-1 1.1-1.1 1-0.1-0.1 1.4-1.6 2.7-4.6 1.4-3 2.6-7.6 1.5-12.5-1.1-4.9-4.1-8.7-6.6-10.7-2.6-2.2-4.5-2.9-4.5-3.1z"/>
								</g>
							</g>
						</g>
						<g id="&lt;Group&gt;">
							<g id="&lt;Group&gt;">
								<path id="&lt;Path&gt;" class="s6" d="m207.2 788.4c0.3 0.1-3.1 5.5-7.5 12-4.4 6.5-8.1 11.7-8.4 11.5-0.2-0.1 3.1-5.5 7.5-12 4.4-6.5 8.2-11.7 8.4-11.5z"/>
							</g>
						</g>
					</g>
				</g>
				<g id="&lt;Group&gt;">
					<g id="&lt;Group&gt;">
						<path id="&lt;Path&gt;" class="s5" d="m423 766.9l-20.8-4.7-19.9-18.8c-2.5-2.3-5.6-3.6-8.9-3.8l-36.4-2.1c-3.6-0.2-7.2 1-9.9 3.3l-26 22 113.3 55.2 15.6 1.4z"/>
					</g>
					<g id="&lt;Group&gt;">
						<g id="&lt;Group&gt;">
							<path id="&lt;Path&gt;" class="s6" d="m361.4 757.2c0 0.2-2.7-0.3-7-0.8-4.2-0.5-10.4-1.1-16.4 1.7-3 1.3-5.6 3.2-7.9 4.9-2.3 1.7-4.3 3.3-6.2 4.5-1.8 1.3-3.3 2.1-4.5 2.6-1.1 0.5-1.7 0.8-1.7 0.7-0.1-0.2 2.3-1.3 5.8-3.9 1.8-1.3 3.8-2.9 6-4.7 2.3-1.7 4.9-3.7 8-5.1 3.1-1.4 6.4-2 9.3-2.1 3 0 5.6 0.3 7.7 0.6 2.2 0.4 3.9 0.8 5.1 1.1 1.2 0.3 1.8 0.5 1.8 0.5z"/>
						</g>
					</g>
					<g id="&lt;Group&gt;">
						<g id="&lt;Group&gt;">
							<path id="&lt;Path&gt;" class="s6" d="m368.9 777.5c-0.1 0.1-1.5-0.5-3.9-0.8-2.5-0.3-5.9 0-9.4 1.3-3.5 1.3-6.4 3.1-8.5 4.4-2.2 1.3-3.5 2.1-3.6 2-0.1-0.1 1.1-1.1 3.1-2.6 2.1-1.4 5-3.4 8.7-4.7 3.6-1.4 7.3-1.6 9.8-1.1 2.5 0.5 3.8 1.4 3.8 1.5z"/>
						</g>
					</g>
					<g id="&lt;Group&gt;">
						<g id="&lt;Group&gt;">
							<path id="&lt;Path&gt;" class="s6" d="m415.7 780.8c-0.3 0.2-3.2-4.2-7.1-9.3-3.8-5.2-7.2-9.2-6.9-9.4 0.2-0.2 3.9 3.5 7.7 8.8 3.9 5.2 6.5 9.8 6.3 9.9z"/>
						</g>
					</g>
				</g>
				<g id="&lt;Group&gt;">
					<path id="&lt;Path&gt;" class="s10" d="m358.4 739.6l46.1-42.9c2-1.8 1.8-5-0.3-6.7-1.7-1.3-4.1-1.2-5.6 0.2l-54.1 48.5"/>
				</g>
				<g id="&lt;Group&gt;" style="opacity: .3">
					<path id="&lt;Path&gt;" class="s9" d="m358.4 739.6l46.1-42.9c2-1.8 1.8-5-0.3-6.7-1.7-1.3-4.1-1.2-5.6 0.2l-54.1 48.5"/>
				</g>
			</g>
		</g>
	</g>
	<g id="Desk">
		<g id="&lt;Group&gt;">
			<g id="&lt;Group&gt;">
				<path id="&lt;Path&gt;" class="s4" d="m1423.9 902.8c0 0.2-301.7 0.5-673.9 0.5-372.2 0-673.9-0.3-673.9-0.5 0-0.3 301.7-0.6 673.9-0.6 372.2 0 673.9 0.3 673.9 0.6z"/>
			</g>
		</g>
	</g>
</svg>