<svg width="598" height="678" viewBox="0 0 598 678" fill="none" xmlns="http://www.w3.org/2000/svg">
<path d="M284.6 368.491L129.7 442.991C127.3 444.191 124.4 443.191 123.3 440.791L19.3001 224.791C18.2001 222.391 19.2001 219.491 21.6001 218.391L176.4 143.791C178.8 142.691 181.7 143.691 182.9 146.091L286.8 362.091C288 364.491 287 367.291 284.6 368.491Z" fill="#E0E0E0"/>
<path d="M274.6 359.991L129.3 429.991L28.7002 220.891L173.9 150.891L274.6 359.991Z" fill="#FAFAFA"/>
<path fill-rule="evenodd" clip-rule="evenodd" d="M136.5 177.991L73.2002 208.391L73.3002 203.791C73.4002 196.491 77.6002 189.791 84.2002 186.391L87.3002 184.891L82.8002 175.591C79.5002 168.891 82.4002 160.691 89.1002 157.491C95.9002 154.191 104 157.091 107.2 163.791L111.7 172.691C118.4 169.391 126.4 170.291 132.4 174.791L136.5 177.991ZM102 166.591C100.3 162.891 95.9002 161.391 92.3002 163.191C88.6002 164.891 87.1002 169.291 88.9002 172.891C90.6002 176.491 95.0002 178.091 98.6002 176.291C102.3 174.591 103.8 170.191 102 166.591Z" fill="#EBEBEB"/>
<path d="M96.8 224.591C96.9 224.791 88.2 229.291 77.3 234.491C66.4 239.691 57.5 243.791 57.4 243.491C57.3 243.291 66 238.791 76.8 233.591C87.7 228.291 96.6 224.291 96.8 224.591Z" fill="#E0E0E0"/>
<path d="M79.6001 240.991C79.7001 241.291 75.5001 243.491 70.3001 246.091C65.0001 248.591 60.7001 250.391 60.6001 250.191C60.4001 249.891 64.6001 247.691 69.8001 245.091C75.1001 242.591 79.4001 240.791 79.6001 240.991Z" fill="#E0E0E0"/>
<path d="M181 214.991C181.1 215.191 156.7 227.291 126.4 241.791C96.1002 256.391 71.5002 267.991 71.4002 267.791C71.3002 267.491 95.7002 255.491 126 240.891C156.2 226.291 180.9 214.691 181 214.991Z" fill="#E0E0E0"/>
<path d="M186.1 225.391C186.2 225.691 161.7 237.691 131.5 252.291C101.2 266.891 76.5002 278.491 76.4002 278.191C76.3002 277.991 100.7 265.891 131 251.391C161.3 236.791 185.9 225.191 186.1 225.391Z" fill="#E0E0E0"/>
<path d="M191.1 235.891C191.2 236.191 166.8 248.191 136.5 262.791C106.2 277.291 81.6002 288.891 81.4002 288.691C81.3002 288.391 105.8 276.391 136 261.791C166.3 247.191 191 235.591 191.1 235.891Z" fill="#E0E0E0"/>
<path d="M196.1 246.391C196.2 246.591 171.8 258.591 141.5 273.191C111.2 287.791 86.6001 299.391 86.5001 299.091C86.4001 298.891 110.8 286.791 141.1 272.291C171.3 257.691 196 246.091 196.1 246.391Z" fill="#E0E0E0"/>
<path d="M201.2 256.791C201.3 257.091 176.8 269.091 146.6 283.691C116.3 298.191 91.6001 309.791 91.5001 309.591C91.4001 309.291 115.8 297.291 146.1 282.691C176.4 268.191 201 256.591 201.2 256.791Z" fill="#E0E0E0"/>
<path d="M206.2 267.291C206.3 267.491 181.9 279.491 151.6 294.091C121.3 308.691 96.7001 320.291 96.5001 319.991C96.4001 319.791 120.9 307.791 151.1 293.191C181.4 278.591 206.1 266.991 206.2 267.291Z" fill="#E0E0E0"/>
<path d="M155.9 303.091C155.9 303.091 155.2 303.591 153.8 304.291C152.267 305.091 150.333 306.091 148 307.291C143.1 309.691 136.3 313.091 128.7 316.691C121.1 320.391 114.3 323.591 109.3 325.891C106.9 326.958 104.9 327.858 103.3 328.591C101.9 329.191 101.1 329.491 101.1 329.491C101.1 329.391 101.8 328.991 103.1 328.191C104.7 327.391 106.633 326.425 108.9 325.291C113.9 322.791 120.7 319.391 128.3 315.791C135.8 312.191 142.7 308.891 147.7 306.591C150.1 305.525 152.1 304.625 153.7 303.891C155.1 303.291 155.9 302.991 155.9 303.091Z" fill="#E0E0E0"/>
<path d="M173.2 186.591C173.3 186.891 169.5 188.991 164.6 191.291C159.8 193.591 155.8 195.291 155.6 195.091C155.5 194.791 159.3 192.691 164.2 190.391C169 187.991 173.1 186.291 173.2 186.591Z" fill="#E0E0E0"/>
<path d="M141.9 337.891C142.1 338.091 135.8 341.391 127.9 345.191C120.1 348.991 113.6 351.791 113.5 351.591C113.3 351.291 119.6 347.991 127.5 344.191C135.3 340.491 141.8 337.591 141.9 337.891Z" fill="#E0E0E0"/>
<path d="M147.5 346.891C147.6 347.091 141.2 350.491 133.2 354.291C125.2 358.191 118.6 361.091 118.5 360.791C118.4 360.591 124.8 357.191 132.8 353.391C140.8 349.491 147.3 346.591 147.5 346.891Z" fill="#E0E0E0"/>
<path d="M223.8 296.691C224 296.891 221 298.591 217.2 300.491C213.4 302.291 210.2 303.591 210.1 303.291C210 302.991 212.9 301.391 216.7 299.491C220.5 297.691 223.7 296.391 223.8 296.691Z" fill="#E0E0E0"/>
<path d="M228.4 304.991C228.6 305.291 225.6 306.891 221.8 308.791C218 310.591 214.8 311.891 214.7 311.591C214.5 311.391 217.5 309.691 221.3 307.791C225.1 305.991 228.3 304.691 228.4 304.991Z" fill="#E0E0E0"/>
<path d="M139 363.291C139.1 363.491 136.2 365.191 132.6 366.891C128.9 368.691 125.8 369.891 125.7 369.691C125.6 369.391 128.4 367.791 132.1 365.991C135.8 364.191 138.9 362.991 139 363.291Z" fill="#E0E0E0"/>
<path d="M233.7 314.691C233.8 314.991 231.7 316.291 229 317.591C226.2 318.891 223.9 319.791 223.7 319.491C223.6 319.291 225.7 317.991 228.5 316.691C231.3 315.291 233.6 314.491 233.7 314.691Z" fill="#E0E0E0"/>
<path d="M135.6 392.591C135.6 392.591 135.8 392.458 136.2 392.191C136.667 391.858 137.233 391.458 137.9 390.991C139.5 389.991 141.633 388.625 144.3 386.891C150 383.291 158 378.291 167.6 372.291L168 371.991L168.2 372.491C169.3 375.191 169.5 378.391 168.5 381.291C167.6 384.291 165.3 387.091 162.1 388.291C159 389.391 155.1 389.291 152.2 387.191C149.2 384.991 148 380.991 148.9 377.391C149.2 376.091 149.9 374.791 150.8 373.791C151 373.525 151.233 373.291 151.5 373.091C151.8 372.791 152.1 372.591 152.4 372.391C152.8 372.291 153.4 372.191 153.8 372.491C154.3 372.791 154.5 373.091 154.6 373.391C155.9 375.691 156.5 378.291 156.7 380.791C156.8 383.291 156.4 385.891 155.5 388.091C154.7 390.391 153.3 392.491 151.2 393.791C149.1 395.191 146.4 394.891 144.5 393.691C142.5 392.491 141.2 390.691 140.5 388.691C139.2 384.591 140 380.691 140.5 377.391L140.6 376.591L141.2 377.191C143.5 379.891 144.7 382.991 145 385.791C145.3 388.591 144.9 390.991 144.3 392.891C143.7 394.791 142.9 396.091 142.3 396.891C142 397.291 141.7 397.591 141.5 397.791C141.367 397.991 141.3 398.091 141.3 398.091C141.1 397.991 142.8 396.491 143.9 392.791C144.4 390.891 144.8 388.591 144.4 385.891C144 383.191 142.9 380.191 140.6 377.691L141.3 377.491C140.7 380.791 140 384.591 141.3 388.391C141.9 390.191 143.2 391.791 144.9 392.891C146.7 393.991 148.9 394.191 150.7 392.991C152.5 391.891 153.8 389.891 154.6 387.791C155.4 385.591 155.8 383.291 155.6 380.891C155.5 378.491 154.9 376.091 153.7 373.891C153.6 373.691 153.4 373.491 153.3 373.391C153.2 373.291 153.1 373.291 152.9 373.391C152.5 373.591 151.9 374.091 151.6 374.491C150.8 375.391 150.2 376.491 149.9 377.691C149.1 380.891 150.2 384.491 152.8 386.291C155.4 388.191 158.9 388.391 161.7 387.291C164.6 386.291 166.7 383.791 167.6 380.991C168.5 378.291 168.3 375.291 167.4 372.891L168 373.091C158.4 378.891 150.4 383.791 144.6 387.291C141.867 388.958 139.667 390.291 138 391.291C137.333 391.691 136.767 392.025 136.3 392.291C135.9 392.491 135.667 392.591 135.6 392.591Z" fill="#E0E0E0"/>
<path d="M239.5 342.191C239.5 342.191 239.5 342.791 239.2 343.991C239 344.591 238.7 345.391 238.2 346.191C237.8 346.891 236.9 347.691 235.7 348.091C235.2 348.191 234.5 348.291 233.8 347.991C233.1 347.791 232.6 347.291 232.1 346.691C231.3 345.591 230.7 344.191 229.9 342.891C228.4 340.091 226.7 337.091 224.9 333.791L225.8 333.591C225.7 338.191 225.5 343.191 225.3 348.391C225.234 349.658 225.2 350.891 225.2 352.091L225.1 354.191L224.2 352.391C221.4 346.691 218.9 341.491 216.7 336.891L217.5 336.791C215.9 342.491 215.6 347.391 215.6 350.791C215.6 354.191 215.8 356.091 215.7 356.191C215.634 356.125 215.534 355.658 215.4 354.791C215.3 353.891 215.1 352.491 215.1 350.791C214.9 347.391 215.1 342.391 216.6 336.591L216.9 335.391L217.5 336.491C219.7 341.091 222.3 346.291 225.1 351.891L224.1 352.091C224.167 350.891 224.234 349.658 224.3 348.391C224.5 343.191 224.7 338.191 224.9 333.591V331.791L225.8 333.391C227.5 336.691 229.1 339.691 230.6 342.491C231.3 343.891 232 345.191 232.7 346.291C233.4 347.291 234.6 347.791 235.6 347.491C237.7 346.891 238.5 344.991 238.9 343.891C239.3 342.791 239.4 342.091 239.5 342.191Z" fill="#E0E0E0"/>
<path d="M239.3 334.691C239.4 334.891 231.2 340.791 220.8 347.791C210.5 354.891 202 360.391 201.8 360.091C201.7 359.891 209.9 353.991 220.3 346.991C230.6 339.891 239.1 334.391 239.3 334.691Z" fill="#E0E0E0"/>
<path d="M249.4 336.391C249.6 336.591 243.6 342.191 235.9 348.691C228.2 355.291 221.9 360.491 221.7 360.191C221.5 359.991 227.6 354.491 235.2 347.891C242.9 341.391 249.2 336.191 249.4 336.391Z" fill="#E0E0E0"/>
<path d="M537.6 79.1913H524.4V19.9913H537.6V79.1913Z" fill="#6F2ADF"/>
<path d="M560.6 42.9913V56.1913H501.4V42.9913H560.6Z" fill="#6F2ADF"/>
<path d="M580.1 49.6913C580.1 49.6913 580.067 49.4246 580 48.8913C580 48.3579 579.967 47.5913 579.9 46.5913C579.833 46.058 579.767 45.4913 579.7 44.8913C579.7 44.1913 579.5 43.5913 579.4 42.7913C579.2 41.2913 579 39.5913 578.4 37.6913C577.5 33.8913 575.7 29.4913 572.9 24.6913C570.1 19.9913 566 14.9913 560.4 10.7913C554.9 6.69127 547.9 3.09128 539.8 1.69128C531.8 0.291278 522.8 0.591274 514.2 3.89127C512 4.59127 509.9 5.59128 507.8 6.69128C505.8 7.89128 503.7 8.99128 501.8 10.4913C499.8 11.8913 498.1 13.5913 496.3 15.1913C494.6 16.9913 492.9 18.7913 491.5 20.8913C488.6 24.8913 486 29.3913 484.5 34.2913C482.9 39.1913 482.1 44.3913 482 49.6913C482.1 54.9913 482.9 60.1913 484.5 65.0913C486 70.0913 488.6 74.5913 491.5 78.5913C492.9 80.6913 494.6 82.3913 496.3 84.1913C498.1 85.8913 499.8 87.5913 501.8 88.9913C503.7 90.4913 505.8 91.5913 507.8 92.7913C509.9 93.7913 512 94.8913 514.2 95.5913C522.8 98.8913 531.8 99.0913 539.8 97.7913C547.9 96.2913 554.9 92.7913 560.4 88.6913C566 84.4913 570.1 79.4913 572.9 74.7913C575.7 69.9913 577.5 65.4913 578.4 61.6913C579 59.8913 579.2 58.0913 579.4 56.6913C579.5 55.8913 579.7 55.1913 579.7 54.5913C579.767 53.9913 579.833 53.4246 579.9 52.8913C579.967 51.8913 580 51.0913 580 50.4913C580.067 49.9579 580.1 49.6913 580.1 49.6913C580.1 49.6913 580.1 49.9579 580.1 50.4913C580.1 51.0913 580.1 51.8913 580.1 52.8913C580.033 53.4246 580 53.9913 580 54.5913C580 55.2913 579.8 55.8913 579.7 56.6913C579.5 58.1913 579.3 59.8913 578.8 61.7913C577.9 65.6913 576.2 70.1913 573.4 75.0913C570.6 79.8913 566.5 84.8913 560.9 89.1913C555.3 93.4913 548.2 97.0913 540 98.5913C531.8 100.091 522.6 99.7913 513.8 96.4913C511.6 95.7913 509.5 94.6913 507.3 93.6913C505.3 92.3913 503.1 91.2913 501.2 89.7913C499.2 88.3913 497.4 86.5913 495.5 84.9913C493.9 83.0913 492.1 81.2913 490.7 79.1913C487.7 75.0913 485.1 70.4913 483.5 65.4913C481.9 60.4913 481 55.0913 480.9 49.6913C481 44.2913 481.9 38.9913 483.5 33.9913C485.1 28.9913 487.7 24.3913 490.7 20.2913C492.1 18.1913 493.9 16.3913 495.5 14.4913C497.4 12.7913 499.2 11.0913 501.2 9.69128C503.1 8.19128 505.3 6.99127 507.3 5.79127C509.5 4.79127 511.6 3.69128 513.8 2.99128C522.6 -0.40872 531.8 -0.608725 540 0.891275C548.2 2.29127 555.3 5.99128 560.9 10.1913C566.5 14.4913 570.6 19.5913 573.4 24.3913C576.2 29.1913 577.9 33.7913 578.8 37.5913C579.3 39.4913 579.5 41.2913 579.7 42.7913C579.8 43.4913 580 44.1913 580 44.8913C580 45.4913 580.033 46.058 580.1 46.5913C580.1 47.5913 580.1 48.3579 580.1 48.8913C580.1 49.4246 580.1 49.6913 580.1 49.6913Z" fill="#6F2ADF"/>
<path d="M427.6 78.5912C427.8 69.8912 419.8 63.1912 411.7 59.9912C403.6 56.7912 394.5 55.5911 387.3 50.6911C380.9 46.3911 376.6 39.6911 371.2 34.1911C357.9 20.6911 337.1 15.0911 318.9 20.0911C300.6 25.0911 285.6 40.3911 280.9 58.7911C277.8 71.1911 280 85.8912 289.7 94.0912C301.1 103.691 317.9 101.591 332.5 98.5912C347 95.5912 363.5 92.6911 375.6 101.191C382.9 106.391 387.1 114.791 391.6 122.491C396.1 130.291 401.7 138.191 410.2 141.091C418.6 143.991 430.1 138.991 430.5 129.991" fill="#263238"/>
<path d="M427 83.3911C426 90.6911 431.3 97.1911 436.6 102.391C441.8 107.491 447.8 112.991 448.7 120.291C449.8 128.891 443.6 137.291 445.4 145.691C446.5 150.991 450.7 155.091 453.2 159.991C456.7 166.791 456.9 174.991 454.7 182.391C452.6 189.691 449.1 206.091 444 211.891C429.9 227.691 407.4 241.291 386.7 245.991C366 250.791 344.6 250.791 323.4 249.491C306.1 248.491 286.1 249.291 271.7 225.391C264.2 213.091 260.5 196.691 256.6 182.791C253.1 170.791 250.2 157.991 253.7 146.091C255.8 139.191 260 132.991 262 126.091C264.6 117.391 263.6 108.091 264.7 99.0912C266.9 79.6912 279 61.5912 296.1 52.0912C313.2 42.5912 334.9 41.8911 352.6 50.2911" fill="#263238"/>
<path d="M273 113.291C274.6 88.4911 291.1 57.9911 315.9 60.6911L393.2 80.3911C400.7 81.1911 406.4 87.6911 406.2 95.1911L397.5 281.791C397.7 281.791 397.9 281.824 398.1 281.891C398.1 281.891 380.5 334.491 329.3 318.391C319.2 315.191 314.5 304.191 312.5 292.691L312 292.791C312 291.491 312 290.191 312 288.891C310.3 275.691 311.7 263.291 311.7 263.291C311.5 248.191 311.5 241.991 311.5 242.191C311.5 242.191 279.8 236.791 273.3 195.391C270 174.791 271.2 140.991 273 113.291Z" fill="#FFBE9D"/>
<path d="M285.4 138.291C285.3 141.091 287.6 143.491 290.5 143.691C293.4 143.891 295.9 141.691 296 138.891C296.1 136.091 293.8 133.691 290.9 133.491C288 133.391 285.5 135.491 285.4 138.291Z" fill="#263238"/>
<path d="M280.2 130.891C280.9 131.591 284.9 128.691 290.7 128.691C296.4 128.591 300.6 131.591 301.2 130.891C301.5 130.591 300.8 129.291 299 127.991C297.2 126.691 294.1 125.391 290.6 125.391C287 125.391 284 126.691 282.3 127.991C280.5 129.391 279.9 130.591 280.2 130.891Z" fill="#263238"/>
<path d="M341.6 138.291C341.5 141.091 343.8 143.491 346.8 143.691C349.7 143.891 352.1 141.691 352.2 138.891C352.3 136.091 350.1 133.691 347.1 133.491C344.2 133.391 341.7 135.491 341.6 138.291Z" fill="#263238"/>
<path d="M336.5 132.091C337.1 132.791 341.2 129.891 346.9 129.891C352.6 129.791 356.8 132.791 357.4 132.091C357.7 131.791 357.1 130.491 355.2 129.191C353.4 127.891 350.4 126.591 346.8 126.591C343.2 126.591 340.2 127.891 338.5 129.191C336.8 130.591 336.2 131.791 336.5 132.091Z" fill="#263238"/>
<path d="M315.6 174.491C315.6 174.191 312.1 173.591 306.3 172.791C304.9 172.691 303.5 172.391 303.2 171.391C302.9 170.291 303.5 168.691 304.2 166.991C305.6 163.458 307.066 159.758 308.6 155.891C314.6 140.091 319 127.091 318.3 126.891C317.7 126.591 312.3 139.191 306.3 155.091C304.833 158.958 303.433 162.691 302.1 166.291C301.5 167.891 300.6 169.791 301.3 171.991C301.7 173.091 302.8 173.891 303.7 174.091C304.7 174.391 305.5 174.391 306.2 174.491C312 174.791 315.6 174.791 315.6 174.491Z" fill="#263238"/>
<path d="M311.5 242.191C311.5 242.191 339.4 243.991 367.1 227.491C367.1 227.491 353 256.191 311.6 252.191L311.5 242.191Z" fill="#EB996E"/>
<path d="M318 188.291C320.1 185.591 323.7 184.091 327.3 184.491C329.7 184.791 332.2 185.991 333.8 187.991C335.3 189.991 335.6 192.891 334.2 194.791C332.6 196.991 329.4 197.491 326.7 196.691C324 195.891 321.6 194.091 319.4 192.291C318.8 191.791 318.1 191.291 317.8 190.591C317.4 189.891 317.3 188.991 317.8 188.491" fill="#EB996E"/>
<path d="M332.4 178.491C331.5 178.391 331.5 184.691 326.2 188.991C320.9 193.491 314.2 192.691 314.2 193.591C314.1 193.991 315.7 194.791 318.4 194.891C321.2 194.991 325.2 194.091 328.5 191.391C331.7 188.791 333.1 185.091 333.3 182.591C333.6 179.991 332.9 178.491 332.4 178.491Z" fill="#263238"/>
<path d="M333.9 122.091C334.5 123.691 340.2 122.891 346.9 123.791C353.6 124.491 359 126.391 359.9 124.991C360.3 124.391 359.4 122.891 357.2 121.391C355 119.891 351.6 118.391 347.6 117.991C343.5 117.491 339.8 118.191 337.4 119.191C334.9 120.191 333.7 121.391 333.9 122.091Z" fill="#263238"/>
<path d="M282.4 114.391C283.4 115.691 287.3 114.291 292.1 114.291C296.8 114.091 300.8 115.191 301.8 113.791C302.2 113.191 301.5 111.891 299.8 110.591C298.1 109.391 295.2 108.391 291.9 108.491C288.7 108.591 285.8 109.791 284.2 111.091C282.5 112.391 281.9 113.791 282.4 114.391Z" fill="#263238"/>
<path d="M422.2 216.791C410.8 219.091 398.3 215.591 389.8 207.691C381.3 199.691 376.9 187.591 378.4 176.091C379.7 165.891 385.2 155.491 381.6 145.891C377 133.191 359.1 129.191 354.4 116.491C351.6 109.091 354.1 100.491 351 93.2911C348 86.3911 340.9 82.4911 333.9 79.9911C326.9 77.4911 319.4 75.6911 313.6 71.1911C307.7 66.5911 304.1 58.0911 307.9 51.6911C338.8 55.3911 369.3 62.7911 398.4 73.6911C405.2 76.1911 412.3 79.1911 416.3 85.2911C420.5 91.5911 420.3 99.7911 420 107.491C418.266 144.691 416.533 181.891 414.8 219.091" fill="#263238"/>
<path d="M419.6 230.991C419.6 231.058 419.8 230.924 420.2 230.591C420.733 230.191 421.366 229.724 422.1 229.191C423.7 227.891 426 226.091 428.9 223.491C431.8 220.891 435.3 217.691 438.7 213.291C442 208.891 445.3 203.191 446.4 196.191C447.7 189.391 446.8 180.791 441.1 174.391C438.3 171.191 434.7 168.891 431.4 166.091C428.1 163.491 425.3 160.091 423.9 155.891C420.8 147.391 422.2 137.591 421 127.591C419.7 117.691 416.2 107.391 409.3 99.0911C405.8 94.8911 401.7 91.3911 397 88.9911C392.3 86.4911 387.2 85.4911 382.5 84.0911C377.7 82.7911 373.4 80.8911 369.7 77.8911C366.1 74.8911 363.1 71.3911 360.5 67.6911C355.3 60.2911 351.4 52.3911 346.5 45.7911C344 42.4911 341.3 39.5911 338.3 37.1911C335.3 34.7911 332 32.9911 328.6 31.8911C321.9 29.5911 314.9 30.3911 310.2 33.6911C305.6 37.1911 303.9 42.2911 303.7 46.0911C303.5 50.0911 304.8 53.0911 306.2 54.6911C306.8 55.4911 307.4 55.9911 307.9 56.2911C308.3 56.6244 308.5 56.7578 308.5 56.6911C308.566 56.6911 308.4 56.4911 308 56.0911C307.6 55.7911 307.1 55.2911 306.5 54.3911C305.3 52.8911 304.1 49.9911 304.4 46.1911C304.7 42.4911 306.5 37.6911 310.8 34.4911C315.2 31.4911 321.9 30.7911 328.2 33.0911C331.4 34.1911 334.6 35.8911 337.4 38.1911C340.3 40.5911 342.9 43.4911 345.3 46.6911C350.1 53.1911 353.9 61.0911 359.1 68.5911C361.8 72.3911 364.8 76.0911 368.7 79.1911C372.4 82.3911 377.1 84.4911 382 85.7911C386.8 87.2911 391.7 88.2911 396.1 90.5911C400.6 92.8911 404.6 96.2911 407.9 100.191C414.5 108.191 418 118.191 419.2 127.891C420.5 137.491 419.1 147.491 422.3 156.391C423.9 160.891 427 164.691 430.4 167.391C433.8 170.191 437.3 172.391 440 175.391C445.3 181.291 446.3 189.391 445.2 195.991C444.2 202.691 441.1 208.291 437.9 212.591C434.6 216.991 431.3 220.291 428.5 222.991C425.6 225.591 423.4 227.591 421.8 228.891C420.3 230.291 419.5 230.991 419.6 230.991Z" fill="#455A64"/>
<path d="M427.1 236.191C435.7 227.891 450.2 235.091 457.4 244.491C464.5 253.991 469.6 266.191 480.4 270.891C491.3 275.691 505.4 271.591 514.5 279.191C527.1 289.591 520 313.791 533.6 322.891C539 326.491 546.1 326.291 551.9 329.291C565.5 336.291 565.3 355.491 563.2 370.591C560.3 391.791 557 413.891 545.3 431.791C533.6 449.791 510.8 462.391 490.5 455.491C471 448.791 461 427.791 453 408.791C442.066 382.458 431.1 356.124 420.1 329.791C413.8 314.591 407.3 299.091 405.3 282.791C403.2 266.391 406 248.691 416.4 235.891" fill="#263238"/>
<path d="M432.6 217.991C438.8 217.291 443.5 224.891 441.9 230.891C440.3 236.891 434.5 240.891 428.6 242.991C425.3 244.091 421.7 244.791 418.3 244.191C414.9 243.491 411.6 241.191 410.5 237.891C409.4 234.391 410.3 232.091 413.4 230.091C417.5 227.591 419.8 225.591 423.1 223.791C428 221.091 427.7 220.691 432.6 217.991Z" fill="#6F2ADF"/>
<path d="M290.1 284.691L314.2 266.491L404.8 260.691L408.4 272.891L379 456.791L402.2 676.191H275.8L290.1 284.691Z" fill="#68DDD3"/>
<g opacity="0.3">
<path d="M387.2 598.391C384.3 595.291 379.5 590.991 375.3 590.891C345 590.291 314.1 587.291 283.8 586.591L281.4 676.291C288.7 663.491 295.5 650.191 297.4 635.691C298.3 629.291 299.3 621.691 305.1 618.991C308.4 617.391 312.3 617.991 315.8 618.791C326.7 620.891 337.6 623.691 348.7 624.391C359.8 625.091 371.5 623.491 380.8 617.391C384 615.291 387 612.591 388.5 609.091C390 605.591 389.8 601.191 387.2 598.391Z" fill="black"/>
</g>
<path d="M309.7 288.391L306.9 262.091C306.4 257.491 309.8 253.391 314.5 252.891L397.9 245.391C400.1 245.191 402.1 246.891 402.2 249.191L403.1 280.491L379 321.491L354.1 329.391H323.8L306.3 310.691L309.7 288.391Z" fill="#68DDD3"/>
<path d="M390.8 270.491C390.8 270.491 389.6 270.291 387.5 270.091C385.3 269.891 382.2 269.691 378.4 269.991C374.5 270.191 370 270.791 365 271.891C360 272.891 354.6 274.391 348.9 275.791C343.2 277.191 337.6 278.291 332.5 278.691C327.3 279.091 322.6 278.791 318.8 277.791C315 276.891 312.2 275.391 310.4 274.291C309.466 273.691 308.766 273.191 308.3 272.791C307.9 272.391 307.7 272.191 307.7 272.191C307.7 272.091 308.7 272.891 310.6 273.891C312.4 274.991 315.3 276.291 319 277.091C322.7 277.891 327.3 278.191 332.4 277.791C337.4 277.291 342.9 276.191 348.6 274.791C354.4 273.391 359.8 271.991 364.8 270.991C369.9 269.891 374.5 269.391 378.3 269.191C382.2 269.091 385.4 269.391 387.5 269.691C388.566 269.891 389.4 270.058 390 270.191C390.533 270.324 390.8 270.424 390.8 270.491Z" fill="#263238"/>
<g opacity="0.3">
<path d="M311.7 274.591C309.5 280.691 309.4 288.291 314 292.991C317.6 296.891 323.6 297.791 328.8 296.791C334 295.791 338.7 292.991 343.3 290.291C354.8 283.491 366.5 276.391 379.5 273.491C380.3 273.291 381.2 273.091 381.8 272.491C382.5 271.891 382.6 270.791 381.9 270.191C381.6 269.991 381.2 269.991 380.8 269.891C369.3 268.791 357.8 271.991 346.5 274.591C335.2 277.091 323.1 278.891 312.2 274.991" fill="black"/>
</g>
<path d="M327.7 252.091C327.7 252.191 326 252.691 324.8 254.791C323.5 256.891 323.6 260.491 323.7 264.391C323.9 272.191 325.2 278.391 324.9 278.491C324.7 278.491 324.2 276.991 323.7 274.491C323.2 271.891 322.7 268.391 322.6 264.391C322.6 262.491 322.6 260.591 322.7 258.891C322.9 257.091 323.4 255.591 324.2 254.391C324.9 253.291 325.8 252.591 326.5 252.291C327.2 251.991 327.6 251.991 327.7 252.091Z" fill="#263238"/>
<path d="M349.7 274.991C349.4 274.891 350.1 269.191 349.1 262.191C348.1 255.291 345.8 249.991 346.1 249.791C346.3 249.791 347 250.991 347.8 253.191C348.7 255.391 349.6 258.491 350.1 262.091C350.6 265.591 350.6 268.891 350.4 271.191C350.2 273.591 349.8 274.991 349.7 274.991Z" fill="#263238"/>
<path d="M376.6 247.591C376.7 247.591 377.4 248.691 378.1 250.691C378.9 252.791 379.4 255.791 379.2 259.091C379 262.391 378 265.291 377 267.191C376.1 269.091 375.2 270.091 375.1 270.091C374.8 269.891 377.8 265.391 378.2 258.991C378.7 252.591 376.2 247.691 376.6 247.591Z" fill="#263238"/>
<path d="M259.6 296.591C259.6 296.591 231.2 315.591 223.7 349.991C217.8 376.991 201.7 519.891 201.7 519.891L173.5 574.691L191.9 618.491C207.7 619.591 223.3 615.091 236.1 605.891L248.5 596.891L271.2 563.191L259.6 296.591Z" fill="#EBEBEB"/>
<path d="M307.8 271.291L259.6 296.591L248.2 333.891L238.1 442.291L257.2 569.391L223.7 675.791L281.4 676.291L282.8 613.891L288.6 411.891L294.2 283.191L307.8 271.291Z" fill="#EBEBEB"/>
<path d="M284.5 439.691C284.433 439.691 284.133 439.191 283.6 438.191C283 437.124 282.2 435.658 281.2 433.791C280.2 431.791 279.2 429.291 277.9 426.491C277.4 425.091 276.9 423.491 276.3 421.791C275.7 420.191 275.1 418.391 274.6 416.491C270 401.491 267 379.891 267.7 356.091C267.7 354.224 267.766 352.391 267.9 350.591V350.291L268.2 350.191C271.066 348.924 273.9 347.724 276.7 346.591L276.6 347.491C273.667 345.158 270.833 342.891 268.1 340.691L267.9 340.591V340.391C267.5 331.391 269.7 323.291 271.8 316.291C273.9 309.191 276.2 303.091 278.3 298.091C280.3 293.091 282.1 289.191 283.3 286.591C283.966 285.258 284.466 284.258 284.8 283.591C285.2 282.858 285.4 282.491 285.4 282.491C285.4 282.558 285.266 282.924 285 283.591C284.666 284.391 284.2 285.424 283.6 286.691C282.5 289.391 280.8 293.291 278.8 298.391C276.9 303.391 274.6 309.491 272.6 316.491C270.6 323.491 268.5 331.591 268.9 340.291L268.7 339.891C271.433 342.091 274.266 344.358 277.2 346.691L277.9 347.191L277.1 347.591C274.3 348.724 271.467 349.891 268.6 351.091L269 350.691C268.866 352.491 268.766 354.291 268.7 356.091C268.1 379.891 270.9 401.391 275.3 416.291C275.7 418.191 276.4 419.891 276.9 421.591C277.5 423.291 277.9 424.891 278.5 426.291C279.7 429.091 280.6 431.591 281.5 433.591C282.433 435.458 283.166 436.958 283.7 438.091C284.233 439.158 284.5 439.691 284.5 439.691Z" fill="#263238"/>
<path d="M246.6 515.591C246.6 515.591 246.466 515.058 246.2 513.991C245.866 512.858 245.467 511.358 245 509.491C244.5 507.491 244 505.091 243.4 502.291C242.8 499.391 242.1 496.191 241.5 492.591C240.9 488.991 240.2 485.091 239.7 480.791C239 476.591 238.6 471.991 238.1 467.291C237.2 457.691 236.6 447.091 236.6 435.991C236.7 424.791 237.3 414.291 238.2 404.691C238.7 399.891 239.2 395.291 239.9 391.091C240.4 386.891 241.1 382.891 241.7 379.291C242.3 375.791 243.1 372.491 243.6 369.691C244.2 366.891 244.8 364.391 245.3 362.491C245.767 360.558 246.167 359.024 246.5 357.891C246.767 356.891 246.9 356.391 246.9 356.391C246.967 356.391 246.9 356.924 246.7 357.991C246.433 359.124 246.1 360.658 245.7 362.591C245.3 364.491 244.7 366.991 244.2 369.791C243.7 372.691 243 375.891 242.5 379.491C241.9 383.091 241.2 386.991 240.7 391.191C240.1 395.391 239.7 399.991 239.2 404.791C238.3 414.291 237.7 424.891 237.7 435.991C237.7 447.091 238.2 457.591 239 467.191C239.5 471.891 239.9 476.491 240.5 480.691C241 484.991 241.7 488.891 242.3 492.491C242.8 496.091 243.5 499.291 244 502.091C244.5 504.991 245 507.391 245.4 509.391C245.8 511.324 246.133 512.858 246.4 513.991C246.6 515.058 246.667 515.591 246.6 515.591Z" fill="#263238"/>
<path d="M259.7 613.191C259.8 613.191 259 615.091 257.3 617.991C255.7 620.891 253.2 624.791 249.9 628.691C246.7 632.691 243.4 635.891 240.9 638.091C238.4 640.191 236.7 641.391 236.6 641.291C236.5 641.191 238 639.791 240.4 637.491C242.8 635.191 245.9 631.891 249.1 628.091C252.3 624.191 254.9 620.391 256.7 617.591C258.5 614.891 259.5 613.091 259.7 613.191Z" fill="#263238"/>
<path d="M481.2 293.491C501.8 301.391 517.1 319.091 522 340.691C537.8 410.191 564.7 502.691 565.2 532.491C565.7 570.491 549.1 596.491 527.4 601.291C510.2 605.091 354.8 596.591 354.8 596.591L347.5 538.691L473.4 520.091L456.2 423.791L473.2 290.391L481.2 293.491Z" fill="#EBEBEB"/>
<path d="M473.2 290.391L438.4 276.091L401.7 254.591L401.5 260.891C406 268.591 407.5 277.691 405.8 286.391L375.3 445.791L382.2 562.191L396.4 676.291H506.9L456.2 556.991L474.1 396.191L473.2 290.391Z" fill="#EBEBEB"/>
<path d="M505.5 602.291C505.5 602.291 505.233 602.324 504.7 602.391C504.166 602.458 503.433 602.524 502.5 602.591C500.5 602.791 497.6 602.791 493.9 602.891C486.4 602.891 475.5 602.691 462 602.291C434.9 601.391 397.3 599.591 354.7 597.091H354.3L354.2 596.691C353.4 589.791 352.5 582.491 351.5 575.091C350 562.591 348.4 550.391 347 538.691L346.9 538.191H347.4C385.9 532.591 419.5 527.691 443.6 524.191C455.5 522.491 465.1 521.091 471.8 520.191C475.066 519.724 477.6 519.391 479.4 519.191C480.2 519.058 480.833 518.958 481.3 518.891C481.766 518.824 482 518.824 482 518.891C482 518.891 481.8 518.924 481.4 518.991C480.866 519.058 480.2 519.158 479.4 519.291C477.6 519.624 475.066 520.024 471.8 520.491C465.2 521.591 455.6 522.991 443.7 524.791C419.6 528.391 386 533.391 347.6 539.191L348 538.591C349.5 550.291 351 562.491 352.6 574.991C353.5 582.391 354.4 589.591 355.3 596.491L354.8 596.091C397.3 598.591 435 600.491 462 601.591C475.5 602.091 486.4 602.391 493.9 602.491C497.6 602.491 500.5 602.591 502.5 602.391C503.433 602.324 504.166 602.291 504.7 602.291C505.233 602.291 505.5 602.291 505.5 602.291Z" fill="#263238"/>
<path d="M455.1 414.091C455.166 414.091 455.266 414.424 455.4 415.091C455.6 415.958 455.8 416.991 456 418.191C456.5 420.991 457.2 424.891 458.1 429.591C459.8 439.391 462.1 452.591 464.7 467.191C467.1 481.791 469.3 495.091 470.9 504.891C471.7 509.591 472.3 513.391 472.7 516.291C472.9 517.558 473.066 518.591 473.2 519.391C473.266 520.124 473.266 520.491 473.2 520.491C473.2 520.491 473.1 520.124 472.9 519.391C472.766 518.591 472.566 517.591 472.3 516.391C471.8 513.491 471.1 509.691 470.2 504.991C468.5 495.391 466.1 482.091 463.6 467.391C461.1 452.691 458.9 439.391 457.4 429.691C456.7 424.991 456.1 421.091 455.6 418.291C455.466 417.024 455.333 415.991 455.2 415.191C455.133 414.458 455.1 414.091 455.1 414.091Z" fill="#263238"/>
<path d="M417.7 265.791C417.7 265.791 417.766 265.924 417.9 266.191C417.966 266.524 418.066 266.924 418.2 267.391C418.4 268.391 418.9 269.891 419.3 271.891C420.2 275.891 421.2 281.691 421.9 289.091C422.7 296.391 423 305.291 422.6 315.191C422.3 325.191 421.2 336.191 419.7 347.791V348.191L419.3 348.291C415.7 348.891 411.8 349.691 407.9 350.391L408.3 349.691C409 351.391 409.6 353.291 410.1 355.291C413.8 368.791 412.2 382.391 408.8 393.891C405.4 405.391 400.2 414.991 395.5 422.691C390.7 430.391 386.4 436.291 383.5 440.391C382.033 442.391 380.866 443.958 380 445.091C379.666 445.558 379.366 445.958 379.1 446.291C378.9 446.558 378.8 446.691 378.8 446.691C378.733 446.691 378.8 446.524 379 446.191C379.2 445.858 379.5 445.458 379.9 444.991C380.7 443.791 381.766 442.191 383.1 440.191C386 435.991 390.2 429.991 394.8 422.291C399.4 414.591 404.6 404.991 407.9 393.591C411.2 382.291 412.8 368.791 409.1 355.491C408.6 353.591 408 351.791 407.3 350.091L407.1 349.491L407.7 349.391C411.6 348.591 415.5 347.891 419.1 347.291L418.7 347.691C420.2 336.091 421.3 325.091 421.7 315.191C422.1 305.291 421.9 296.491 421.3 289.091C420.7 281.791 419.7 275.991 418.9 271.991C418.6 269.991 418.2 268.491 418 267.391C417.933 266.924 417.866 266.558 417.8 266.291C417.733 266.024 417.7 265.858 417.7 265.791Z" fill="#263238"/>
<path d="M417.7 429.291V403.891C417.7 403.891 418 397.591 412.8 398.891C407.5 400.191 408.5 410.091 408.5 410.091C408.5 410.091 407.5 448.791 409.8 448.391C412.1 448.091 413 445.091 413 445.091V430.291L417.7 429.291Z" fill="#6F2ADF"/>
<path d="M439.7 430.891C439.7 431.191 433.6 431.391 426.1 431.391C418.5 431.391 412.4 431.191 412.4 430.891C412.4 430.591 418.5 430.291 426.1 430.291C433.6 430.291 439.7 430.591 439.7 430.891Z" fill="#263238"/>
<path d="M490 308.491C490 308.591 489 308.991 487.1 309.591C485.3 310.291 482.7 311.291 479.6 312.891C473.4 315.991 465.4 321.691 459.1 330.291C457.6 332.391 456.2 334.591 455.1 336.791C454.1 339.091 453.3 341.291 452.7 343.491C451.5 347.991 451 352.091 450.7 355.591C450.4 358.991 450.3 361.891 450.3 363.791C450.3 365.791 450.3 366.791 450.2 366.791C450.2 366.791 450 365.791 449.9 363.791C449.8 361.891 449.7 358.991 450 355.491C450.2 351.991 450.6 347.791 451.8 343.291C452.3 340.991 453.2 338.691 454.2 336.391C455.3 334.091 456.7 331.791 458.3 329.691C464.7 320.891 472.9 315.191 479.3 312.191C482.4 310.691 485.1 309.791 487 309.191C488.9 308.691 490 308.491 490 308.491Z" fill="#263238"/>
<path d="M41.7998 519.891L223.7 587.191L377 610.691L194.7 521.791L41.7998 519.891Z" fill="#263238"/>
<path d="M119.6 592.491C118.2 582.791 114.9 573.391 109.9 564.991C109 563.291 107.9 561.591 107.5 559.791C107 557.891 107.2 555.791 108.5 554.391C110.8 551.791 115.1 552.891 118 554.891C123.9 558.791 127.9 565.291 130.2 571.991C132.5 578.791 133.4 585.891 134.2 592.991" fill="#FFBE9D"/>
<path d="M190.5 575.191H181.5C179.7 573.291 176.9 571.591 173.5 570.591C171.5 569.991 169.4 571.191 167.6 572.991C171.6 566.291 176 558.991 176.8 556.991C178.4 553.091 174.8 550.091 169 550.091C163.1 550.091 137.4 586.591 137.4 586.591C137.4 586.591 153.4 557.291 154.9 552.791C158.8 541.591 146.6 540.791 142.1 546.191C136.6 552.891 114.3 586.591 114.3 586.591C114.3 586.591 110.1 593.391 113 599.891C115.9 606.491 124.4 603.891 124.4 603.891C124.4 603.891 124.3 609.491 130.4 612.891C136.9 616.491 145.5 612.291 145.5 612.291L178.8 619.791C178.8 619.791 184 619.291 190.8 618.591C207.6 616.891 221.2 603.991 223.7 587.191L190.5 575.191Z" fill="#FFBE9D"/>
<path d="M168.1 572.491C168.5 572.691 164 579.691 158.3 587.991C155.4 592.191 152.8 595.891 150.8 598.591C148.8 601.291 147.5 602.891 147.4 602.791C147.3 602.691 148.4 600.991 150.2 598.191C152 595.391 154.6 591.591 157.4 587.391C160.3 583.191 163 579.491 164.9 576.791C165.767 575.591 166.533 574.524 167.2 573.591C167.8 572.791 168 572.491 168.1 572.491Z" fill="#EB996E"/>
<path d="M166.1 609.591C166 609.491 167.1 607.391 169.1 604.091C171 600.891 173.8 596.391 176.9 591.391C178.4 588.991 179.9 586.591 181.1 584.391C182.4 582.291 182.3 579.991 181.9 578.291C180.9 574.591 178.8 573.091 179 572.991C179.1 572.891 179.6 573.191 180.3 573.991C181 574.791 182 576.191 182.6 578.091C183.1 579.891 183.3 582.491 182 584.891C180.8 587.091 179.3 589.491 177.8 591.991C174.7 596.991 171.8 601.391 169.7 604.491C167.5 607.691 166.2 609.691 166.1 609.591Z" fill="#EB996E"/>
<path d="M183.6 612.891C183.5 612.891 184 610.791 185.4 607.691C186.133 606.024 186.933 604.224 187.8 602.291C188.6 600.291 189.6 597.991 190.2 595.591C190.8 593.191 190.4 590.691 189.1 589.091C188.5 588.291 187.6 587.791 186.8 587.391C185.9 586.991 185 586.691 184.3 586.691C182.8 586.791 181.5 587.591 180.7 587.891C179.9 588.391 179.4 588.591 179.3 588.491C179.3 588.391 179.7 588.091 180.5 587.591C180.9 587.324 181.4 587.024 182 586.691C182.6 586.391 183.3 585.991 184.3 585.891C185.2 585.891 186.2 586.191 187.1 586.591C188 586.991 189.1 587.491 189.9 588.491C191.4 590.391 191.8 593.191 191.2 595.791C190.6 598.391 189.5 600.591 188.6 602.691C187.7 604.691 186.8 606.491 186 607.991C184.5 610.991 183.7 612.891 183.6 612.891Z" fill="#EB996E"/>
<path d="M189.7 581.391C189.8 581.391 190.3 581.491 191.1 581.791C192 582.191 193.3 582.891 194.6 583.891C197.4 585.891 200.6 589.691 201.8 594.891C202.9 600.191 201.6 604.991 200 607.991C199.2 609.491 198.4 610.591 197.7 611.291C197.1 611.991 196.7 612.391 196.6 612.291C196.5 612.191 198 610.691 199.3 607.691C200.7 604.691 201.9 600.091 200.8 595.191C199.7 590.291 196.7 586.491 194.2 584.491C191.6 582.291 189.7 581.591 189.7 581.391Z" fill="#EB996E"/>
<path d="M131.1 562.291C131.4 562.391 128 567.791 123.6 574.291C119.2 580.791 115.5 585.991 115.2 585.791C115 585.691 118.3 580.291 122.7 573.791C127.1 567.291 130.9 562.091 131.1 562.291Z" fill="#EB996E"/>
<path d="M346.9 540.791L326.1 536.091L306.2 517.291C303.7 514.991 300.6 513.691 297.3 513.491L260.9 511.391C257.3 511.191 253.7 512.391 251 514.691L225 536.691L338.3 591.891L353.9 593.291L346.9 540.791Z" fill="#FFBE9D"/>
<path d="M285.3 531.091C285.3 531.291 282.6 530.791 278.3 530.291C274.1 529.791 267.9 529.191 261.9 531.991C258.9 533.291 256.3 535.191 254 536.891C251.7 538.591 249.7 540.191 247.8 541.391C246 542.691 244.5 543.491 243.3 543.991C242.2 544.491 241.6 544.791 241.6 544.691C241.5 544.491 243.9 543.391 247.4 540.791C249.2 539.491 251.2 537.891 253.4 536.091C255.7 534.391 258.3 532.391 261.4 530.991C264.5 529.591 267.8 528.991 270.7 528.891C273.7 528.891 276.3 529.191 278.4 529.491C280.6 529.891 282.3 530.291 283.5 530.591C284.7 530.891 285.3 531.091 285.3 531.091Z" fill="#EB996E"/>
<path d="M292.8 551.391C292.7 551.491 291.3 550.891 288.9 550.591C286.4 550.291 283 550.591 279.5 551.891C276 553.191 273.1 554.991 271 556.291C268.8 557.591 267.5 558.391 267.4 558.291C267.3 558.191 268.5 557.191 270.5 555.691C272.6 554.291 275.5 552.291 279.2 550.991C282.8 549.591 286.5 549.391 289 549.891C291.5 550.391 292.8 551.291 292.8 551.391Z" fill="#EB996E"/>
<path d="M339.6 554.691C339.3 554.891 336.4 550.491 332.5 545.391C328.7 540.191 325.3 536.191 325.6 535.991C325.8 535.791 329.5 539.491 333.3 544.791C337.2 549.991 339.8 554.591 339.6 554.691Z" fill="#EB996E"/>
<path d="M282.3 513.491L328.4 470.591C330.4 468.791 330.2 465.591 328.1 463.891C326.4 462.591 324 462.691 322.5 464.091L268.4 512.591" fill="#E8505B"/>
<g opacity="0.3">
<path d="M282.3 513.491L328.4 470.591C330.4 468.791 330.2 465.591 328.1 463.891C326.4 462.591 324 462.691 322.5 464.091L268.4 512.591" fill="black"/>
</g>
<path d="M597.9 676.691C597.9 676.891 464.062 677.191 298.95 677.191C133.838 677.191 0 676.891 0 676.691C0 676.391 133.838 676.091 298.95 676.091C464.062 676.091 597.9 676.391 597.9 676.691Z" fill="#263238"/>
</svg>
