<svg width="598" height="660" viewBox="0 0 598 660" fill="none" xmlns="http://www.w3.org/2000/svg">
<path d="M284.6 350.491L129.7 424.991C127.3 426.191 124.4 425.191 123.3 422.791L19.3001 206.791C18.2001 204.391 19.2001 201.491 21.6001 200.391L176.4 125.791C178.8 124.691 181.7 125.691 182.9 128.091L286.8 344.091C288 346.491 287 349.291 284.6 350.491Z" fill="#E0E0E0"/>
<path d="M274.6 341.991L129.3 411.991L28.7001 202.891L173.9 132.891L274.6 341.991Z" fill="#FAFAFA"/>
<path fill-rule="evenodd" clip-rule="evenodd" d="M136.5 159.991L73.2001 190.391L73.3001 185.791C73.4001 178.491 77.6001 171.791 84.2001 168.391L87.3001 166.891L82.8001 157.591C79.5001 150.891 82.4001 142.691 89.1001 139.491C95.9001 136.191 104 139.091 107.2 145.791L111.7 154.691C118.4 151.391 126.4 152.291 132.4 156.791L136.5 159.991ZM102 148.591C100.3 144.891 95.9001 143.391 92.3001 145.191C88.6001 146.891 87.1001 151.291 88.9001 154.891C90.6001 158.491 95.0001 160.091 98.6001 158.291C102.3 156.591 103.8 152.191 102 148.591Z" fill="#EBEBEB"/>
<path d="M96.8001 206.591C96.9001 206.791 88.2001 211.291 77.3001 216.491C66.4001 221.691 57.5001 225.791 57.4001 225.491C57.3001 225.291 66.0001 220.791 76.8001 215.591C87.7001 210.291 96.6001 206.291 96.8001 206.591Z" fill="#E0E0E0"/>
<path d="M79.6001 222.991C79.7001 223.291 75.5001 225.491 70.3001 228.091C65.0001 230.591 60.7001 232.391 60.6001 232.191C60.4001 231.891 64.6001 229.691 69.8001 227.091C75.1001 224.591 79.4001 222.791 79.6001 222.991Z" fill="#E0E0E0"/>
<path d="M181 196.991C181.1 197.191 156.7 209.291 126.4 223.791C96.1001 238.391 71.5001 249.991 71.4001 249.791C71.3001 249.491 95.7001 237.491 126 222.891C156.2 208.291 180.9 196.691 181 196.991Z" fill="#E0E0E0"/>
<path d="M186.1 207.391C186.2 207.691 161.7 219.691 131.5 234.291C101.2 248.891 76.5001 260.491 76.4001 260.191C76.3001 259.991 100.7 247.891 131 233.391C161.3 218.791 185.9 207.191 186.1 207.391Z" fill="#E0E0E0"/>
<path d="M191.1 217.891C191.2 218.191 166.8 230.191 136.5 244.791C106.2 259.291 81.6001 270.891 81.4001 270.691C81.3001 270.391 105.8 258.391 136 243.791C166.3 229.191 191 217.591 191.1 217.891Z" fill="#E0E0E0"/>
<path d="M196.1 228.391C196.2 228.591 171.8 240.591 141.5 255.191C111.2 269.791 86.6001 281.391 86.5001 281.091C86.4001 280.891 110.8 268.791 141.1 254.291C171.3 239.691 196 228.091 196.1 228.391Z" fill="#E0E0E0"/>
<path d="M201.2 238.791C201.3 239.091 176.8 251.091 146.6 265.691C116.3 280.191 91.6001 291.791 91.5001 291.591C91.4001 291.291 115.8 279.291 146.1 264.691C176.4 250.191 201 238.591 201.2 238.791Z" fill="#E0E0E0"/>
<path d="M206.2 249.291C206.3 249.491 181.9 261.491 151.6 276.091C121.3 290.691 96.7001 302.291 96.5001 301.991C96.4001 301.791 120.9 289.791 151.1 275.191C181.4 260.591 206.1 248.991 206.2 249.291Z" fill="#E0E0E0"/>
<path d="M155.9 285.091C155.9 285.091 155.2 285.591 153.8 286.291C152.267 287.091 150.333 288.091 148 289.291C143.1 291.691 136.3 295.091 128.7 298.691C121.1 302.391 114.3 305.591 109.3 307.891C106.9 308.958 104.9 309.858 103.3 310.591C101.9 311.191 101.1 311.491 101.1 311.491C101.1 311.391 101.8 310.991 103.1 310.191C104.7 309.391 106.633 308.425 108.9 307.291C113.9 304.791 120.7 301.391 128.3 297.791C135.8 294.191 142.7 290.891 147.7 288.591C150.1 287.525 152.1 286.625 153.7 285.891C155.1 285.291 155.9 284.991 155.9 285.091Z" fill="#E0E0E0"/>
<path d="M173.2 168.591C173.3 168.891 169.5 170.991 164.6 173.291C159.8 175.591 155.8 177.291 155.6 177.091C155.5 176.791 159.3 174.691 164.2 172.391C169 169.991 173.1 168.291 173.2 168.591Z" fill="#E0E0E0"/>
<path d="M141.9 319.891C142.1 320.091 135.8 323.391 127.9 327.191C120.1 330.991 113.6 333.791 113.5 333.591C113.3 333.291 119.6 329.991 127.5 326.191C135.3 322.491 141.8 319.591 141.9 319.891Z" fill="#E0E0E0"/>
<path d="M147.5 328.891C147.6 329.091 141.2 332.491 133.2 336.291C125.2 340.191 118.6 343.091 118.5 342.791C118.4 342.591 124.8 339.191 132.8 335.391C140.8 331.491 147.3 328.591 147.5 328.891Z" fill="#E0E0E0"/>
<path d="M223.8 278.691C224 278.891 221 280.591 217.2 282.491C213.4 284.291 210.2 285.591 210.1 285.291C210 284.991 212.9 283.391 216.7 281.491C220.5 279.691 223.7 278.391 223.8 278.691Z" fill="#E0E0E0"/>
<path d="M228.4 286.991C228.6 287.291 225.6 288.891 221.8 290.791C218 292.591 214.8 293.891 214.7 293.591C214.5 293.391 217.5 291.691 221.3 289.791C225.1 287.991 228.3 286.691 228.4 286.991Z" fill="#E0E0E0"/>
<path d="M139 345.291C139.1 345.491 136.2 347.191 132.6 348.891C128.9 350.691 125.8 351.891 125.7 351.691C125.6 351.391 128.4 349.791 132.1 347.991C135.8 346.191 138.9 344.991 139 345.291Z" fill="#E0E0E0"/>
<path d="M233.7 296.691C233.8 296.991 231.7 298.291 229 299.591C226.2 300.891 223.9 301.791 223.7 301.491C223.6 301.291 225.7 299.991 228.5 298.691C231.3 297.291 233.6 296.491 233.7 296.691Z" fill="#E0E0E0"/>
<path d="M135.6 374.591C135.6 374.591 135.8 374.458 136.2 374.191C136.667 373.858 137.233 373.458 137.9 372.991C139.5 371.991 141.633 370.625 144.3 368.891C150 365.291 158 360.291 167.6 354.291L168 353.991L168.2 354.491C169.3 357.191 169.5 360.391 168.5 363.291C167.6 366.291 165.3 369.091 162.1 370.291C159 371.391 155.1 371.291 152.2 369.191C149.2 366.991 148 362.991 148.9 359.391C149.2 358.091 149.9 356.791 150.8 355.791C151 355.525 151.233 355.291 151.5 355.091C151.8 354.791 152.1 354.591 152.4 354.391C152.8 354.291 153.4 354.191 153.8 354.491C154.3 354.791 154.5 355.091 154.6 355.391C155.9 357.691 156.5 360.291 156.7 362.791C156.8 365.291 156.4 367.891 155.5 370.091C154.7 372.391 153.3 374.491 151.2 375.791C149.1 377.191 146.4 376.891 144.5 375.691C142.5 374.491 141.2 372.691 140.5 370.691C139.2 366.591 140 362.691 140.5 359.391L140.6 358.591L141.2 359.191C143.5 361.891 144.7 364.991 145 367.791C145.3 370.591 144.9 372.991 144.3 374.891C143.7 376.791 142.9 378.091 142.3 378.891C142 379.291 141.7 379.591 141.5 379.791C141.367 379.991 141.3 380.091 141.3 380.091C141.1 379.991 142.8 378.491 143.9 374.791C144.4 372.891 144.8 370.591 144.4 367.891C144 365.191 142.9 362.191 140.6 359.691L141.3 359.491C140.7 362.791 140 366.591 141.3 370.391C141.9 372.191 143.2 373.791 144.9 374.891C146.7 375.991 148.9 376.191 150.7 374.991C152.5 373.891 153.8 371.891 154.6 369.791C155.4 367.591 155.8 365.291 155.6 362.891C155.5 360.491 154.9 358.091 153.7 355.891C153.6 355.691 153.4 355.491 153.3 355.391C153.2 355.291 153.1 355.291 152.9 355.391C152.5 355.591 151.9 356.091 151.6 356.491C150.8 357.391 150.2 358.491 149.9 359.691C149.1 362.891 150.2 366.491 152.8 368.291C155.4 370.191 158.9 370.391 161.7 369.291C164.6 368.291 166.7 365.791 167.6 362.991C168.5 360.291 168.3 357.291 167.4 354.891L168 355.091C158.4 360.891 150.4 365.791 144.6 369.291C141.867 370.958 139.667 372.291 138 373.291C137.333 373.691 136.767 374.025 136.3 374.291C135.9 374.491 135.667 374.591 135.6 374.591Z" fill="#E0E0E0"/>
<path d="M239.5 324.191C239.5 324.191 239.5 324.791 239.2 325.991C239 326.591 238.7 327.391 238.2 328.191C237.8 328.891 236.9 329.691 235.7 330.091C235.2 330.191 234.5 330.291 233.8 329.991C233.1 329.791 232.6 329.291 232.1 328.691C231.3 327.591 230.7 326.191 229.9 324.891C228.4 322.091 226.7 319.091 224.9 315.791L225.8 315.591C225.7 320.191 225.5 325.191 225.3 330.391C225.233 331.658 225.2 332.891 225.2 334.091L225.1 336.191L224.2 334.391C221.4 328.691 218.9 323.491 216.7 318.891L217.5 318.791C215.9 324.491 215.6 329.391 215.6 332.791C215.6 336.191 215.8 338.091 215.7 338.191C215.633 338.125 215.533 337.658 215.4 336.791C215.3 335.891 215.1 334.491 215.1 332.791C214.9 329.391 215.1 324.391 216.6 318.591L216.9 317.391L217.5 318.491C219.7 323.091 222.3 328.291 225.1 333.891L224.1 334.091C224.167 332.891 224.233 331.658 224.3 330.391C224.5 325.191 224.7 320.191 224.9 315.591V313.791L225.8 315.391C227.5 318.691 229.1 321.691 230.6 324.491C231.3 325.891 232 327.191 232.7 328.291C233.4 329.291 234.6 329.791 235.6 329.491C237.7 328.891 238.5 326.991 238.9 325.891C239.3 324.791 239.4 324.091 239.5 324.191Z" fill="#E0E0E0"/>
<path d="M239.3 316.691C239.4 316.891 231.2 322.791 220.8 329.791C210.5 336.891 202 342.391 201.8 342.091C201.7 341.891 209.9 335.991 220.3 328.991C230.6 321.891 239.1 316.391 239.3 316.691Z" fill="#E0E0E0"/>
<path d="M249.4 318.391C249.6 318.591 243.6 324.191 235.9 330.691C228.2 337.291 221.9 342.491 221.7 342.191C221.5 341.991 227.6 336.491 235.2 329.891C242.9 323.391 249.2 318.191 249.4 318.391Z" fill="#E0E0E0"/>
<path d="M427.6 60.5912C427.8 51.8912 419.8 45.1912 411.7 41.9912C403.6 38.7912 394.5 37.5911 387.3 32.6911C380.9 28.3911 376.6 21.6911 371.2 16.1911C357.9 2.69114 337.1 -2.90885 318.9 2.09115C300.6 7.09115 285.6 22.3911 280.9 40.7911C277.8 53.1911 280 67.8912 289.7 76.0912C301.1 85.6912 317.9 83.5912 332.5 80.5912C347 77.5912 363.5 74.6911 375.6 83.1911C382.9 88.3911 387.1 96.7912 391.6 104.491C396.1 112.291 401.7 120.191 410.2 123.091C418.6 125.991 430.1 120.991 430.5 111.991" fill="#263238"/>
<path d="M427 65.3911C426 72.6911 431.3 79.1911 436.6 84.3911C441.8 89.4911 447.8 94.9911 448.7 102.291C449.8 110.891 443.6 119.291 445.4 127.691C446.5 132.991 450.7 137.091 453.2 141.991C456.7 148.791 456.9 156.991 454.7 164.391C452.6 171.691 449.1 188.091 444 193.891C429.9 209.691 407.4 223.291 386.7 227.991C366 232.791 344.6 232.791 323.4 231.491C306.1 230.491 286.1 231.291 271.7 207.391C264.2 195.091 260.5 178.691 256.6 164.791C253.1 152.791 250.2 139.991 253.7 128.091C255.8 121.191 260 114.991 262 108.091C264.6 99.3912 263.6 90.0912 264.7 81.0912C266.9 61.6912 279 43.5912 296.1 34.0912C313.2 24.5912 334.9 23.8911 352.6 32.2911" fill="#263238"/>
<path d="M273 95.2911C274.6 70.4911 291.1 39.9911 315.9 42.6911L393.2 62.3911C400.7 63.1911 406.4 69.6911 406.2 77.1911L397.5 263.791C397.7 263.791 397.9 263.824 398.1 263.891C398.1 263.891 380.5 316.491 329.3 300.391C319.2 297.191 314.5 286.191 312.5 274.691L312 274.791C312 273.491 312 272.191 312 270.891C310.3 257.691 311.7 245.291 311.7 245.291C311.5 230.191 311.5 223.991 311.5 224.191C311.5 224.191 279.8 218.791 273.3 177.391C270 156.791 271.2 122.991 273 95.2911Z" fill="#FFBE9D"/>
<path d="M285.4 120.291C285.3 123.091 287.6 125.491 290.5 125.691C293.4 125.891 295.9 123.691 296 120.891C296.1 118.091 293.8 115.691 290.9 115.491C288 115.391 285.5 117.491 285.4 120.291Z" fill="#263238"/>
<path d="M280.2 112.891C280.9 113.591 284.9 110.691 290.7 110.691C296.4 110.591 300.6 113.591 301.2 112.891C301.5 112.591 300.8 111.291 299 109.991C297.2 108.691 294.1 107.391 290.6 107.391C287 107.391 284 108.691 282.3 109.991C280.5 111.391 279.9 112.591 280.2 112.891Z" fill="#263238"/>
<path d="M341.6 120.291C341.5 123.091 343.8 125.491 346.8 125.691C349.7 125.891 352.1 123.691 352.2 120.891C352.3 118.091 350.1 115.691 347.1 115.491C344.2 115.391 341.7 117.491 341.6 120.291Z" fill="#263238"/>
<path d="M336.5 114.091C337.1 114.791 341.2 111.891 346.9 111.891C352.6 111.791 356.8 114.791 357.4 114.091C357.7 113.791 357.1 112.491 355.2 111.191C353.4 109.891 350.4 108.591 346.8 108.591C343.2 108.591 340.2 109.891 338.5 111.191C336.8 112.591 336.2 113.791 336.5 114.091Z" fill="#263238"/>
<path d="M315.6 156.491C315.6 156.191 312.1 155.591 306.3 154.791C304.9 154.691 303.5 154.391 303.2 153.391C302.9 152.291 303.5 150.691 304.2 148.991C305.6 145.458 307.067 141.758 308.6 137.891C314.6 122.091 319 109.091 318.3 108.891C317.7 108.591 312.3 121.191 306.3 137.091C304.833 140.958 303.433 144.691 302.1 148.291C301.5 149.891 300.6 151.791 301.3 153.991C301.7 155.091 302.8 155.891 303.7 156.091C304.7 156.391 305.5 156.391 306.2 156.491C312 156.791 315.6 156.791 315.6 156.491Z" fill="#263238"/>
<path d="M311.5 224.191C311.5 224.191 339.4 225.991 367.1 209.491C367.1 209.491 353 238.191 311.6 234.191L311.5 224.191Z" fill="#EB996E"/>
<path d="M318 170.291C320.1 167.591 323.7 166.091 327.3 166.491C329.7 166.791 332.2 167.991 333.8 169.991C335.3 171.991 335.6 174.891 334.2 176.791C332.6 178.991 329.4 179.491 326.7 178.691C324 177.891 321.6 176.091 319.4 174.291C318.8 173.791 318.1 173.291 317.8 172.591C317.4 171.891 317.3 170.991 317.8 170.491" fill="#EB996E"/>
<path d="M332.4 160.491C331.5 160.391 331.5 166.691 326.2 170.991C320.9 175.491 314.2 174.691 314.2 175.591C314.1 175.991 315.7 176.791 318.4 176.891C321.2 176.991 325.2 176.091 328.5 173.391C331.7 170.791 333.1 167.091 333.3 164.591C333.6 161.991 332.9 160.491 332.4 160.491Z" fill="#263238"/>
<path d="M333.9 104.091C334.5 105.691 340.2 104.891 346.9 105.791C353.6 106.491 359 108.391 359.9 106.991C360.3 106.391 359.4 104.891 357.2 103.391C355 101.891 351.6 100.391 347.6 99.9912C343.5 99.4912 339.8 100.191 337.4 101.191C334.9 102.191 333.7 103.391 333.9 104.091Z" fill="#263238"/>
<path d="M282.4 96.3912C283.4 97.6912 287.3 96.2911 292.1 96.2911C296.8 96.0911 300.8 97.1911 301.8 95.7911C302.2 95.1911 301.5 93.8912 299.8 92.5912C298.1 91.3912 295.2 90.3912 291.9 90.4912C288.7 90.5912 285.8 91.7912 284.2 93.0912C282.5 94.3912 281.9 95.7912 282.4 96.3912Z" fill="#263238"/>
<path d="M422.2 198.791C410.8 201.091 398.3 197.591 389.8 189.691C381.3 181.691 376.9 169.591 378.4 158.091C379.7 147.891 385.2 137.491 381.6 127.891C377 115.191 359.1 111.191 354.4 98.4912C351.6 91.0912 354.1 82.4912 351 75.2912C348 68.3912 340.9 64.4912 333.9 61.9912C326.9 59.4912 319.4 57.6912 313.6 53.1912C307.7 48.5912 304.1 40.0912 307.9 33.6912C338.8 37.3912 369.3 44.7912 398.4 55.6912C405.2 58.1912 412.3 61.1912 416.3 67.2912C420.5 73.5912 420.3 81.7912 420 89.4912C418.267 126.691 416.533 163.891 414.8 201.091" fill="#263238"/>
<path d="M419.6 212.991C419.6 213.058 419.8 212.924 420.2 212.591C420.733 212.191 421.367 211.724 422.1 211.191C423.7 209.891 426 208.091 428.9 205.491C431.8 202.891 435.3 199.691 438.7 195.291C442 190.891 445.3 185.191 446.4 178.191C447.7 171.391 446.8 162.791 441.1 156.391C438.3 153.191 434.7 150.891 431.4 148.091C428.1 145.491 425.3 142.091 423.9 137.891C420.8 129.391 422.2 119.591 421 109.591C419.7 99.6911 416.2 89.3911 409.3 81.0911C405.8 76.8911 401.7 73.3911 397 70.9911C392.3 68.4911 387.2 67.4911 382.5 66.0911C377.7 64.7911 373.4 62.8911 369.7 59.8911C366.1 56.8911 363.1 53.3911 360.5 49.6911C355.3 42.2911 351.4 34.3911 346.5 27.7911C344 24.4911 341.3 21.5911 338.3 19.1911C335.3 16.7911 332 14.9911 328.6 13.8911C321.9 11.5911 314.9 12.3911 310.2 15.6911C305.6 19.1911 303.9 24.2911 303.7 28.0911C303.5 32.0911 304.8 35.0911 306.2 36.6911C306.8 37.4911 307.4 37.9911 307.9 38.2911C308.3 38.6244 308.5 38.7578 308.5 38.6911C308.567 38.6911 308.4 38.4911 308 38.0911C307.6 37.7911 307.1 37.2911 306.5 36.3911C305.3 34.8911 304.1 31.9911 304.4 28.1911C304.7 24.4911 306.5 19.6911 310.8 16.4911C315.2 13.4911 321.9 12.7911 328.2 15.0911C331.4 16.1911 334.6 17.8911 337.4 20.1911C340.3 22.5911 342.9 25.4911 345.3 28.6911C350.1 35.1911 353.9 43.0911 359.1 50.5911C361.8 54.3911 364.8 58.0911 368.7 61.1911C372.4 64.3911 377.1 66.4911 382 67.7911C386.8 69.2911 391.7 70.2911 396.1 72.5911C400.6 74.8911 404.6 78.2911 407.9 82.1911C414.5 90.1911 418 100.191 419.2 109.891C420.5 119.491 419.1 129.491 422.3 138.391C423.9 142.891 427 146.691 430.4 149.391C433.8 152.191 437.3 154.391 440 157.391C445.3 163.291 446.3 171.391 445.2 177.991C444.2 184.691 441.1 190.291 437.9 194.591C434.6 198.991 431.3 202.291 428.5 204.991C425.6 207.591 423.4 209.591 421.8 210.891C420.3 212.291 419.5 212.991 419.6 212.991Z" fill="#455A64"/>
<path d="M427.1 218.191C435.7 209.891 450.2 217.091 457.4 226.491C464.5 235.991 469.6 248.191 480.4 252.891C491.3 257.691 505.4 253.591 514.5 261.191C527.1 271.591 520 295.791 533.6 304.891C539 308.491 546.1 308.291 551.9 311.291C565.5 318.291 565.3 337.491 563.2 352.591C560.3 373.791 557 395.891 545.3 413.791C533.6 431.791 510.8 444.391 490.5 437.491C471 430.791 461 409.791 453 390.791C442.066 364.458 431.1 338.124 420.1 311.791C413.8 296.591 407.3 281.091 405.3 264.791C403.2 248.391 406 230.691 416.4 217.891" fill="#263238"/>
<path d="M432.6 199.991C438.8 199.291 443.5 206.891 441.9 212.891C440.3 218.891 434.5 222.891 428.6 224.991C425.3 226.091 421.7 226.791 418.3 226.191C414.9 225.491 411.6 223.191 410.5 219.891C409.4 216.391 410.3 214.091 413.4 212.091C417.5 209.591 419.8 207.591 423.1 205.791C428 203.091 427.7 202.691 432.6 199.991Z" fill="#6F2ADF"/>
<path d="M290.1 266.691L314.2 248.491L404.8 242.691L408.4 254.891L379 438.791L402.2 658.191H275.8L290.1 266.691Z" fill="#68DDD3"/>
<g opacity="0.3">
<path d="M387.2 580.391C384.3 577.291 379.5 572.991 375.3 572.891C345 572.291 314.1 569.291 283.8 568.591L281.4 658.291C288.7 645.491 295.5 632.191 297.4 617.691C298.3 611.291 299.3 603.691 305.1 600.991C308.4 599.391 312.3 599.991 315.8 600.791C326.7 602.891 337.6 605.691 348.7 606.391C359.8 607.091 371.5 605.491 380.8 599.391C384 597.291 387 594.591 388.5 591.091C390 587.591 389.8 583.191 387.2 580.391Z" fill="black"/>
</g>
<path d="M309.7 270.391L306.9 244.091C306.4 239.491 309.8 235.391 314.5 234.891L397.9 227.391C400.1 227.191 402.1 228.891 402.2 231.191L403.1 262.491L379 303.491L354.1 311.391H323.8L306.3 292.691L309.7 270.391Z" fill="#68DDD3"/>
<path d="M390.8 252.491C390.8 252.491 389.6 252.291 387.5 252.091C385.3 251.891 382.2 251.691 378.4 251.991C374.5 252.191 370 252.791 365 253.891C360 254.891 354.6 256.391 348.9 257.791C343.2 259.191 337.6 260.291 332.5 260.691C327.3 261.091 322.6 260.791 318.8 259.791C315 258.891 312.2 257.391 310.4 256.291C309.467 255.691 308.767 255.191 308.3 254.791C307.9 254.391 307.7 254.191 307.7 254.191C307.7 254.091 308.7 254.891 310.6 255.891C312.4 256.991 315.3 258.291 319 259.091C322.7 259.891 327.3 260.191 332.4 259.791C337.4 259.291 342.9 258.191 348.6 256.791C354.4 255.391 359.8 253.991 364.8 252.991C369.9 251.891 374.5 251.391 378.3 251.191C382.2 251.091 385.4 251.391 387.5 251.691C388.567 251.891 389.4 252.058 390 252.191C390.533 252.324 390.8 252.424 390.8 252.491Z" fill="#263238"/>
<g opacity="0.3">
<path d="M311.7 256.591C309.5 262.691 309.4 270.291 314 274.991C317.6 278.891 323.6 279.791 328.8 278.791C334 277.791 338.7 274.991 343.3 272.291C354.8 265.491 366.5 258.391 379.5 255.491C380.3 255.291 381.2 255.091 381.8 254.491C382.5 253.891 382.6 252.791 381.9 252.191C381.6 251.991 381.2 251.991 380.8 251.891C369.3 250.791 357.8 253.991 346.5 256.591C335.2 259.091 323.1 260.891 312.2 256.991" fill="black"/>
</g>
<path d="M327.7 234.091C327.7 234.191 326 234.691 324.8 236.791C323.5 238.891 323.6 242.491 323.7 246.391C323.9 254.191 325.2 260.391 324.9 260.491C324.7 260.491 324.2 258.991 323.7 256.491C323.2 253.891 322.7 250.391 322.6 246.391C322.6 244.491 322.6 242.591 322.7 240.891C322.9 239.091 323.4 237.591 324.2 236.391C324.9 235.291 325.8 234.591 326.5 234.291C327.2 233.991 327.6 233.991 327.7 234.091Z" fill="#263238"/>
<path d="M349.7 256.991C349.4 256.891 350.1 251.191 349.1 244.191C348.1 237.291 345.8 231.991 346.1 231.791C346.3 231.791 347 232.991 347.8 235.191C348.7 237.391 349.6 240.491 350.1 244.091C350.6 247.591 350.6 250.891 350.4 253.191C350.2 255.591 349.8 256.991 349.7 256.991Z" fill="#263238"/>
<path d="M376.6 229.591C376.7 229.591 377.4 230.691 378.1 232.691C378.9 234.791 379.4 237.791 379.2 241.091C379 244.391 378 247.291 377 249.191C376.1 251.091 375.2 252.091 375.1 252.091C374.8 251.891 377.8 247.391 378.2 240.991C378.7 234.591 376.2 229.691 376.6 229.591Z" fill="#263238"/>
<path d="M259.6 278.591C259.6 278.591 231.2 297.591 223.7 331.991C217.8 358.991 201.7 501.891 201.7 501.891L173.5 556.691L191.9 600.491C207.7 601.591 223.3 597.091 236.1 587.891L248.5 578.891L271.2 545.191L259.6 278.591Z" fill="#EBEBEB"/>
<path d="M307.8 253.291L259.6 278.591L248.2 315.891L238.1 424.291L257.2 551.391L223.7 657.791L281.4 658.291L282.8 595.891L288.6 393.891L294.2 265.191L307.8 253.291Z" fill="#EBEBEB"/>
<path d="M284.5 421.691C284.433 421.691 284.133 421.191 283.6 420.191C283 419.125 282.2 417.658 281.2 415.791C280.2 413.791 279.2 411.291 277.9 408.491C277.4 407.091 276.9 405.491 276.3 403.791C275.7 402.191 275.1 400.391 274.6 398.491C270 383.491 267 361.891 267.7 338.091C267.7 336.225 267.766 334.391 267.9 332.591V332.291L268.2 332.191C271.066 330.925 273.9 329.725 276.7 328.591L276.6 329.491C273.667 327.158 270.833 324.891 268.1 322.691L267.9 322.591V322.391C267.5 313.391 269.7 305.291 271.8 298.291C273.9 291.191 276.2 285.091 278.3 280.091C280.3 275.091 282.1 271.191 283.3 268.591C283.966 267.258 284.466 266.258 284.8 265.591C285.2 264.858 285.4 264.491 285.4 264.491C285.4 264.558 285.266 264.925 285 265.591C284.666 266.391 284.2 267.425 283.6 268.691C282.5 271.391 280.8 275.291 278.8 280.391C276.9 285.391 274.6 291.491 272.6 298.491C270.6 305.491 268.5 313.591 268.9 322.291L268.7 321.891C271.433 324.091 274.266 326.358 277.2 328.691L277.9 329.191L277.1 329.591C274.3 330.725 271.467 331.891 268.6 333.091L269 332.691C268.866 334.491 268.766 336.291 268.7 338.091C268.1 361.891 270.9 383.391 275.3 398.291C275.7 400.191 276.4 401.891 276.9 403.591C277.5 405.291 277.9 406.891 278.5 408.291C279.7 411.091 280.6 413.591 281.5 415.591C282.433 417.458 283.166 418.958 283.7 420.091C284.233 421.158 284.5 421.691 284.5 421.691Z" fill="#263238"/>
<path d="M246.6 497.591C246.6 497.591 246.466 497.058 246.2 495.991C245.866 494.858 245.466 493.358 245 491.491C244.5 489.491 244 487.091 243.4 484.291C242.8 481.391 242.1 478.191 241.5 474.591C240.9 470.991 240.2 467.091 239.7 462.791C239 458.591 238.6 453.991 238.1 449.291C237.2 439.691 236.6 429.091 236.6 417.991C236.7 406.791 237.3 396.291 238.2 386.691C238.7 381.891 239.2 377.291 239.9 373.091C240.4 368.891 241.1 364.891 241.7 361.291C242.3 357.791 243.1 354.491 243.6 351.691C244.2 348.891 244.8 346.391 245.3 344.491C245.766 342.558 246.166 341.024 246.5 339.891C246.766 338.891 246.9 338.391 246.9 338.391C246.966 338.391 246.9 338.924 246.7 339.991C246.433 341.124 246.1 342.658 245.7 344.591C245.3 346.491 244.7 348.991 244.2 351.791C243.7 354.691 243 357.891 242.5 361.491C241.9 365.091 241.2 368.991 240.7 373.191C240.1 377.391 239.7 381.991 239.2 386.791C238.3 396.291 237.7 406.891 237.7 417.991C237.7 429.091 238.2 439.591 239 449.191C239.5 453.891 239.9 458.491 240.5 462.691C241 466.991 241.7 470.891 242.3 474.491C242.8 478.091 243.5 481.291 244 484.091C244.5 486.991 245 489.391 245.4 491.391C245.8 493.324 246.133 494.858 246.4 495.991C246.6 497.058 246.666 497.591 246.6 497.591Z" fill="#263238"/>
<path d="M259.7 595.191C259.8 595.191 259 597.091 257.3 599.991C255.7 602.891 253.2 606.791 249.9 610.691C246.7 614.691 243.4 617.891 240.9 620.091C238.4 622.191 236.7 623.391 236.6 623.291C236.5 623.191 238 621.791 240.4 619.491C242.8 617.191 245.9 613.891 249.1 610.091C252.3 606.191 254.9 602.391 256.7 599.591C258.5 596.891 259.5 595.091 259.7 595.191Z" fill="#263238"/>
<path d="M481.2 275.491C501.8 283.391 517.1 301.091 522 322.691C537.8 392.191 564.7 484.691 565.2 514.491C565.7 552.491 549.1 578.491 527.4 583.291C510.2 587.091 354.8 578.591 354.8 578.591L347.5 520.691L473.4 502.091L456.2 405.791L473.2 272.391L481.2 275.491Z" fill="#EBEBEB"/>
<path d="M473.2 272.391L438.4 258.091L401.7 236.591L401.5 242.891C406 250.591 407.5 259.691 405.8 268.391L375.3 427.791L382.2 544.191L396.4 658.291H506.9L456.2 538.991L474.1 378.191L473.2 272.391Z" fill="#EBEBEB"/>
<path d="M505.5 584.291C505.5 584.291 505.233 584.324 504.7 584.391C504.166 584.458 503.433 584.524 502.5 584.591C500.5 584.791 497.6 584.791 493.9 584.891C486.4 584.891 475.5 584.691 462 584.291C434.9 583.391 397.3 581.591 354.7 579.091H354.3L354.2 578.691C353.4 571.791 352.5 564.491 351.5 557.091C350 544.591 348.4 532.391 347 520.691L346.9 520.191H347.4C385.9 514.591 419.5 509.691 443.6 506.191C455.5 504.491 465.1 503.091 471.8 502.191C475.066 501.724 477.6 501.391 479.4 501.191C480.2 501.058 480.833 500.958 481.3 500.891C481.766 500.824 482 500.824 482 500.891C482 500.891 481.8 500.924 481.4 500.991C480.866 501.058 480.2 501.158 479.4 501.291C477.6 501.624 475.066 502.024 471.8 502.491C465.2 503.591 455.6 504.991 443.7 506.791C419.6 510.391 386 515.391 347.6 521.191L348 520.591C349.5 532.291 351 544.491 352.6 556.991C353.5 564.391 354.4 571.591 355.3 578.491L354.8 578.091C397.3 580.591 435 582.491 462 583.591C475.5 584.091 486.4 584.391 493.9 584.491C497.6 584.491 500.5 584.591 502.5 584.391C503.433 584.324 504.166 584.291 504.7 584.291C505.233 584.291 505.5 584.291 505.5 584.291Z" fill="#263238"/>
<path d="M455.1 396.091C455.167 396.091 455.267 396.424 455.4 397.091C455.6 397.958 455.8 398.991 456 400.191C456.5 402.991 457.2 406.891 458.1 411.591C459.8 421.391 462.1 434.591 464.7 449.191C467.1 463.791 469.3 477.091 470.9 486.891C471.7 491.591 472.3 495.391 472.7 498.291C472.9 499.558 473.066 500.591 473.2 501.391C473.266 502.124 473.266 502.491 473.2 502.491C473.2 502.491 473.1 502.124 472.9 501.391C472.767 500.591 472.567 499.591 472.3 498.391C471.8 495.491 471.1 491.691 470.2 486.991C468.5 477.391 466.1 464.091 463.6 449.391C461.1 434.691 458.9 421.391 457.4 411.691C456.7 406.991 456.1 403.091 455.6 400.291C455.467 399.024 455.333 397.991 455.2 397.191C455.133 396.458 455.1 396.091 455.1 396.091Z" fill="#263238"/>
<path d="M417.7 247.791C417.7 247.791 417.766 247.924 417.9 248.191C417.966 248.524 418.066 248.924 418.2 249.391C418.4 250.391 418.9 251.891 419.3 253.891C420.2 257.891 421.2 263.691 421.9 271.091C422.7 278.391 423 287.291 422.6 297.191C422.3 307.191 421.2 318.191 419.7 329.791V330.191L419.3 330.291C415.7 330.891 411.8 331.691 407.9 332.391L408.3 331.691C409 333.391 409.6 335.291 410.1 337.291C413.8 350.791 412.2 364.391 408.8 375.891C405.4 387.391 400.2 396.991 395.5 404.691C390.7 412.391 386.4 418.291 383.5 422.391C382.033 424.391 380.866 425.958 380 427.091C379.666 427.558 379.366 427.958 379.1 428.291C378.9 428.558 378.8 428.691 378.8 428.691C378.733 428.691 378.8 428.524 379 428.191C379.2 427.858 379.5 427.458 379.9 426.991C380.7 425.791 381.766 424.191 383.1 422.191C386 417.991 390.2 411.991 394.8 404.291C399.4 396.591 404.6 386.991 407.9 375.591C411.2 364.291 412.8 350.791 409.1 337.491C408.6 335.591 408 333.791 407.3 332.091L407.1 331.491L407.7 331.391C411.6 330.591 415.5 329.891 419.1 329.291L418.7 329.691C420.2 318.091 421.3 307.091 421.7 297.191C422.1 287.291 421.9 278.491 421.3 271.091C420.7 263.791 419.7 257.991 418.9 253.991C418.6 251.991 418.2 250.491 418 249.391C417.933 248.924 417.866 248.558 417.8 248.291C417.733 248.024 417.7 247.858 417.7 247.791Z" fill="#263238"/>
<path d="M417.7 411.291V385.891C417.7 385.891 418 379.591 412.8 380.891C407.5 382.191 408.5 392.091 408.5 392.091C408.5 392.091 407.5 430.791 409.8 430.391C412.1 430.091 413 427.091 413 427.091V412.291L417.7 411.291Z" fill="#6F2ADF"/>
<path d="M439.7 412.891C439.7 413.191 433.6 413.391 426.1 413.391C418.5 413.391 412.4 413.191 412.4 412.891C412.4 412.591 418.5 412.291 426.1 412.291C433.6 412.291 439.7 412.591 439.7 412.891Z" fill="#263238"/>
<path d="M490 290.491C490 290.591 489 290.991 487.1 291.591C485.3 292.291 482.7 293.291 479.6 294.891C473.4 297.991 465.4 303.691 459.1 312.291C457.6 314.391 456.2 316.591 455.1 318.791C454.1 321.091 453.3 323.291 452.7 325.491C451.5 329.991 451 334.091 450.7 337.591C450.4 340.991 450.3 343.891 450.3 345.791C450.3 347.791 450.3 348.791 450.2 348.791C450.2 348.791 450 347.791 449.9 345.791C449.8 343.891 449.7 340.991 450 337.491C450.2 333.991 450.6 329.791 451.8 325.291C452.3 322.991 453.2 320.691 454.2 318.391C455.3 316.091 456.7 313.791 458.3 311.691C464.7 302.891 472.9 297.191 479.3 294.191C482.4 292.691 485.1 291.791 487 291.191C488.9 290.691 490 290.491 490 290.491Z" fill="#263238"/>
<path d="M41.7998 501.891L223.7 569.191L377 592.691L194.7 503.791L41.7998 501.891Z" fill="#263238"/>
<path d="M119.6 574.491C118.2 564.791 114.9 555.391 109.9 546.991C109 545.291 107.9 543.591 107.5 541.791C107 539.891 107.2 537.791 108.5 536.391C110.8 533.791 115.1 534.891 118 536.891C123.9 540.791 127.9 547.291 130.2 553.991C132.5 560.791 133.4 567.891 134.2 574.991" fill="#FFBE9D"/>
<path d="M190.5 557.191H181.5C179.7 555.291 176.9 553.591 173.5 552.591C171.5 551.991 169.4 553.191 167.6 554.991C171.6 548.291 176 540.991 176.8 538.991C178.4 535.091 174.8 532.091 169 532.091C163.1 532.091 137.4 568.591 137.4 568.591C137.4 568.591 153.4 539.291 154.9 534.791C158.8 523.591 146.6 522.791 142.1 528.191C136.6 534.891 114.3 568.591 114.3 568.591C114.3 568.591 110.1 575.391 113 581.891C115.9 588.491 124.4 585.891 124.4 585.891C124.4 585.891 124.3 591.491 130.4 594.891C136.9 598.491 145.5 594.291 145.5 594.291L178.8 601.791C178.8 601.791 184 601.291 190.8 600.591C207.6 598.891 221.2 585.991 223.7 569.191L190.5 557.191Z" fill="#FFBE9D"/>
<path d="M168.1 554.491C168.5 554.691 164 561.691 158.3 569.991C155.4 574.191 152.8 577.891 150.8 580.591C148.8 583.291 147.5 584.891 147.4 584.791C147.3 584.691 148.4 582.991 150.2 580.191C152 577.391 154.6 573.591 157.4 569.391C160.3 565.191 163 561.491 164.9 558.791C165.766 557.591 166.533 556.524 167.2 555.591C167.8 554.791 168 554.491 168.1 554.491Z" fill="#EB996E"/>
<path d="M166.1 591.591C166 591.491 167.1 589.391 169.1 586.091C171 582.891 173.8 578.391 176.9 573.391C178.4 570.991 179.9 568.591 181.1 566.391C182.4 564.291 182.3 561.991 181.9 560.291C180.9 556.591 178.8 555.091 179 554.991C179.1 554.891 179.6 555.191 180.3 555.991C181 556.791 182 558.191 182.6 560.091C183.1 561.891 183.3 564.491 182 566.891C180.8 569.091 179.3 571.491 177.8 573.991C174.7 578.991 171.8 583.391 169.7 586.491C167.5 589.691 166.2 591.691 166.1 591.591Z" fill="#EB996E"/>
<path d="M183.6 594.891C183.5 594.891 184 592.791 185.4 589.691C186.133 588.024 186.933 586.224 187.8 584.291C188.6 582.291 189.6 579.991 190.2 577.591C190.8 575.191 190.4 572.691 189.1 571.091C188.5 570.291 187.6 569.791 186.8 569.391C185.9 568.991 185 568.691 184.3 568.691C182.8 568.791 181.5 569.591 180.7 569.891C179.9 570.391 179.4 570.591 179.3 570.491C179.3 570.391 179.7 570.091 180.5 569.591C180.9 569.324 181.4 569.024 182 568.691C182.6 568.391 183.3 567.991 184.3 567.891C185.2 567.891 186.2 568.191 187.1 568.591C188 568.991 189.1 569.491 189.9 570.491C191.4 572.391 191.8 575.191 191.2 577.791C190.6 580.391 189.5 582.591 188.6 584.691C187.7 586.691 186.8 588.491 186 589.991C184.5 592.991 183.7 594.891 183.6 594.891Z" fill="#EB996E"/>
<path d="M189.7 563.391C189.8 563.391 190.3 563.491 191.1 563.791C192 564.191 193.3 564.891 194.6 565.891C197.4 567.891 200.6 571.691 201.8 576.891C202.9 582.191 201.6 586.991 200 589.991C199.2 591.491 198.4 592.591 197.7 593.291C197.1 593.991 196.7 594.391 196.6 594.291C196.5 594.191 198 592.691 199.3 589.691C200.7 586.691 201.9 582.091 200.8 577.191C199.7 572.291 196.7 568.491 194.2 566.491C191.6 564.291 189.7 563.591 189.7 563.391Z" fill="#EB996E"/>
<path d="M131.1 544.291C131.4 544.391 128 549.791 123.6 556.291C119.2 562.791 115.5 567.991 115.2 567.791C115 567.691 118.3 562.291 122.7 555.791C127.1 549.291 130.9 544.091 131.1 544.291Z" fill="#EB996E"/>
<path d="M346.9 522.791L326.1 518.091L306.2 499.291C303.7 496.991 300.6 495.691 297.3 495.491L260.9 493.391C257.3 493.191 253.7 494.391 251 496.691L225 518.691L338.3 573.891L353.9 575.291L346.9 522.791Z" fill="#FFBE9D"/>
<path d="M285.3 513.091C285.3 513.291 282.6 512.791 278.3 512.291C274.1 511.791 267.9 511.191 261.9 513.991C258.9 515.291 256.3 517.191 254 518.891C251.7 520.591 249.7 522.191 247.8 523.391C246 524.691 244.5 525.491 243.3 525.991C242.2 526.491 241.6 526.791 241.6 526.691C241.5 526.491 243.9 525.391 247.4 522.791C249.2 521.491 251.2 519.891 253.4 518.091C255.7 516.391 258.3 514.391 261.4 512.991C264.5 511.591 267.8 510.991 270.7 510.891C273.7 510.891 276.3 511.191 278.4 511.491C280.6 511.891 282.3 512.291 283.5 512.591C284.7 512.891 285.3 513.091 285.3 513.091Z" fill="#EB996E"/>
<path d="M292.8 533.391C292.7 533.491 291.3 532.891 288.9 532.591C286.4 532.291 283 532.591 279.5 533.891C276 535.191 273.1 536.991 271 538.291C268.8 539.591 267.5 540.391 267.4 540.291C267.3 540.191 268.5 539.191 270.5 537.691C272.6 536.291 275.5 534.291 279.2 532.991C282.8 531.591 286.5 531.391 289 531.891C291.5 532.391 292.8 533.291 292.8 533.391Z" fill="#EB996E"/>
<path d="M339.6 536.691C339.3 536.891 336.4 532.491 332.5 527.391C328.7 522.191 325.3 518.191 325.6 517.991C325.8 517.791 329.5 521.491 333.3 526.791C337.2 531.991 339.8 536.591 339.6 536.691Z" fill="#EB996E"/>
<path d="M282.3 495.491L328.4 452.591C330.4 450.791 330.2 447.591 328.1 445.891C326.4 444.591 324 444.691 322.5 446.091L268.4 494.591" fill="#E8505B"/>
<g opacity="0.3">
<path d="M282.3 495.491L328.4 452.591C330.4 450.791 330.2 447.591 328.1 445.891C326.4 444.591 324 444.691 322.5 446.091L268.4 494.591" fill="black"/>
</g>
<path d="M597.9 658.691C597.9 658.891 464.062 659.191 298.95 659.191C133.838 659.191 0 658.891 0 658.691C0 658.391 133.838 658.091 298.95 658.091C464.062 658.091 597.9 658.391 597.9 658.691Z" fill="#263238"/>
</svg>
