<svg width="528" height="696" viewBox="0 0 528 696" fill="none" xmlns="http://www.w3.org/2000/svg">
<path d="M226.3 673.562C249.6 270.062 425.1 220.362 452.6 254.362C510.4 325.462 309.9 548.062 226.3 673.562Z" fill="#9AD4D2"/>
<path d="M433.5 270.262C335.3 384.862 265.2 523.362 231.1 670.362" stroke="#F2CDBF" stroke-width="2" stroke-miterlimit="10" stroke-linecap="round"/>
<path d="M381.7 273.762C387.4 290.662 390.5 308.362 390.9 326.262C409.7 322.162 428.8 319.962 448 319.762" stroke="#F2CDBF" stroke-width="2" stroke-miterlimit="10" stroke-linecap="round"/>
<path d="M314.2 343.662C325.2 362.862 333.4 383.662 338.3 405.262C360.6 400.462 383.4 398.162 406.2 398.362" stroke="#F2CDBF" stroke-width="2" stroke-miterlimit="10" stroke-linecap="round"/>
<path d="M267.6 445.062C276.8 459.562 284.8 474.762 291.3 490.562C312.9 481.862 336.3 477.562 359.5 478.262" stroke="#F2CDBF" stroke-width="2" stroke-miterlimit="10" stroke-linecap="round"/>
<path d="M311.6 542.462C297.4 541.462 283.1 542.462 269.2 545.662C265.6 534.162 260.5 523.262 254.1 513.162" stroke="#F2CDBF" stroke-width="2" stroke-miterlimit="10" stroke-linecap="round"/>
<path d="M226.3 673.562C355.3 468.162 520 400.462 527.5 474.662C537.8 577.462 315.4 644.562 226.3 673.562Z" fill="#88CCCC"/>
<path d="M507 481.962C405.4 530.462 311.4 594.762 229.5 671.962" stroke="#F2CDBF" stroke-width="2" stroke-miterlimit="10" stroke-linecap="round"/>
<path d="M470.5 460.562C470.9 474.862 469.5 489.262 466.4 503.162C480.5 504.562 494.1 510.162 505.1 519.062" stroke="#F2CDBF" stroke-width="2" stroke-miterlimit="10" stroke-linecap="round"/>
<path d="M401.7 492.262C404.4 507.362 405.4 522.762 404.8 538.062C423.9 539.762 442.5 546.362 458.4 556.962" stroke="#F2CDBF" stroke-width="2" stroke-miterlimit="10" stroke-linecap="round"/>
<path d="M336.6 539.662C341.9 551.462 344.3 564.462 343.8 577.362C361.4 578.762 378.7 584.362 393.8 593.562" stroke="#F2CDBF" stroke-width="2" stroke-miterlimit="10" stroke-linecap="round"/>
<path d="M0 351.162H286V381.162H0V351.162Z" fill="#F2CDBF"/>
<path d="M277.6 381.162V673.562H252.2V657.562H33.7V673.562H8.39996V381.162H277.6Z" fill="#F2CDBF"/>
<path d="M8.39996 381.162H277.6V387.162H8.39996V381.162Z" fill="#D4A59B"/>
<path d="M35.4 407.362H249.9V472.362H35.4V407.362Z" fill="#D4A59B"/>
<path d="M33.2 401.362H252.1V466.362H33.2V401.362Z" fill="#FADED2"/>
<path d="M35.4 489.362H249.9V554.362H35.4V489.362Z" fill="#D4A59B"/>
<path d="M33.2 483.362H252.1V548.362H33.2V483.362Z" fill="#FADED2"/>
<path d="M35.4 571.362H249.9V636.362H35.4V571.362Z" fill="#D4A59B"/>
<path d="M33.2 565.362H252.1V630.362H33.2V565.362Z" fill="#FADED2"/>
<path d="M70.2 336.662V291.162H82.7V336.662C82.7 339.662 80.2 342.162 77.2 342.162H75.7C72.6 342.162 70.2 339.662 70.2 336.662Z" fill="white"/>
<path d="M67.9 289.662C67.9 288.862 68.6 288.262 69.4 288.262H83.5C84.3 288.262 84.9 288.862 84.9 289.662C84.9 290.462 84.3 291.162 83.5 291.162H69.4C68.6 291.062 67.9 290.462 67.9 289.662Z" fill="white"/>
<path d="M72.2 335.862V306.162H80.7V335.862C80.7 338.262 78.8 340.162 76.4 340.162C74.1 340.162 72.2 338.262 72.2 335.862Z" fill="#F0D3D8"/>
<path d="M95.2 336.662V291.162H107.7V336.662C107.7 339.662 105.2 342.162 102.2 342.162H100.7C97.6 342.162 95.2 339.662 95.2 336.662Z" fill="white"/>
<path d="M92.9 289.662C92.9 288.862 93.6 288.262 94.4 288.262H108.5C109.3 288.262 109.9 288.862 109.9 289.662C109.9 290.462 109.3 291.162 108.5 291.162H94.4C93.6 291.062 92.9 290.462 92.9 289.662Z" fill="white"/>
<path d="M97.2 335.862V306.162H105.7V335.862C105.7 338.262 103.8 340.162 101.4 340.162C99.1 340.162 97.2 338.262 97.2 335.862Z" fill="#F0D3D8"/>
<path d="M121.7 336.662V291.162H134.2V336.662C134.2 339.662 131.7 342.162 128.7 342.162H127.2C124.1 342.162 121.7 339.662 121.7 336.662Z" fill="white"/>
<path d="M119.4 289.662C119.4 288.862 120.1 288.262 120.9 288.262H135C135.8 288.262 136.4 288.862 136.4 289.662C136.4 290.462 135.8 291.162 135 291.162H120.9C120.1 291.062 119.4 290.462 119.4 289.662Z" fill="white"/>
<path d="M123.7 335.862V306.162H132.2V335.862C132.2 338.262 130.3 340.162 127.9 340.162C125.6 340.162 123.7 338.262 123.7 335.862Z" fill="#F0D3D8"/>
<path d="M148.7 336.662V291.162H161.2V336.662C161.2 339.662 158.7 342.162 155.7 342.162H154.2C151.1 342.162 148.7 339.662 148.7 336.662Z" fill="white"/>
<path d="M146.4 289.662C146.4 288.862 147.1 288.262 147.9 288.262H162C162.8 288.262 163.4 288.862 163.4 289.662C163.4 290.462 162.8 291.162 162 291.162H147.9C147.1 291.062 146.4 290.462 146.4 289.662Z" fill="white"/>
<path d="M150.7 335.862V306.162H159.2V335.862C159.2 338.262 157.3 340.162 154.9 340.162C152.6 340.162 150.7 338.262 150.7 335.862Z" fill="#F0D3D8"/>
<path d="M177.7 336.662V291.162H190.2V336.662C190.2 339.662 187.7 342.162 184.7 342.162H183.2C180.1 342.162 177.7 339.662 177.7 336.662Z" fill="white"/>
<path d="M175.4 289.662C175.4 288.862 176.1 288.262 176.9 288.262H191C191.8 288.262 192.4 288.862 192.4 289.662C192.4 290.462 191.8 291.162 191 291.162H176.9C176.1 291.062 175.4 290.462 175.4 289.662Z" fill="white"/>
<path d="M179.7 335.862V306.162H188.2V335.862C188.2 338.262 186.3 340.162 183.9 340.162C181.6 340.162 179.7 338.262 179.7 335.862Z" fill="#F0D3D8"/>
<path d="M57.8 293.762H211.8V297.762H57.8V293.762Z" fill="#A7C2D9"/>
<path d="M49.8 341.162H221.8V351.162H49.8V341.162Z" fill="#D49BA0"/>
<path d="M56.6 288.262H61V346.162H56.6V288.262Z" fill="#D49BA0"/>
<path d="M209.2 288.262H213.6V346.162H209.2V288.262Z" fill="#D49BA0"/>
<path d="M223 36.162C222.1 20.362 233.5 4.76204 248.8 0.962039C264.1 -2.93796 281.6 5.36204 288.3 19.662C294 31.962 292 46.262 289.3 59.462C286.5 72.762 283.1 86.462 286.3 99.562C288.9 110.662 296.1 120.362 297.5 131.662C299.4 147.162 288.5 163.362 273.4 167.262C264.8 169.462 253.7 166.762 251 158.362C248.5 150.562 254.3 142.262 253.1 134.162C252.1 127.362 246.6 122.262 242 117.162C225.2 98.262 225 70.962 223 36.162Z" fill="#381B07"/>
<path d="M76.1 235.362C68.5 226.662 62.9 210.862 62.9 205.562C62.9 199.362 61.9 192.962 64.1 187.062C65.2 184.062 66.9 181.262 68.7 178.562C70.6334 175.495 72.6 172.395 74.6 169.262C75.4 167.962 76.4 166.662 77.8 166.262C80.3 165.562 82.5 168.362 82.4 170.962C82.3 173.462 80.6 175.662 77.7 177.862C78.8 173.262 81.2 168.862 84.4 165.362C85.3 164.462 86.5 163.562 87.7 163.862C89.7 164.262 89.7 167.162 89.1 169.162C87.8 174.162 86.4 179.262 85.3 183.562C89.6 191.662 89.2 201.362 89.3 210.562C89.4 219.762 90.3 229.762 96.4 236.662C90.5 239.262 83.7 229.062 76.1 235.362Z" fill="#DB8E62"/>
<path d="M75.2 234.262C75.2 234.262 95.5 303.662 110.9 305.062C129.4 306.862 144.5 289.662 144.5 289.662L156.6 227.562L129.2 211.062L114 260.862L92.4 236.362L75.2 234.262Z" fill="#DB8E62"/>
<path d="M166.7 237.862C151.5 232.162 136.4 226.562 121.3 220.762C125.4 201.062 131.1 177.362 136.1 169.862C145.5 155.662 160.6 154.962 160.6 154.962L167.5 175.362L166.7 237.462C166.7 237.462 166.7 237.595 166.7 237.862Z" fill="#1D9FB3"/>
<path d="M152.7 278.062L108.5 163.862L54.3 177.862L104.5 305.062L152.7 278.062Z" fill="#B23F37"/>
<path d="M145.4 271.762L105.5 170.062L61.3 182.062L104.9 293.362L145.4 271.762Z" fill="#EBF5FF"/>
<path d="M91.3 167.362L94.1 174.762L76.8 179.562L73.7 171.962L91.3 167.362Z" fill="#678CA8"/>
<path d="M126.6 691.062C126.8 698.562 205.4 696.062 209 689.862C211.3 685.862 207 675.662 203.8 669.062C202.1 665.562 200.6 663.062 200.6 663.062L190.6 649.062L182.6 648.862C164.9 659.062 147.3 670.162 136.7 678.862C130.4 684.062 126.5 688.262 126.6 691.062Z" fill="#136D94"/>
<path d="M136.7 678.862C152.9 689.162 190.4 674.762 203.8 669.062C202.1 665.562 200.6 663.062 200.6 663.062L190.6 649.062L182.6 648.862C164.9 659.062 147.3 670.162 136.7 678.862Z" fill="#DB8E62"/>
<path d="M160.8 617.962L163.6 648.662L164.6 659.662L165.3 667.162L197.1 663.862L197.4 658.562V658.462L197.6 652.862L199.4 616.662L199.6 613.062L180.2 615.462L160.8 617.962Z" fill="#DB8E62"/>
<path d="M160.8 617.962L163.6 648.662L179.5 650.662L192.9 652.362L197.6 652.862L199.4 616.662L180.2 615.462L160.8 617.962Z" fill="#CF6E4A"/>
<path d="M138.3 311.262C138.3 311.262 124.6 349.062 127.3 402.862C130 456.662 152.7 644.262 152.7 644.262L209.2 641.662L199.6 399.462L185.9 324.462" fill="#1D9FB3"/>
<path d="M268 690.362C273 695.962 331.2 642.962 329.9 635.962C329.1 631.462 319.2 626.462 312.5 623.562C308.9 621.962 306.2 620.962 306.2 620.962L289.5 616.862L283.3 621.862C276.4 641.062 270.2 661.062 267.8 674.562C266.3 682.462 266.2 688.262 268 690.362Z" fill="#136D94"/>
<path d="M267.8 674.462C286.8 671.762 306 636.562 312.5 623.562C308.9 621.962 306.2 620.962 306.2 620.962L289.5 616.862L283.3 621.862C276.4 641.062 270.2 660.962 267.8 674.462Z" fill="#DB8E62"/>
<path d="M246.6 612.462L259.9 625.462L276.5 641.762L282 647.062L304 623.862L300.7 619.662L291.2 607.262L272.9 583.562L246.6 612.462Z" fill="#DB8E62"/>
<path d="M246.6 612.462L259.9 625.462L291.2 607.262L272.9 583.562L246.6 612.462Z" fill="#CF6E4A"/>
<path d="M130.8 346.762C136.3 362.062 177.7 388.962 177.7 388.962C177.7 388.962 177.3 495.662 178.9 522.562C180.4 549.362 236.1 637.162 236.1 637.162L288.3 590.862C288.3 590.862 247.8 523.162 245.1 507.262C242.3 491.362 259.8 407.762 259.8 373.662C259.8 367.462 259.2 360.962 258.2 354.462C256.2 340.262 252.3 326.362 248.9 316.062C245.6 305.762 242.8 299.062 242.8 299.062C242.8 299.062 214.4 303.162 186.1 311.062C160.2 318.362 134.4 328.762 130.4 342.162C130 343.462 130.2 345.062 130.8 346.762Z" fill="#25B2C2"/>
<path d="M130.8 346.762C144.6 354.962 159 362.162 173.8 368.262C174.7 365.762 175.6 363.262 176.9 360.862C178.2 363.662 179.5 366.462 181.1 370.262C206.6 363.862 232.4 358.462 258.3 354.462C256.2 340.262 252.3 326.362 249 316.062C228.067 314.129 207.1 312.462 186.1 311.062C160.2 318.362 134.4 328.762 130.4 342.162C130 343.462 130.2 345.062 130.8 346.762Z" fill="#1D9FB3"/>
<path d="M275.8 171.562C273.8 159.562 228.4 144.062 212.9 145.462C179.8 148.562 155.7 154.562 148.2 159.262C140.6 164.062 133.7 208.262 133.7 220.662C133.7 235.262 138.7 263.862 137.4 275.462C134.8 297.862 121.2 345.362 121.2 345.362L171.2 362.862L177.4 351.962L183 365.762L265.6 346.862C265.6 346.862 259.3 281.062 259.3 269.562C259.3 258.462 278.3 186.962 275.8 171.562Z" fill="#27B8C1"/>
<path d="M198.6 179.362C182 265.862 181.1 290.562 177.3 351.362" stroke="#51DBDB" stroke-width="2" stroke-miterlimit="10" stroke-linecap="round"/>
<path d="M200.8 193.662C202.3 193.662 203.6 194.962 203.6 196.462C203.6 198.062 202.3 199.262 200.8 199.262C199.3 199.262 198 198.062 198 196.462C198 194.962 199.3 193.662 200.8 193.662Z" fill="#136D94"/>
<path d="M193.8 231.562C195.4 231.562 196.6 232.762 196.6 234.262C196.6 235.862 195.4 237.062 193.8 237.062C192.3 237.062 191.1 235.862 191.1 234.262C191.1 232.762 192.3 231.562 193.8 231.562Z" fill="#136D94"/>
<path d="M188.5 271.362C190 271.362 191.3 272.662 191.3 274.162C191.3 275.662 190 276.962 188.5 276.962C186.9 276.962 185.7 275.662 185.7 274.162C185.7 272.662 186.9 271.362 188.5 271.362Z" fill="#136D94"/>
<path d="M185.7 317.062C187.2 317.062 188.5 318.362 188.5 319.862C188.5 321.362 187.2 322.662 185.7 322.662C184.2 322.662 182.9 321.362 182.9 319.862C182.9 318.362 184.2 317.062 185.7 317.062Z" fill="#136D94"/>
<path d="M102.2 232.862L110.5 233.562H111.1L166.6 219.062C170.4 216.962 171.1 213.862 170.2 211.362C169 208.162 165.3 206.662 162.2 207.862L109.2 226.562L108.7 227.062L102.2 232.862Z" fill="#136D94"/>
<path d="M102.2 232.862L104.5 233.062L110.5 233.562C110.3 233.362 110.1 233.262 109.9 233.062C109.2 232.362 108.8 231.362 109.1 230.362C109.2 229.962 109.5 229.562 109.3 229.162C109.2 229.062 109.1 228.862 109 228.762C108.6 228.262 108.5 227.562 108.6 227.062L103.9 231.362L102.2 232.862Z" fill="#D68A5A"/>
<path d="M102.2 232.862L104.5 233.062C104.233 232.795 104.067 232.495 104 232.162C103.933 231.895 103.9 231.629 103.9 231.362L102.2 232.862Z" fill="#24151A"/>
<path d="M167.8 245.262C162.3 235.062 156.9 224.962 151.1 214.862C146.8 211.462 141.9 208.962 136.9 207.062C131 208.962 125.5 212.462 120.9 217.262C119.8 218.462 118.6 220.062 119.1 221.662C119.5 222.862 120.7 223.362 121.8 223.362C122.9 223.262 123.9 222.662 124.9 222.062C128 220.262 131 218.562 134.5 216.862C135.5 217.662 136.4 218.462 137.2 219.362C135.1 219.362 133.1 219.462 130.7 220.162C126.767 221.962 122.933 224.062 119.2 226.462C118.2 227.062 117.1 227.962 116.9 229.262C116.8 230.362 117.5 231.362 118.4 231.762C119.2 232.262 120.2 232.262 121.2 232.162C124.6 231.962 128.1 230.662 131 228.562C132.1 228.862 133.3 229.262 134.2 229.762C132.7 230.062 131.2 230.362 129.8 231.062C128.4 231.762 127.1 232.862 126.5 234.462C125.8 236.062 126.1 238.062 126.9 239.762C126.1 240.062 125.6 241.062 125.7 241.962C125.7 242.962 126.1 243.762 126.5 244.562C127.367 246.295 128.3 247.929 129.3 249.462C130.3 250.962 131.4 252.362 133 253.062C134.5 253.662 136.5 253.162 137.6 251.262C141.7 258.362 149.4 262.562 156.9 261.762C161.3 256.962 165.1 251.262 167.8 245.262Z" fill="#DB8E62"/>
<path d="M144 220.562C142 219.662 139.9 219.462 137.8 219.162" stroke="#A8473E" stroke-miterlimit="10" stroke-linecap="round"/>
<path d="M140 229.262C138 229.062 136 229.162 134.5 229.462" stroke="#A8473E" stroke-miterlimit="10" stroke-linecap="round"/>
<path d="M127.2 239.062C129.9 237.562 134.5 236.662 137.7 237.062" stroke="#A8473E" stroke-miterlimit="10" stroke-linecap="round"/>
<path d="M136.7 250.762C135.7 249.162 134.9 246.562 134.5 244.762" stroke="#A8473E" stroke-miterlimit="10" stroke-linecap="round"/>
<path d="M135.1 247.962C133.9 248.162 132.5 248.362 131.5 248.262" stroke="#A8473E" stroke-miterlimit="10" stroke-linecap="round"/>
<path d="M153.5 259.162C153.5 259.162 222.6 317.862 241.3 311.262C248.7 308.562 256.1 287.062 261.4 267.062C266.3 248.562 269.5 231.462 269.5 231.462L230.4 214.962C230.4 214.962 227.8 232.662 225.1 247.162C223.4 256.862 221.6 265.062 220.7 265.362C216.7 266.462 165.9 243.862 165.9 243.862L153.5 259.162Z" fill="#DB8E62"/>
<path d="M225.1 247.162C234.5 253.262 249.1 262.262 261.4 267.062C266.3 248.662 269.5 231.462 269.5 231.462L230.4 214.962C230.4 214.962 227.8 232.662 225.1 247.162Z" fill="#CF6E4A"/>
<path d="M269.5 252.362C252.4 249.062 238.8 246.262 222.4 240.362C224.7 221.162 230.1 186.362 234.5 175.662C237.7 168.062 249.9 154.662 263.7 160.462C277.6 166.262 282.9 175.362 281.4 199.362C280.9 207.962 272.7 234.862 269.5 252.362Z" fill="#32C9CF"/>
<path d="M186 154.262C186 154.262 190 172.462 197.7 177.762C205.5 183.062 234.9 150.362 234.9 150.362C229.8 145.662 228.6 136.362 228.7 128.162C228.7 119.862 230.1 112.662 230.1 112.662L194.3 122.962C194.7 131.862 194 138.162 192.8 142.762C190.4 152.762 186 154.262 186 154.262Z" fill="#DB8E62"/>
<path d="M192.9 142.762C209.4 146.262 222 135.762 228.7 128.162C228.7 119.862 230.1 112.662 230.1 112.662L194.3 122.962C194.7 131.862 194 138.162 192.9 142.762Z" fill="#CF6E4A"/>
<path d="M199.1 178.462C198.6 178.362 200.9 166.062 202.1 164.962C203.2 163.962 231.4 139.262 233.1 140.162C235.6 141.462 239.6 149.262 239.6 149.262C239.6 149.262 233.8 157.162 222.9 166.062C215.4 172.162 203.4 179.162 199.1 178.462Z" fill="#136D94"/>
<path d="M199.1 178.362C199.7 177.762 198.4 165.562 197.7 164.462C195.4 160.762 191.4 151.062 191.4 144.562C191.4 144.562 184.3 147.262 183.4 148.762C182.5 150.362 186.4 161.962 189.4 167.462C194.4 176.662 198.6 178.862 199.1 178.362Z" fill="#136D94"/>
<path d="M150.2 93.262C150.9 87.362 158.1 83.262 166.2 84.162C174.4 85.062 180.5 90.662 179.8 96.662C179.1 102.662 172 106.662 163.8 105.762C155.6 104.862 149.5 99.262 150.2 93.262Z" fill="#CF6E4A"/>
<path d="M249.8 77.8621C249.8 49.6621 230.3 26.7621 206.3 26.7621C182.2 26.7621 162.7 49.6621 162.7 77.8621C162.7 106.062 174.7 134.062 199.1 133.062C223.1 132.062 249.8 106.062 249.8 77.8621Z" fill="#DB8E62"/>
<path d="M240.2 89.962C235.1 84.462 231.9 74.062 231.1 69.662C226.3 68.262 220.4 63.562 217.5 57.362C210.1 64.762 182.1 68.862 172.7 66.462C166 74.662 165.8 78.762 163.5 89.262C162 76.462 162.6 63.362 165.5 50.762C183 45.062 200.2 38.262 216.8 30.262C219.6 28.962 223 27.562 225.8 29.162C227.5 30.162 228.4 32.162 229.3 33.962C233.1 41.662 238.5 48.462 245 53.962C246.7 55.362 248.7 56.962 248.7 59.162C248.8 60.662 248 61.962 247.3 63.162C244.2 68.962 244.7 82.862 240.2 89.962Z" fill="#CF6E4A"/>
<path d="M155.3 60.562C155.2 71.262 163.9 93.462 163.9 93.462C163.9 93.462 163.9 75.162 172.2 63.262C189.5 63.262 208.5 62.462 219.1 52.662C222.2 60.462 227.4 64.962 233.8 67.062C233.6 76.762 238 85.862 240.8 93.962C246.2 90.662 250.3 92.062 254.7 86.862C257.3 77.362 260 62.662 259.2 53.462C258.6 46.162 256.6 38.662 252.6 32.462C251.6 30.9954 250.533 29.5954 249.4 28.262C243.2 21.462 233.5 17.462 224.6 19.662C219.7 13.762 212.1 10.262 204.5 9.86202C196.9 9.46202 189.3 11.862 182.7 15.562C169.8 22.962 159.7 34.262 156.4 50.062C155.7 53.462 155.4 56.962 155.3 60.562Z" fill="#412408"/>
<path d="M155.3 60.5621C155.633 59.1621 156.067 57.7954 156.6 56.4621C159.1 49.9621 163.1 44.1621 167.7 38.9621C174.6 30.9621 183.2 24.0621 193.4 21.2621C203.6 18.4621 215.4 20.2621 223 27.5621C232.6 23.4621 244.4 25.6621 252.5 32.4621C251.567 30.9954 250.5 29.5954 249.3 28.2621C243.2 21.4621 233.5 17.4621 224.6 19.6621C219.6 13.7621 212 10.2621 204.5 9.86208C196.9 9.46208 189.3 11.7621 182.7 15.5621C169.8 22.9621 159.7 34.2621 156.4 50.0621C155.733 53.5288 155.367 57.0288 155.3 60.5621Z" fill="#664216"/>
<path d="M247.2 84.662C255.1 82.562 262.8 85.662 264.3 91.462C265.8 97.262 260.5 103.662 252.6 105.662C244.6 107.762 236.9 104.662 235.4 98.862C233.9 93.062 239.2 86.662 247.2 84.662Z" fill="#DB8E62"/>
<path d="M209.2 93.6621C210.3 93.6621 211.1 95.0621 211.1 96.7621C211.1 98.3621 210.3 99.7621 209.2 99.7621C208.2 99.7621 207.3 98.3621 207.3 96.7621C207.3 95.0621 208.2 93.6621 209.2 93.6621Z" fill="#411F00"/>
<path d="M174.3 93.6621C175.4 93.6621 176.2 95.0621 176.2 96.7621C176.2 98.3621 175.4 99.7621 174.3 99.7621C173.3 99.7621 172.4 98.3621 172.4 96.7621C172.4 95.0621 173.3 93.6621 174.3 93.6621Z" fill="#411F00"/>
<path d="M179.9 78.262C176.3 77.062 172.1 77.362 168.7 79.162" stroke="#412408" stroke-width="4" stroke-miterlimit="10" stroke-linecap="round"/>
<path d="M206.3 79.862C210.3 78.062 215.3 78.562 219 81.162" stroke="#412408" stroke-width="4" stroke-miterlimit="10" stroke-linecap="round"/>
<path d="M187.4 99.062C187.1 100.962 187.1 105.662 187.4 107.562" stroke="#A8473E" stroke-width="4" stroke-miterlimit="10" stroke-linecap="round"/>
<path d="M189.5 116.062C194.8 118.162 200.4 116.962 203.2 112.662" stroke="#A8473E" stroke-width="4" stroke-miterlimit="10" stroke-linecap="round"/>
<path d="M27.7 48.7621C43.8 18.8621 75.6 59.0621 75.6 59.0621C75.6 59.0621 107.4 24.6621 123.4 46.9621C140 70.1621 75.6 124.062 75.6 124.062C75.6 124.062 14.1 74.2621 27.7 48.7621Z" fill="#BD73CF"/>
</svg>
