<svg width="564" height="808" viewBox="0 0 564 808" fill="none" xmlns="http://www.w3.org/2000/svg">
<path d="M381.1 800.741C332.9 771.141 318.8 711.74 317.3 657.64C317.1 648.64 315.5 639.241 319.3 631.041C323.1 622.941 332.8 616.941 341.1 620.241C348 622.941 351.4 630.541 355.5 636.741C361 645.041 368.8 651.64 377.9 655.64C383.8 658.34 391 659.641 396.4 656.241C404 651.441 404.2 640.641 403.6 631.741C402.533 615.007 401.433 598.307 400.3 581.64C399.7 572.74 399.1 563.54 401.4 554.84C403.7 546.24 409.3 537.941 417.7 535.041C426.1 532.141 436.9 536.441 439.3 545.041C440.2 548.641 439.7 552.541 440.2 556.241C440.7 559.941 442.6 563.941 446.2 564.741C449.9 565.541 453.3 562.841 455.8 560.041C464.5 550.441 470.1 538.441 475.3 526.441C480.4 514.541 485.4 502.341 493.2 491.941C501 481.541 512.1 473.041 524.9 471.541C537.7 470.041 551.9 477.141 555.9 489.541C559.9 501.941 553.3 515.241 545.9 525.941C534.9 541.841 521.6 556.14 506.6 568.14C503.9 570.34 501 572.641 500.1 576.041C498.5 582.141 504.5 587.74 510.6 589.34C517.4 591.14 524.6 590.041 531.6 590.441C538.7 590.841 546.4 593.441 549.4 599.941C553.7 608.841 546.6 618.94 539.4 625.64C525.1 639.14 508.5 650.141 490.5 657.941C484.1 660.741 477.2 663.341 472.2 668.241C467.2 673.241 464.5 681.441 468 687.541C471.6 693.741 480 695.241 486.8 693.541C493.7 691.841 499.6 687.74 506 684.84C518.1 679.441 534 679.341 542.5 689.441C548.1 696.141 549.2 705.84 547.1 714.34C545 722.84 540.1 730.34 534.8 737.34C516.5 761.64 492.4 781.841 464.4 793.441C436.4 805.141 410.1 809.341 381.1 800.741Z" fill="#F5F5F5"/>
<path d="M393 766.041C399.3 738.341 408.7 708.54 419.7 677.641C422.433 669.974 425.133 662.374 427.8 654.841C430.5 647.441 433.2 640.041 436.3 632.941C442.4 618.741 449.3 605.541 456.2 593.141C463.2 580.84 470.3 569.341 476.9 558.741C483.6 548.041 490.1 538.241 496.3 529.641C508.7 512.141 520.4 499.341 528.8 490.841C533 486.541 536.3 483.341 538.6 481.241C539.733 480.241 540.6 479.441 541.2 478.841C541.8 478.307 542.133 478.041 542.2 478.041C542.2 478.041 541.933 478.341 541.4 478.941C540.733 479.541 539.867 480.374 538.8 481.441C536.6 483.741 533.3 486.941 529.2 491.241C521 499.941 509.5 512.841 497.2 530.241C491.1 538.941 484.7 548.841 478.1 559.441C471.5 570.141 464.5 581.641 457.6 593.941C450.7 606.241 443.8 619.441 437.8 633.541C434.7 640.641 432.1 647.941 429.4 655.441C426.733 662.974 424 670.574 421.2 678.241C410.3 709.041 400.9 738.741 394.5 766.341" fill="#E0E0E0"/>
<path d="M436.8 632.841C436.6 632.841 436.3 631.541 435.6 629.041C435 626.641 434.2 623.041 433.3 618.641C431.5 609.741 429.5 597.441 427.2 583.941C425 570.341 422.7 558.041 420.8 549.341C419.9 544.941 419 541.341 418.5 538.941C417.9 536.441 417.6 535.041 417.7 535.041C417.8 535.041 418.3 536.341 419.1 538.741C419.9 541.141 420.8 544.641 421.9 549.041C424.2 557.741 426.6 570.041 428.9 583.641C431 597.041 433 609.141 434.5 618.341C435.233 622.541 435.833 626.074 436.3 628.941C436.7 631.441 436.9 632.741 436.8 632.841Z" fill="#E0E0E0"/>
<path d="M550.6 604.341C550.6 604.441 549 604.741 546.1 605.141C543.1 605.641 538.9 606.241 533.6 607.141C523.2 608.941 508.8 611.841 493 615.841C477.3 619.841 463.2 624.041 453.1 627.441C448.1 629.041 444 630.441 441.2 631.441C438.4 632.441 436.8 632.941 436.8 632.841C436.7 632.741 438.2 632.041 441 630.841C443.7 629.641 447.7 628.041 452.7 626.241C462.8 622.641 476.9 618.241 492.6 614.241C508.4 610.241 522.9 607.441 533.5 605.941C538.7 605.241 543 604.741 546 604.541C549 604.241 550.6 604.241 550.6 604.341Z" fill="#E0E0E0"/>
<path d="M394.3 763.84C394.233 763.84 393.933 763.374 393.4 762.44C392.8 761.374 392.067 760.04 391.2 758.44C389.3 754.94 386.7 749.74 383.5 743.34C377.1 730.44 368.9 712.44 360.1 692.34C351.3 672.34 343.3 654.24 337.2 641.24C334.2 634.94 331.8 629.74 330 625.94C329.2 624.274 328.533 622.874 328 621.74C327.6 620.74 327.4 620.24 327.4 620.24C327.467 620.24 327.767 620.674 328.3 621.54C328.9 622.674 329.633 624.04 330.5 625.64C332.4 629.14 335.1 634.34 338.3 640.74C344.6 653.64 352.8 671.64 361.6 691.64C370.4 711.74 378.5 729.84 384.5 742.74C387.5 749.04 390 754.24 391.8 758.14C392.533 759.807 393.167 761.207 393.7 762.34C394.167 763.274 394.367 763.774 394.3 763.84Z" fill="#E0E0E0"/>
<path d="M544.4 705.241C544.4 705.307 543.9 705.541 542.9 705.941C541.7 706.407 540.233 707.007 538.5 707.741C534.5 709.341 529.1 711.441 522.5 714.041C508.9 719.341 490.3 726.941 469.7 735.341C449 743.741 430.3 751.141 416.6 756.141C409.8 758.641 404.2 760.641 400.4 761.941C398.6 762.541 397.1 763.041 395.9 763.441C394.833 763.774 394.3 763.907 394.3 763.841C394.3 763.774 394.8 763.541 395.8 763.141C396.933 762.674 398.367 762.074 400.1 761.341C404.2 759.741 409.6 757.641 416.2 755.041C429.8 749.741 448.4 742.141 469 733.741C489.6 725.341 508.4 717.941 522.1 712.941C528.9 710.441 534.5 708.441 538.3 707.141C540.1 706.541 541.6 706.041 542.8 705.641C543.8 705.307 544.333 705.174 544.4 705.241Z" fill="#E0E0E0"/>
<path d="M433.7 170.941C433.4 170.841 434.8 166.641 436.8 161.641C438.8 156.541 440.7 152.641 440.9 152.741C441.2 152.841 439.8 156.941 437.8 162.041C435.8 167.041 434 171.041 433.7 170.941Z" fill="#E0E0E0"/>
<path d="M438.5 172.84C438.3 172.74 439.7 168.541 441.7 163.541C443.7 158.541 445.5 154.541 445.8 154.641C446.1 154.741 444.7 158.94 442.7 163.94C440.7 168.94 438.8 172.94 438.5 172.84Z" fill="#E0E0E0"/>
<path d="M443.4 174.741C443.1 174.641 444.5 170.541 446.5 165.441C448.5 160.441 450.4 156.441 450.7 156.541C450.9 156.641 449.5 160.841 447.5 165.841C445.5 170.941 443.7 174.841 443.4 174.741Z" fill="#E0E0E0"/>
<path d="M448.3 176.741C448 176.641 449.4 172.441 451.4 167.441C453.4 162.341 455.2 158.441 455.5 158.541C455.8 158.641 454.4 162.741 452.4 167.841C450.4 172.841 448.5 176.841 448.3 176.741Z" fill="#E0E0E0"/>
<path d="M453.1 178.641C452.8 178.541 454.3 174.341 456.3 169.341C458.3 164.341 460.1 160.341 460.4 160.441C460.6 160.541 459.2 164.741 457.2 169.741C455.2 174.741 453.4 178.741 453.1 178.641Z" fill="#E0E0E0"/>
<path d="M458 180.54C457.7 180.44 459.1 176.34 461.1 171.24C463.1 166.24 465 162.24 465.2 162.34C465.5 162.44 464.1 166.64 462.1 171.64C460.1 176.74 458.2 180.64 458 180.54Z" fill="#E0E0E0"/>
<path d="M462.8 182.541C462.6 182.441 464 178.241 466 173.241C468 168.141 469.8 164.241 470.1 164.341C470.3 164.441 468.9 168.541 466.9 173.641C464.9 178.641 463.1 182.641 462.8 182.541Z" fill="#E0E0E0"/>
<path d="M467.7 184.441C467.4 184.341 468.8 180.141 470.8 175.141C472.8 170.141 474.7 166.141 474.9 166.241C475.2 166.341 473.8 170.541 471.8 175.541C469.8 180.541 467.9 184.541 467.7 184.441Z" fill="#E0E0E0"/>
<path d="M464.7 189.54C464.6 189.84 456.8 187.04 447.3 183.24C437.8 179.44 430.2 176.14 430.3 175.94C430.4 175.64 438.2 178.44 447.7 182.24C457.2 186.04 464.8 189.34 464.7 189.54Z" fill="#E0E0E0"/>
<path d="M187.9 40.8405C185.8 23.2405 170.9 6.94049 153.3 6.94049C142.9 6.94049 133 12.3405 125.8 19.9405C122.7 23.3405 120.6 25.7405 118.9 28.2405C117.7 25.4405 116.1 22.6405 113.7 18.7405C108.2 9.94049 99.5 2.64049 89.3 0.540491C72 -2.85951 54.3 10.2405 48.7 26.9405C43.1 43.7405 47.8 62.5405 56.9 77.5405C66.1 92.6405 81.9 112.34 111 122.14C131.1 119.54 157.9 101.74 169.9 88.8405C181.8 75.8405 190.1 58.3405 187.9 40.8405Z" fill="#772ED1"/>
<path d="M181.6 72.2405C181.6 72.2405 181.4 72.2405 181 72.2405C180.533 72.2405 179.967 72.2072 179.3 72.1405C177.7 72.0072 175.5 71.8405 172.7 71.6405C167 71.0405 158.8 70.3405 148.7 69.4405L149.2 69.1405C146.3 76.6405 142.9 85.5405 139.2 95.2405L138.6 96.7405L138.2 95.1405C135.1 82.5405 131.7 68.3405 128.1 53.3405C127.033 48.7405 125.967 44.2071 124.9 39.7405L125.9 39.9405C119.4 48.9405 113.2 57.4405 107.6 65.1405L107.4 65.4405L107.1 65.3405C89.8 63.5405 75.3 62.0405 64.9 60.9405C59.9 60.4405 55.8 59.9405 53 59.6405C51.6667 59.4405 50.6 59.3071 49.8 59.2405C49.0667 59.1071 48.7 59.0405 48.7 59.0405C48.7667 59.0405 49.1333 59.0405 49.8 59.0405C50.6 59.1071 51.6667 59.2072 53 59.3405C55.9 59.5405 59.9 59.9405 65 60.3405C75.3 61.3405 89.9 62.7405 107.2 64.3405L106.7 64.5405C112.3 56.8405 118.5 48.2405 125 39.3405L125.7 38.2405L126 39.5405C127.067 43.9405 128.133 48.4738 129.2 53.1405C132.8 68.0405 136.2 82.2405 139.2 94.9405L138.2 94.8405C142 85.1405 145.4 76.3405 148.4 68.8405L148.5 68.5405H148.8C158.9 69.6405 167 70.5405 172.8 71.1405C175.533 71.4738 177.7 71.7405 179.3 71.9405C179.967 72.0071 180.533 72.0738 181 72.1405C181.4 72.2072 181.6 72.2405 181.6 72.2405Z" fill="#FAFAFA"/>
<path d="M405.3 587.441C405.3 587.441 463.8 573.541 465.8 571.041L417.6 447.041C410.9 429.741 399.6 414.341 384.3 403.841C377.3 399.041 369.6 395.141 361.5 392.341C330.2 381.741 304.6 383.541 304.6 383.541L223.4 379.241C198.1 380.741 176.6 388.141 159.3 397.041C131.9 411.041 110.8 434.841 99.1 463.341L62.6 554.341L154.6 573.541L158.1 671.341L144.2 806.341H398L396.2 592.441L405.3 587.441Z" fill="#68DDD3"/>
<g opacity="0.3">
<path d="M455.7 554.841C455.8 555.141 440.6 560.041 421.8 565.941C403 571.741 387.7 576.241 387.6 575.941C387.5 575.741 402.7 570.741 421.5 564.941C440.3 559.041 455.7 554.541 455.7 554.841Z" fill="white"/>
</g>
<path d="M190.2 467.64C190.1 467.74 189.6 466.941 188.6 465.541C187.7 464.141 186.3 462.141 184.5 459.741C182.6 457.341 180.3 454.541 177.6 451.641C174.8 448.841 171.6 445.741 168 442.841C164.4 440.041 160.8 437.541 157.4 435.441C154 433.341 150.8 431.641 148.1 430.341C145.3 429.041 143.1 428.141 141.5 427.541C139.9 426.841 139.1 426.541 139.1 426.441C139.1 426.341 140 426.641 141.7 427.141C143.3 427.641 145.6 428.541 148.4 429.741C151.2 430.941 154.4 432.541 157.9 434.541C161.4 436.641 165 439.141 168.7 442.041C172.3 445.041 175.5 448.041 178.3 451.041C181 454.041 183.3 456.841 185 459.341C186.8 461.741 188.2 463.841 189 465.341C189.8 466.841 190.3 467.64 190.2 467.64Z" fill="#263238"/>
<path d="M178.2 497.241C178.5 497.341 175.7 527.141 171.9 563.941C168.1 600.741 164.8 630.541 164.5 630.541C164.2 630.541 167.1 600.641 170.9 563.841C174.6 527.041 177.9 497.241 178.2 497.241Z" fill="#263238"/>
<path d="M378 441.941C377.9 441.941 377.5 439.641 376.7 435.841C375.9 432.141 374.7 427.041 372.7 421.541C370.7 416.041 368.5 411.341 366.7 407.941C364.9 404.541 363.7 402.541 363.9 402.441C363.9 402.341 364.3 402.841 364.9 403.741C365.5 404.641 366.4 405.941 367.4 407.541C369.3 410.841 371.7 415.641 373.7 421.241C375.7 426.741 376.9 431.941 377.5 435.741C377.8 437.641 377.9 439.141 378 440.241C378.1 441.341 378.1 441.941 378 441.941Z" fill="#263238"/>
<path d="M383.1 546.341C383.1 546.341 382.9 545.341 382.6 543.441C382.4 541.541 382.1 538.741 381.7 535.341C381.1 528.541 380.4 519.141 380 508.741C379.7 498.241 379.7 488.841 379.9 481.941C380 478.541 380.1 475.741 380.2 473.841C380.3 471.941 380.4 470.941 380.5 470.941C380.5 470.941 380.6 471.941 380.6 473.841C380.6 475.941 380.6 478.741 380.6 481.941C380.6 488.841 380.7 498.241 381.1 508.641C381.4 519.041 382 528.441 382.5 535.341C382.7 538.541 382.9 541.241 383 543.341C383.2 545.241 383.2 546.341 383.1 546.341Z" fill="#263238"/>
<path d="M260.2 528.841C238.9 530.141 217.5 529.741 196.2 527.641V536.041H260.2V528.841Z" fill="white"/>
<g opacity="0.3">
<path d="M323.9 390.541C323.967 390.607 324.067 391.041 324.2 391.841C324.333 392.774 324.5 394.007 324.7 395.541C325.1 398.741 325.7 403.541 326.1 409.541C327.1 421.541 327.9 438.641 328.2 458.841V459.541L327.5 459.241C314.8 453.041 300.5 446.241 285.6 438.841C257.2 424.641 231.5 411.741 212.8 402.441C203.6 397.741 196.1 393.941 190.9 391.241C188.367 389.974 186.367 388.974 184.9 388.241C184.3 387.907 183.8 387.607 183.4 387.341C183.067 387.207 182.9 387.107 182.9 387.041C182.9 387.041 183.067 387.141 183.4 387.341C183.8 387.474 184.333 387.707 185 388.041C186.467 388.707 188.5 389.674 191.1 390.941C196.3 393.541 203.9 397.241 213.2 401.741C231.9 411.041 257.6 423.841 286.1 437.941C300.9 445.341 315.2 452.141 328 458.341L327.3 458.841C327.1 438.641 326.4 421.541 325.6 409.541C325.2 403.541 324.7 398.841 324.4 395.541C324.267 394.007 324.133 392.774 324 391.841C323.933 391.041 323.9 390.607 323.9 390.541Z" fill="white"/>
</g>
<g opacity="0.3">
<path d="M171.1 563.341C171.1 563.407 170.733 563.341 170 563.141C169.267 563.007 168.3 562.774 167.1 562.441C164.3 561.741 160.6 560.841 156.1 559.741C146.9 557.341 134.1 554.141 120 550.641C105.9 547.241 93 544.341 83.7 542.141C79.2 541.141 75.5 540.341 72.7 539.641C71.5 539.374 70.5333 539.141 69.8 538.941C69.0667 538.741 68.7 538.641 68.7 538.641C68.7667 538.574 69.1333 538.607 69.8 538.741C70.6 538.874 71.6 539.041 72.8 539.241C75.4 539.741 79.2 540.541 83.9 541.441C93.2 543.441 106.1 546.241 120.2 549.641C134.4 553.041 147.1 556.441 156.3 558.941C160.9 560.241 164.6 561.341 167.2 562.041C168.333 562.441 169.3 562.741 170.1 562.941C170.767 563.207 171.1 563.341 171.1 563.341Z" fill="white"/>
</g>
<path d="M312.7 375.441C312.8 375.141 318.2 378.041 323.5 385.941C328.8 393.741 333.7 405.841 336.4 419.841C337.8 426.841 338.4 433.541 338.7 439.741C338.8 442.841 338.9 445.741 338.8 448.441C338.6 451.241 338.6 453.741 338.4 456.041C338.133 458.374 337.9 460.474 337.7 462.341C337.4 464.141 337.1 465.741 336.9 466.941C336.4 469.541 336.1 470.941 335.9 470.941C335.8 470.841 335.9 469.441 336.1 466.841C336.233 465.507 336.367 463.974 336.5 462.241C336.633 460.374 336.767 458.274 336.9 455.941C337 453.641 337 451.141 337.1 448.441C337.1 445.741 336.9 442.841 336.8 439.841C336.4 433.741 335.7 427.141 334.4 420.241C331.7 406.541 327.1 394.441 322.3 386.741C319.9 382.841 317.4 380.041 315.6 378.241C313.8 376.441 312.6 375.641 312.7 375.441Z" fill="#263238"/>
<path d="M221.8 376.041C222 376.241 220.3 378.241 217.6 382.141C214.8 385.941 211.3 391.841 208.2 399.741C205 407.541 202.7 417.341 201.2 428.441C199.7 439.541 199.1 451.941 198.3 464.941C197.6 477.841 197.6 490.241 197.6 501.541C197.6 512.741 197.5 522.941 197.5 531.441C197.5 540.041 197.3 546.941 197.1 551.741C196.8 556.541 196.5 559.141 196.3 559.141C196.1 559.141 196 556.441 195.9 551.741C195.7 546.841 195.6 539.941 195.3 531.541C195.1 522.941 194.8 512.841 194.7 501.541C194.5 490.241 194.5 477.841 195.2 464.741C196 451.741 196.7 439.341 198.3 428.041C200 416.841 202.6 406.741 206.1 398.841C209.6 390.941 213.5 385.041 216.6 381.341C219.7 377.641 221.7 375.941 221.8 376.041Z" fill="#263238"/>
<path d="M356.3 543.241C356.1 543.241 356 540.841 355.9 536.641C355.8 532.341 355.7 526.241 355.6 518.641C355.533 514.774 355.5 510.607 355.5 506.141C355.4 501.741 355.6 496.841 355.2 491.941C354.8 487.141 353.6 481.941 350.1 478.041C346.7 474.041 341.5 471.441 336 471.341C330.5 471.241 325.2 473.541 321.3 477.041C317.3 480.541 315.1 485.341 313.8 490.041C312.6 494.741 312.1 499.541 311.3 503.941C310.633 508.407 310 512.507 309.4 516.241C308.2 523.741 307.1 529.841 306.4 534.041C305.7 538.241 305.2 540.541 305 540.541C304.9 540.441 305.1 538.141 305.6 533.941C306.1 529.641 306.9 523.541 307.9 516.041C308.433 512.241 309 508.141 309.6 503.741C310.3 499.341 310.7 494.541 312 489.541C313.2 484.641 315.6 479.341 319.9 475.541C324.1 471.741 329.9 469.141 336 469.241C342.2 469.341 347.9 472.341 351.6 476.641C355.5 481.041 356.8 486.741 357.1 491.841C357.4 496.941 357.2 501.641 357.2 506.141C357.133 510.607 357.067 514.774 357 518.641C356.9 526.241 356.8 532.341 356.7 536.641C356.6 540.841 356.4 543.241 356.3 543.241Z" fill="#263238"/>
<path d="M337 451.741C336.3 458.741 334.1 466.641 329.2 471.741C333.5 470.841 337.9 470.841 342.1 471.941C339.1 465.841 338.6 458.541 338.7 451.741" fill="#263238"/>
<path d="M356.3 497.241C356 497.341 355.7 493.941 353.2 489.341C351.9 487.041 350 484.541 347.4 482.341C344.8 480.241 341.3 478.441 337.5 477.741C333.7 477.041 329.9 477.541 326.7 478.741C323.5 479.941 320.9 481.741 318.9 483.441C315.1 486.941 313.8 490.141 313.4 490.041C313.3 489.941 314 486.441 317.9 482.441C319.8 480.441 322.6 478.341 326 476.941C329.4 475.641 333.6 474.941 337.9 475.641C342.1 476.441 345.9 478.441 348.6 480.941C351.4 483.341 353.3 486.141 354.5 488.641C356.9 493.741 356.5 497.341 356.3 497.241Z" fill="#263238"/>
<path d="M409.9 723.841C421.8 723.841 432.4 715.241 438 704.741C443.6 694.241 445.1 682.041 445.6 670.141C447.1 638.641 443.2 606.941 434.2 576.741L382 585.841L396.2 726.441L409.9 723.841Z" fill="#FFBE9D"/>
<path d="M198.7 741.341L368.7 735.141L409.9 536.041L230.9 545.941L198.7 741.341Z" fill="#263238"/>
<path d="M286.2 542.541L288.8 537.441L302.3 536.441C302.3 536.441 305.8 527.541 325.2 526.641C342.5 525.841 343.3 534.541 343.3 534.541H352.6V538.841L286.2 542.541Z" fill="#455A64"/>
<path d="M381 677.141L393.9 673.441C396.3 672.741 398.9 672.641 401.3 673.041C404.4 673.641 407.1 675.141 409.3 677.341C413.6 681.541 420.5 688.441 421.4 690.541C422.9 693.541 422.9 698.741 421.4 700.741C420 702.641 424.6 712.541 424 715.841C423.4 719.141 422.6 722.441 421.4 723.841C420.3 725.241 421.4 729.941 418.6 733.541C415.7 737.041 413.1 739.241 413.1 739.241C413.1 739.241 377.7 740.941 374.3 739.241C370.8 737.641 364.8 731.241 364.8 731.241C364.8 731.241 361.6 725.541 366.5 724.941L346.3 717.241C343.9 716.341 342.5 713.641 343.4 711.241C343.7 710.341 344.3 709.641 345.2 709.241C345.2 709.241 336.2 706.341 334.1 705.441C329.9 703.641 328.3 693.941 337 695.141C341.5 695.841 347.7 697.141 347.7 697.141C347.7 697.141 344.4 691.741 349 688.541C351.8 686.641 364.4 688.941 364.4 688.941L381 677.141Z" fill="#FFBE9D"/>
<path d="M385.5 730.241C385.5 730.541 380.7 730.341 375 728.741C369.3 727.141 365.2 724.641 365.4 724.341C365.5 724.141 369.7 726.141 375.3 727.741C380.8 729.341 385.5 729.941 385.5 730.241Z" fill="#EB996E"/>
<path d="M377.8 717.741C377.7 717.941 370.3 716.341 361.3 714.041C352.3 711.741 345.1 709.641 345.2 709.341C345.2 709.141 352.6 710.741 361.6 713.041C370.6 715.341 377.8 717.441 377.8 717.741Z" fill="#EB996E"/>
<path d="M382 705.141C381.9 705.441 374 703.841 364.3 701.541C354.6 699.341 346.8 697.241 346.8 696.941C346.9 696.641 354.8 698.341 364.5 700.541C374.2 702.841 382 704.941 382 705.141Z" fill="#EB996E"/>
<path d="M395.1 689.041C395.1 689.241 393.3 689.741 390.5 690.541C388.967 690.941 387.3 691.374 385.5 691.841C384.567 692.041 383.6 692.274 382.6 692.541C381.5 692.841 380.3 692.941 379.2 692.841C378 692.841 376.9 692.541 375.8 692.341C374.8 692.074 373.833 691.841 372.9 691.641C371.1 691.241 369.433 690.841 367.9 690.441C365 689.741 363.3 689.241 363.3 689.041C363.3 688.941 365.1 689.141 368 689.741C369.6 690.007 371.3 690.341 373.1 690.741C375 691.041 377.1 691.641 379.2 691.841C381.4 692.041 383.3 691.241 385.3 690.841C387.1 690.507 388.767 690.174 390.3 689.841C393.2 689.241 395 688.941 395.1 689.041Z" fill="#EB996E"/>
<path d="M397.3 695.84C397.4 695.74 397.9 696.24 398.3 697.14C398.7 698.04 398.9 699.54 398.4 701.14C398 702.64 396.9 703.741 396.1 704.241C395.2 704.841 394.6 704.94 394.5 704.84C394.4 704.54 396.6 703.44 397.4 700.84C398.3 698.14 397.1 695.94 397.3 695.84Z" fill="#EB996E"/>
<path d="M396.6 709.541C396.8 709.441 397.6 710.841 397.5 712.741C397.4 714.741 396.5 716.041 396.2 715.841C396 715.741 396.4 714.441 396.5 712.741C396.6 711.041 396.3 709.641 396.6 709.541Z" fill="#EB996E"/>
<path d="M396.8 724.341C397.1 724.241 397.6 725.241 397.3 726.441C397.1 727.741 396.2 728.441 396 728.241C395.8 728.041 396.1 727.241 396.3 726.241C396.5 725.341 396.5 724.441 396.8 724.341Z" fill="#EB996E"/>
<path d="M400.7 688.241C400.6 688.341 399.3 688.341 397.3 688.041C396.1 687.907 394.867 687.774 393.6 687.641C392.2 687.341 390.8 687.141 389.3 687.341C387.9 687.541 386.5 688.441 385.4 689.141C384.3 689.841 383.4 690.741 382.4 691.241C380.6 692.341 379.2 692.441 379.2 692.341C379.1 692.141 380.4 691.841 382 690.641C383.6 689.441 385.7 687.041 389.1 686.341C389.967 686.274 390.8 686.274 391.6 686.341C392.4 686.341 393.1 686.541 393.8 686.641C395 686.907 396.2 687.141 397.4 687.341C399.4 687.741 400.7 688.141 400.7 688.241Z" fill="#EB996E"/>
<path d="M421.1 724.541C421 724.441 421.4 723.541 422 721.941C422.6 720.341 423.5 717.941 423.4 714.941C423.4 713.441 423.1 711.741 422.7 710.041C422.3 708.241 421.4 706.441 421 704.341C420.5 702.241 421.1 699.941 421.4 697.841C421.7 695.741 421.3 693.541 420.3 691.441C419.3 689.341 418 687.441 416.6 685.741C415.2 683.941 413.9 682.241 412.5 680.741C409.9 677.741 407 675.341 404.2 674.241C401.4 673.041 398.8 672.941 397.1 673.141C395.4 673.341 394.6 673.841 394.5 673.741C394.5 673.674 394.7 673.541 395.1 673.341C395.6 673.141 396.2 672.941 397.1 672.741C398.8 672.341 401.5 672.341 404.4 673.541C407.4 674.641 410.5 677.041 413.2 680.141C414.6 681.641 416 683.341 417.4 685.041C418.8 686.841 420.2 688.741 421.2 690.941C422.3 693.141 422.8 695.641 422.4 697.941C422.1 700.241 421.5 702.241 421.9 704.241C422.3 706.141 423.1 707.941 423.5 709.741C423.9 711.541 424.2 713.341 424.2 714.941C424.1 718.141 423.1 720.541 422.4 722.141C421.7 723.741 421.2 724.541 421.1 724.541Z" fill="#EB996E"/>
<path d="M302.1 626.041L162.6 648.141L168.8 575.341L91.2 560.341L81.7 668.141L80.1 692.841C79 709.641 86.7 725.741 100.4 735.441C112.8 744.241 128.7 746.641 143.2 741.941L173.2 732.141L319.4 680.141" fill="#FFBE9D"/>
<path d="M386.6 610.941C387.1 608.541 385.1 606.341 382.6 606.341C374.7 606.241 353.5 606.441 346 608.541C336.7 611.141 302.1 626.041 302.1 626.041L316.8 680.141L369.8 680.641C369.8 680.641 389.2 671.741 389.5 667.941C389.6 665.941 389 660.641 389 660.641L394.8 657.541C403.6 652.041 398 641.441 398 641.441C398 641.441 404 638.041 404.3 631.941C404.6 625.541 399.6 623.041 399.6 623.041C399.6 623.041 402 614.441 397.5 612.141C393.1 609.841 385.5 612.841 385.5 612.841C386 612.441 386.4 611.741 386.6 610.941Z" fill="#FFBE9D"/>
<path d="M389.6 611.841C389.6 611.941 389 612.141 388 612.441C386.9 612.741 385.3 613.041 383.4 613.441C379.5 614.141 374.1 614.741 368.1 615.341C362.1 615.941 356.7 616.74 352.9 617.64C349.1 618.54 347 619.741 346.9 619.541C346.9 619.541 347.4 619.14 348.4 618.64C349.3 618.14 350.8 617.541 352.8 616.941C356.6 615.841 362 614.941 368 614.341C374 613.641 379.4 613.241 383.3 612.741C387.2 612.241 389.6 611.741 389.6 611.841Z" fill="#EB996E"/>
<path d="M399.6 622.741C399.6 622.841 398.3 623.641 395.9 624.641C393.5 625.541 390 626.641 386.2 627.441C382.3 628.241 378.8 628.741 376.3 629.041C373.7 629.441 372.2 629.541 372.1 629.441C372.1 629.041 378.3 627.941 386 626.441C389.8 625.641 393.2 624.741 395.6 623.941C398 623.141 399.5 622.541 399.6 622.741Z" fill="#EB996E"/>
<path d="M398.1 641.541C398.2 641.741 393.2 643.941 386.7 645.341C380.2 646.841 374.8 647.041 374.8 646.741C374.8 646.441 380.1 645.841 386.5 644.341C392.9 642.941 398 641.241 398.1 641.541Z" fill="#EB996E"/>
<path d="M394.8 657.541C394.9 657.841 391.1 659.541 386.1 660.741C381.1 661.941 376.9 662.141 376.9 661.841C376.9 661.541 380.9 660.941 385.9 659.741C390.8 658.541 394.7 657.241 394.8 657.541Z" fill="#EB996E"/>
<path d="M367.2 647.941C367.2 648.041 366.6 648.441 365.5 648.541C364.5 648.641 362.9 648.441 361.5 647.441C360.2 646.441 359.4 645.041 359.2 644.041C358.9 642.941 359 642.241 359.2 642.241C359.5 642.241 359.7 644.841 362.1 646.541C364.5 648.241 367.1 647.641 367.2 647.941Z" fill="#EB996E"/>
<path d="M366.1 664.741C366.1 665.041 364 665.141 362.2 663.541C360.3 661.841 360.2 659.741 360.5 659.741C360.8 659.741 361.3 661.341 362.9 662.741C364.4 664.141 366.1 664.441 366.1 664.741Z" fill="#EB996E"/>
<path d="M359.9 630.641C360 630.941 358.6 631.441 357.2 630.341C355.8 629.341 355.9 627.841 356.2 627.841C356.5 627.841 356.8 628.841 357.8 629.541C358.8 630.341 359.9 630.341 359.9 630.641Z" fill="#EB996E"/>
<path d="M302.1 626.041C302.1 625.974 302.233 625.874 302.5 625.741C302.833 625.607 303.267 625.407 303.8 625.141C305 624.674 306.633 623.974 308.7 623.041C313 621.141 319.3 618.441 327.2 615.141C331.2 613.541 335.6 611.841 340.4 610.041C342.8 609.141 345.2 608.141 348 607.641C350.7 607.141 353.5 606.841 356.4 606.641C362.2 606.141 368.3 605.941 374.8 605.841C376.4 605.841 378 605.841 379.6 605.841C380.467 605.841 381.3 605.841 382.1 605.841C382.9 605.841 383.9 605.941 384.7 606.341C386.4 607.241 387.6 609.141 387 611.241C386.8 611.641 386.6 611.741 386.4 611.841C386.2 612.041 386 612.174 385.8 612.241C385.4 612.441 385 612.641 384.6 612.841C383.8 613.141 383 613.441 382.1 613.741C381.8 613.741 381.5 613.641 381.5 613.341C381.4 613.041 381.6 612.841 381.8 612.741C383.933 612.074 386.133 611.574 388.4 611.241C390.7 610.941 393 610.641 395.4 611.041C396.6 611.241 397.9 611.541 398.9 612.441C399.8 613.441 400.3 614.641 400.6 615.841C401 618.341 400.7 620.741 400.1 623.141L399.8 622.541C401 623.141 401.9 624.041 402.8 625.141C404.8 627.841 405.3 631.441 404.3 634.641C403.2 637.741 400.9 640.141 398.2 641.841L398.4 641.141C399.8 644.041 400.5 647.241 400.1 650.441C399.7 653.541 397.7 656.341 395.1 657.941C393.1 659.007 391.133 660.074 389.2 661.141L389.5 660.641C389.633 662.041 389.767 663.441 389.9 664.841C389.9 665.507 389.933 666.174 390 666.841C390 667.241 389.967 667.607 389.9 667.941C389.9 668.341 389.7 668.741 389.5 669.041C388.7 670.341 387.6 671.141 386.5 671.941C385.433 672.741 384.333 673.474 383.2 674.141C378.7 676.841 374.3 679.041 370 681.041C369.933 681.107 369.867 681.141 369.8 681.141C353.8 680.841 340.5 680.641 331.2 680.541C326.7 680.441 323.1 680.341 320.5 680.241C319.367 680.241 318.433 680.207 317.7 680.141C317.1 680.141 316.8 680.141 316.8 680.141C316.8 680.074 317.1 680.041 317.7 680.041C318.433 680.041 319.367 680.041 320.5 680.041C323.1 680.041 326.7 680.041 331.2 680.041C340.5 680.041 353.8 680.141 369.8 680.241H369.7C373.9 678.241 378.3 676.041 382.7 673.341C383.833 672.674 384.9 671.974 385.9 671.241C387 670.441 388 669.541 388.7 668.541C388.9 668.341 389 668.041 389 667.841C389 667.574 389 667.274 389 666.941C389 666.207 388.967 665.507 388.9 664.841C388.767 663.507 388.633 662.141 388.5 660.741C388.5 660.541 388.6 660.341 388.8 660.241C390.667 659.241 392.6 658.207 394.6 657.141C396.9 655.641 398.8 653.141 399.1 650.241C399.5 647.441 398.8 644.341 397.5 641.641C397.4 641.441 397.5 641.141 397.7 640.941C400.2 639.441 402.4 637.141 403.3 634.241C404.2 631.441 403.8 628.141 401.9 625.741C401.2 624.841 400.3 623.941 399.4 623.441C399.1 623.341 399 623.141 399.1 622.841C399.6 620.641 399.9 618.241 399.5 616.041C399.3 614.941 398.9 613.941 398.1 613.241C397.4 612.541 396.3 612.241 395.3 612.041C393.1 611.741 390.8 611.941 388.6 612.241C386.4 612.541 384.2 613.041 382.1 613.641L381.8 612.741C382.6 612.541 383.4 612.241 384.2 611.941C384.6 611.741 384.967 611.541 385.3 611.341C385.7 611.241 386 610.841 386.1 610.841C386.1 610.241 386.2 609.441 385.8 608.741C385.5 608.141 384.9 607.541 384.3 607.241C383.6 606.841 382.9 606.741 382.1 606.841C381.3 606.841 380.467 606.841 379.6 606.841C378 606.841 376.4 606.841 374.8 606.841C368.4 606.941 362.2 607.041 356.5 607.441C353.6 607.741 350.8 607.941 348.1 608.441C345.5 608.941 343 609.941 340.6 610.741C335.8 612.441 331.5 614.241 327.5 615.741C319.6 618.941 313.3 621.541 308.9 623.341C306.767 624.207 305.1 624.874 303.9 625.341C303.367 625.541 302.933 625.707 302.6 625.841C302.267 625.974 302.1 626.041 302.1 626.041Z" fill="#EB996E"/>
<path d="M163.1 648.041C163.3 648.341 157.6 651.041 152.8 656.941C147.9 662.741 146.3 668.841 146 668.641C145.8 668.641 146.1 667.141 147 664.741C147.9 662.341 149.6 659.241 152 656.241C154.5 653.241 157.3 651.041 159.5 649.741C161.6 648.441 163.1 647.941 163.1 648.041Z" fill="#EB996E"/>
<path d="M345.4 216.541C342.5 179.941 312 151.641 275.2 151.541H271.6C232.2 153.841 212.1 188.441 215.4 227.741L222.2 385.241C222.3 387.941 223.9 390.241 226.3 391.341L314.6 432.841L311.9 350.141C311.9 350.141 349.8 344.341 350.3 306.541C350.6 288.241 348 250.641 345.4 216.541Z" fill="#FFBE9D"/>
<path d="M312.2 350.141C312.2 350.141 288.1 351.541 262.7 335.541C262.7 335.541 274.3 362.741 312 359.441L312.2 350.141Z" fill="#EB996E"/>
<path d="M332 240.041C332 242.941 329.7 245.34 326.7 245.44C323.8 245.64 321.3 243.441 321.2 240.641C321.1 237.741 323.4 235.341 326.4 235.141C329.4 235.041 331.9 237.141 332 240.041Z" fill="#263238"/>
<path d="M337.2 235.04C336.5 235.74 332.4 232.74 326.6 232.74C320.8 232.64 316.5 235.64 315.9 234.94C315.6 234.54 316.3 233.34 318.1 231.94C320 230.64 323.1 229.34 326.7 229.34C330.3 229.34 333.4 230.74 335.1 232.04C336.9 233.44 337.5 234.74 337.2 235.04Z" fill="#263238"/>
<path d="M274.8 241.84C274.9 244.64 272.6 247.14 269.6 247.24C266.6 247.44 264.1 245.24 264 242.34C263.9 239.54 266.3 237.04 269.2 236.94C272.2 236.74 274.7 238.94 274.8 241.84Z" fill="#263238"/>
<path d="M280 236.04C279.4 236.74 275.3 233.64 269.5 233.64C263.7 233.64 259.4 236.54 258.8 235.84C258.5 235.54 259.1 234.24 261 232.94C262.8 231.54 266 230.24 269.6 230.34C273.2 230.34 276.2 231.64 278 233.04C279.8 234.44 280.4 235.74 280 236.04Z" fill="#263238"/>
<path d="M301.1 279.14C301 278.84 304.6 278.24 310.5 277.44C312 277.34 313.4 277.04 313.6 276.04C314 274.94 313.4 273.34 312.7 271.64C311.3 268.04 309.833 264.274 308.3 260.34C302.2 244.24 297.8 230.94 298.5 230.74C299.1 230.44 304.6 243.34 310.7 259.44C312.1 263.44 313.467 267.24 314.8 270.84C315.4 272.54 316.4 274.44 315.6 276.64C315.2 277.74 314.1 278.54 313.1 278.84C312.2 279.14 311.4 279.14 310.6 279.14C304.7 279.44 301.1 279.54 301.1 279.14Z" fill="#263238"/>
<path d="M283.9 283.141C284.9 283.141 284.9 289.44 290.3 293.94C295.7 298.44 302.4 297.74 302.4 298.54C302.5 298.94 300.9 299.84 298.1 299.84C295.3 299.94 291.2 299.04 287.9 296.34C284.7 293.54 283.2 289.94 283 287.34C282.8 284.64 283.5 283.141 283.9 283.141Z" fill="#263238"/>
<path d="M281.6 213.241C281 214.841 275.2 214.04 268.4 214.84C261.6 215.54 256.1 217.541 255.1 216.141C254.7 215.441 255.7 213.94 257.9 212.44C260.1 210.84 263.7 209.44 267.8 208.94C271.9 208.54 275.6 209.241 278.1 210.241C280.6 211.241 281.8 212.441 281.6 213.241Z" fill="#263238"/>
<path d="M335.1 218.24C334.1 219.54 330.1 218.14 325.2 218.04C320.4 217.84 316.4 218.94 315.4 217.54C315 216.94 315.7 215.54 317.4 214.34C319.2 213.04 322.1 212.04 325.4 212.14C328.8 212.24 331.6 213.44 333.3 214.84C335 216.24 335.5 217.54 335.1 218.24Z" fill="#263238"/>
<path d="M221.1 255.74C220.4 255.44 195.1 248.04 195.9 273.94C196.6 299.74 222.5 293.64 222.5 292.94C222.5 292.14 221.1 255.74 221.1 255.74Z" fill="#FFBE9D"/>
<path d="M216.6 283.34C216.4 283.24 216.1 283.641 215.4 284.041C214.6 284.441 213.4 284.641 212 284.241C209.2 283.241 206.8 279.04 206.5 274.34C206.4 272.04 206.8 269.74 207.6 267.84C208.3 265.94 209.5 264.64 210.9 264.34C212.3 263.94 213.3 264.74 213.6 265.44C214 266.14 213.8 266.741 213.9 266.741C214 266.841 214.5 266.341 214.3 265.241C214.1 264.741 213.8 264.141 213.2 263.641C212.5 263.141 211.6 262.941 210.7 263.041C208.7 263.241 206.9 265.141 206.1 267.241C205.1 269.241 204.6 271.84 204.7 274.44C205.1 279.64 207.9 284.44 211.6 285.44C213.5 285.84 215 285.241 215.7 284.641C216.5 283.941 216.6 283.34 216.6 283.34Z" fill="#EB996E"/>
<path d="M238 178.841L345.9 181.241C342.5 173.841 336.5 167.841 330 162.941C316 152.341 298.8 145.641 281.2 145.341C263.6 145.041 227.8 166.441 215.1 178.641C204.9 188.341 204.9 196.741 204.9 196.741C203.3 210.641 211.1 226.541 214.3 240.341C215.9 247.441 219 268.841 219 268.841C224.9 268.841 227.1 264.041 226.2 258.241L225.1 235.141C225.1 235.141 245.3 220.741 235.7 194.541C234.2 192.441 230.9 182.841 238 178.841Z" fill="#263238"/>
<path d="M260.7 260.641C260.3 260.741 260 260.541 259.9 260.141C259.8 259.741 260.1 259.341 260.4 259.341C260.8 259.241 261.1 259.541 261.2 259.841C261.2 260.241 261 260.641 260.7 260.641Z" fill="#EB996E"/>
<path d="M271.8 258.14C271.4 258.24 271.1 257.94 271 257.54C270.9 257.04 271.1 256.64 271.5 256.64C271.8 256.54 272.2 256.84 272.3 257.24C272.4 257.74 272.1 258.14 271.8 258.14Z" fill="#EB996E"/>
<path d="M279.3 258.041C278.9 258.041 278.6 257.641 278.5 257.041C278.4 256.441 278.7 255.941 279 255.941C279.4 255.941 279.7 256.341 279.8 256.941C279.8 257.441 279.6 257.941 279.3 258.041Z" fill="#EB996E"/>
<path d="M266.1 267.641C265.8 267.641 265.5 267.441 265.5 267.241C265.5 267.041 265.8 266.841 266.1 266.841C266.5 266.841 266.8 267.041 266.8 267.241C266.8 267.441 266.5 267.641 266.1 267.641Z" fill="#EB996E"/>
<path d="M276.3 265.341C276 265.341 275.7 265.041 275.6 264.641C275.6 264.241 275.8 263.941 276.2 263.841C276.5 263.841 276.9 264.141 276.9 264.541C276.9 264.941 276.7 265.341 276.3 265.341Z" fill="#EB996E"/>
<path d="M329.3 259.141C329 259.141 328.7 258.94 328.6 258.54C328.5 258.14 328.7 257.741 329.1 257.641C329.4 257.641 329.8 257.841 329.8 258.241C329.9 258.641 329.7 259.041 329.3 259.141Z" fill="#EB996E"/>
<path d="M336.9 258.44C336.6 258.44 336.2 258.141 336.2 257.641C336.2 257.241 336.4 256.84 336.8 256.84C337.1 256.74 337.4 257.141 337.5 257.541C337.5 258.041 337.3 258.44 336.9 258.44Z" fill="#EB996E"/>
<path d="M322.7 259.241C322.3 259.341 322 259.14 321.9 258.84C321.9 258.54 322.1 258.241 322.4 258.141C322.8 258.141 323.1 258.341 323.2 258.641C323.2 258.941 323 259.241 322.7 259.241Z" fill="#EB996E"/>
<path d="M328.3 266.84C327.9 267.04 327.5 266.84 327.4 266.44C327.2 266.04 327.3 265.64 327.7 265.54C328 265.34 328.4 265.54 328.5 265.94C328.7 266.34 328.6 266.74 328.3 266.84Z" fill="#EB996E"/>
<path d="M334.7 265.541C334.4 265.441 334.2 265.141 334.2 264.941C334.3 264.641 334.7 264.441 335 264.541C335.4 264.641 335.6 264.941 335.5 265.241C335.4 265.541 335.1 265.641 334.7 265.541Z" fill="#EB996E"/>
<path d="M214.4 180.041C211.6 170.641 214.3 160.141 220.4 152.341C226.5 144.641 236.4 140.041 246.2 140.441C251.3 140.641 256.3 142.041 261.3 141.541C270.6 140.541 277.8 133.041 286.5 129.341C299.9 123.741 317.1 128.841 325.2 141.041C328.5 145.941 330.7 151.941 335.7 155.041C340 157.741 345.5 157.541 350.4 158.941C360.3 161.941 367 172.441 366.5 182.741C366 193.041 358.8 202.441 349.3 206.541C339.8 210.541 328.5 209.441 319.5 204.441C311.4 199.841 304.1 192.141 294.8 192.441C285.1 192.741 276.7 201.741 267.2 199.941C262.3 198.941 258.5 195.141 254.8 191.541C251.2 188.041 247 184.441 242 184.141C236.9 183.841 234.3 190.841 236.1 195.541L214.4 180.041Z" fill="#263238"/>
<path d="M343.8 167.541C343.8 167.541 343.733 167.674 343.6 167.941C343.5 168.141 343.3 168.541 343 168.941C342.4 169.841 341.4 171.141 339.9 172.541C338.4 173.841 336.2 175.241 333.5 176.241C330.7 177.141 327.3 177.541 323.7 176.841C320.1 176.041 316.3 174.141 313.4 170.941C310.4 167.741 308.7 163.341 305.9 159.541C304.6 157.641 302.9 155.941 300.7 154.841C298.6 153.741 296.1 153.241 293.6 153.241C291 153.341 288.5 154.041 286.2 155.241C284 156.541 282.1 158.441 280.8 160.841C279.5 163.141 278.6 165.741 277 168.041C275.5 170.441 272.9 172.141 270.1 172.241C267.3 172.441 264.8 171.441 262.6 170.141C260.4 168.841 258.5 167.041 256.9 165.341C253.5 162.041 250.2 158.641 246.2 157.741C242.1 156.841 238.2 158.241 235.3 160.341C232.4 162.341 230.6 165.141 229.4 167.641C228.2 170.241 227.5 172.641 227.1 174.641C226.7 176.541 226.6 178.141 226.4 179.141C226.3 180.241 226.2 180.841 226.2 180.841C226.2 180.774 226.2 180.607 226.2 180.341C226.2 180.074 226.2 179.674 226.2 179.141C226.3 178.141 226.4 176.541 226.8 174.541C227.1 172.541 227.7 170.041 228.8 167.441C230 164.741 231.9 161.941 234.9 159.741C237.8 157.541 242 155.941 246.4 156.941C250.8 157.841 254.2 161.341 257.5 164.741C259.2 166.341 261 168.041 263.1 169.241C265.2 170.441 267.6 171.441 270 171.241C272.5 171.141 274.8 169.641 276.2 167.541C277.6 165.341 278.6 162.741 279.9 160.341C281.2 157.841 283.3 155.641 285.7 154.341C288.2 153.041 290.9 152.341 293.5 152.241C296.2 152.241 298.9 152.741 301.2 153.941C303.5 155.141 305.3 157.041 306.7 159.041C309.5 162.941 311.2 167.241 314 170.341C316.8 173.441 320.4 175.341 323.9 176.041C327.3 176.841 330.6 176.541 333.3 175.641C336 174.841 338.1 173.441 339.6 172.241C342.7 169.641 343.7 167.441 343.8 167.541Z" fill="#455A64"/>
<path d="M363.3 167.941C363.4 167.941 363.6 168.641 363.8 170.041C363.9 171.441 363.9 173.441 363.2 175.841C362.6 178.141 361.3 180.941 359.2 183.441C357.1 185.941 354.1 188.141 350.7 189.641C343.7 192.741 336.6 192.441 331.8 191.741C329.4 191.441 327.5 190.941 326.2 190.641C324.9 190.241 324.2 190.041 324.2 189.941C324.2 189.841 327.1 190.541 331.9 191.041C336.7 191.541 343.5 191.641 350.2 188.641C353.6 187.241 356.4 185.141 358.5 182.841C360.5 180.441 361.8 177.841 362.5 175.641C363.9 171.041 363.1 167.941 363.3 167.941Z" fill="#455A64"/>
<path d="M179.3 584.641C179.6 588.941 181.5 592.841 183.8 595.841C186.1 598.841 190.8 601.841 194.6 601.641C194.6 601.641 204.1 602.441 209.1 594.341C213.8 586.941 214.9 571.741 211.2 562.741C208.7 556.541 202.9 550.741 196.2 550.541C187.4 550.341 181.9 556.741 180 563.141" fill="#E0E0E0"/>
<path d="M180 563.141C180 563.141 180.2 561.441 181.7 558.841C182.4 557.541 183.4 555.941 185 554.541C186.5 553.041 188.6 551.641 191.2 550.841C192.5 550.441 193.9 550.241 195.4 550.141C196.9 550.141 198.4 550.241 200 550.741C203 551.741 205.9 553.841 208.1 556.641C210.4 559.341 212.1 562.841 212.9 566.641C213.8 570.441 214.1 574.441 213.8 578.541C213.4 584.741 212.2 591.041 208.7 595.741C207 598.041 204.6 599.741 202.1 600.741C199.6 601.741 197 602.141 194.6 602.041C192.6 602.141 190.8 601.441 189.2 600.741C187.7 599.941 186.3 598.941 185.2 597.841C182.9 595.741 181.7 593.241 180.8 591.341C179.9 589.241 179.6 587.541 179.4 586.441C179.333 585.841 179.3 585.407 179.3 585.141C179.233 584.807 179.233 584.641 179.3 584.641C179.4 584.641 179.4 587.141 181.2 591.141C182.2 593.041 183.5 595.341 185.7 597.341C186.8 598.341 188.1 599.241 189.6 600.041C191.1 600.741 192.8 601.241 194.6 601.141C199.2 601.341 204.6 599.641 207.9 595.141C211.2 590.741 212.4 584.541 212.8 578.441C213.2 570.541 211.9 562.541 207.4 557.241C205.2 554.641 202.6 552.541 199.7 551.641C198.3 551.141 196.8 550.941 195.4 550.941C194 550.941 192.7 551.241 191.4 551.541C188.9 552.241 186.9 553.541 185.4 554.941C183.8 556.341 182.8 557.741 182 559.041C180.5 561.541 180.2 563.241 180 563.141Z" fill="#263238"/>
<path d="M174.6 585.041C175 589.341 176.8 593.241 179.1 596.241C181.4 599.241 186.1 602.241 189.9 602.041C189.9 602.041 199.4 602.841 204.5 594.741C209.1 587.341 210.2 572.141 206.5 563.141C204 556.841 198.3 551.141 191.6 550.941C182.8 550.741 177.2 557.141 175.4 563.541" fill="#E0E0E0"/>
<path d="M175.4 563.541C175.4 563.541 175.6 561.841 177 559.241C177.7 557.941 178.7 556.341 180.3 554.941C181.8 553.441 183.9 552.041 186.5 551.241C187.8 550.841 189.2 550.641 190.7 550.541C192.2 550.541 193.8 550.641 195.3 551.141C198.4 552.141 201.2 554.241 203.5 557.041C205.7 559.741 207.4 563.241 208.3 567.041C209.1 570.841 209.4 574.841 209.1 578.941C208.7 585.141 207.5 591.341 204 596.141C202.3 598.441 199.9 600.141 197.4 601.141C194.9 602.141 192.3 602.541 189.9 602.441H190C187.9 602.541 186.1 601.841 184.6 601.041C183 600.341 181.6 599.341 180.5 598.241C178.2 596.141 177 593.641 176.1 591.641C175.2 589.641 174.9 587.941 174.7 586.841C174.633 586.241 174.6 585.807 174.6 585.541C174.6 585.207 174.6 585.041 174.6 585.041C174.7 585.041 174.7 587.541 176.5 591.441C177.5 593.441 178.8 595.741 181 597.741C182.1 598.741 183.4 599.641 184.9 600.441C186.4 601.141 188.1 601.641 189.9 601.541H190C194.5 601.741 199.9 600.041 203.3 595.541C206.5 591.041 207.7 584.941 208.1 578.841C208.5 570.941 207.2 562.941 202.7 557.641C200.6 554.941 197.9 552.941 195 552.041C193.6 551.541 192.1 551.341 190.7 551.341C189.3 551.341 188 551.641 186.7 551.941C184.2 552.641 182.2 553.941 180.7 555.341C179.2 556.741 178.1 558.141 177.3 559.441C175.8 561.941 175.5 563.641 175.4 563.541Z" fill="#263238"/>
<path d="M183.1 561.34C178.7 560.44 174.2 563.441 172.3 567.441C170.5 571.541 170.9 576.34 172.4 580.54C173.1 582.64 174.1 584.741 175.7 586.441C177.3 588.041 179.4 589.24 181.7 589.34C185 589.44 188 587.141 189.9 584.441C193 580.041 194.1 574.24 192.7 569.14C191.8 565.64 189.3 562.041 185.7 561.941" fill="#E0E0E0"/>
<path d="M185.7 561.941C185.7 561.941 186 561.941 186.5 561.941C187 562.041 187.8 562.241 188.7 562.741C190.4 563.641 192.4 566.041 193.2 569.541C194.1 573.041 194 577.541 192 581.841C191 583.941 189.6 586.041 187.5 587.741C185.5 589.341 182.6 590.341 179.8 589.541C177 588.741 174.9 586.741 173.6 584.541C172.3 582.241 171.5 579.941 171.1 577.641C170.1 573.041 170.9 568.441 173.1 565.541C175.2 562.541 178.1 561.341 180 561.041C181 560.941 181.8 561.041 182.3 561.041C182.833 561.174 183.1 561.274 183.1 561.341C183.1 561.441 182 561.141 180.1 561.441C178.3 561.841 175.6 563.141 173.7 565.941C171.7 568.741 171 573.041 172 577.441C172.5 579.641 173.3 581.941 174.5 583.941C175.7 586.041 177.7 587.841 180.1 588.541C182.5 589.241 185 588.341 186.9 586.941C188.8 585.441 190.2 583.441 191.1 581.441C193.1 577.341 193.2 573.041 192.5 569.741C191.8 566.441 190 564.041 188.4 563.041C186.8 562.041 185.7 562.141 185.7 561.941Z" fill="#263238"/>
<path d="M193.2 594.141C193 594.241 192.8 593.541 192.1 592.741C191.4 591.941 190.2 591.041 188.7 590.541C187.1 590.041 185.6 589.941 184.5 589.941C183.4 589.841 182.7 589.741 182.7 589.541C182.7 589.441 183.3 589.241 184.5 589.141C185.6 589.041 187.3 589.041 189 589.541C190.8 590.141 192.1 591.241 192.7 592.341C193.3 593.341 193.3 594.141 193.2 594.141Z" fill="#263238"/>
<path d="M194.7 558.541C194.8 558.641 194.4 559.241 193.5 560.041C192.6 560.741 191.1 561.541 189.3 561.841C187.5 562.141 185.8 561.941 184.7 561.641C183.6 561.241 183 560.841 183 560.641C183.1 560.441 185.8 561.441 189.1 560.841C192.4 560.241 194.5 558.341 194.7 558.541Z" fill="#263238"/>
<path d="M563.9 806.84C563.9 807.04 437.673 807.34 281.95 807.34C126.227 807.34 0 807.04 0 806.84C0 806.54 126.227 806.24 281.95 806.24C437.673 806.24 563.9 806.54 563.9 806.84Z" fill="#263238"/>
</svg>
