<svg version="1.2" xmlns="http://www.w3.org/2000/svg" viewBox="0 0 1500 1000" width="1500" height="1000">
	<title>5063407-ai</title>
	<style>
		.s0 { fill: #e3e3e3 } 
		.s1 { fill: #9ad4d2 } 
		.s2 { fill: none;stroke: #f2cdbf;stroke-linecap: round;stroke-miterlimit:10;stroke-width: 2 } 
		.s3 { fill: #88cccc } 
		.s4 { fill: #f2cdbf } 
		.s5 { fill: #d4a59b } 
		.s6 { fill: #faded2 } 
		.s7 { fill: #ffffff } 
		.s8 { fill: #f0d3d8 } 
		.s9 { fill: #a7c2d9 } 
		.s10 { fill: #d49ba0 } 
		.s11 { fill: #82bdbf } 
		.s12 { fill: #6fc3c3 } 
		.s13 { fill: #87c5c5 } 
		.s14 { fill: #75658e } 
		.s15 { fill: #aa96cb } 
		.s16 { fill: #b295e0 } 
		.s17 { fill: #326894 } 
		.s18 { fill: #4d8ab3 } 
		.s19 { fill: #787878 } 
		.s20 { fill: #7c7c7c } 
		.s21 { fill: #732d02 } 
		.s22 { fill: #ebf5ff } 
		.s23 { fill: #fbbd9a } 
		.s24 { fill: #f0997f } 
		.s25 { fill: #6f2adf } 
		.s26 { fill: #002a42 } 
		.s27 { fill: #06384f } 
		.s28 { fill: none;stroke: #27788f;stroke-linecap: round;stroke-miterlimit:10;stroke-width: 2 } 
		.s29 { fill: #8c4206 } 
		.s30 { fill: #a66317 } 
		.s31 { fill: #2f344d } 
		.s32 { fill: none;stroke: #8c4206;stroke-linecap: round;stroke-miterlimit:10;stroke-width: 4 } 
		.s33 { fill: none;stroke: #d45e4e;stroke-linecap: round;stroke-miterlimit:10;stroke-width: 4 } 
		.s34 { fill: #163649 } 
		.s35 { fill: #4d11af } 
		.s36 { fill: #fbbd9a;stroke: #d45e4e;stroke-linecap: round;stroke-miterlimit:10;stroke-width: 2 } 
		.s37 { fill: none;stroke: #b82621;stroke-linecap: round;stroke-miterlimit:10;stroke-width: 2 } 
		.s38 { fill: #994403 } 
		.s39 { fill: #8b8b8b } 
		.s40 { fill: #fdbd9b } 
		.s41 { fill: none;stroke: #b0514a;stroke-linecap: round;stroke-miterlimit:10 } 
		.s42 { fill: #316382 } 
		.s43 { fill: #407c91 } 
		.s44 { fill: #502202 } 
		.s45 { fill: #855321 } 
		.s46 { fill: #112c45 } 
		.s47 { fill: #163a4a } 
		.s48 { fill: #4b8394 } 
		.s49 { fill: #6b4019 } 
		.s50 { fill: none;stroke: #502202;stroke-linecap: round;stroke-miterlimit:10;stroke-width: 4 } 
		.s51 { fill: none;stroke: #b0514a;stroke-linecap: round;stroke-miterlimit:10;stroke-width: 4 } 
		.s52 { fill: #2d3a5e } 
		.s53 { fill: #69c5c9 } 
		.s54 { fill: none;stroke: #3e7c8a;stroke-linecap: round;stroke-miterlimit:10 } 
		.s55 { fill: #9bebe7 } 
		.s56 { fill: #dae8f7 } 
		.s57 { fill: none;stroke: #b8c8e3;stroke-linecap: round;stroke-miterlimit:10;stroke-width: 2 } 
		.s58 { fill: none;stroke: #163649;stroke-miterlimit:10;stroke-width: 2 } 
		.s59 { fill: none;stroke: #163649;stroke-linecap: round;stroke-miterlimit:10;stroke-width: 2 } 
		.s60 { fill: #bd73cf } 
		.s61 { fill: none;stroke: #ffffff;stroke-linecap: round;stroke-miterlimit:10;stroke-width: 2 } 
		.s62 { fill: #a14bc5 } 
		.s63 { fill: #a53dd5 } 
		.s64 { fill: #a94de3 } 
	</style>
	<g id="BACKGROUND">
	</g>
	<g id="OBJECTS">
		<g id="&lt;Group&gt;">
			<g id="&lt;Group&gt;">
				<path id="&lt;Path&gt;" class="s0" d="m468 891.6c181.4 45.5 477.8 50.5 677.9-45.2 184.8-88.5 222.8-413.7 96-598.2-90.1-131.1-262.8-183.4-428.4-164.8-195.4 21.9-247.3 157-376.9 254.1-80.7 60.4-245.5 45.5-276.6 221.8-35.5 200.8 182.8 300.8 308 332.3z"/>
			</g>
			<g id="&lt;Group&gt;">
				<g id="&lt;Group&gt;">
					<g id="&lt;Group&gt;">
						<path id="&lt;Path&gt;" class="s1" d="m1102.5 886.7c23.3-403.5 198.8-453.2 226.3-419.2 57.8 71.1-142.7 293.7-226.3 419.2z"/>
						<g id="&lt;Group&gt;">
							<path id="&lt;Path&gt;" class="s2" d="m1309.7 483.4c-98.2 114.6-168.3 253.1-202.4 400.1"/>
							<path id="&lt;Path&gt;" class="s2" d="m1257.9 486.9c5.7 16.9 8.8 34.6 9.2 52.5 18.8-4.1 37.9-6.3 57.1-6.5"/>
							<path id="&lt;Path&gt;" class="s2" d="m1190.4 556.8c11 19.2 19.2 40 24.1 61.6 22.3-4.8 45.1-7.1 67.9-6.9"/>
							<path id="&lt;Path&gt;" class="s2" d="m1143.8 658.2c9.2 14.5 17.2 29.7 23.7 45.5 21.6-8.7 45-13 68.2-12.3"/>
							<path id="&lt;Path&gt;" class="s2" d="m1187.8 755.6c-14.2-1-28.5 0-42.4 3.2-3.6-11.5-8.7-22.4-15.1-32.5"/>
						</g>
					</g>
					<g id="&lt;Group&gt;">
						<path id="&lt;Path&gt;" class="s3" d="m1102.5 886.7c129-205.4 293.7-273.1 301.2-198.9 10.3 102.8-212.1 169.9-301.2 198.9z"/>
						<g id="&lt;Group&gt;">
							<path id="&lt;Path&gt;" class="s2" d="m1383.2 695.1c-101.6 48.5-195.6 112.8-277.5 190"/>
							<path id="&lt;Path&gt;" class="s2" d="m1346.7 673.7c0.4 14.3-1 28.7-4.1 42.6 14.1 1.4 27.7 7 38.7 15.9"/>
							<path id="&lt;Path&gt;" class="s2" d="m1277.9 705.4c2.7 15.1 3.7 30.5 3.1 45.8 19.1 1.7 37.7 8.3 53.6 18.9"/>
							<path id="&lt;Path&gt;" class="s2" d="m1212.8 752.8c5.3 11.8 7.7 24.8 7.2 37.7 17.6 1.4 34.9 7 50 16.2"/>
						</g>
					</g>
				</g>
				<g id="&lt;Group&gt;">
					<g id="&lt;Group&gt;">
						<path id="&lt;Path&gt;" class="s4" d="m876.2 564.3h286v30h-286z"/>
						<g id="&lt;Group&gt;">
							<path id="&lt;Path&gt;" class="s4" d="m1153.8 594.3v292.4h-25.4v-16h-218.5v16h-25.3v-292.4z"/>
							<path id="&lt;Path&gt;" class="s5" d="m884.6 594.3h269.2v6h-269.2z"/>
						</g>
						<g id="&lt;Group&gt;">
							<g id="&lt;Group&gt;">
								<g id="&lt;Group&gt;">
									<path id="&lt;Path&gt;" class="s5" d="m911.6 620.5h214.5v65h-214.5z"/>
									<path id="&lt;Path&gt;" class="s6" d="m909.4 614.5h218.9v65h-218.9z"/>
								</g>
							</g>
							<g id="&lt;Group&gt;">
								<g id="&lt;Group&gt;">
									<path id="&lt;Path&gt;" class="s5" d="m911.6 702.5h214.5v65h-214.5z"/>
									<path id="&lt;Path&gt;" class="s6" d="m909.4 696.5h218.9v65h-218.9z"/>
								</g>
							</g>
							<g id="&lt;Group&gt;">
								<g id="&lt;Group&gt;">
									<path id="&lt;Path&gt;" class="s5" d="m911.6 784.5h214.5v65h-214.5z"/>
									<path id="&lt;Path&gt;" class="s6" d="m909.4 778.5h218.9v65h-218.9z"/>
								</g>
							</g>
						</g>
					</g>
					<g id="&lt;Group&gt;">
						<g id="&lt;Group&gt;">
							<g id="&lt;Group&gt;">
								<g id="&lt;Group&gt;">
									<path id="&lt;Path&gt;" class="s7" d="m946.4 549.8v-45.5h12.5v45.5c0 3-2.5 5.5-5.5 5.5h-1.5c-3.1 0-5.5-2.5-5.5-5.5z"/>
									<path id="&lt;Path&gt;" class="s7" d="m944.1 502.8c0-0.8 0.7-1.4 1.5-1.4h14.1c0.8 0 1.4 0.6 1.4 1.4 0 0.8-0.6 1.5-1.4 1.5h-14.1c-0.8-0.1-1.5-0.7-1.5-1.5z"/>
								</g>
								<path id="&lt;Path&gt;" class="s8" d="m948.4 549v-29.7h8.5v29.7c0 2.4-1.9 4.3-4.3 4.3-2.3 0-4.2-1.9-4.2-4.3z"/>
							</g>
							<g id="&lt;Group&gt;">
								<g id="&lt;Group&gt;">
									<path id="&lt;Path&gt;" class="s7" d="m971.4 549.8v-45.5h12.5v45.5c0 3-2.5 5.5-5.5 5.5h-1.5c-3.1 0-5.5-2.5-5.5-5.5z"/>
									<path id="&lt;Path&gt;" class="s7" d="m969.1 502.8c0-0.8 0.7-1.4 1.5-1.4h14.1c0.8 0 1.4 0.6 1.4 1.4 0 0.8-0.6 1.5-1.4 1.5h-14.1c-0.8-0.1-1.5-0.7-1.5-1.5z"/>
								</g>
								<path id="&lt;Path&gt;" class="s8" d="m973.4 549v-29.7h8.5v29.7c0 2.4-1.9 4.3-4.3 4.3-2.3 0-4.2-1.9-4.2-4.3z"/>
							</g>
							<g id="&lt;Group&gt;">
								<g id="&lt;Group&gt;">
									<path id="&lt;Path&gt;" class="s7" d="m997.9 549.8v-45.5h12.5v45.5c0 3-2.5 5.5-5.5 5.5h-1.5c-3.1 0-5.5-2.5-5.5-5.5z"/>
									<path id="&lt;Path&gt;" class="s7" d="m995.6 502.8c0-0.8 0.7-1.4 1.5-1.4h14.1c0.8 0 1.4 0.6 1.4 1.4 0 0.8-0.6 1.5-1.4 1.5h-14.1c-0.8-0.1-1.5-0.7-1.5-1.5z"/>
								</g>
								<path id="&lt;Path&gt;" class="s8" d="m999.9 549v-29.7h8.5v29.7c0 2.4-1.9 4.3-4.3 4.3-2.3 0-4.2-1.9-4.2-4.3z"/>
							</g>
							<g id="&lt;Group&gt;">
								<g id="&lt;Group&gt;">
									<path id="&lt;Path&gt;" class="s7" d="m1024.9 549.8v-45.5h12.5v45.5c0 3-2.5 5.5-5.5 5.5h-1.5c-3.1 0-5.5-2.5-5.5-5.5z"/>
									<path id="&lt;Path&gt;" class="s7" d="m1022.6 502.8c0-0.8 0.7-1.4 1.5-1.4h14.1c0.8 0 1.4 0.6 1.4 1.4 0 0.8-0.6 1.5-1.4 1.5h-14.1c-0.8-0.1-1.5-0.7-1.5-1.5z"/>
								</g>
								<path id="&lt;Path&gt;" class="s8" d="m1026.9 549v-29.7h8.5v29.7c0 2.4-1.9 4.3-4.3 4.3-2.3 0-4.2-1.9-4.2-4.3z"/>
							</g>
							<g id="&lt;Group&gt;">
								<g id="&lt;Group&gt;">
									<path id="&lt;Path&gt;" class="s7" d="m1053.9 549.8v-45.5h12.5v45.5c0 3-2.5 5.5-5.5 5.5h-1.5c-3.1 0-5.5-2.5-5.5-5.5z"/>
									<path id="&lt;Path&gt;" class="s7" d="m1051.6 502.8c0-0.8 0.7-1.4 1.5-1.4h14.1c0.8 0 1.4 0.6 1.4 1.4 0 0.8-0.6 1.5-1.4 1.5h-14.1c-0.8-0.1-1.5-0.7-1.5-1.5z"/>
								</g>
								<path id="&lt;Path&gt;" class="s8" d="m1055.9 549v-29.7h8.5v29.7c0 2.4-1.9 4.3-4.3 4.3-2.3 0-4.2-1.9-4.2-4.3z"/>
							</g>
						</g>
						<g id="&lt;Group&gt;">
							<path id="&lt;Path&gt;" class="s9" d="m934 506.9h154v4h-154z"/>
							<path id="&lt;Path&gt;" class="s10" d="m926 554.3h172v10h-172z"/>
							<g id="&lt;Group&gt;">
								<path id="&lt;Path&gt;" class="s10" d="m932.8 501.4h4.4v57.9h-4.4z"/>
								<path id="&lt;Path&gt;" class="s10" d="m1085.4 501.4h4.4v57.9h-4.4z"/>
							</g>
						</g>
					</g>
				</g>
				<g id="&lt;Group&gt;">
					<g id="&lt;Group&gt;">
						<g id="&lt;Group&gt;">
							<path id="&lt;Path&gt;" class="s11" d="m304.7 707.4c36.2-45.5 53.9-105.1 48.3-162.8-5.6-57.8-34.5-112.9-80.5-151.2 0.7 42.7-1.1 85.5-5.3 128.1-4 40.5-10.1 81.9-0.4 121.4 5.7 23.5 17.1 45.6 37.9 64.5z"/>
							<g id="&lt;Group&gt;">
								<path id="&lt;Path&gt;" class="s2" d="m301.3 759.3c0-143.1 37.9-189.3-17.7-340.3"/>
								<path id="&lt;Path&gt;" class="s2" d="m310.1 443.9q-5.8 12.4-11.7 24.8c-6.9-3.4-14.4-5.4-22.1-6"/>
								<path id="&lt;Path&gt;" class="s2" d="m271.3 529.9c14.6 0.6 29 4.5 41.9 11.4 8.5-10.5 18.7-19.8 30-27.3"/>
								<path id="&lt;Path&gt;" class="s2" d="m269.7 599.3c14.6-1.2 29.7 2.7 41.9 10.7 11.9-12.6 25.6-23.5 40.6-32.3"/>
								<path id="&lt;Path&gt;" class="s2" d="m276.3 656.5c11 1.2 21.5 6.4 29 14.5 7.9-10.8 17.6-20.4 28.6-28.2"/>
							</g>
						</g>
						<g id="&lt;Group&gt;">
							<path id="&lt;Path&gt;" class="s12" d="m330.8 703c0 0-30.8-67.4 8.6-141.1 21.8-40.8 68.9-90.3 127.7-131.8 0 0-28 152.2-62.7 215.8-26.8 49.1-73.6 57.1-73.6 57.1z"/>
							<g id="&lt;Group&gt;">
								<path id="&lt;Path&gt;" class="s2" d="m445.8 459.6c-60.7 97.4-103.9 203.8-138.1 313.2"/>
								<path id="&lt;Path&gt;" class="s2" d="m407.2 483.7c3.6 8.5 6.6 17.3 8.7 26.2 10.3-1.9 20.7-3.2 31.2-3.9"/>
								<path id="&lt;Path&gt;" class="s2" d="m359 544.9c8.5 12 15.4 25.2 20.4 39.1 16.1-7.7 33.4-13 51-15.5"/>
								<path id="&lt;Path&gt;" class="s2" d="m330.7 596.6c10.4 13.4 18.3 28.7 23.1 44.9 18.1-7.7 37-13.4 56.3-17"/>
								<path id="&lt;Path&gt;" class="s2" d="m323 658.8c6 6.7 11.6 13.8 16.8 21.1 13.3-5.5 27.3-9.4 41.5-11.6"/>
							</g>
						</g>
						<g id="&lt;Group&gt;">
							<path id="&lt;Path&gt;" class="s13" d="m272.7 716.6c0 0 26.7-37.8 6.9-103.5-27-89.9-139.6-153.7-139.6-153.7 0 0 30.2 123 53.7 184.4 23.9 62 79 72.8 79 72.8z"/>
							<g id="&lt;Group&gt;">
								<path id="&lt;Path&gt;" class="s2" d="m279.6 749.6c0 0-15.3-123.8-124.7-273"/>
								<path id="&lt;Path&gt;" class="s2" d="m194.5 502.7c-3.2 7.4-5.3 15.3-6.3 23.3-7.6-2.1-15.6-3.2-23.6-3.2"/>
								<path id="&lt;Path&gt;" class="s2" d="m180.1 586.1c14.9-2.3 30.4-1.3 44.8 3.1 2.8-13.4 9.1-26 18.1-36.4"/>
								<path id="&lt;Path&gt;" class="s2" d="m275.6 611.9c-10.2 11.2-18.2 24.3-23.4 38.5-14.1-6.1-30.4-7.2-45.2-2.9"/>
								<path id="&lt;Path&gt;" class="s2" d="m238.8 696.8c9.7-1.8 19.8-1.9 29.6-0.4 3.4-7.9 8.2-15 14.3-21.1"/>
							</g>
						</g>
					</g>
					<g id="&lt;Group&gt;">
						<path id="&lt;Path&gt;" class="s14" d="m375.4 727.1l-4.3 23.8-4.6 26.1-2.4 13.8-4.6 26.2-12.4 69.7h-89.9l-12.6-69.7-4.7-26.2-2.5-13.8-4.7-26.1-4.3-23.8z"/>
						<path id="&lt;Path&gt;" class="s15" d="m371.1 750.9l-4.6 26.1h-129.1l-4.7-26.1z"/>
						<path id="&lt;Path&gt;" class="s16" d="m364.1 790.8l-4.6 26.2h-114.9l-4.7-26.2z"/>
					</g>
				</g>
			</g>
			<g id="&lt;Group&gt;">
				<g id="&lt;Group&gt;">
					<g id="&lt;Group&gt;">
						<g id="&lt;Group&gt;">
							<g id="&lt;Group&gt;">
								<path id="&lt;Path&gt;" class="s17" d="m391.8 850.2h147.3v13.7h-147.3z"/>
								<g id="&lt;Group&gt;">
									<path id="&lt;Path&gt;" class="s18" d="m417 723.4q0 0.5-0.1 1l-2.3 18.9-20.4 168.2c-0.5 4.5-4.5 7.7-8.9 7.1-4.1-0.5-7-4-7-8.1q0-0.5 0-1l20.2-166.2 2.5-20.9c0.5-4.5 4.5-7.7 8.9-7.2 4.1 0.5 7.1 4.1 7.1 8.2z"/>
									<path id="&lt;Path&gt;" class="s17" d="m417 723.4q0 0.5-0.1 1l-2.3 18.9h-16.1l2.5-20.9c0.6-4.5 4.5-7.7 8.9-7.2 4.1 0.5 7.1 4.1 7.1 8.2z"/>
								</g>
								<g id="&lt;Group&gt;">
									<path id="&lt;Path&gt;" class="s18" d="m475.5 721.9v188.6c0 4.5-3.6 8.2-8 8.2-2.2 0-4.2-0.9-5.7-2.4-1.4-1.5-2.3-3.6-2.3-5.9v-188.5c0-4.5 3.6-8.2 8-8.2 2.2 0 4.2 0.9 5.6 2.4 1.5 1.5 2.4 3.6 2.4 5.8z"/>
									<path id="&lt;Path&gt;" class="s17" d="m473.1 716.1c1.5 1.5 2.3 3.6 2.3 5.9v21.3h-16v-21.3c0-4.6 3.6-8.3 8-8.3 2.3 0 4.3 0.9 5.7 2.4z"/>
								</g>
								<g id="&lt;Group&gt;">
									<path id="&lt;Path&gt;" class="s18" d="m556 910.5c0 4.1-3 7.6-7 8.1-4.4 0.6-8.4-2.6-9-7.1l-20.4-168.2-2.2-18.9q-0.1-0.5-0.1-1.1c0-4 3-7.6 7-8.1 4.4-0.6 8.4 2.6 9 7.1l2.5 20.9 20.1 166.2c0.1 0.4 0.1 0.7 0.1 1.1z"/>
									<path id="&lt;Path&gt;" class="s17" d="m535.8 743.3h-16.1l-2.3-18.9q-0.1-0.5-0.1-1.1c0-4 3-7.6 7-8.1 4.4-0.6 8.4 2.6 9 7.1z"/>
								</g>
							</g>
							<g id="&lt;Group&gt;">
								<path id="&lt;Path&gt;" class="s19" d="m570.6 700.7v5.3c0 9.4-7.6 16.9-16.9 16.9h-151.3c-9.4 0-16.9-7.5-16.9-16.9v-5.3c0-9.4 7.5-16.9 16.9-16.9h151.3c9.3 0 16.9 7.5 16.9 16.9z"/>
								<path id="&lt;Path&gt;" class="s20" d="m570.6 700.7v5.3c0 9.4-7.6 16.9-16.9 16.9h-137.4c-9.3 0-16.9-7.5-16.9-16.9v-5.3c0-9.4 7.6-16.9 16.9-16.9h137.4c9.3 0 16.9 7.5 16.9 16.9z"/>
							</g>
						</g>
						<g id="&lt;Group&gt;">
							<path id="&lt;Path&gt;" class="s21" d="m412.6 363.8c-1.9 3.9-3.8 7.8-5.5 11.6-1.2 6.6-0.5 13.5 0 20.3 0.4 6.7 0.7 13.6-1.2 20.2-1.9 6.5-6.3 12.7-12.8 15.2-4.3 1.6-9.3 1.7-12.6 4.8-3.7 3.5-3.5 9.4-2.1 14.2 1.1 4.1 2.9 8.1 6.2 10.9 3.2 2.9 8.4 4.7 11.9 2.7 3.5-2.1 8.1-0.6 10.6 2.5 2.5 3.1 3.7 7 6.2 10.2 3.5 4.4 9.4 6.7 15.2 6.8 5.8 0.2 11.9-0.6 15.8-3 8.2-5.2 18.5-8.7 27-3.8 4.5 2.6 8 6.6 12.8 8.5 4.1 1.5 8.9 1.2 12.7-0.8 3.9-2 5.4-6.4 7.8-9.7 4.4-6.2 15.2-1.2 22.6-3.2 8-2.2 13.4-11 11.5-18.8-1.9-7.8-10.5-10.6-18.2-11.7-5.3-0.8-7.5-7.6-8.7-12.6-1.3-5.1-1-10.3-0.8-15.5 0.4-10.6 5.3-35.3 2.2-38.6-1.6-1.8-7.6-6.2-9.8-7.1q-15-6.9-30.1-13.8c-9.1-4.2-18.7-8.4-28.8-8.2-10.1 0.3-24.7 4.2-31.9 18.9z"/>
							<g id="&lt;Group&gt;">
								<path id="&lt;Path&gt;" class="s22" d="m447.4 459.1c0 0-44.6 7-49.3 22.8-4.7 15.8 22.3 126.2 22.3 126.2l100.2-6.1c0 0 7.2-127.3-8.7-135.3-15.9-7.9-64.5-7.6-64.5-7.6z"/>
								<g id="&lt;Group&gt;">
									<path id="&lt;Path&gt;" class="s23" d="m486.2 463.5c0 0-6.5 22.1-18.3 27-11.7 4.8-37.5-24.7-37.5-24.7 5.2-3.3 7.1-11.3 7.8-18.5 0.6-7.4-0.1-14-0.1-14l35.8 6.9c-0.9 11.1 2.3 16.9 5.7 20 3.3 2.9 6.6 3.3 6.6 3.3z"/>
									<path id="&lt;Path&gt;" class="s24" d="m479.6 460.2c-17 2.2-32.4-6.3-41.4-12.9 0.6-7.3-0.1-13.9-0.1-13.9l35.8 6.8c-1 11.1 2.3 16.9 5.7 20z"/>
								</g>
							</g>
							<g id="&lt;Group&gt;">
								<g id="&lt;Group&gt;">
									<g id="&lt;Group&gt;">
										<path id="&lt;Path&gt;" class="s25" d="m583.2 878.6c-3.9 6.4-70.9-34.9-70.9-42 0-4.6 8.8-11.3 14.9-15.4 3.2-2.2 5.7-3.7 5.7-3.7l15.6-7.2 7.1 3.8c10.2 17.7 20 36.1 24.9 48.9 3 7.6 4.1 13.2 2.7 15.6z"/>
										<path id="&lt;Path&gt;" class="s24" d="m580.6 863c-19.2 0.8-44.6-30.2-53.4-41.8 3.2-2.2 5.7-3.7 5.7-3.7l15.7-7.2 7 3.8c10.3 17.7 20.1 36.1 25 48.9z"/>
									</g>
									<path id="&lt;Path&gt;" class="s26" d="m514.3 611.4c0 0 121.9 15.5 126.1 46.7 4.1 31.2-76.5 169-76.5 169l-29-7.6 37.8-123.1-97.1-41.2 19.3-43.8z"/>
								</g>
								<g id="&lt;Group&gt;">
									<g id="&lt;Group&gt;">
										<path id="&lt;Path&gt;" class="s25" d="m553.6 882.2c-3.9 6.4-70.9-34.9-70.9-42 0-4.7 8.7-11.4 14.8-15.5 3.3-2.2 5.8-3.6 5.8-3.6l15.6-7.2 7 3.8c10.3 17.7 20.1 36.1 25 48.9 2.9 7.6 4.1 13.2 2.7 15.6z"/>
										<path id="&lt;Path&gt;" class="s23" d="m550.9 866.6c-19.2 0.8-44.6-30.3-53.4-41.9 3.3-2.2 5.8-3.6 5.8-3.6l15.6-7.2 7.1 3.8c10.2 17.6 20 36.1 24.9 48.9z"/>
									</g>
									<g id="&lt;Group&gt;">
										<path id="&lt;Path&gt;" class="s27" d="m411.4 601c0 0-42.3 83.5 32.1 92.6 54 6.5 89.8 5.2 90.9 8.2 1.9 4.8-35.1 121.5-35.1 121.5l36.4 11.5c0 0 75.4-161.9 71.3-176-3.4-11.6-107.4-29.3-107.4-29.3 8.8-4.1 15.2-19.3 14.3-38.8z"/>
										<g id="&lt;Group&gt;">
											<path id="&lt;Path&gt;" class="s28" d="m423.1 593.7c0 0-24.2 53.4-4.8 75 22.8 25.5 122.8 17.3 129.8 26.3 5.6 7.2-38.6 125.2-38.6 125.2"/>
											<path id="&lt;Path&gt;" class="s28" d="m502.2 818.4l35.3 10.7"/>
										</g>
									</g>
								</g>
							</g>
							<g id="&lt;Group&gt;">
								<path id="&lt;Path&gt;" class="s24" d="m503.4 394.9c8.6-1 16.1 3.3 16.8 9.6 0.7 6.3-5.7 12.2-14.3 13.1-8.6 1-16.1-3.3-16.8-9.6-0.7-6.2 5.7-12.1 14.3-13.1z"/>
								<g id="&lt;Group&gt;">
									<path id="&lt;Path&gt;" class="s23" d="m418.3 394.4c0-29.7 18.8-53.7 44.1-53.7 25.3 0 45.8 24 45.8 53.7 0 29.7-12.9 55.2-36.7 56.1-24 0.9-53.2-26.5-53.2-56.1z"/>
									<path id="&lt;Path&gt;" class="s24" d="m420.7 401.3c12.8-5.9 23.2-16.5 27.9-29.4 6.6 7.4 16.2 11.6 26 13.5 9.7 1.8 19.7 1.4 29.1 1.2 3 2.6 5.1 6.2 5.8 10.1 1.1-8.8 0.2-17.8-2.7-26.2q-37.8-11.6-75.1-24.5c-3.8 17.7-7.5 35.5-11 55.3z"/>
								</g>
								<g id="&lt;Group&gt;">
									<path id="&lt;Path&gt;" class="s29" d="m444.5 358.3c5.4 10.3 15.9 17.1 26.9 20.6 11 3.5 22.7 4.1 34.5 4.4 1.8 6.4 2.2 14 2.2 20.6 4-9.4 6.1-17.4 6.5-25.1 0.1-2.3 0.1-4.5 0-6.9-0.6-16.4-7.3-25.6-16.4-32.6-9.1-7-20.2-9.9-31.6-9.9-11.3 0-18.5 2.5-22.8 7q-2.3 2.4-3.5 5.4c-1.9 4.3 0.2 9 4.2 16.5z"/>
									<path id="&lt;Path&gt;" class="s29" d="m406.8 404.9c-0.4-14.5-1.3-39.4 4.5-51.2 3.9-7.8 11.1-14.2 19.7-15.4 8.5-1.1 18 4.2 20 12.6-3.8 19.5-13.6 37.3-27.4 51.4-4.8 2.3-11.9 3.8-16.8 2.6z"/>
									<path id="&lt;Path&gt;" class="s30" d="m443.8 336.4c16.5-4.5 35.1-0.5 48.8 9.9 10.6 8 18.2 19.7 22 32.5 0.1-2.2 0.1-4.5 0-6.9-0.6-16.3-7.3-25.6-16.4-32.6-9.1-6.9-20.2-9.9-31.6-9.9-11.4 0-18.5 2.6-22.8 7z"/>
								</g>
								<path id="&lt;Path&gt;" class="s23" d="m401.5 405.3c1.5-6.1 9.6-9.3 18-7.2 8.3 2.2 13.9 8.9 12.3 15-1.6 6.1-9.6 9.3-18 7.2-8.4-2.2-13.9-8.9-12.3-15z"/>
								<g id="&lt;Group&gt;">
									<path id="&lt;Path&gt;" class="s31" d="m464.1 405.4c1.3 0 2.4 1.7 2.4 3.8 0 2.1-1.1 3.8-2.4 3.8-1.3 0-2.4-1.7-2.4-3.8 0-2.1 1.1-3.8 2.4-3.8z"/>
									<path id="&lt;Path&gt;" class="s31" d="m497.2 405.4c1.3 0 2.4 1.7 2.4 3.8 0 2.1-1.1 3.8-2.4 3.8-1.3 0-2.4-1.7-2.4-3.8 0-2.1 1.1-3.8 2.4-3.8z"/>
									<path id="&lt;Path&gt;" class="s32" d="m490.3 391.5c4-1.4 9.8-1.1 13.9 1.7"/>
									<path id="&lt;Path&gt;" class="s32" d="m466.2 391.1c-4.5-2-12.7-1.6-16.5 2.8"/>
									<path id="&lt;Path&gt;" class="s33" d="m481.1 406.9c1 4 0.2 9.1-1.1 12.2"/>
									<path id="&lt;Path&gt;" class="s33" d="m478.2 430.9c-5.3 1-14.8-2-17.4-6.4"/>
								</g>
							</g>
							<g id="&lt;Group&gt;">
								<g id="&lt;Group&gt;">
									<path id="&lt;Path&gt;" class="s23" d="m497.2 477l17.9-10.8c0 0 15 1.3 25.2 20 10.2 18.6 29.3 78.9 35.3 81.6 6 2.6 79.4 3.6 79.4 3.6l1 21.5c0 0-89.9 14.2-100.6 8.3-10.7-5.9-45.4-75.4-45.4-75.4z"/>
									<path id="&lt;Path&gt;" class="s25" d="m496.1 474.5l3.5-12c0 0 19.7 0.8 29.8 8.7 10 7.9 18.3 29.4 18.3 29.4l-25.6 41.4z"/>
									<path id="&lt;Path&gt;" class="s34" d="m526.5 557.6c0 0 27.6-23.8 31.8-29.8 2.1-2.9 17 31.7 14.5 36-4 6.7-29.1 23-30.5 22-1.4-0.9-15.8-28.2-15.8-28.2z"/>
									<path id="&lt;Path&gt;" class="s35" d="m519.3 535.9q12.5-19.8 24.9-39.5c0.5-0.7 0.9-1.5 1.7-2 2-1.4 5 0.3 5.9 2.7 0.8 2.3 0.2 4.9-0.4 7.3 2.6-0.4 5 2.2 5.3 4.8 0.4 2.7-0.8 5.3-2 7.7-7.7 14.5-20.6 26.2-35.8 32.5-0.7-4.5-2.1-9.5 0.4-13.5z"/>
									<g id="&lt;Group&gt;">
										<path id="&lt;Path&gt;" class="s23" d="m643.7 574.7c10.2-7.2 30.1-21.5 31.6-22.2 1.8-0.8 13.9-0.9 20.4 1.1 6.6 2 12.7 6.5 15.1 13 0.7 1.8 0.9 4.3-0.7 5.3-1.1 0.7-2.5 0.5-3.6-0.2-1.1-0.6-1.9-1.6-2.7-2.5-4.4-4.8-8.4-6.7-15.6-7.1 8.5 1.3 14 6.6 16.5 14.9 0.5 1.7 0.7 3.8-0.6 4.8-1.1 0.9-2.7 0.7-3.8-0.1-1.2-0.7-1.9-1.9-2.8-2.9-3.1-4-7.3-7.2-12-9.1 6.5 2.8 11.4 9.2 12.4 16.3 0.2 1 0.3 2.1-0.1 3.1-0.4 0.9-1.5 1.7-2.5 1.5-0.8-0.1-1.4-0.7-1.9-1.3-3.6-4.1-6.4-8.3-11.1-11.2 4.3 5.7 8 15.1 7.1 17.5-0.3 0.8-2.2 2.1-4.2 0-2.4-2.3-4-6.3-7.6-10.8-6.3 7-16.3 10.2-25.4 8.1-2.9-6.1-5.8-12.3-8.5-18.2z"/>
										<path id="&lt;Path&gt;" class="s36" d="m662.3 565.6q11-4 22.3-6.7c1-0.2 2.1-0.5 3.1-0.4 1 0.2 2 0.7 2.5 1.6 0.4 1 0.1 2.2-0.5 3-0.6 0.9-1.5 1.5-2.4 2.1-3.2 1.9-6.6 3.6-10.1 5.3-0.7 5.4-4.7 10.2-9.8 11.9"/>
									</g>
								</g>
								<path id="&lt;Path&gt;" class="s25" d="m480.2 460.6c4.3 3.7 7.1 24.6 9.3 38 3.3 19.9 20.1 106.7 21.1 112.8 1.8 10.9 36.1 10.1 37.5 4.5 0.2-1.1-10-5.8-11.7-12.8-1.4-6.2-12.8-127-18.3-133.3-7.3-8.4-39.2-10.4-37.9-9.2z"/>
							</g>
							<g id="&lt;Group&gt;">
								<path id="&lt;Path&gt;" class="s25" d="m433.1 460.6c3.6 1.2 14.9 25.1 20.2 47 11.2 45.6 4.5 113.4 0 122.4-4.5 9-48.3 12.9-55.8 10.5-4.3-1.4-9-138-6-155.2 2-11.4 40.6-25.1 41.6-24.7z"/>
								<path id="&lt;Path&gt;" class="s23" d="m498.8 613.2c9.2-3.3 35.9-10.4 39.6-10 3.8 0.4 7.6 1.7 10 4.8 1.5 2 2.2 4.6 2.9 7q1.7 6 3.4 12c0.4 1.4 0.8 2.9 0.6 4.3-0.2 1.5-1.2 2.9-2.5 3-2 0.2-3.2-2.1-3.9-4.1-1.8-4.9-3.6-9.9-5.3-14.8q1.7 9.2 3.5 18.4c0.3 1.5 0.5 3 0.2 4.4-0.3 1.5-1.5 2.8-2.8 2.8-2.1 0-3.1-2.7-3.5-4.8-1-4.8-2.1-9.6-3.7-14.4 2.2 6.8 2.5 14.2 0.9 21.1-0.2 1.1-0.5 2.2-1.3 2.9-0.7 0.8-2 1.1-2.7 0.4-0.6-0.6-0.7-1.5-0.8-2.3q-0.9-9.3-1.9-18.6c0.6 6.5 1.2 13.2-0.6 19.5-0.3 1.1-0.8 2.2-1.6 3-0.8 0.8-2.1 1-3 0.3-0.8-0.7-0.9-2-0.9-3.1-0.2-3.9-0.3-7.8-0.3-12.4-3.5 4.1-8.2 6.7-13.3 7.5-5 0.8-10.2-0.4-15.2-1.9 0.5-7.3 0.9-14.6 2.2-25z"/>
								<path id="&lt;Path&gt;" class="s25" d="m430.4 501.4c-2.8-13-14.4-33.9-23.9-29.6-5.4 2.5-21 7.7-21 41.9 0 46.3 6 107.1 21 117.3 7.6 5.1 90.7 10.2 90.7 10.2l6.1-29.8c0 0-61.3-11.3-64.1-19.7-4-11.9-1.4-55.9-8.8-90.3z"/>
								<g id="&lt;Group&gt;">
									<path id="&lt;Path&gt;" class="s37" d="m423.1 494.3c10.3 34.7 12.5 93.9 14 97.4 1.4 3.3 9.2 4.6 15.3 6.7"/>
									<path id="&lt;Path&gt;" class="s37" d="m434.9 636.3c-11.4-1.2-25.6-3.4-28.8-5.8-3.7-2.7-8.2-16.3-11.4-25.6"/>
									<path id="&lt;Path&gt;" class="s37" d="m433.2 551.8c4.1-5.2 5.8-13.7 6.1-24.1"/>
								</g>
							</g>
						</g>
					</g>
					<g id="&lt;Group&gt;">
						<g id="&lt;Group&gt;">
							<g id="&lt;Group&gt;">
								<g id="&lt;Group&gt;">
									<path id="&lt;Path&gt;" class="s17" d="m736.7 846.6h147.4v13.4h-147.4z"/>
									<g id="&lt;Group&gt;">
										<path id="&lt;Path&gt;" class="s18" d="m762 723.1q-0.1 0.5-0.1 1l-2.3 18.4-20.4 163.8c-0.5 4.4-4.5 7.5-8.9 7-4.1-0.5-7.1-4-7.1-7.9q0-0.6 0.1-1.1l20.1-161.8 2.6-20.4c0.5-4.4 4.5-7.5 8.9-6.9 4.1 0.5 7.1 3.9 7.1 7.9z"/>
										<path id="&lt;Path&gt;" class="s17" d="m762 723.1q-0.1 0.5-0.1 1l-2.3 18.4h-16.1l2.5-20.4c0.5-4.3 4.5-7.5 8.9-6.9 4.1 0.5 7.1 3.9 7.1 7.9z"/>
									</g>
									<g id="&lt;Group&gt;">
										<path id="&lt;Path&gt;" class="s18" d="m820.4 721.7v183.6c0 4.5-3.6 8-8 8-2.2 0-4.2-0.9-5.6-2.3-1.5-1.5-2.4-3.5-2.4-5.7v-183.6c0-4.4 3.6-8 8-8 2.2 0 4.2 0.9 5.7 2.4 1.4 1.4 2.3 3.4 2.3 5.6z"/>
										<path id="&lt;Path&gt;" class="s17" d="m818.1 716.1c1.4 1.4 2.3 3.4 2.3 5.6v20.8h-16v-20.8c0-4.4 3.6-8 8-8 2.2 0 4.2 0.9 5.7 2.4z"/>
									</g>
									<g id="&lt;Group&gt;">
										<path id="&lt;Path&gt;" class="s18" d="m901 905.3c0 4-3 7.5-7.1 8-4.4 0.6-8.4-2.6-8.9-7l-20.4-163.8-2.3-18.4q0-0.5 0-1c0-3.9 2.9-7.4 7-7.9 4.4-0.6 8.4 2.6 8.9 7l2.6 20.3 20.1 161.9q0.1 0.5 0.1 0.9z"/>
										<path id="&lt;Path&gt;" class="s17" d="m880.8 742.5h-16.2l-2.2-18.4q-0.1-0.5-0.1-1c0-4 3-7.4 7-7.9 4.4-0.6 8.4 2.6 9 6.9z"/>
									</g>
								</g>
								<g id="&lt;Group&gt;">
									<path id="&lt;Path&gt;" class="s38" d="m915.5 700.7v5.3c0 9.4-7.5 16.9-16.9 16.9h-151.2c-9.4 0-16.9-7.5-16.9-16.9v-5.3c0-9.4 7.5-16.9 16.9-16.9h151.2c9.4 0 16.9 7.5 16.9 16.9z"/>
									<path id="&lt;Path&gt;" class="s39" d="m915.5 700.7v5.3c0 9.4-7.5 16.9-16.9 16.9h-137.3c-9.3 0-16.9-7.5-16.9-16.9v-5.3c0-9.4 7.6-16.9 16.9-16.9h137.3c9.4 0 16.9 7.5 16.9 16.9z"/>
								</g>
							</g>
							<g id="&lt;Group&gt;">
								<g id="&lt;Group&gt;">
									<g id="&lt;Group&gt;">
										<g id="&lt;Group&gt;">
											<path id="&lt;Path&gt;" class="s40" d="m717.4 459.1c3-5 0.1-11.5 1-17.2 0.3-1.6 1-3.2 2.2-4.3 1.3-1 3.3-1.1 4.5 0 1.4 1.4 0.9 3.7 0.9 5.7 0 3.6 1.7 6.9 2.4 10.3 1.8 8.5-2.7 15.4-6.9 22.7-5.4 3.7-12.7 6.3-17.2 6.8-2.8 0.3-17.4-7.8-23-25-2.9-8.6-2.6-12.2-1.6-13.4 1-1.2 2.8-1.7 4.1-0.8 0.7 0.5 1 1.4 1.3 2.3 1.9 5.2 3.7 10.4 5.4 15.7-7-6.5-10.9-16.3-10.3-25.9 0.1-1.8 0.6-4 2.4-4.6 1.1-0.3 2.4 0.2 3.2 1 0.8 0.9 1.4 2 1.9 3 2.5 5.5 5 10.9 8.6 17.4-6.5-6.1-9.2-15.7-6.9-24.3 0.4-1.4 1.2-3.1 2.7-3.1 1.5 0 2.4 1.6 3 3.1q3.8 10.3 7.7 20.6c-3.7-5.7-5.3-12.7-4.4-19.5 0.4-2.4 1.6-5.3 4.1-5.4 1.4-0.1 2.7 0.9 3.4 2.1 0.8 1.2 1.1 2.6 1.4 3.9 1.9 7.9 5.4 15.3 10.1 28.9z"/>
											<path id="&lt;Path&gt;" class="s41" d="m681.2 444.1c2.3-0.7 3.9 0.1 4.8 3.4 1.2 4.7 4.5 15.5 7.9 17.9"/>
										</g>
										<path id="&lt;Path&gt;" class="s40" d="m722.2 472l8.4 19.6-22.2 13.4-9.9-26.1z"/>
									</g>
									<g id="&lt;Group&gt;">
										<g id="&lt;Group&gt;">
											<path id="&lt;Path&gt;" class="s42" d="m721.3 449c-1.6-8.9-8.4-15.4-16.1-16.3l-0.1-0.6c0 0-4 0.7-5.4 1-8.7 2-14.1 11.8-12.3 22 1.8 10.1 10.3 17.5 19.2 16.3 1.3-0.2 5.3-0.9 5.3-0.9l-0.1-0.6c7-3.4 11.1-11.9 9.5-20.9z"/>
										</g>
										<path id="&lt;Path&gt;" class="s43" d="m704.8 432.2c9.3-1.7 18.4 5.6 20.3 16.2 1.9 10.6-4.1 20.5-13.5 22.2-9.3 1.6-18.4-5.6-20.3-16.2-1.9-10.6 4.1-20.6 13.5-22.2z"/>
										<g id="&lt;Group&gt;">
											<path id="&lt;Path&gt;" class="s22" d="m721.2 449.1c-1.5-8.2-8.5-13.8-15.7-12.5q-0.2 0-0.4 0.1c-6.9 1.5-11.4 9-10 17 1.5 8 8.2 13.5 15.3 12.5 0.1 0 0.3 0 0.4-0.1 7.2-1.2 11.9-8.9 10.4-17z"/>
										</g>
									</g>
								</g>
								<path id="&lt;Path&gt;" class="s7" d="m790.2 466.8l-13.7-10.4c0 0-8.9 5.1-13.6 15.6-4.8 10.6-11 45.7-11 45.7l-25.5-42.3-32.5 23.1c0 0 36 91.1 57.7 92.2 21.7 1.1 36.9-19 36.9-19z"/>
							</g>
							<g id="&lt;Group&gt;">
								<g id="&lt;Group&gt;">
									<path id="&lt;Path&gt;" class="s23" d="m682.6 860.6l4.2 26.1 17.1 6.9 19.6-9.4-3.6-25.7z"/>
									<g id="&lt;Group&gt;">
										<path id="&lt;Path&gt;" class="s44" d="m734.5 918.7l-88.5-1.3c0 0-0.6-1.8-0.9-4.5-0.3-4.2 0.3-10.3 5.5-14.4 7.5-5.8 19.3-6.6 27-9.6 4.6-1.8 7.3-6.3 7.3-6.3l12.6 0.7c0 0 1.1 7 5.8 6.6 4.6-0.4 20.1-8 20.1-8 8 13.7 10.3 24.7 11 31 0.3 3.7 0.1 5.8 0.1 5.8z"/>
										<path id="&lt;Path&gt;" class="s45" d="m734.5 918.7l-88.5-1.3c0 0-0.6-1.8-0.9-4.5h89.3c0.3 3.7 0.1 5.8 0.1 5.8z"/>
									</g>
								</g>
								<g id="&lt;Group&gt;">
									<g id="&lt;Group&gt;">
										<path id="&lt;Path&gt;" class="s23" d="m788.5 860.6l4.2 26.1 17 6.9 19.7-9.4-3.6-25.7z"/>
										<g id="&lt;Group&gt;">
											<path id="&lt;Path&gt;" class="s44" d="m840.4 918.7l-88.5-1.3c0 0-0.6-1.8-0.9-4.5-0.3-4.2 0.2-10.3 5.5-14.4 7.4-5.8 19.3-6.6 26.9-9.6 4.6-1.8 7.4-6.3 7.4-6.3l12.6 0.7c0 0 1.1 7 5.7 6.6 4.7-0.4 20.2-8 20.2-8 8 13.7 10.3 24.7 11 31 0.3 3.7 0.1 5.8 0.1 5.8z"/>
											<path id="&lt;Path&gt;" class="s45" d="m840.4 918.7l-88.5-1.3c0 0-0.6-1.8-0.9-4.5h89.2c0.4 3.7 0.2 5.8 0.2 5.8z"/>
										</g>
									</g>
									<g id="&lt;Group&gt;">
										<path id="&lt;Path&gt;" class="s46" d="m783.3 602.6l-14.5 23.5c0 0-83 12.6-96.4 33-12.4 18.7 4.4 208.9 4.4 208.9h57c0 0-4.4-140.5 0-153.5 4.3-13 135.1-12.2 142.6-29.9 7.5-17.6 10-79.5 10-79.5"/>
										<path id="&lt;Path&gt;" class="s47" d="m888.7 629.7c0 0 3.2 50.9-13.5 63.1-14.5 10.6-51.4 13.3-51.4 13.3l7.1 158.3-54.5 3.6c0 0-27.1-184.8-25.8-202.5 1.2-17.7 53.7-30.5 50.1-33.1 0 0-40.4-13.7-25.4-28.8q0.5-0.5 1.1-1c3.4-3.1 46 0.1 46 0.1l39.3-3.6 15.5 17.6z"/>
									</g>
								</g>
							</g>
							<path id="&lt;Path&gt;" class="s46" d="m886.7 645.8c-0.4 2.5-0.7 5.2-1.1 7.9-6.8-8.5-17.6-21-27.2-26.3-19.9-10.9-83.3-18.4-83.3-18.4l0.2-5.4q0.5-0.5 1.1-1c3.5-3.1 46.1 0.1 46.1 0.1l39.2-3.6 15.6 17.6z"/>
							<g id="&lt;Group&gt;">
								<g id="&lt;Group&gt;">
									<path id="&lt;Path&gt;" class="s40" d="m860.4 441.3c0 0-23.4 30.2-38 28.7-14.5-1.6-25.9-17.7-25.9-17.7 0 0 5.8-2.2 8.4-11.7 1.4-5.5 1.8-13.5-0.7-24.9l43.2-6.4c0 0-0.3 7.2 1.7 15 1.6 6.6 4.8 13.7 11.3 17z"/>
									<path id="&lt;Path&gt;" class="s24" d="m804.9 440.6c1.4-5.5 1.8-13.4-0.7-24.9l43.2-6.4c0 0-0.3 7.2 1.7 15-11.7 9.8-27.8 15.8-44.2 16.3z"/>
								</g>
								<g id="&lt;Group&gt;">
									<g id="&lt;Group&gt;">
										<path id="&lt;Path&gt;" class="s24" d="m764.4 390.1c0.7-5.8 7.7-9.8 15.7-8.9 8 0.9 14 6.4 13.3 12.2-0.6 5.9-7.7 9.9-15.7 9-8-1-14-6.4-13.3-12.3z"/>
										<g id="&lt;Group&gt;">
											<path id="&lt;Path&gt;" class="s48" d="m780.8 391.7v-0.2c0-1.9-1.5-3.5-3.4-3.5h-2c-1.9 0-3.5 1.6-3.5 3.5v0.2c0 1.9 1.6 3.5 3.5 3.5h2c1.9 0 3.4-1.6 3.4-3.5z"/>
											<path id="&lt;Path&gt;" class="s48" d="m771.9 391.6h3v8h-3z"/>
										</g>
									</g>
									<g id="&lt;Group&gt;">
										<path id="&lt;Path&gt;" class="s40" d="m862.1 375c0-27.7-19.1-50.1-42.7-50.1-23.6 0-42.7 14.8-42.7 50.1 0 27.6 10.7 51.6 36.1 53.3 23.5 1.5 49.3-25.7 49.3-53.3z"/>
										<path id="&lt;Path&gt;" class="s24" d="m857.1 388.1c-7.9-7.6-13.7-17.2-16.5-27.9-4 1.3-8.6 0.5-11.5-1.7-8.6 3.5-18.9 2.9-26.8-1.5-6.2 2.8-13.7 2.7-19.9-0.7-3 4.1-5.2 8.7-6.6 13.6q0.9-14.3 1.8-28.6 33.8-4.7 67.9-6.6c1.3-0.1 2.7-0.1 3.8 0.5 1.7 0.8 2.5 2.8 3 4.7 4.8 15.8 7.3 32.3 4.8 48.2z"/>
									</g>
									<g id="&lt;Group&gt;">
										<path id="&lt;Path&gt;" class="s44" d="m867.9 338.3c-0.9 14.2-1.8 32.5-2.8 46.5-1.3 4.8-5.4 4.7-11.1 6.5-5.2-11.7-8.4-24.2-10.3-38-5.5 1.5-11.4 1.1-17-1.1-8.3 3.2-17.8 3.4-26.4 0-6.5 2.1-13.5 2.5-19.6 0.3-2.3 7-3.5 17.6-4.1 25-0.8-6.8-3.4-27.9-4.1-42.3-0.2-6.2-0.2-11.2 0.5-13.3 2.7-7.9 11.4-5.4 13.7-2.7 1.6-3.6 5-6.4 8.8-7.3 3.9-0.9 8.2 0.1 11.7 2.8 2.4-4.6 7.4-7.6 12.6-7.7 5.1-0.1 10.2 2.7 12 7.6 2.4-1.3 4.9-2.5 7.5-3 2.7-0.5 5.6-0.2 7.9 1.2 1.1 0.7 2 1.7 2.8 3 0.7 1.3 1.3 2.8 1.5 4.5 2.2-3.1 6.7-3.6 10-1.9 3.3 1.7 5.3 5.2 6.1 8.8 0.8 3.6 0.6 7.4 0.3 11.1z"/>
										<path id="&lt;Path&gt;" class="s49" d="m850 315.8c-2.9-1.3-6.1-1.6-9.1-0.9-3.8 0.8-7.2 3.3-9.1 7-1.8-4.8-6.9-8.1-12-7.9-5.1 0.3-9.8 4.1-12.1 10-2.8-3.2-7.2-5-11.4-4.5-4.3 0.5-8.2 3.2-10 7.5-1.5-1.8-4.1-2.1-6.3-1.3-2.1 0.8-3.7 2.5-5 4.4-1 1.6-1.8 3.3-2.5 5-0.3-6.2-0.2-11.1 0.5-13.3 2.7-7.8 11.4-5.3 13.7-2.6 1.6-3.6 5-6.4 8.8-7.3 3.9-0.9 8.2 0.1 11.7 2.7 2.4-4.5 7.4-7.5 12.5-7.7 5.2 0 10.3 2.8 12.1 7.7 2.3-1.3 4.8-2.5 7.5-3 2.7-0.5 5.6-0.3 7.9 1.2q1.7 1.1 2.8 3z"/>
									</g>
									<g id="&lt;Group&gt;">
										<path id="&lt;Path&gt;" class="s50" d="m794 372.9c-3.7-0.9-7.7-0.2-10.9 1.9"/>
										<path id="&lt;Path&gt;" class="s50" d="m822.2 373.6c4-1.8 8.9-1.3 12.5 1.2"/>
										<path id="&lt;Path&gt;" class="s51" d="m805.1 388.9q0.1 5.9 1.1 11.8"/>
										<path id="&lt;Path&gt;" class="s51" d="m810.7 411.7c4.8 0.1 9.6-1.7 13.1-4.9"/>
										<path id="&lt;Path&gt;" class="s52" d="m823.8 388c1.2-0.2 2.4 0.9 2.6 2.5 0.3 1.5-0.4 3-1.6 3.2-1.2 0.2-2.5-0.9-2.7-2.5-0.3-1.6 0.4-3 1.7-3.2z"/>
										<path id="&lt;Path&gt;" class="s52" d="m790.3 388.4c1.2-0.2 2.4 0.9 2.7 2.5 0.2 1.6-0.5 3-1.7 3.3-1.2 0.2-2.4-0.9-2.7-2.5-0.3-1.6 0.5-3 1.7-3.3z"/>
									</g>
									<g id="&lt;Group&gt;">
										<path id="&lt;Path&gt;" class="s40" d="m858.4 381.2c8-1.1 15.1 2.7 15.9 8.5 0.8 5.9-5 11.5-13 12.6-8 1.1-15.1-2.7-15.9-8.6-0.8-5.8 5-11.4 13-12.5z"/>
										<g id="&lt;Group&gt;">
											<path id="&lt;Path&gt;" class="s48" d="m858 391.7v-0.2c0-1.9 1.5-3.5 3.4-3.5h2c1.9 0 3.5 1.6 3.5 3.5v0.2c0 1.9-1.6 3.5-3.5 3.5h-2c-1.9 0-3.4-1.6-3.4-3.5z"/>
											<path id="&lt;Path&gt;" class="s48" d="m863.9 391.6h3v8h-3z"/>
										</g>
									</g>
								</g>
							</g>
							<g id="&lt;Group&gt;">
								<path id="&lt;Path&gt;" class="s53" d="m855.1 434.7c0 0-23.7 14.3-27.9 19.4-4.1 5.2-5.3 12.2-5.3 12.2 0 0-5.7-11.9-7-12.9-1.3-1-11.2-10.5-11.2-10.5l-11.7 8.9-15.6 8.1 0.7 150 105.6 7.2 2.7-162.8z"/>
								<path id="&lt;Path&gt;" class="s54" d="m821.7 467.2c-5 42.1 3.7 115.6-10.4 144.2"/>
								<path id="&lt;Path&gt;" class="s55" d="m823.8 460.1c0 0 1.8-6.6 5.9-9.9 4.1-3.3 25.2-15.7 25.8-15.9 0.5-0.1 10.9 7.1 10.9 7.1l-15.7 22.3c0 0-16.1-11.3-19.8-10.4-3.6 1-7.1 6.8-7.1 6.8z"/>
								<path id="&lt;Path&gt;" class="s55" d="m818.9 460.1c0 0-1.3-4.7-3.4-7.3-2.5-3.1-10.7-11.9-11.5-11.8-0.9 0-9.2 5-10.7 8-1.4 3-0.6 17.3-0.6 17.3 0 0 14-13.3 19.5-11.8 3.7 1 6.7 5.6 6.7 5.6z"/>
							</g>
							<g id="&lt;Group&gt;">
								<path id="&lt;Path&gt;" class="s7" d="m864.1 438.8c0 0-18.3 17.3-21.1 34.8-2.7 17.5-1.7 109.5 15.3 140.2 14.7 26.6 16.1 111.2 16.1 150.5l51.6-17.7c0 0-0.3-70.5-16.9-135.8-12.9-50.6-0.5-143.1-7.9-152.1-5.1-6.3-37.1-19.9-37.1-19.9z"/>
								<path id="&lt;Path&gt;" class="s56" d="m842.4 537.1c0 0-4.3-48.7-0.1-64.3 4.1-15.7 16-35.6 19.2-36.3 5.3-1.1 17.2 8.1 17.2 8.1 0 0-9.6 16.7-12.4 42-0.3 2.3-19.2 9.2-19.2 9.2 0 0 14.8 10.8 14.6 11.9-0.3 1.1-19.3 29.4-19.3 29.4z"/>
							</g>
							<g id="&lt;Group&gt;">
								<g id="&lt;Group&gt;">
									<path id="&lt;Path&gt;" class="s43" d="m808.6 607.5c11 0 20 5.6 20 12.5 0 6.8-9 12.4-20 12.4-11.1 0-20-5.6-20-12.4 0-6.9 8.9-12.5 20-12.5z"/>
									<path id="&lt;Path&gt;" class="s23" d="m836 603.6q-10.2-1.3-20.4-2.7c-1.8-0.2-3.8-0.4-5.4 0.4-2.3 1-3.4 3.7-3.6 6.4 3.4 0.3 6.8 0.6 10.3 1.1-4.2 5.8-9.3 10.8-15 14.9-1.3 1-2.7 1.9-3.6 3.1-1 1.2-1.5 2.9-1 4.4 0.5 1.5 2 2.5 3.5 2.8 1.5 0.3 3.1 0 5 0.1-0.6 2.3 0.5 4.8 2.6 5.9 2 1.1 4.8 0.7 6.8-0.8 1 1.9 3 3.3 5.2 3.7 2.2 0.3 4.6-0.5 6.5-1.1 1.6 1.9 4.1 3 6.5 3 2.5-0.1 4.9-1.3 6.8-3 5.9-5.3 10.6-11.9 13.7-19.2-6.5-5.8-12.5-12-17.9-19z"/>
								</g>
								<g id="&lt;Group&gt;">
									<path id="&lt;Path&gt;" class="s7" d="m869 477.2c-0.5-9.6 4.4-27.8 11.3-29.7 10.9-3 29.3 13.3 34.1 26.3 4.9 12.9 19.5 92.4 15.4 103.2-5.6 14.7-79.8 54.4-79.8 54.4l-23-33.6c0 0 51.4-27.9 54.5-36.8 1.9-5.5-11.3-61.1-12.5-83.8z"/>
									<path id="&lt;Path&gt;" class="s57" d="m893.9 460.6c0 0-8.3 10.8-8.3 30.4 0 19.6 4.8 65.9 3.7 67.6-1.1 1.7-37.4 25.2-37.4 25.2"/>
									<path id="&lt;Path&gt;" class="s57" d="m886.2 520.5c-5.5-6.5-9.3-14.1-11-22"/>
									<path id="&lt;Path&gt;" class="s57" d="m866.5 623.5c11.8-6.5 28.8-16.5 39.1-24.7"/>
								</g>
							</g>
							<g id="&lt;Group&gt;">
								<path id="&lt;Path&gt;" class="s7" d="m800.7 442.2c0 0-3.1 12-3.1 32.9 0 35-4.6 132.3-23 146.7-14.5 11.3-32.6 10.6-40.8 10.6 0 0 17.1-9.1 23.5-19.7 7.1-11.8 8.3-49.2 9.3-68.6 1-20.7 2.8-77.6 5.2-82.5 5.1-10.7 28.9-19.4 28.9-19.4z"/>
								<path id="&lt;Path&gt;" class="s56" d="m794.7 540.1c0 0 4.2-33 4.2-55.9 0-25.6 4.2-43.3 4.2-43.3 0 0-14.5 4.7-16.1 7-1.6 2.4-9.2 15.9-13 41.6-0.7 4.2 16.5 7.7 16.5 7.7 0 0-13.2 10.3-13.2 12.9 0 5 17.4 30 17.4 30z"/>
								<g id="&lt;Group&gt;">
									<path id="&lt;Path&gt;" class="s57" d="m771 471.8c0 55.8-5.1 100.4-7.5 115.9"/>
									<path id="&lt;Path&gt;" class="s57" d="m763.1 491.8c1.4 8 4.9 15.9 7 18.3"/>
								</g>
							</g>
						</g>
						<g id="&lt;Group&gt;">
							<path id="&lt;Path&gt;" class="s58" d="m773.3 399.5c0 0 2.8 64.4 41.4 66.8 32.6 2.1 50.6-37.9 50.6-66.9"/>
							<g id="&lt;Group&gt;">
								<path id="&lt;Path&gt;" class="s59" d="m817.1 467.1c0 0-23.7 86.8-89.6 102.5-80.6 19.2-159.6-2.4-159.6-2.4"/>
								<path id="&lt;Path&gt;" class="s59" d="m710.7 469.6c0 0 9.1 52.6-31.7 79.8-36.1 24.2-111.1 16.7-111.1 16.7"/>
								<path id="&lt;Path&gt;" class="s59" d="m789.9 619.6c0 0-147.7 0.3-223-52.4"/>
							</g>
						</g>
					</g>
				</g>
			</g>
			<g id="&lt;Group&gt;">
				<g id="&lt;Group&gt;">
					<g id="&lt;Group&gt;">
						<path id="&lt;Path&gt;" class="s60" d="m402.9 167.9c16.1-29.9 47.9 10.3 47.9 10.3 0 0 31.8-34.4 47.8-12.1 16.6 23.2-47.8 77.1-47.8 77.1 0 0-61.5-49.8-47.9-75.3z"/>
						<path id="&lt;Path&gt;" class="s61" d="m397.6 201.5l22.3 0.2 6.9-27 14.3 51.4 11.3-62.3 12.2 56.1 7.3-40.7 7.9 21.4 24.3 0.6"/>
					</g>
				</g>
				<g id="&lt;Group&gt;">
					<g id="&lt;Group&gt;">
						<path id="&lt;Path&gt;" class="s7" d="m694 310.3l-57.4 32.9c-10.9 6.2-24.8 2.4-31.1-8.5-3.1-5.4-3.7-11.6-2.2-17.3 1.5-5.6 5.2-10.6 10.7-13.8l57.4-32.8c10.9-6.3 24.8-2.5 31.1 8.4 3.1 5.5 3.7 11.7 2.2 17.3-1.6 5.6-5.2 10.7-10.7 13.8z"/>
						<path id="&lt;Path&gt;" class="s62" d="m694 310.3l-28.7 16.4-22.6-39.5 28.7-16.4c10.9-6.3 24.8-2.5 31.1 8.4 3.1 5.5 3.7 11.7 2.2 17.3-1.6 5.6-5.2 10.7-10.7 13.8z"/>
					</g>
				</g>
				<g id="&lt;Group&gt;">
					<g id="&lt;Group&gt;">
						<g id="&lt;Group&gt;">
							<path id="&lt;Path&gt;" class="s7" d="m882.1 131.8v50.3c0 12.2-6.2 23.7-16.6 30.5l-20.8 12.1-19-12.4c-11.4-6.5-18.4-18.6-18.4-31.5v-49l37.2-10.7 0.2 0.1z"/>
							<path id="&lt;Path&gt;" class="s7" d="m882.1 131.8v50.3c0 12.2-6.2 23.7-16.6 30.5l-20.8 12.1v-103.5z"/>
						</g>
						<g id="&lt;Group&gt;">
							<path id="&lt;Path&gt;" class="s63" d="m836.1 144.5h17.3v56.8h-17.3z"/>
							<path id="&lt;Path&gt;" class="s64" d="m873.1 164.3v17.3h-56.8v-17.3z"/>
						</g>
					</g>
				</g>
			</g>
		</g>
	</g>
</svg>