<svg version="1.2" xmlns="http://www.w3.org/2000/svg" viewBox="0 0 1500 1000" width="1500" height="1000">
	<title>5063407-ai</title>
	<style>
		.s0 { fill: #e3e3e3 } 
		.s1 { fill: #9ad4d2 } 
		.s2 { fill: none;stroke: #f2cdbf;stroke-linecap: round;stroke-miterlimit:10;stroke-width: 2 } 
		.s3 { fill: #88cccc } 
		.s4 { fill: #f2cdbf } 
		.s5 { fill: #d4a59b } 
		.s6 { fill: #faded2 } 
		.s7 { fill: #ffffff } 
		.s8 { fill: #f0d3d8 } 
		.s9 { fill: #a7c2d9 } 
		.s10 { fill: #d49ba0 } 
		.s11 { fill: #82bdbf } 
		.s12 { fill: #6fc3c3 } 
		.s13 { fill: #87c5c5 } 
		.s14 { fill: #75658e } 
		.s15 { fill: #aa96cb } 
		.s16 { fill: #b295e0 } 
		.s17 { fill: #326894 } 
		.s18 { fill: #4d8ab3 } 
		.s19 { fill: #787878 } 
		.s20 { fill: #7c7c7c } 
		.s21 { fill: #732d02 } 
		.s22 { fill: #ebf5ff } 
		.s23 { fill: #fbbd9a } 
		.s24 { fill: #f0997f } 
		.s25 { fill: #6f2adf } 
		.s26 { fill: #002a42 } 
		.s27 { fill: #06384f } 
		.s28 { fill: none;stroke: #27788f;stroke-linecap: round;stroke-miterlimit:10;stroke-width: 2 } 
		.s29 { fill: #8c4206 } 
		.s30 { fill: #a66317 } 
		.s31 { fill: #2f344d } 
		.s32 { fill: none;stroke: #8c4206;stroke-linecap: round;stroke-miterlimit:10;stroke-width: 4 } 
		.s33 { fill: none;stroke: #d45e4e;stroke-linecap: round;stroke-miterlimit:10;stroke-width: 4 } 
		.s34 { fill: #163649 } 
		.s35 { fill: #4d11af } 
		.s36 { fill: #fbbd9a;stroke: #d45e4e;stroke-linecap: round;stroke-miterlimit:10;stroke-width: 2 } 
		.s37 { fill: none;stroke: #b82621;stroke-linecap: round;stroke-miterlimit:10;stroke-width: 2 } 
		.s38 { fill: #381b07 } 
		.s39 { fill: #db8e62 } 
		.s40 { fill: #1d9fb3 } 
		.s41 { fill: #b23f37 } 
		.s42 { fill: #678ca8 } 
		.s43 { fill: #136d94 } 
		.s44 { fill: #cf6e4a } 
		.s45 { fill: #25b2c2 } 
		.s46 { fill: #27b8c1 } 
		.s47 { fill: none;stroke: #51dbdb;stroke-linecap: round;stroke-miterlimit:10;stroke-width: 2 } 
		.s48 { fill: #d68a5a } 
		.s49 { fill: #24151a } 
		.s50 { fill: none;stroke: #a8473e;stroke-linecap: round;stroke-miterlimit:10 } 
		.s51 { fill: #32c9cf } 
		.s52 { fill: #412408 } 
		.s53 { fill: #664216 } 
		.s54 { fill: #411f00 } 
		.s55 { fill: none;stroke: #412408;stroke-linecap: round;stroke-miterlimit:10;stroke-width: 4 } 
		.s56 { fill: none;stroke: #a8473e;stroke-linecap: round;stroke-miterlimit:10;stroke-width: 4 } 
		.s57 { fill: #bd73cf } 
		.s58 { fill: #a14bc5 } 
		.s59 { fill: #a53dd5 } 
		.s60 { fill: #a94de3 } 
	</style>
	<g id="BACKGROUND">
	</g>
	<g id="OBJECTS">
		<g id="&lt;Group&gt;">
			<g id="&lt;Group&gt;">
				<path id="&lt;Path&gt;" class="s0" d="m468 891.6c181.4 45.5 477.8 50.5 677.9-45.2 184.8-88.5 222.8-413.7 96-598.2-90.1-131.1-262.8-183.4-428.4-164.8-195.4 21.9-247.3 157-376.9 254.1-80.7 60.4-245.5 45.5-276.6 221.8-35.5 200.8 182.8 300.8 308 332.3z"/>
			</g>
			<g id="&lt;Group&gt;">
				<g id="&lt;Group&gt;">
					<g id="&lt;Group&gt;">
						<path id="&lt;Path&gt;" class="s1" d="m1102.5 886.7c23.3-403.5 198.8-453.2 226.3-419.2 57.8 71.1-142.7 293.7-226.3 419.2z"/>
						<g id="&lt;Group&gt;">
							<path id="&lt;Path&gt;" class="s2" d="m1309.7 483.4c-98.2 114.6-168.3 253.1-202.4 400.1"/>
							<path id="&lt;Path&gt;" class="s2" d="m1257.9 486.9c5.7 16.9 8.8 34.6 9.2 52.5 18.8-4.1 37.9-6.3 57.1-6.5"/>
							<path id="&lt;Path&gt;" class="s2" d="m1190.4 556.8c11 19.2 19.2 40 24.1 61.6 22.3-4.8 45.1-7.1 67.9-6.9"/>
							<path id="&lt;Path&gt;" class="s2" d="m1143.8 658.2c9.2 14.5 17.2 29.7 23.7 45.5 21.6-8.7 45-13 68.2-12.3"/>
							<path id="&lt;Path&gt;" class="s2" d="m1187.8 755.6c-14.2-1-28.5 0-42.4 3.2-3.6-11.5-8.7-22.4-15.1-32.5"/>
						</g>
					</g>
					<g id="&lt;Group&gt;">
						<path id="&lt;Path&gt;" class="s3" d="m1102.5 886.7c129-205.4 293.7-273.1 301.2-198.9 10.3 102.8-212.1 169.9-301.2 198.9z"/>
						<g id="&lt;Group&gt;">
							<path id="&lt;Path&gt;" class="s2" d="m1383.2 695.1c-101.6 48.5-195.6 112.8-277.5 190"/>
							<path id="&lt;Path&gt;" class="s2" d="m1346.7 673.7c0.4 14.3-1 28.7-4.1 42.6 14.1 1.4 27.7 7 38.7 15.9"/>
							<path id="&lt;Path&gt;" class="s2" d="m1277.9 705.4c2.7 15.1 3.7 30.5 3.1 45.8 19.1 1.7 37.7 8.3 53.6 18.9"/>
							<path id="&lt;Path&gt;" class="s2" d="m1212.8 752.8c5.3 11.8 7.7 24.8 7.2 37.7 17.6 1.4 34.9 7 50 16.2"/>
						</g>
					</g>
				</g>
				<g id="&lt;Group&gt;">
					<g id="&lt;Group&gt;">
						<path id="&lt;Path&gt;" class="s4" d="m876.2 564.3h286v30h-286z"/>
						<g id="&lt;Group&gt;">
							<path id="&lt;Path&gt;" class="s4" d="m1153.8 594.3v292.4h-25.4v-16h-218.5v16h-25.3v-292.4z"/>
							<path id="&lt;Path&gt;" class="s5" d="m884.6 594.3h269.2v6h-269.2z"/>
						</g>
						<g id="&lt;Group&gt;">
							<g id="&lt;Group&gt;">
								<g id="&lt;Group&gt;">
									<path id="&lt;Path&gt;" class="s5" d="m911.6 620.5h214.5v65h-214.5z"/>
									<path id="&lt;Path&gt;" class="s6" d="m909.4 614.5h218.9v65h-218.9z"/>
								</g>
							</g>
							<g id="&lt;Group&gt;">
								<g id="&lt;Group&gt;">
									<path id="&lt;Path&gt;" class="s5" d="m911.6 702.5h214.5v65h-214.5z"/>
									<path id="&lt;Path&gt;" class="s6" d="m909.4 696.5h218.9v65h-218.9z"/>
								</g>
							</g>
							<g id="&lt;Group&gt;">
								<g id="&lt;Group&gt;">
									<path id="&lt;Path&gt;" class="s5" d="m911.6 784.5h214.5v65h-214.5z"/>
									<path id="&lt;Path&gt;" class="s6" d="m909.4 778.5h218.9v65h-218.9z"/>
								</g>
							</g>
						</g>
					</g>
					<g id="&lt;Group&gt;">
						<g id="&lt;Group&gt;">
							<g id="&lt;Group&gt;">
								<g id="&lt;Group&gt;">
									<path id="&lt;Path&gt;" class="s7" d="m946.4 549.8v-45.5h12.5v45.5c0 3-2.5 5.5-5.5 5.5h-1.5c-3.1 0-5.5-2.5-5.5-5.5z"/>
									<path id="&lt;Path&gt;" class="s7" d="m944.1 502.8c0-0.8 0.7-1.4 1.5-1.4h14.1c0.8 0 1.4 0.6 1.4 1.4 0 0.8-0.6 1.5-1.4 1.5h-14.1c-0.8-0.1-1.5-0.7-1.5-1.5z"/>
								</g>
								<path id="&lt;Path&gt;" class="s8" d="m948.4 549v-29.7h8.5v29.7c0 2.4-1.9 4.3-4.3 4.3-2.3 0-4.2-1.9-4.2-4.3z"/>
							</g>
							<g id="&lt;Group&gt;">
								<g id="&lt;Group&gt;">
									<path id="&lt;Path&gt;" class="s7" d="m971.4 549.8v-45.5h12.5v45.5c0 3-2.5 5.5-5.5 5.5h-1.5c-3.1 0-5.5-2.5-5.5-5.5z"/>
									<path id="&lt;Path&gt;" class="s7" d="m969.1 502.8c0-0.8 0.7-1.4 1.5-1.4h14.1c0.8 0 1.4 0.6 1.4 1.4 0 0.8-0.6 1.5-1.4 1.5h-14.1c-0.8-0.1-1.5-0.7-1.5-1.5z"/>
								</g>
								<path id="&lt;Path&gt;" class="s8" d="m973.4 549v-29.7h8.5v29.7c0 2.4-1.9 4.3-4.3 4.3-2.3 0-4.2-1.9-4.2-4.3z"/>
							</g>
							<g id="&lt;Group&gt;">
								<g id="&lt;Group&gt;">
									<path id="&lt;Path&gt;" class="s7" d="m997.9 549.8v-45.5h12.5v45.5c0 3-2.5 5.5-5.5 5.5h-1.5c-3.1 0-5.5-2.5-5.5-5.5z"/>
									<path id="&lt;Path&gt;" class="s7" d="m995.6 502.8c0-0.8 0.7-1.4 1.5-1.4h14.1c0.8 0 1.4 0.6 1.4 1.4 0 0.8-0.6 1.5-1.4 1.5h-14.1c-0.8-0.1-1.5-0.7-1.5-1.5z"/>
								</g>
								<path id="&lt;Path&gt;" class="s8" d="m999.9 549v-29.7h8.5v29.7c0 2.4-1.9 4.3-4.3 4.3-2.3 0-4.2-1.9-4.2-4.3z"/>
							</g>
							<g id="&lt;Group&gt;">
								<g id="&lt;Group&gt;">
									<path id="&lt;Path&gt;" class="s7" d="m1024.9 549.8v-45.5h12.5v45.5c0 3-2.5 5.5-5.5 5.5h-1.5c-3.1 0-5.5-2.5-5.5-5.5z"/>
									<path id="&lt;Path&gt;" class="s7" d="m1022.6 502.8c0-0.8 0.7-1.4 1.5-1.4h14.1c0.8 0 1.4 0.6 1.4 1.4 0 0.8-0.6 1.5-1.4 1.5h-14.1c-0.8-0.1-1.5-0.7-1.5-1.5z"/>
								</g>
								<path id="&lt;Path&gt;" class="s8" d="m1026.9 549v-29.7h8.5v29.7c0 2.4-1.9 4.3-4.3 4.3-2.3 0-4.2-1.9-4.2-4.3z"/>
							</g>
							<g id="&lt;Group&gt;">
								<g id="&lt;Group&gt;">
									<path id="&lt;Path&gt;" class="s7" d="m1053.9 549.8v-45.5h12.5v45.5c0 3-2.5 5.5-5.5 5.5h-1.5c-3.1 0-5.5-2.5-5.5-5.5z"/>
									<path id="&lt;Path&gt;" class="s7" d="m1051.6 502.8c0-0.8 0.7-1.4 1.5-1.4h14.1c0.8 0 1.4 0.6 1.4 1.4 0 0.8-0.6 1.5-1.4 1.5h-14.1c-0.8-0.1-1.5-0.7-1.5-1.5z"/>
								</g>
								<path id="&lt;Path&gt;" class="s8" d="m1055.9 549v-29.7h8.5v29.7c0 2.4-1.9 4.3-4.3 4.3-2.3 0-4.2-1.9-4.2-4.3z"/>
							</g>
						</g>
						<g id="&lt;Group&gt;">
							<path id="&lt;Path&gt;" class="s9" d="m934 506.9h154v4h-154z"/>
							<path id="&lt;Path&gt;" class="s10" d="m926 554.3h172v10h-172z"/>
							<g id="&lt;Group&gt;">
								<path id="&lt;Path&gt;" class="s10" d="m932.8 501.4h4.4v57.9h-4.4z"/>
								<path id="&lt;Path&gt;" class="s10" d="m1085.4 501.4h4.4v57.9h-4.4z"/>
							</g>
						</g>
					</g>
				</g>
				<g id="&lt;Group&gt;">
					<g id="&lt;Group&gt;">
						<g id="&lt;Group&gt;">
							<path id="&lt;Path&gt;" class="s11" d="m304.7 707.4c36.2-45.5 53.9-105.1 48.3-162.8-5.6-57.8-34.5-112.9-80.5-151.2 0.7 42.7-1.1 85.5-5.3 128.1-4 40.5-10.1 81.9-0.4 121.4 5.7 23.5 17.1 45.6 37.9 64.5z"/>
							<g id="&lt;Group&gt;">
								<path id="&lt;Path&gt;" class="s2" d="m301.3 759.3c0-143.1 37.9-189.3-17.7-340.3"/>
								<path id="&lt;Path&gt;" class="s2" d="m310.1 443.9q-5.8 12.4-11.7 24.8c-6.9-3.4-14.4-5.4-22.1-6"/>
								<path id="&lt;Path&gt;" class="s2" d="m271.3 529.9c14.6 0.6 29 4.5 41.9 11.4 8.5-10.5 18.7-19.8 30-27.3"/>
								<path id="&lt;Path&gt;" class="s2" d="m269.7 599.3c14.6-1.2 29.7 2.7 41.9 10.7 11.9-12.6 25.6-23.5 40.6-32.3"/>
								<path id="&lt;Path&gt;" class="s2" d="m276.3 656.5c11 1.2 21.5 6.4 29 14.5 7.9-10.8 17.6-20.4 28.6-28.2"/>
							</g>
						</g>
						<g id="&lt;Group&gt;">
							<path id="&lt;Path&gt;" class="s12" d="m330.8 703c0 0-30.8-67.4 8.6-141.1 21.8-40.8 68.9-90.3 127.7-131.8 0 0-28 152.2-62.7 215.8-26.8 49.1-73.6 57.1-73.6 57.1z"/>
							<g id="&lt;Group&gt;">
								<path id="&lt;Path&gt;" class="s2" d="m445.8 459.6c-60.7 97.4-103.9 203.8-138.1 313.2"/>
								<path id="&lt;Path&gt;" class="s2" d="m407.2 483.7c3.6 8.5 6.6 17.3 8.7 26.2 10.3-1.9 20.7-3.2 31.2-3.9"/>
								<path id="&lt;Path&gt;" class="s2" d="m359 544.9c8.5 12 15.4 25.2 20.4 39.1 16.1-7.7 33.4-13 51-15.5"/>
								<path id="&lt;Path&gt;" class="s2" d="m330.7 596.6c10.4 13.4 18.3 28.7 23.1 44.9 18.1-7.7 37-13.4 56.3-17"/>
								<path id="&lt;Path&gt;" class="s2" d="m323 658.8c6 6.7 11.6 13.8 16.8 21.1 13.3-5.5 27.3-9.4 41.5-11.6"/>
							</g>
						</g>
						<g id="&lt;Group&gt;">
							<path id="&lt;Path&gt;" class="s13" d="m272.7 716.6c0 0 26.7-37.8 6.9-103.5-27-89.9-139.6-153.7-139.6-153.7 0 0 30.2 123 53.7 184.4 23.9 62 79 72.8 79 72.8z"/>
							<g id="&lt;Group&gt;">
								<path id="&lt;Path&gt;" class="s2" d="m279.6 749.6c0 0-15.3-123.8-124.7-273"/>
								<path id="&lt;Path&gt;" class="s2" d="m194.5 502.7c-3.2 7.4-5.3 15.3-6.3 23.3-7.6-2.1-15.6-3.2-23.6-3.2"/>
								<path id="&lt;Path&gt;" class="s2" d="m180.1 586.1c14.9-2.3 30.4-1.3 44.8 3.1 2.8-13.4 9.1-26 18.1-36.4"/>
								<path id="&lt;Path&gt;" class="s2" d="m275.6 611.9c-10.2 11.2-18.2 24.3-23.4 38.5-14.1-6.1-30.4-7.2-45.2-2.9"/>
								<path id="&lt;Path&gt;" class="s2" d="m238.8 696.8c9.7-1.8 19.8-1.9 29.6-0.4 3.4-7.9 8.2-15 14.3-21.1"/>
							</g>
						</g>
					</g>
					<g id="&lt;Group&gt;">
						<path id="&lt;Path&gt;" class="s14" d="m375.4 727.1l-4.3 23.8-4.6 26.1-2.4 13.8-4.6 26.2-12.4 69.7h-89.9l-12.6-69.7-4.7-26.2-2.5-13.8-4.7-26.1-4.3-23.8z"/>
						<path id="&lt;Path&gt;" class="s15" d="m371.1 750.9l-4.6 26.1h-129.1l-4.7-26.1z"/>
						<path id="&lt;Path&gt;" class="s16" d="m364.1 790.8l-4.6 26.2h-114.9l-4.7-26.2z"/>
					</g>
				</g>
			</g>
			<g id="&lt;Group&gt;">
				<g id="&lt;Group&gt;">
					<g id="&lt;Group&gt;">
						<g id="&lt;Group&gt;">
							<g id="&lt;Group&gt;">
								<path id="&lt;Path&gt;" class="s17" d="m391.8 850.2h147.3v13.7h-147.3z"/>
								<g id="&lt;Group&gt;">
									<path id="&lt;Path&gt;" class="s18" d="m417 723.4q0 0.5-0.1 1l-2.3 18.9-20.4 168.2c-0.5 4.5-4.5 7.7-8.9 7.1-4.1-0.5-7-4-7-8.1q0-0.5 0-1l20.2-166.2 2.5-20.9c0.5-4.5 4.5-7.7 8.9-7.2 4.1 0.5 7.1 4.1 7.1 8.2z"/>
									<path id="&lt;Path&gt;" class="s17" d="m417 723.4q0 0.5-0.1 1l-2.3 18.9h-16.1l2.5-20.9c0.6-4.5 4.5-7.7 8.9-7.2 4.1 0.5 7.1 4.1 7.1 8.2z"/>
								</g>
								<g id="&lt;Group&gt;">
									<path id="&lt;Path&gt;" class="s18" d="m475.5 721.9v188.6c0 4.5-3.6 8.2-8 8.2-2.2 0-4.2-0.9-5.7-2.4-1.4-1.5-2.3-3.6-2.3-5.9v-188.5c0-4.5 3.6-8.2 8-8.2 2.2 0 4.2 0.9 5.6 2.4 1.5 1.5 2.4 3.6 2.4 5.8z"/>
									<path id="&lt;Path&gt;" class="s17" d="m473.1 716.1c1.5 1.5 2.3 3.6 2.3 5.9v21.3h-16v-21.3c0-4.6 3.6-8.3 8-8.3 2.3 0 4.3 0.9 5.7 2.4z"/>
								</g>
								<g id="&lt;Group&gt;">
									<path id="&lt;Path&gt;" class="s18" d="m556 910.5c0 4.1-3 7.6-7 8.1-4.4 0.6-8.4-2.6-9-7.1l-20.4-168.2-2.2-18.9q-0.1-0.5-0.1-1.1c0-4 3-7.6 7-8.1 4.4-0.6 8.4 2.6 9 7.1l2.5 20.9 20.1 166.2c0.1 0.4 0.1 0.7 0.1 1.1z"/>
									<path id="&lt;Path&gt;" class="s17" d="m535.8 743.3h-16.1l-2.3-18.9q-0.1-0.5-0.1-1.1c0-4 3-7.6 7-8.1 4.4-0.6 8.4 2.6 9 7.1z"/>
								</g>
							</g>
							<g id="&lt;Group&gt;">
								<path id="&lt;Path&gt;" class="s19" d="m570.6 700.7v5.3c0 9.4-7.6 16.9-16.9 16.9h-151.3c-9.4 0-16.9-7.5-16.9-16.9v-5.3c0-9.4 7.5-16.9 16.9-16.9h151.3c9.3 0 16.9 7.5 16.9 16.9z"/>
								<path id="&lt;Path&gt;" class="s20" d="m570.6 700.7v5.3c0 9.4-7.6 16.9-16.9 16.9h-137.4c-9.3 0-16.9-7.5-16.9-16.9v-5.3c0-9.4 7.6-16.9 16.9-16.9h137.4c9.3 0 16.9 7.5 16.9 16.9z"/>
							</g>
						</g>
						<g id="&lt;Group&gt;">
							<path id="&lt;Path&gt;" class="s21" d="m412.6 363.8c-1.9 3.9-3.8 7.8-5.5 11.6-1.2 6.6-0.5 13.5 0 20.3 0.4 6.7 0.7 13.6-1.2 20.2-1.9 6.5-6.3 12.7-12.8 15.2-4.3 1.6-9.3 1.7-12.6 4.8-3.7 3.5-3.5 9.4-2.1 14.2 1.1 4.1 2.9 8.1 6.2 10.9 3.2 2.9 8.4 4.7 11.9 2.7 3.5-2.1 8.1-0.6 10.6 2.5 2.5 3.1 3.7 7 6.2 10.2 3.5 4.4 9.4 6.7 15.2 6.8 5.8 0.2 11.9-0.6 15.8-3 8.2-5.2 18.5-8.7 27-3.8 4.5 2.6 8 6.6 12.8 8.5 4.1 1.5 8.9 1.2 12.7-0.8 3.9-2 5.4-6.4 7.8-9.7 4.4-6.2 15.2-1.2 22.6-3.2 8-2.2 13.4-11 11.5-18.8-1.9-7.8-10.5-10.6-18.2-11.7-5.3-0.8-7.5-7.6-8.7-12.6-1.3-5.1-1-10.3-0.8-15.5 0.4-10.6 5.3-35.3 2.2-38.6-1.6-1.8-7.6-6.2-9.8-7.1q-15-6.9-30.1-13.8c-9.1-4.2-18.7-8.4-28.8-8.2-10.1 0.3-24.7 4.2-31.9 18.9z"/>
							<g id="&lt;Group&gt;">
								<path id="&lt;Path&gt;" class="s22" d="m447.4 459.1c0 0-44.6 7-49.3 22.8-4.7 15.8 22.3 126.2 22.3 126.2l100.2-6.1c0 0 7.2-127.3-8.7-135.3-15.9-7.9-64.5-7.6-64.5-7.6z"/>
								<g id="&lt;Group&gt;">
									<path id="&lt;Path&gt;" class="s23" d="m486.2 463.5c0 0-6.5 22.1-18.3 27-11.7 4.8-37.5-24.7-37.5-24.7 5.2-3.3 7.1-11.3 7.8-18.5 0.6-7.4-0.1-14-0.1-14l35.8 6.9c-0.9 11.1 2.3 16.9 5.7 20 3.3 2.9 6.6 3.3 6.6 3.3z"/>
									<path id="&lt;Path&gt;" class="s24" d="m479.6 460.2c-17 2.2-32.4-6.3-41.4-12.9 0.6-7.3-0.1-13.9-0.1-13.9l35.8 6.8c-1 11.1 2.3 16.9 5.7 20z"/>
								</g>
							</g>
							<g id="&lt;Group&gt;">
								<g id="&lt;Group&gt;">
									<g id="&lt;Group&gt;">
										<path id="&lt;Path&gt;" class="s25" d="m583.2 878.6c-3.9 6.4-70.9-34.9-70.9-42 0-4.6 8.8-11.3 14.9-15.4 3.2-2.2 5.7-3.7 5.7-3.7l15.6-7.2 7.1 3.8c10.2 17.7 20 36.1 24.9 48.9 3 7.6 4.1 13.2 2.7 15.6z"/>
										<path id="&lt;Path&gt;" class="s24" d="m580.6 863c-19.2 0.8-44.6-30.2-53.4-41.8 3.2-2.2 5.7-3.7 5.7-3.7l15.7-7.2 7 3.8c10.3 17.7 20.1 36.1 25 48.9z"/>
									</g>
									<path id="&lt;Path&gt;" class="s26" d="m514.3 611.4c0 0 121.9 15.5 126.1 46.7 4.1 31.2-76.5 169-76.5 169l-29-7.6 37.8-123.1-97.1-41.2 19.3-43.8z"/>
								</g>
								<g id="&lt;Group&gt;">
									<g id="&lt;Group&gt;">
										<path id="&lt;Path&gt;" class="s25" d="m553.6 882.2c-3.9 6.4-70.9-34.9-70.9-42 0-4.7 8.7-11.4 14.8-15.5 3.3-2.2 5.8-3.6 5.8-3.6l15.6-7.2 7 3.8c10.3 17.7 20.1 36.1 25 48.9 2.9 7.6 4.1 13.2 2.7 15.6z"/>
										<path id="&lt;Path&gt;" class="s23" d="m550.9 866.6c-19.2 0.8-44.6-30.3-53.4-41.9 3.3-2.2 5.8-3.6 5.8-3.6l15.6-7.2 7.1 3.8c10.2 17.6 20 36.1 24.9 48.9z"/>
									</g>
									<g id="&lt;Group&gt;">
										<path id="&lt;Path&gt;" class="s27" d="m411.4 601c0 0-42.3 83.5 32.1 92.6 54 6.5 89.8 5.2 90.9 8.2 1.9 4.8-35.1 121.5-35.1 121.5l36.4 11.5c0 0 75.4-161.9 71.3-176-3.4-11.6-107.4-29.3-107.4-29.3 8.8-4.1 15.2-19.3 14.3-38.8z"/>
										<g id="&lt;Group&gt;">
											<path id="&lt;Path&gt;" class="s28" d="m423.1 593.7c0 0-24.2 53.4-4.8 75 22.8 25.5 122.8 17.3 129.8 26.3 5.6 7.2-38.6 125.2-38.6 125.2"/>
											<path id="&lt;Path&gt;" class="s28" d="m502.2 818.4l35.3 10.7"/>
										</g>
									</g>
								</g>
							</g>
							<g id="&lt;Group&gt;">
								<path id="&lt;Path&gt;" class="s24" d="m503.4 394.9c8.6-1 16.1 3.3 16.8 9.6 0.7 6.3-5.7 12.2-14.3 13.1-8.6 1-16.1-3.3-16.8-9.6-0.7-6.2 5.7-12.1 14.3-13.1z"/>
								<g id="&lt;Group&gt;">
									<path id="&lt;Path&gt;" class="s23" d="m418.3 394.4c0-29.7 18.8-53.7 44.1-53.7 25.3 0 45.8 24 45.8 53.7 0 29.7-12.9 55.2-36.7 56.1-24 0.9-53.2-26.5-53.2-56.1z"/>
									<path id="&lt;Path&gt;" class="s24" d="m420.7 401.3c12.8-5.9 23.2-16.5 27.9-29.4 6.6 7.4 16.2 11.6 26 13.5 9.7 1.8 19.7 1.4 29.1 1.2 3 2.6 5.1 6.2 5.8 10.1 1.1-8.8 0.2-17.8-2.7-26.2q-37.8-11.6-75.1-24.5c-3.8 17.7-7.5 35.5-11 55.3z"/>
								</g>
								<g id="&lt;Group&gt;">
									<path id="&lt;Path&gt;" class="s29" d="m444.5 358.3c5.4 10.3 15.9 17.1 26.9 20.6 11 3.5 22.7 4.1 34.5 4.4 1.8 6.4 2.2 14 2.2 20.6 4-9.4 6.1-17.4 6.5-25.1 0.1-2.3 0.1-4.5 0-6.9-0.6-16.4-7.3-25.6-16.4-32.6-9.1-7-20.2-9.9-31.6-9.9-11.3 0-18.5 2.5-22.8 7q-2.3 2.4-3.5 5.4c-1.9 4.3 0.2 9 4.2 16.5z"/>
									<path id="&lt;Path&gt;" class="s29" d="m406.8 404.9c-0.4-14.5-1.3-39.4 4.5-51.2 3.9-7.8 11.1-14.2 19.7-15.4 8.5-1.1 18 4.2 20 12.6-3.8 19.5-13.6 37.3-27.4 51.4-4.8 2.3-11.9 3.8-16.8 2.6z"/>
									<path id="&lt;Path&gt;" class="s30" d="m443.8 336.4c16.5-4.5 35.1-0.5 48.8 9.9 10.6 8 18.2 19.7 22 32.5 0.1-2.2 0.1-4.5 0-6.9-0.6-16.3-7.3-25.6-16.4-32.6-9.1-6.9-20.2-9.9-31.6-9.9-11.4 0-18.5 2.6-22.8 7z"/>
								</g>
								<path id="&lt;Path&gt;" class="s23" d="m401.5 405.3c1.5-6.1 9.6-9.3 18-7.2 8.3 2.2 13.9 8.9 12.3 15-1.6 6.1-9.6 9.3-18 7.2-8.4-2.2-13.9-8.9-12.3-15z"/>
								<g id="&lt;Group&gt;">
									<path id="&lt;Path&gt;" class="s31" d="m464.1 405.4c1.3 0 2.4 1.7 2.4 3.8 0 2.1-1.1 3.8-2.4 3.8-1.3 0-2.4-1.7-2.4-3.8 0-2.1 1.1-3.8 2.4-3.8z"/>
									<path id="&lt;Path&gt;" class="s31" d="m497.2 405.4c1.3 0 2.4 1.7 2.4 3.8 0 2.1-1.1 3.8-2.4 3.8-1.3 0-2.4-1.7-2.4-3.8 0-2.1 1.1-3.8 2.4-3.8z"/>
									<path id="&lt;Path&gt;" class="s32" d="m490.3 391.5c4-1.4 9.8-1.1 13.9 1.7"/>
									<path id="&lt;Path&gt;" class="s32" d="m466.2 391.1c-4.5-2-12.7-1.6-16.5 2.8"/>
									<path id="&lt;Path&gt;" class="s33" d="m481.1 406.9c1 4 0.2 9.1-1.1 12.2"/>
									<path id="&lt;Path&gt;" class="s33" d="m478.2 430.9c-5.3 1-14.8-2-17.4-6.4"/>
								</g>
							</g>
							<g id="&lt;Group&gt;">
								<g id="&lt;Group&gt;">
									<path id="&lt;Path&gt;" class="s23" d="m497.2 477l17.9-10.8c0 0 15 1.3 25.2 20 10.2 18.6 29.3 78.9 35.3 81.6 6 2.6 79.4 3.6 79.4 3.6l1 21.5c0 0-89.9 14.2-100.6 8.3-10.7-5.9-45.4-75.4-45.4-75.4z"/>
									<path id="&lt;Path&gt;" class="s25" d="m496.1 474.5l3.5-12c0 0 19.7 0.8 29.8 8.7 10 7.9 18.3 29.4 18.3 29.4l-25.6 41.4z"/>
									<path id="&lt;Path&gt;" class="s34" d="m526.5 557.6c0 0 27.6-23.8 31.8-29.8 2.1-2.9 17 31.7 14.5 36-4 6.7-29.1 23-30.5 22-1.4-0.9-15.8-28.2-15.8-28.2z"/>
									<path id="&lt;Path&gt;" class="s35" d="m519.3 535.9q12.5-19.8 24.9-39.5c0.5-0.7 0.9-1.5 1.7-2 2-1.4 5 0.3 5.9 2.7 0.8 2.3 0.2 4.9-0.4 7.3 2.6-0.4 5 2.2 5.3 4.8 0.4 2.7-0.8 5.3-2 7.7-7.7 14.5-20.6 26.2-35.8 32.5-0.7-4.5-2.1-9.5 0.4-13.5z"/>
									<g id="&lt;Group&gt;">
										<path id="&lt;Path&gt;" class="s23" d="m643.7 574.7c10.2-7.2 30.1-21.5 31.6-22.2 1.8-0.8 13.9-0.9 20.4 1.1 6.6 2 12.7 6.5 15.1 13 0.7 1.8 0.9 4.3-0.7 5.3-1.1 0.7-2.5 0.5-3.6-0.2-1.1-0.6-1.9-1.6-2.7-2.5-4.4-4.8-8.4-6.7-15.6-7.1 8.5 1.3 14 6.6 16.5 14.9 0.5 1.7 0.7 3.8-0.6 4.8-1.1 0.9-2.7 0.7-3.8-0.1-1.2-0.7-1.9-1.9-2.8-2.9-3.1-4-7.3-7.2-12-9.1 6.5 2.8 11.4 9.2 12.4 16.3 0.2 1 0.3 2.1-0.1 3.1-0.4 0.9-1.5 1.7-2.5 1.5-0.8-0.1-1.4-0.7-1.9-1.3-3.6-4.1-6.4-8.3-11.1-11.2 4.3 5.7 8 15.1 7.1 17.5-0.3 0.8-2.2 2.1-4.2 0-2.4-2.3-4-6.3-7.6-10.8-6.3 7-16.3 10.2-25.4 8.1-2.9-6.1-5.8-12.3-8.5-18.2z"/>
										<path id="&lt;Path&gt;" class="s36" d="m662.3 565.6q11-4 22.3-6.7c1-0.2 2.1-0.5 3.1-0.4 1 0.2 2 0.7 2.5 1.6 0.4 1 0.1 2.2-0.5 3-0.6 0.9-1.5 1.5-2.4 2.1-3.2 1.9-6.6 3.6-10.1 5.3-0.7 5.4-4.7 10.2-9.8 11.9"/>
									</g>
								</g>
								<path id="&lt;Path&gt;" class="s25" d="m480.2 460.6c4.3 3.7 7.1 24.6 9.3 38 3.3 19.9 20.1 106.7 21.1 112.8 1.8 10.9 36.1 10.1 37.5 4.5 0.2-1.1-10-5.8-11.7-12.8-1.4-6.2-12.8-127-18.3-133.3-7.3-8.4-39.2-10.4-37.9-9.2z"/>
							</g>
							<g id="&lt;Group&gt;">
								<path id="&lt;Path&gt;" class="s25" d="m433.1 460.6c3.6 1.2 14.9 25.1 20.2 47 11.2 45.6 4.5 113.4 0 122.4-4.5 9-48.3 12.9-55.8 10.5-4.3-1.4-9-138-6-155.2 2-11.4 40.6-25.1 41.6-24.7z"/>
								<path id="&lt;Path&gt;" class="s23" d="m498.8 613.2c9.2-3.3 35.9-10.4 39.6-10 3.8 0.4 7.6 1.7 10 4.8 1.5 2 2.2 4.6 2.9 7q1.7 6 3.4 12c0.4 1.4 0.8 2.9 0.6 4.3-0.2 1.5-1.2 2.9-2.5 3-2 0.2-3.2-2.1-3.9-4.1-1.8-4.9-3.6-9.9-5.3-14.8q1.7 9.2 3.5 18.4c0.3 1.5 0.5 3 0.2 4.4-0.3 1.5-1.5 2.8-2.8 2.8-2.1 0-3.1-2.7-3.5-4.8-1-4.8-2.1-9.6-3.7-14.4 2.2 6.8 2.5 14.2 0.9 21.1-0.2 1.1-0.5 2.2-1.3 2.9-0.7 0.8-2 1.1-2.7 0.4-0.6-0.6-0.7-1.5-0.8-2.3q-0.9-9.3-1.9-18.6c0.6 6.5 1.2 13.2-0.6 19.5-0.3 1.1-0.8 2.2-1.6 3-0.8 0.8-2.1 1-3 0.3-0.8-0.7-0.9-2-0.9-3.1-0.2-3.9-0.3-7.8-0.3-12.4-3.5 4.1-8.2 6.7-13.3 7.5-5 0.8-10.2-0.4-15.2-1.9 0.5-7.3 0.9-14.6 2.2-25z"/>
								<path id="&lt;Path&gt;" class="s25" d="m430.4 501.4c-2.8-13-14.4-33.9-23.9-29.6-5.4 2.5-21 7.7-21 41.9 0 46.3 6 107.1 21 117.3 7.6 5.1 90.7 10.2 90.7 10.2l6.1-29.8c0 0-61.3-11.3-64.1-19.7-4-11.9-1.4-55.9-8.8-90.3z"/>
								<g id="&lt;Group&gt;">
									<path id="&lt;Path&gt;" class="s37" d="m423.1 494.3c10.3 34.7 12.5 93.9 14 97.4 1.4 3.3 9.2 4.6 15.3 6.7"/>
									<path id="&lt;Path&gt;" class="s37" d="m434.9 636.3c-11.4-1.2-25.6-3.4-28.8-5.8-3.7-2.7-8.2-16.3-11.4-25.6"/>
									<path id="&lt;Path&gt;" class="s37" d="m433.2 551.8c4.1-5.2 5.8-13.7 6.1-24.1"/>
								</g>
							</g>
						</g>
					</g>
				</g>
				<g id="&lt;Group&gt;">
					<path id="&lt;Path&gt;" class="s38" d="m1099.2 249.3c-0.9-15.8 10.5-31.4 25.8-35.2 15.3-3.9 32.8 4.4 39.5 18.7 5.7 12.3 3.7 26.6 1 39.8-2.8 13.3-6.2 27-3 40.1 2.6 11.1 9.8 20.8 11.2 32.1 1.9 15.5-9 31.7-24.1 35.6-8.6 2.2-19.7-0.5-22.4-8.9-2.5-7.8 3.3-16.1 2.1-24.2-1-6.8-6.5-11.9-11.1-17-16.8-18.9-17-46.2-19-81z"/>
					<g id="&lt;Group&gt;">
						<path id="&lt;Path&gt;" class="s39" d="m952.3 448.5c-7.6-8.7-13.2-24.5-13.2-29.8 0-6.2-1-12.6 1.2-18.5 1.1-3 2.8-5.8 4.6-8.5q2.9-4.6 5.9-9.3c0.8-1.3 1.8-2.6 3.2-3 2.5-0.7 4.7 2.1 4.6 4.7-0.1 2.5-1.8 4.7-4.7 6.9 1.1-4.6 3.5-9 6.7-12.5 0.9-0.9 2.1-1.8 3.3-1.5 2 0.4 2 3.3 1.4 5.3-1.3 5-2.7 10.1-3.8 14.4 4.3 8.1 3.9 17.8 4 27 0.1 9.2 1 19.2 7.1 26.1-5.9 2.6-12.7-7.6-20.3-1.3z"/>
						<path id="&lt;Path&gt;" class="s39" d="m951.4 447.4c0 0 20.3 69.4 35.7 70.8 18.5 1.8 33.6-15.4 33.6-15.4l12.1-62.1-27.4-16.5-15.2 49.8-21.6-24.5z"/>
						<path id="&lt;Path&gt;" class="s40" d="m1042.9 451c-15.2-5.7-30.3-11.3-45.4-17.1 4.1-19.7 9.8-43.4 14.8-50.9 9.4-14.2 24.5-14.9 24.5-14.9l6.9 20.4-0.8 62.1q0 0 0 0.4z"/>
						<g id="&lt;Group&gt;">
							<path id="&lt;Path&gt;" class="s41" d="m1028.9 491.2l-44.2-114.2-54.2 14 50.2 127.2z"/>
							<path id="&lt;Path&gt;" class="s22" d="m1021.6 484.9l-39.9-101.7-44.2 12 43.6 111.3z"/>
							<path id="&lt;Path&gt;" class="s42" d="m967.5 380.5l2.8 7.4-17.3 4.8-3.1-7.6z"/>
						</g>
					</g>
					<g id="&lt;Group&gt;">
						<g id="&lt;Group&gt;">
							<g id="&lt;Group&gt;">
								<g id="&lt;Group&gt;">
									<path id="&lt;Path&gt;" class="s43" d="m1002.8 904.2c0.2 7.5 78.8 5 82.4-1.2 2.3-4-2-14.2-5.2-20.8-1.7-3.5-3.2-6-3.2-6l-10-14-8-0.2c-17.7 10.2-35.3 21.3-45.9 30-6.3 5.2-10.2 9.4-10.1 12.2z"/>
									<path id="&lt;Path&gt;" class="s39" d="m1012.9 892c16.2 10.3 53.7-4.1 67.1-9.8-1.7-3.5-3.2-6-3.2-6l-10-14-8-0.2c-17.7 10.2-35.3 21.3-45.9 30z"/>
								</g>
								<path id="&lt;Path&gt;" class="s39" d="m1037 831.1l2.8 30.7 1 11 0.7 7.5 31.8-3.3 0.3-5.3v-0.1l0.2-5.6 1.8-36.2 0.2-3.6-19.4 2.4z"/>
							</g>
							<path id="&lt;Path&gt;" class="s44" d="m1037 831.1l2.8 30.7 15.9 2 13.4 1.7 4.7 0.5 1.8-36.2-19.2-1.2z"/>
						</g>
						<path id="&lt;Path&gt;" class="s40" d="m1014.5 524.4c0 0-13.7 37.8-11 91.6 2.7 53.8 25.4 241.4 25.4 241.4l56.5-2.6-9.6-242.2-13.7-75"/>
					</g>
					<g id="&lt;Group&gt;">
						<g id="&lt;Group&gt;">
							<g id="&lt;Group&gt;">
								<g id="&lt;Group&gt;">
									<path id="&lt;Path&gt;" class="s43" d="m1144.2 903.5c5 5.6 63.2-47.4 61.9-54.4-0.8-4.5-10.7-9.5-17.4-12.4-3.6-1.6-6.3-2.6-6.3-2.6l-16.7-4.1-6.2 5c-6.9 19.2-13.1 39.2-15.5 52.7-1.5 7.9-1.6 13.7 0.2 15.8z"/>
									<path id="&lt;Path&gt;" class="s39" d="m1144 887.6c19-2.7 38.2-37.9 44.7-50.9-3.6-1.6-6.3-2.6-6.3-2.6l-16.7-4.1-6.2 5c-6.9 19.2-13.1 39.1-15.5 52.6z"/>
								</g>
								<path id="&lt;Path&gt;" class="s39" d="m1122.8 825.6l13.3 13 16.6 16.3 5.5 5.3 22-23.2-3.3-4.2-9.5-12.4-18.3-23.7z"/>
							</g>
							<path id="&lt;Path&gt;" class="s44" d="m1122.8 825.6l13.3 13 31.3-18.2-18.3-23.7z"/>
						</g>
						<g id="&lt;Group&gt;">
							<path id="&lt;Path&gt;" class="s45" d="m1007 559.9c5.5 15.3 46.9 42.2 46.9 42.2 0 0-0.4 106.7 1.2 133.6 1.5 26.8 57.2 114.6 57.2 114.6l52.2-46.3c0 0-40.5-67.7-43.2-83.6-2.8-15.9 14.7-99.5 14.7-133.6 0-6.2-0.6-12.7-1.6-19.2-2-14.2-5.9-28.1-9.3-38.4-3.3-10.3-6.1-17-6.1-17 0 0-28.4 4.1-56.7 12-25.9 7.3-51.7 17.7-55.7 31.1-0.4 1.3-0.2 2.9 0.4 4.6z"/>
							<path id="&lt;Path&gt;" class="s40" d="m1007 559.9c13.8 8.2 28.2 15.4 43 21.5 0.9-2.5 1.8-5 3.1-7.4 1.3 2.8 2.6 5.6 4.2 9.4 25.5-6.4 51.3-11.8 77.2-15.8-2.1-14.2-6-28.1-9.3-38.4q-31.4-2.9-62.9-5c-25.9 7.3-51.7 17.7-55.7 31.1-0.4 1.3-0.2 2.9 0.4 4.6z"/>
						</g>
					</g>
					<path id="&lt;Path&gt;" class="s46" d="m1152 384.7c-2-12-47.4-27.5-62.9-26.1-33.1 3.1-57.2 9.1-64.7 13.8-7.6 4.8-14.5 49-14.5 61.4 0 14.6 5 43.2 3.7 54.8-2.6 22.4-16.2 69.9-16.2 69.9l50 17.5 6.2-10.9 5.6 13.8 82.6-18.9c0 0-6.3-65.8-6.3-77.3 0-11.1 19-82.6 16.5-98z"/>
					<g id="&lt;Group&gt;">
						<path id="&lt;Path&gt;" class="s47" d="m1074.8 392.5c-16.6 86.5-17.5 111.2-21.3 172"/>
						<g id="&lt;Group&gt;">
							<path id="&lt;Path&gt;" class="s43" d="m1077 406.8c1.5 0 2.8 1.3 2.8 2.8 0 1.6-1.3 2.8-2.8 2.8-1.5 0-2.8-1.2-2.8-2.8 0-1.5 1.3-2.8 2.8-2.8z"/>
							<path id="&lt;Path&gt;" class="s43" d="m1070 444.7c1.6 0 2.8 1.2 2.8 2.7 0 1.6-1.2 2.8-2.8 2.8-1.5 0-2.7-1.2-2.7-2.8 0-1.5 1.2-2.7 2.7-2.7z"/>
							<path id="&lt;Path&gt;" class="s43" d="m1064.7 484.5c1.5 0 2.8 1.3 2.8 2.8 0 1.5-1.3 2.8-2.8 2.8-1.6 0-2.8-1.3-2.8-2.8 0-1.5 1.2-2.8 2.8-2.8z"/>
							<path id="&lt;Path&gt;" class="s43" d="m1061.9 530.2c1.5 0 2.8 1.3 2.8 2.8 0 1.5-1.3 2.8-2.8 2.8-1.5 0-2.8-1.3-2.8-2.8 0-1.5 1.3-2.8 2.8-2.8z"/>
						</g>
					</g>
					<g id="&lt;Group&gt;">
						<g id="&lt;Group&gt;">
							<g id="&lt;Group&gt;">
								<g id="&lt;Group&gt;">
									<g id="&lt;Group&gt;">
										<path id="&lt;Path&gt;" class="s43" d="m978.4 446l8.3 0.7h0.6l55.5-14.5c3.8-2.1 4.5-5.2 3.6-7.7-1.2-3.2-4.9-4.7-8-3.5l-53 18.7-0.5 0.5z"/>
										<g id="&lt;Group&gt;">
											<path id="&lt;Path&gt;" class="s48" d="m978.4 446l2.3 0.2 6 0.5c-0.2-0.2-0.4-0.3-0.6-0.5-0.7-0.7-1.1-1.7-0.8-2.7 0.1-0.4 0.4-0.8 0.2-1.2-0.1-0.1-0.2-0.3-0.3-0.4-0.4-0.5-0.5-1.2-0.4-1.7l-4.7 4.3z"/>
											<path id="&lt;Path&gt;" class="s49" d="m978.4 446l2.3 0.2q-0.4-0.4-0.5-0.9-0.1-0.4-0.1-0.8z"/>
										</g>
									</g>
									<g id="&lt;Group&gt;">
										<path id="&lt;Path&gt;" class="s39" d="m1044 458.4c-5.5-10.2-10.9-20.3-16.7-30.4-4.3-3.4-9.2-5.9-14.2-7.8-5.9 1.9-11.4 5.4-16 10.2-1.1 1.2-2.3 2.8-1.8 4.4 0.4 1.2 1.6 1.7 2.7 1.7 1.1-0.1 2.1-0.7 3.1-1.3 3.1-1.8 6.1-3.5 9.6-5.2 1 0.8 1.9 1.6 2.7 2.5-2.1 0-4.1 0.1-6.5 0.8q-5.9 2.7-11.5 6.3c-1 0.6-2.1 1.5-2.3 2.8-0.1 1.1 0.6 2.1 1.5 2.5 0.8 0.5 1.8 0.5 2.8 0.4 3.4-0.2 6.9-1.5 9.8-3.6 1.1 0.3 2.3 0.7 3.2 1.2-1.5 0.3-3 0.6-4.4 1.3-1.4 0.7-2.7 1.8-3.3 3.4-0.7 1.6-0.4 3.6 0.4 5.3-0.8 0.3-1.3 1.3-1.2 2.2 0 1 0.4 1.8 0.8 2.6q1.3 2.6 2.8 4.9c1 1.5 2.1 2.9 3.7 3.6 1.5 0.6 3.5 0.1 4.6-1.8 4.1 7.1 11.8 11.3 19.3 10.5 4.4-4.8 8.2-10.5 10.9-16.5z"/>
										<g id="&lt;Group&gt;">
											<path id="&lt;Path&gt;" class="s50" d="m1020.2 433.7c-2-0.9-4.1-1.1-6.2-1.4"/>
											<path id="&lt;Path&gt;" class="s50" d="m1016.2 442.4c-2-0.2-4-0.1-5.5 0.2"/>
											<path id="&lt;Path&gt;" class="s50" d="m1003.4 452.2c2.7-1.5 7.3-2.4 10.5-2"/>
											<path id="&lt;Path&gt;" class="s50" d="m1012.9 463.9c-1-1.6-1.8-4.2-2.2-6"/>
											<path id="&lt;Path&gt;" class="s50" d="m1011.3 461.1c-1.2 0.2-2.6 0.4-3.6 0.3"/>
										</g>
									</g>
								</g>
							</g>
							<g id="&lt;Group&gt;">
								<path id="&lt;Path&gt;" class="s39" d="m1029.7 472.3c0 0 69.1 58.7 87.8 52.1 7.4-2.7 14.8-24.2 20.1-44.2 4.9-18.5 8.1-35.6 8.1-35.6l-39.1-16.5c0 0-2.6 17.7-5.3 32.2-1.7 9.7-3.5 17.9-4.4 18.2-4 1.1-54.8-21.5-54.8-21.5z"/>
								<path id="&lt;Path&gt;" class="s44" d="m1101.3 460.3c9.4 6.1 24 15.1 36.3 19.9 4.9-18.4 8.1-35.6 8.1-35.6l-39.1-16.5c0 0-2.6 17.7-5.3 32.2z"/>
							</g>
						</g>
						<path id="&lt;Path&gt;" class="s51" d="m1145.7 465.5c-17.1-3.3-30.7-6.1-47.1-12 2.3-19.2 7.7-54 12.1-64.7 3.2-7.6 15.4-21 29.2-15.2 13.9 5.8 19.2 14.9 17.7 38.9-0.5 8.6-8.7 35.5-11.9 53z"/>
					</g>
					<g id="&lt;Group&gt;">
						<g id="&lt;Group&gt;">
							<g id="&lt;Group&gt;">
								<path id="&lt;Path&gt;" class="s39" d="m1062.2 367.4c0 0 4 18.2 11.7 23.5 7.8 5.3 37.2-27.4 37.2-27.4-5.1-4.7-6.3-14-6.2-22.2 0-8.3 1.4-15.5 1.4-15.5l-35.8 10.3c0.4 8.9-0.3 15.2-1.5 19.8-2.4 10-6.8 11.5-6.8 11.5z"/>
								<path id="&lt;Path&gt;" class="s44" d="m1069.1 355.9c16.5 3.5 29.1-7 35.8-14.6 0-8.3 1.4-15.5 1.4-15.5l-35.8 10.3c0.4 8.9-0.3 15.2-1.4 19.8z"/>
							</g>
							<g id="&lt;Group&gt;">
								<path id="&lt;Path&gt;" class="s43" d="m1075.3 391.6c-0.5-0.1 1.8-12.4 3-13.5 1.1-1 29.3-25.7 31-24.8 2.5 1.3 6.5 9.1 6.5 9.1 0 0-5.8 7.9-16.7 16.8-7.5 6.1-19.5 13.1-23.8 12.4z"/>
								<path id="&lt;Path&gt;" class="s43" d="m1075.3 391.5c0.6-0.6-0.7-12.8-1.4-13.9-2.3-3.7-6.3-13.4-6.3-19.9 0 0-7.1 2.7-8 4.2-0.9 1.6 3 13.2 6 18.7 5 9.2 9.2 11.4 9.7 10.9z"/>
							</g>
						</g>
						<g id="&lt;Group&gt;">
							<g id="&lt;Group&gt;">
								<path id="&lt;Path&gt;" class="s44" d="m1026.4 306.4c0.7-5.9 7.9-10 16-9.1 8.2 0.9 14.3 6.5 13.6 12.5-0.7 6-7.8 10-16 9.1-8.2-0.9-14.3-6.5-13.6-12.5z"/>
								<g id="&lt;Group&gt;">
									<path id="&lt;Path&gt;" class="s39" d="m1126 291c0-28.2-19.5-51.1-43.5-51.1-24.1 0-43.6 22.9-43.6 51.1 0 28.2 12 56.2 36.4 55.2 24-1 50.7-27 50.7-55.2z"/>
									<path id="&lt;Path&gt;" class="s44" d="m1116.4 303.1c-5.1-5.5-8.3-15.9-9.1-20.3-4.8-1.4-10.7-6.1-13.6-12.3-7.4 7.4-35.4 11.5-44.8 9.1-6.7 8.2-6.9 12.3-9.2 22.8-1.5-12.8-0.9-25.9 2-38.5 17.5-5.7 34.7-12.5 51.3-20.5 2.8-1.3 6.2-2.7 9-1.1 1.7 1 2.6 3 3.5 4.8 3.8 7.7 9.2 14.5 15.7 20 1.7 1.4 3.7 3 3.7 5.2 0.1 1.5-0.7 2.8-1.4 4-3.1 5.8-2.6 19.7-7.1 26.8z"/>
								</g>
								<g id="&lt;Group&gt;">
									<path id="&lt;Path&gt;" class="s52" d="m1031.5 273.7c-0.1 10.7 8.6 32.9 8.6 32.9 0 0 0-18.3 8.3-30.2 17.3 0 36.3-0.8 46.9-10.6 3.1 7.8 8.3 12.3 14.7 14.4-0.2 9.7 4.2 18.8 7 26.9 5.4-3.3 9.5-1.9 13.9-7.1 2.6-9.5 5.3-24.2 4.5-33.4-0.6-7.3-2.6-14.8-6.6-21q-1.5-2.2-3.2-4.2c-6.2-6.8-15.9-10.8-24.8-8.6-4.9-5.9-12.5-9.4-20.1-9.8-7.6-0.4-15.2 2-21.8 5.7-12.9 7.4-23 18.7-26.3 34.5-0.7 3.4-1 6.9-1.1 10.5z"/>
									<path id="&lt;Path&gt;" class="s53" d="m1031.5 273.7q0.5-2.1 1.3-4.1c2.5-6.5 6.5-12.3 11.1-17.5 6.9-8 15.5-14.9 25.7-17.7 10.2-2.8 22-1 29.6 6.3 9.6-4.1 21.4-1.9 29.5 4.9q-1.4-2.2-3.2-4.2c-6.1-6.8-15.8-10.8-24.7-8.6-5-5.9-12.6-9.4-20.1-9.8-7.6-0.4-15.2 1.9-21.8 5.7-12.9 7.4-23 18.7-26.3 34.5q-1 5.2-1.1 10.5z"/>
								</g>
								<path id="&lt;Path&gt;" class="s39" d="m1123.4 297.8c7.9-2.1 15.6 1 17.1 6.8 1.5 5.8-3.8 12.2-11.7 14.2-8 2.1-15.7-1-17.2-6.8-1.5-5.8 3.8-12.2 11.8-14.2z"/>
							</g>
							<g id="&lt;Group&gt;">
								<g id="&lt;Group&gt;">
									<path id="&lt;Path&gt;" class="s54" d="m1085.4 306.8c1.1 0 1.9 1.4 1.9 3.1 0 1.6-0.8 3-1.9 3-1 0-1.9-1.4-1.9-3 0-1.7 0.9-3.1 1.9-3.1z"/>
									<path id="&lt;Path&gt;" class="s54" d="m1050.5 306.8c1.1 0 1.9 1.4 1.9 3.1 0 1.6-0.8 3-1.9 3-1 0-1.9-1.4-1.9-3 0-1.7 0.9-3.1 1.9-3.1z"/>
									<path id="&lt;Path&gt;" class="s55" d="m1056.1 291.4c-3.6-1.2-7.8-0.9-11.2 0.9"/>
									<path id="&lt;Path&gt;" class="s55" d="m1082.5 293c4-1.8 9-1.3 12.7 1.3"/>
									<path id="&lt;Path&gt;" class="s56" d="m1063.6 312.2c-0.3 1.9-0.3 6.6 0 8.5"/>
								</g>
								<path id="&lt;Path&gt;" class="s56" d="m1065.7 329.2c5.3 2.1 10.9 0.9 13.7-3.4"/>
							</g>
						</g>
					</g>
				</g>
			</g>
			<g id="&lt;Group&gt;">
				<g id="&lt;Group&gt;">
					<g id="&lt;Group&gt;">
						<path id="&lt;Path&gt;" class="s57" d="m903.9 261.9c16.1-29.9 47.9 10.3 47.9 10.3 0 0 31.8-34.4 47.8-12.1 16.6 23.2-47.8 77.1-47.8 77.1 0 0-61.5-49.8-47.9-75.3z"/>
					</g>
				</g>
				<g id="&lt;Group&gt;">
					<g id="&lt;Group&gt;">
						<path id="&lt;Path&gt;" class="s7" d="m694 310.3l-57.4 32.9c-10.9 6.2-24.8 2.4-31.1-8.5-3.1-5.4-3.7-11.6-2.2-17.3 1.5-5.6 5.2-10.6 10.7-13.8l57.4-32.8c10.9-6.3 24.8-2.5 31.1 8.4 3.1 5.5 3.7 11.7 2.2 17.3-1.6 5.6-5.2 10.7-10.7 13.8z"/>
						<path id="&lt;Path&gt;" class="s58" d="m694 310.3l-28.7 16.4-22.6-39.5 28.7-16.4c10.9-6.3 24.8-2.5 31.1 8.4 3.1 5.5 3.7 11.7 2.2 17.3-1.6 5.6-5.2 10.7-10.7 13.8z"/>
					</g>
				</g>
				<g id="&lt;Group&gt;">
					<g id="&lt;Group&gt;">
						<g id="&lt;Group&gt;">
							<path id="&lt;Path&gt;" class="s7" d="m882.1 131.8v50.3c0 12.2-6.2 23.7-16.6 30.5l-20.8 12.1-19-12.4c-11.4-6.5-18.4-18.6-18.4-31.5v-49l37.2-10.7 0.2 0.1z"/>
							<path id="&lt;Path&gt;" class="s7" d="m882.1 131.8v50.3c0 12.2-6.2 23.7-16.6 30.5l-20.8 12.1v-103.5z"/>
						</g>
						<g id="&lt;Group&gt;">
							<path id="&lt;Path&gt;" class="s59" d="m836.1 144.5h17.3v56.8h-17.3z"/>
							<path id="&lt;Path&gt;" class="s60" d="m873.1 164.3v17.3h-56.8v-17.3z"/>
						</g>
					</g>
				</g>
			</g>
		</g>
	</g>
</svg>